<svg xmlns="http://www.w3.org/2000/svg" viewBox="0 0 1920.27 452.32"><defs><style>.cls-1{fill:#8cae39;}.cls-2{fill:#63852d;}.cls-3{fill:#3f5824;}</style></defs><g id="Layer_2" data-name="Layer 2"><g id="Layer_10" data-name="Layer 10"><path class="cls-1" d="M1143.64,342.48c-2-1.64-5.28-9.12-11.41-12.44-1.27,14.55-9.47,16.88-7.73,20.13-1.78-12.08-8.62-21.56-17.59-23.06,2.88,6.74,5.64,20.17-2.41,22.7-11,2.48-20.78-12.41-19.54-25.76-8.09,5.23-16.28,15.8-11.5,27.89-8.88-6.8-19.71-14.76-21.4-30.61-7.11,6.67-18.29,17.3-11.56,30.41-3.84-7.88-7.7-14.41-10.49-23.53-2.17,7.86-9.31,15.78-5.51,24.91-7-1.27-10.33-9.6-12.14-18.7-4.07,3.94-4.2,34.55-.37,42.32h131.65Z"/></g><g id="bottom"><path class="cls-1" d="M1380.67,346.55c.12-.17,62,.86,90.12,1.46h0l245.9,5.28a92.88,92.88,0,0,0-.06-10.87c-19.26-31.83-45.91-70.07-60.85-68.18-3.44,9.72-23.71,31.76-33.82-8.75-16.8,15.16-7.44,25.32-9.74,34.57s-13.68-2.19-15.8-9.7a14.28,14.28,0,0,0-5.26,9.71c-3-8.29-8.64-14.32-15.62-15.51,2.86,6.75,5.57,20.19-2.49,22.69-11,2.44-20.73-12.48-19.45-25.83-8.11,5.2-16.34,15.74-11.6,27.84-8.85-6.82-19.65-14.82-21.29-30.68-7.13,6.64-18.35,17.23-11.67,30.37-3.81-7.89-7.65-14.45-10.41-23.57-2.19,7.85-9.36,15.74-5.59,24.89-7-1.29-10.3-9.63-12.07-18.74-2.77,2.65-10.74,5-14.44,8.59-6.93-6-17.14-9.94-28.61-14.92a154.91,154.91,0,0,0,2.87,16.92,111.89,111.89,0,0,0-26.67-20.38c.84,7.38,5.73,12.39,8.63,17.37-8-.17-14.92-4-21.81-9.06-2.21,9.77,6.78,10,9.68,14.93-17-1.59-32.84-8.07-47.68-15.75C1378,314.85,1382.9,339.13,1380.67,346.55Zm91.17-4.65.17-.55-.09.83A.63.63,0,0,1,1471.84,341.9Z"/><path class="cls-1" d="M382.09,331c-37.77,18-50-14.15-50.07-12.53a79.61,79.61,0,0,0-.3,14.28c-16-13.86-26.27-32-26.27-32-1.07,16.47-11.17,23.09-11.17,23.09-4.18-3.9-27.84-9.05-27.84-9.05.07.64.15,1.25.25,1.82,1.69,9.82,7.84,10.8,7.84,10.8-4.17-.09-12.12-2.44-20.38-5.32C243.9,316,231,308.56,215.4,298.46c16.13,15.45,7.63,21.6,8.17,27.07-7.81-5-16.26-9.88-23.56-14.36-4.65-3.8-9.24-7.85-13.91-12.14-.31.69-.57,1.38-.81,2.07a20.25,20.25,0,0,1-3.24-3.36c-.43,2.08.52,6.74,1.91,11.8.07,7,2.79,13.68,5.63,18.75-16.32-1.34-34.17-14.87-34.17-14.87-4.36,7.36,8.17,16.47,13.59,19.95-5.81-.65-12-1.37-18-2.08-5.95-1.68-12.48-3.8-18.94-6l-1-.63c0,.1.07.2.1.3-19-6.63-37.07-14.11-37.07-14.11,4.2,6.08,5.41,11.07,4.2,15.14-16.88-3-30.7-13.31-32.69-34.78-25.07,8.51-28.11,29.13-28.11,29.13l3.94,25.59,346.3,32.27C378.12,362.78,376,350.59,382.09,331Z"/><path class="cls-1" d="M1020.09,353.33C1004,334,1006,302,980,292v2a13.8,13.8,0,0,0-4-3c3,10,4,21,11,30-12-2-23-6-33-14-2,9,7,14,13,20-25-1-47-17-72-17,3,3,6,6,4,10-2,3-6,6-10.56,5.41a21.92,21.92,0,0,1-12.19-3.91c-7.75-5-14.25-14-16.25-22.5-14,13-13,35-30,45a32.83,32.83,0,0,1-13,4.42c-21.49,2.5-42.15-17.28-57.73-31.78-2.82-2.64-5.56-5.37-8.26-8.16s-5.37-5.61-8-8.44c-4,9,2,18,7,25a77.27,77.27,0,0,0-11-5.84C728,314,715,313,703,312c2,9,6,18,16,20-27-4-56-2-81-16,1,10,6,18,12,26a255.32,255.32,0,0,1-52.1-23.86c-4.25-2.39-8.6-4.87-13.15-7.64s-9.31-5.8-14.36-9.19c-5.87,19.81,5.08,34,13.38,41.44l-22.66-2.07c-13.72.19-13.9,19.43,10.19,25.19a67.19,67.19,0,0,0,17.45,1.59C627,367,664,372,703,367c11-1,23,0,33.84,1.85q7.44.87,14.86,1.69C777,372,801,379,826,376a126.87,126.87,0,0,0,13.28-2.24,191.58,191.58,0,0,1,40.13-12.91q6.81-1.43,13.67-2.41C909,357,924,355,940,354c24,0,48,2,72.14-.2C1016.9,353.53,1020.09,353.33,1020.09,353.33Z"/><path class="cls-1" d="M1391.8,307.5c-17-.25-33.37-5.46-48.77-11.95,1.4,8,7.83,11.37,11.44,17.69-20-1.89-39.81-9.41-58.64-19.9-3.14-2.28.77,13.47,2.26,22-15-.36-28.44-7-42.26-14.17a156.84,156.84,0,0,1-20.52-14.11c-2.15,6.49,5,14.67,5,14.67-4.82-3.62-29-5-29-5,.18.71.37,1.39.58,2,3.42,10.83,9.65,10.76,9.65,10.76-10.83,1.84-50.23-9.11-50.23-9.11,3.89,13.26,11.83,21.24,19.57,25.56-22.92-5.6-41.43-16.93-61.45-31.82-2.57,11.77,2.22,22.79,7.3,30.55-13.62-1.41-41.35-8.42-41.35-8.42,21.5,17.46,29.5,33.45,34.07,47.85,39.72-3.14,263.82-13.6,325.76-18.49Z"/><path class="cls-1" d="M620.83,405.48a89.78,89.78,0,0,0-.07-10.86c-19.59-31.84-46.69-70.09-61.88-68.21-3.5,9.72-24.09,31.75-34.38-8.76-17.08,15.15-7.56,25.31-9.9,34.57s-13.91-2.2-16.06-9.71c-5.12,4.12-7.31,11.33-3.42,17.32-1.78-12.08-8.69-21.59-17.81-23.13,2.91,6.75,5.67,20.19-2.52,22.69-11.24,2.44-21.09-12.49-19.78-25.84-8.25,5.21-16.61,15.74-11.79,27.84-9-6.83-20-14.83-21.65-30.68-7.25,6.63-18.65,17.22-11.86,30.36-3.87-7.9-7.78-14.45-10.58-23.58-2.24,7.85-9.52,15.74-5.68,24.9-7.07-1.3-10.48-9.64-12.28-18.75l-6.49,66.88Z"/><path class="cls-2" d="M.26,112.13c-1.35,71.59,22.13,233,72.65,212.39,21.84-6.94,32.43,9.58,58.47,19.77,21.48,8.41,38.21,8,54.64,7.64,26.21-.6,33.79-7.86,60.77-13.93,27.38-6.16,61.39-13.81,98.3,2.25,39,17,38.38,41.6,72.51,49.89s15.7-.42,73.27-23c55.6-21.83,67.08-27.49,92.94-34.49,44-11.92,51.25,22.81,106.72,16.18,19.87-2.38,26.41-6.82,46.73-5.84,33.09,1.59,45.65,14.83,67.4,20.67,52.56,14.1,56.35-42.53,126.89-43.15,24.89-.21,56.39-.49,84.51,27.87,4.67,4.71,10.44,11.41,19.92,16.63,19.5,10.74,36.44,5.15,57.7-3.15,55.8-21.79,52-27.35,70.72-30.11,24.95-3.68,28.8,6.59,68.17,12.13a271.08,271.08,0,0,0,74.81-.89c42.42-6.61,45.3-18.87,109-34.61,31.89-7.88,49.53-9.35,70.22-.9,20.25,8.27,22.47,17.49,41.1,27.42,40.84,21.76,78.53,3.26,95.24-4.95,44.74-22,42.72-62.11,80.85-77.87,44.53-18.41,51.67,18.75,81,.68,117.41-47.84,136-183.25,135.43-252.72V355.19L1588,406.32c-333.09,14-645.44,15.06-918.81-8.09-173.4,17-412.49,13.87-668.91,5.39Z"/><path class="cls-3" d="M0,203.78c.19,62,22.37,111.67,47.64,132.22,22.89,18.63,22-12.86,54.64,3.83,10.32,5.27,14.57,11.67,23,19.13,32.82,29.1,55.32,8.84,114.89-3.83,39.07-8.31,60.83-12.93,90.38-3.82,34.69,10.69,42,28.56,68.94,42.08,63,31.68,86.27-34.53,162.38-45.91,51.8-7.75,41.47,22.85,125.62,34.43,65.35,9,115.69,15.92,179.23-15.3,41.86-20.57,74.36-50.28,118-19.13,22.82,16.3,23.3,31.13,46,45.91,43.63,28.45,65.65-11.05,119.49-26.78,67-19.57,65.58,32,136.34,11.48,4.5-1.31-.16-.17,99.57-49.74,43.4-21.57,68.2-33.22,99.58-15.3,24.1,13.76,21,27.21,44.42,42.08,52.82,33.5,102.76-13.1,125.62-34.43,38.62-36,40.18-61.71,65.87-65,28-3.63,40.81,25,64.34,11.48C1805.13,256.05,1904.22,207,1920,116.21V452.32H0Z"/></g></g></svg>