<svg xmlns="http://www.w3.org/2000/svg" viewBox="0 0 299.54 168.57"><defs><style>.cls-1{fill:#88ac38;}.cls-2{fill:#7e9e2f;}.cls-3{fill:#8fac42;}.cls-4{opacity:0.8;}.cls-5{fill:#6b8a2d;}</style></defs><g id="Layer_2" data-name="Layer 2"><g id="Layer_1-2" data-name="Layer 1"><path class="cls-1" d="M151.69,19.28c4.08-2.36,8.14-4.1,11.52-4.38,6.6-.54,10.5-.72,14.62-2.34l.51-.28c.31-.19.61-.36.91-.51s.61-.36.91-.52l.9-.51c.31-.18.62-.36.91-.51s.61-.36.91-.52l.91-.51c.31-.18.61-.36.9-.51s.62-.36.91-.52c6.15-3.65,8.56-1.55,18.59-5C215-.65,217.14-.77,226.26,1.51s12.59,2.86,20.37,2.4c7-.41,17-.05,22.19,3.23s4.54,2.39,11.71,3.76,10.34,2.44,16.1,5.66,1.45,14.61.05,19.12-1.2,14.63-5.65,21.21c-2,3-3.63,9.68-6.06,15.18-2.88,6.53-6.51,11.92-7.59,14.59-2,4.92-8.67,14.79-15.17,21a29.15,29.15,0,0,1-6.4,4.56l-.91.52-.9.51-.91.51-.91.52-.91.51q-.45.27-.9.51l-.91.52-.91.51-.73.42a24.88,24.88,0,0,0-4.61,4.26c-5.42,6.41-8,10.91-16.4,15.43l-.91.51-.9.52-.91.51-.91.51-.91.51-.9.52-.91.51-.91.51c-1.42.81-3,1.62-4.82,2.44-.27.12-.54.27-.81.4-3.18,2-6.33,4.1-9.65,5.92l-.91.52-.91.51-.9.51-.91.52-.91.51-.91.51c-.3.17-.6.35-.9.51l-.91.52c-1.11.63-2.23,1.24-3.38,1.8-4.23,2.07-9.32,2.14-13.84,4.56-12.41,6.65-17.57,4.32-25.41,5.22-8.19.95-11.82,1.1-19.06,2.9s-20.28.19-23.91-5.81-8.88-7.69-12.47-12.47c-2.8-3.73-5.41-15.89-4.26-19.4,3.79-11.48,13.37-12.11,14.15-16.21,0,0,.77,1.91-10.31,2.23-9.32.27-20.36-8.28-18.36-18.52s.14-18.83,8.68-27.83c3.1-3.27,12.9-17.17,19.67-22.48A41.25,41.25,0,0,1,113.65,44l.6-.33.91-.51.91-.52.9-.51.91-.51.91-.52.91-.51.9-.51c1.64-.95,3.25-1.76,4.76-2.49a112.39,112.39,0,0,1,19.07-14.17l.91-.51.91-.51q.45-.27.9-.51l.91-.52.91-.51c.3-.18.6-.35.91-.51l.91-.52Z"/><path class="cls-2" d="M156.49,30.65c12.11-8.68,16.11-1,16.7-.29s4.47,2.27,8,0c4.11-2.59,7,1.54,9.5,1.09,5.9-1,3.42-13.77,9.39-13.26,5.69.48,9.65,2.95,11.33,1.33s6.82,1.21,8.72-1.46C223.1,14,232.39,8.32,237.1,6.93c3.84-1.13,13.42,8.73,13.42,8.73a6.85,6.85,0,0,0,5.68,2.73c3.53-.23,5.51-.33,8.24-2.58s11-3.51,13.43-1.16,3.46,4,5.94,6.32c2.74,2.57,7.47,2.2,7.47,2.2a3.07,3.07,0,0,1-.56,1c-2.85,6.37-7.43,19.12-13.08,23.7-5,4,6.37,12.35-5.67,18-8.83,4.16-12.46,2.95-13.63,5-1.31,2.35-1.83,5.77-1.78,9.28,0,3-4.51,4.71-7.31,10.48-3.67,7.57-4.57,11.26-10,12.94a36.33,36.33,0,0,0-11.47,5.25c-10.51,7.61-4.25,6.41-11.1,11.57s-3.78,5.58-4.65,10.17c-.54,2.81-7.07,1.49-12.77,4.28-3.57,1.75-5.52,7.44-9.48,9.56-10.28,5.5-3.93-16.68-16-9.6s-5.36,12.19-12.88,15.72-16.88,5.92-23.25,1.33-9.06-1.81-15.95-.9c-6.51.85-8.81-7.22-15.32-11.5s-1.83-23-1.83-23c.12-.47-8.65-3.78-9.24-7.54-1.06-6.81-4.79-10.52-4.25-20.39s3.33-15.33,12.65-22.27c4.12-3.06,2.7-7.63,7.31-3.92,4.34,3.48,3.42-5.46,8.82-5s4,4.06,9.43-1.24,5.07,1.11,10.18-8.58S144.39,39.32,156.49,30.65Z"/><path class="cls-3" d="M171.41,48.39c0,.34.09.68.13,1-.89-.44-2.66-11.76-2.78-11.76-1.43-4.43,0-9.2-.59-13.8,0,.45-.08.89-.14,1.33,0-.53-.21-1.19,0-1.72.22,1.16.36-.94.19-.95-.21,1.32-.08.19-.11-.21.26.63.25-1.35.37.44,0-.2.05-.4.07-.6a1.73,1.73,0,0,1,.17,1,.71.71,0,0,0,.3-.43c1.63,5.26-.86,11.41,1,17-.38-.29.35.57-.24-.38.36,2.2.51,9.35,2.2,10.68a6.27,6.27,0,0,1-.63-1.6C171.32,48.58,171.56,49.09,171.41,48.39Z"/><path class="cls-3" d="M157.67,49c0-.39-.06-.78-.07-1.18a3.13,3.13,0,0,1,.35,1.23c.1-.4.52,1.54.45,2.39,1.32-.34,1.61,11.41,3.26,12.17,1,4.2,1.62,8.86,3.53,12.94-.14-.49-.26-1-.36-1.48a6.07,6.07,0,0,1,.61,1.86c-.62-1.17,0,1.13.17,1.08-.29-1.52,0-.2.19.19-.48-.56.34,1.61-.51-.33.05.22.11.44.18.65a1.81,1.81,0,0,1-.56-1c0-.09-.1.67-.12.58-3.56-5.23-2.88-13.23-5.42-19q.13.36.06-.06c.08.16.16.32.23.48-.82-3-3.33-9.56-2.52-12.44a11.37,11.37,0,0,0,.53,1.92C157.75,48.81,157.51,48.21,157.67,49Z"/><path class="cls-3" d="M154.71,26c.55-.82,0-.29.32.19a73.49,73.49,0,0,1,1.35,7.25c-.68,1.31.21,8.47.45,9.49a7.16,7.16,0,0,1,.09-.92s-.15,1.84-.13,1.84c.18-.79.08-.23.11.15-.29-.48-.33.06-.43.11.08-.13-.29-1.18-.47-.41-1.48-3.5.91-8-.82-11.7-.2.24.6-.38.22.27-.26-1.54,0-6.56-1.05-7.41a5.8,5.8,0,0,1,.36,1.14C154.8,25.82,154.6,25.48,154.71,26Z"/><path class="cls-3" d="M155.77,123.11c-.21-.45-.39-.91-.56-1.37a3.9,3.9,0,0,1,.84,1.36c-.15-1.14,1.11,2.59,1.5,2.61,1,.05,6.08,11.43,6.8,11,4.61,4.59,7.8,10.42,14.47,13.23a12.86,12.86,0,0,1-1.57-1.08,7.51,7.51,0,0,1,2.1,1.24c-1.56-.61,1,1,1.12.76-1.73-1.07-.08-.14.32,0-.85-.13,1.87,1.13-.71.07l.75.42a12.91,12.91,0,0,0-1.56-.52s.56.57.59.59c-7.77-1.77-13.49-11.43-18.17-16.81.19.26.21.23,0-.09l.45.5c-2.36-3.44-7.25-9.86-7.72-14a12.26,12.26,0,0,0,1.32,2.12C155.75,122.85,155.27,122.19,155.77,123.11Z"/><path class="cls-3" d="M157.09,96.69c.45-.82,2.19,3.73,3.16,5.33,1.11,1.87,2.6,4.8,4.5,6.08-.4-1.07.44.38.66.52-.47,0-.21.33-.23.37s-.86-.31-.58.13c-2.62-.61-4.14-6.14-5.87-7.68,0,.07.37-.18.28.12-.67-1-1.64-5.42-2.4-5.72a3.39,3.39,0,0,1,.48.85C157.16,96.57,156.93,96.32,157.09,96.69Z"/><path class="cls-3" d="M205.81,71.83a6.53,6.53,0,0,1-.45-.82c.85,0,7,8.4,7.32,8.16,3.33,2.58,4.77,6.47,8.69,8.75a11.23,11.23,0,0,1-.86-.83s1.75,1.64,1.77,1.61c-.78-.85-.12-.19.22,0-.07.29-.25.3-.53.06l.38.37a1.31,1.31,0,0,1-.84-.42.65.65,0,0,0,.13.48c-4.79-1.59-7.16-8.11-11-10.91.12-.19,0,.28.38.16-1.67-1.77-4.26-7.11-6.22-7.81a9,9,0,0,1,1.06,1.17C205.79,71.66,205.39,71.33,205.81,71.83Z"/><path class="cls-3" d="M203.53,118.14s.68.9.21.63c-3.84-3.38-8.1-10.17-12.41-14.43a7.49,7.49,0,0,1,.46.89s-.94-1.76-1-1.74c.35.83.06.23-.19-.06.55.26.23-.22.29-.34,0,.17,1,.86.65.09,3.37,2.08,4.38,7.41,8,9.74.08-.13-.24.37-.34-.11,1.24,1.25,3.8,6,5.27,6.19a5.17,5.17,0,0,1-.95-.86C203.53,118.31,203.89,118.53,203.53,118.14Z"/><path class="cls-3" d="M204.12,96.24c-.27-.44-.52-.89-.76-1.35a4.37,4.37,0,0,1,1,1.32c-.33-1.16,1.47,2.53,1.89,2.51.77,0,8.09,10.84,8.59,10.4,5.2,4.66,9.65,9.16,16.73,11.87-.59-.3-1.17-.62-1.75-1a9.53,9.53,0,0,1,2.34,1.07c-1.7-.46,1.17.89,1.24.72-1.9-1-.08-.13.34,0-.89-.1,2.05,1.1-.74.1l.81.4a11,11,0,0,0-1.65-.47s.6.55.65.57c-8.52-1.62-15.05-9.58-21-15.14.24.25.25.22,0-.09l.53.46c-2.95-3.35-8.83-9.13-9.93-13.48.13.51,1.29,1.58,1.63,2C204.06,96,203.48,95.35,204.12,96.24Z"/><path class="cls-3" d="M254,85.47l1.62.6c-1.82-.32-2.95-1.22-4.55-1.85-.25-.09-2.26-1.44-.86-.49-2.72-1.86-9.72-4-11-4.4-4.93-2.44-10.74-7.24-16.13-11.59a116.36,116.36,0,0,0,14.63,8.87c4.36,2.52,8.9,5.35,13.8,6.55.48.06,9,2.64,8.9,3.13.82.4,2.6,1.32,1,.88a13.69,13.69,0,0,0,1.95,1s.49.3.54.32c-.21-.12-.39-.29-.6-.42.2.15.41.3.63.44-.21-.11-.4-.25-.6-.37s.41.29.57.36-.22,0-.15,0a16.07,16.07,0,0,1-1.83-.64c.18.07.27-.08.43.17-.4-.11-.52-.15-.36-.13a8.79,8.79,0,0,1-1.93-.76l1,.45a12.5,12.5,0,0,1-2.61-1c.06.19.16.28.29.24S254,85.53,254,85.47Z"/><g class="cls-4"><path class="cls-3" d="M247,31.51c.13-.66,0-.2-.26,1.36-.08-1.16,1.29-5.06,1.09-4.63,1.06-2.31,1.65-8.84,1.79-9.57,1.69-3.86,6.6-9,8.44-14-1.35,4.56-4.59,8.41-6,12.67-1.8,3.69-3.32,7.75-3.34,11.87,0,.44-.9,7.75-1.55,7.65-.28.61-1.22,2.21-.78.81a10.66,10.66,0,0,0-1.07,1.77c-.07-.07-.12,0-.15.19.12-.17.28-.29.4-.45a6.14,6.14,0,0,0-.42.47c.08-.11.13-.21.22-.32a.42.42,0,0,0,.16-.19,3.7,3.7,0,0,0-.37.49c.22-.36.38-1.35.62-1.59-.06.14.09.23-.16.34a5.34,5.34,0,0,1,.75-1.85c-.11.27-.23.53-.36.79a12.68,12.68,0,0,1,.79-2.15c-.18.06-.25.14-.2.25A38.68,38.68,0,0,0,247,31.51Z"/></g><path class="cls-3" d="M231.35,20a7.93,7.93,0,0,1,.23-1c.52.57-.89,12-.68,12,.54,4.57-1.61,8.92-1.29,13.62.06-.44.13-.87.22-1.31-.06.53.14,1.19-.12,1.69-.15-1.15-.41.92-.24.92.28-1.25.07-.21.11.22-.26-.63-.27,1.32-.36-.44a4,4,0,0,0-.07.59,1.46,1.46,0,0,1-.14-1,.77.77,0,0,0-.33.42c-1.33-5.25,2-11.51,1.39-17,.3.43-.25-.71.14.43.14-2.51,2.21-8.81,1.13-10.88a9,9,0,0,1,0,1.72C231.47,19.79,231.4,19.24,231.35,20Z"/><path class="cls-3" d="M208.23,18.53s.36-1.15.37-.59c-.69,5.55-3.75,13.24-2.47,20.26,0-.37,0-.73.05-1.09,0,0-.08,2.18-.11,2.18.19-1.09.07-.13.08.18-.24-.62-.41.13-.35.13s-.13-.83-.16-.92l-.22.44c-1.5-4.11.61-9.69.6-13.81-.16,0,.44-.06.09.37.37-2.25,2.89-6.54,2.38-8.5a12.84,12.84,0,0,1-.26,1.35C208.35,18.42,208.34,18,208.23,18.53Z"/><path class="cls-3" d="M249.74,60.94a8,8,0,0,1-.84-.6c.71-.23,11,5.43,11,5.41,4.4,1.58,7.6,5,12.23,6.49-.4-.22-.78-.45-1.16-.7.48.25,1.18.32,1.57.76-1.16-.31.7.72.77.57-1.1-.78-.1-.16.25,0-.68-.05,1.1.84-.56.14l.51.33a1.86,1.86,0,0,1-1-.3.71.71,0,0,0,.27.45c-5.47-.77-10.16-6.21-15.33-8,.44-.12-.64-.06.45.06-2.31-1.26-7.28-5.35-9.72-5.33.54.21,1.08.45,1.6.71C249.64,60.77,249.07,60.66,249.74,60.94Z"/><path class="cls-3" d="M246.93,55c0-.89,8.41,4.29,10.89,4.33-.7-.66.45.11.7.14-2.36,1.18-4.19-1.81-8.14-2,.17.2-.22-.48.26-.08a27.17,27.17,0,0,1-4.25-2.44c-.24-.46-.06-.45.54,0C246.92,54.81,246.63,54.78,246.93,55Z"/><path class="cls-3" d="M182.44,36.18c.2-.61-.36,4.58-.41,5.45-.11,2.07-.55,4.79-.08,6.82.39-1.05,0,.61.07.76-.21-.28-.26-.13-.38.07.06-.07-.28-.75-.41-.3-.81-1.51.46-8,.52-8.25.13-1,.9-6.4.69-4.55C182.47,36.1,182.48,35.82,182.44,36.18Z"/><path class="cls-3" d="M262.78,34.35c-.88.1,3.71-8.69,3.58-11.16-.6.74.09-.46.1-.71.34,2.32-2.93,11-3.66,12.41-.44.27-.44.08,0-.54C262.65,34.37,262.64,34.66,262.78,34.35Z"/><path class="cls-3" d="M111.29,72.4s-.29-1.24,0-.73c1.9,4.6,6.54,13.41,10.94,18-.19-.31-.37-.64-.53-1,0,0,1.08,1.92,1.11,1.9-.42-.94-.06-.22.2.08-.51-.26-.27,0-.28.35a1.17,1.17,0,0,1-.64-.58.66.66,0,0,0,0,.46C118.5,88.47,117,82.4,114,79.31c0,.07.51,0,.34.21-1.36-2-2-7.23-3.55-8.47a11.17,11.17,0,0,1,.54,1.35C111.36,72.23,111.06,71.84,111.29,72.4Z"/><path class="cls-3" d="M122.71,123.66c.06-.49.12-1,.21-1.46a4.13,4.13,0,0,1,0,1.6c.44-1.07-.33,2.8,0,3,.82.53-.42,12.93.44,12.88,1.71,6.28,1.57,12.91,5.95,18.68a14.1,14.1,0,0,1-.82-1.71,7.41,7.41,0,0,1,1.21,2.11c-1.05-1.3.39,1.36.59,1.22-1-1.79,0-.16.26.18-.67-.53,1.06,1.92-.65-.28l.44.73a12.52,12.52,0,0,0-1.09-1.22s.2.77.22.8c-5.86-5.41-6-16.63-7.38-23.63,0,.32.06.3.07-.06,0,.22.1.43.14.65-.33-4.15-1.37-12.16.29-16a12.41,12.41,0,0,0,.08,2.49C122.83,123.43,122.74,122.62,122.71,123.66Z"/><path class="cls-5" d="M295,21.26q-8.84,4.5-17.81,8.69t-18.08,8.1c-12.08,5.32-24.25,10.48-36.28,16q-9,4.14-17.88,8.7c-3,1.49-5.87,3.1-8.79,4.67s-5.81,3.15-8.72,4.67q-8.74,4.52-17.67,8.81l-17.87,8.53q-9,4.28-17.85,8.71c-5.93,3.1-11.71,6.16-17.59,9.17-11.73,6-23.57,11.78-35.62,17a263.19,263.19,0,0,1-37,13.1,153,153,0,0,1-19.11,3.88c-6.42.83-14.18,1.37-18.88.9-1.36-.14-2.34-.49-3.23-.54a2.84,2.84,0,0,0-1.93,1.39A4,4,0,0,0,0,144.53a2.2,2.2,0,0,0,.64,1.23c.83.76,3.32.69,4.45.83,6.72.87,13.54.16,20.22-.65a158.24,158.24,0,0,0,19.74-3.85,266.49,266.49,0,0,0,37.67-13.34c12.22-5.25,24.11-11.18,35.83-17.33,5.85-3.06,11.73-6.23,17.48-9.31s11.76-5.94,17.69-8.84c11.86-5.82,23.71-11.7,35.39-18.06,2.92-1.59,5.75-3.22,8.67-4.86s5.71-3.25,8.62-4.79c5.77-3.15,11.66-6.1,17.57-9,11.81-5.86,23.83-11.36,35.77-17q8.94-4.27,17.78-8.78T295,21.26Z"/><path class="cls-5" d="M256,40.11l.63-.94c.19-.31.45-.66.69-1.1s.55-.94.84-1.49.62-1.15.91-1.79.62-1.34.91-2.06c.6-1.44,1.17-3,1.79-4.5.32-.75.62-1.49,1-2.19s.73-1.36,1.08-2,.69-1.27,1-1.85.69-1.12,1-1.64.64-1,.91-1.38.52-.77.72-1.07c.41-.6.62-1,.62-1L268,17s-.37.19-1,.59a10.07,10.07,0,0,0-1.09.78,14.39,14.39,0,0,0-1.31,1.16,13.53,13.53,0,0,0-1.38,1.56A12.6,12.6,0,0,0,261.9,23a17.12,17.12,0,0,0-1,2.28c-.28.79-.52,1.59-.77,2.39-.48,1.6-.89,3.18-1.35,4.65-.21.73-.46,1.43-.68,2.09s-.46,1.28-.67,1.86-.45,1.08-.64,1.54-.4.85-.55,1.18c-.3.65-.48,1-.48,1Z"/><path class="cls-5" d="M236.77,48.91l.68-1.55c.23-.49.45-1.11.71-1.83s.55-1.52.81-2.42.55-1.86.82-2.9.51-2.13.77-3.27c.48-2.27,1-4.69,1.49-7.11.29-1.2.53-2.4.86-3.56s.61-2.3.92-3.4.61-2.14.89-3.14.58-1.93.92-2.76l.45-1.23c.16-.38.32-.74.47-1.07.29-.68.53-1.29.79-1.76.49-.95.75-1.53.75-1.53l-.16-.13s-.45.43-1.2,1.25a10.74,10.74,0,0,0-1.25,1.57c-.22.31-.46.65-.7,1s-.44.77-.67,1.19a23.45,23.45,0,0,0-1.3,2.79,28.43,28.43,0,0,0-1.08,3.23c-.28,1.15-.56,2.34-.74,3.56s-.39,2.44-.59,3.67c-.35,2.45-.7,4.9-1,7.19s-.7,4.41-1.11,6.21c-.19.9-.39,1.72-.6,2.44s-.36,1.35-.55,1.86l-.55,1.61Z"/><path class="cls-5" d="M221.49,55.66s.38-2.64,1-6.6,1.32-9.23,2.42-14.41c.3-1.28.57-2.58.93-3.83s.67-2.48,1-3.66c.67-2.37,1.27-4.59,1.89-6.46l.43-1.35c.15-.42.29-.82.43-1.2.26-.76.48-1.44.69-2,.42-1.08.64-1.73.64-1.73l-.18-.1s-.42.53-1.11,1.49a19.52,19.52,0,0,0-1.15,1.81,23.73,23.73,0,0,0-1.3,2.45,31.65,31.65,0,0,0-1.29,3c-.43,1.09-.79,2.26-1.14,3.48s-.61,2.5-.83,3.81-.45,2.64-.66,4C222.43,39.67,222,45,221.72,49s-.44,6.66-.44,6.66Z"/><path class="cls-5" d="M207.47,62.26s.18-.8.51-2.19c.17-.7.36-1.55.53-2.54s.41-2.1.58-3.32c.4-2.43.74-5.29,1-8.35s.59-6.32,1-9.55c.24-1.61.44-3.23.77-4.78s.66-3.08,1-4.55.71-2.87,1.15-4.17c.2-.66.38-1.31.6-1.92s.44-1.2.65-1.76c.38-1.15.87-2.15,1.24-3.06s.75-1.69,1.07-2.33c.64-1.28,1-2,1-2l-.17-.12s-.53.62-1.42,1.77l-.75,1c-.25.36-.49.77-.77,1.19a28.83,28.83,0,0,0-1.7,3c-.28.56-.57,1.15-.86,1.76s-.51,1.28-.77,1.95a34.19,34.19,0,0,0-1.35,4.32c-.29,1.53-.65,3.11-.81,4.74s-.35,3.27-.5,4.91c-.25,3.29-.39,6.57-.54,9.64s-.31,5.92-.55,8.35c-.1,1.23-.25,2.33-.37,3.32s-.24,1.85-.37,2.56c-.23,1.41-.37,2.22-.37,2.22Z"/><path class="cls-5" d="M192.63,70.65s.09-1,.25-2.61c.08-.83.19-1.83.23-3s.16-2.48.15-3.9,0-3,0-4.63-.11-3.37-.2-5.15-.2-3.63-.3-5.5-.18-3.76-.24-5.65,0-3.77.09-5.61.3-3.64.49-5.38.48-3.39.86-4.94a44,44,0,0,1,1.12-4.37c.34-1.37.89-2.54,1.25-3.63s.78-2,1.11-2.76c.67-1.52,1-2.42,1-2.42l-.18-.11s-.56.78-1.49,2.18L196,14.33c-.29.43-.51.93-.8,1.44l-.86,1.67c-.15.3-.31.6-.45.91l-.39,1-.83,2.12c-.28.73-.45,1.53-.69,2.33A40.72,40.72,0,0,0,190.93,29a51.34,51.34,0,0,0-.28,5.6c0,1.9.1,3.82.2,5.73s.28,3.82.47,5.69.35,3.7.52,5.47.31,3.49.42,5.12.2,3.16.27,4.58,0,2.72.06,3.88,0,2.17-.06,3c-.06,1.66-.1,2.61-.1,2.61Z"/><path class="cls-5" d="M182.91,75.32s-.54-3.6-1.49-9-2.25-12.53-3.07-19.73c-.19-1.8-.39-3.59-.48-5.37s-.19-3.52-.28-5.2-.15-3.31-.17-4.85,0-3,0-4.35c0-.68,0-1.32,0-1.94s.09-1.2.12-1.74c.07-1.1.11-2.06.22-2.85.19-1.57.25-2.49.25-2.49l-.2-.05s-.3.86-.77,2.4a21.87,21.87,0,0,0-.7,2.82c-.12.55-.24,1.14-.36,1.76s-.17,1.28-.25,2-.2,1.4-.24,2.14-.08,1.52-.13,2.31-.05,1.6,0,2.43,0,1.68,0,2.54c.14,1.72.24,3.5.5,5.29s.49,3.6.77,5.41c1.16,7.22,2.76,14.33,4,19.64s2,8.88,2,8.88Z"/><path class="cls-5" d="M173.89,81.49,173,79.11c-.3-.76-.66-1.67-1.07-2.73s-.83-2.26-1.26-3.57-.9-2.75-1.4-4.26-.91-3.13-1.39-4.8c-.24-.84-.48-1.68-.72-2.54s-.43-1.74-.65-2.63q-.65-2.65-1.29-5.36c-.35-1.81-.7-3.63-1.05-5.41s-.64-3.55-.9-5.26-.63-3.34-.92-4.9-.49-3-.74-4.41-.5-2.62-.63-3.73-.32-2.09-.46-2.89c-.26-1.61-.45-2.53-.45-2.53h-.21s0,.93-.07,2.56c0,.82,0,1.82,0,3s.07,2.42.19,3.82.24,2.91.4,4.5.51,3.26.78,5,.65,3.5,1.13,5.28l1.34,5.4L165.08,59c.26.88.49,1.76.77,2.62s.56,1.69.84,2.52c.56,1.66,1.05,3.27,1.61,4.77s1.14,2.9,1.65,4.2,1,2.5,1.47,3.52l1.22,2.66,1.06,2.32Z"/><path class="cls-5" d="M162.82,84.25s-1.36-3-3.46-7.51l-1.66-3.63c-.56-1.31-1.21-2.65-1.79-4.08s-1.19-2.9-1.75-4.41c-.31-.75-.54-1.53-.81-2.3s-.53-1.54-.74-2.33-.46-1.57-.65-2.36-.36-1.57-.53-2.35-.26-1.57-.42-2.34-.28-1.53-.34-2.28-.18-1.49-.29-2.21-.1-1.44-.17-2.13c-.16-1.38-.13-2.7-.17-3.92s.07-2.33.07-3.33.11-1.86.17-2.58c.14-1.43.18-2.27.18-2.27l-.2,0s-.28.78-.7,2.19l-.36,1.16c-.13.43-.19.9-.3,1.4s-.19,1-.29,1.61c-.06.28-.11.57-.16.87s0,.61-.08.92a31.27,31.27,0,0,0-.18,4.09c0,.72,0,1.47.07,2.23s.17,1.53.26,2.32.27,1.57.44,2.37.32,1.6.57,2.39l.69,2.4c.25.8.54,1.59.81,2.38s.55,1.58.87,2.35.58,1.55.92,2.3c.65,1.5,1.31,3,2,4.37,1.34,2.82,2.72,5.37,3.9,7.55,2.38,4.35,3.92,7.28,3.92,7.28Z"/><path class="cls-5" d="M152.48,92.1l-.9-2.14c-.57-1.37-1.38-3.31-2.3-5.67s-2-5.11-3-8.08-2.11-6.16-3.06-9.38c-.44-1.62-.92-3.23-1.28-4.84s-.74-3.18-1.08-4.71c-.69-3.05-1.33-5.9-1.77-8.37-.11-.62-.22-1.21-.33-1.78s-.17-1.1-.25-1.6c-.17-1-.32-1.89-.41-2.62-.19-1.46-.34-2.31-.34-2.31h-.21s-.09.85-.19,2.34c-.07.75-.07,1.65-.07,2.69s0,2.22.15,3.49.26,2.66.45,4.11.51,3,.85,4.53.8,3.16,1.32,4.75,1,3.21,1.57,4.82c1.11,3.21,2.31,6.38,3.52,9.32.62,1.46,1.2,2.88,1.8,4.21s1.15,2.58,1.7,3.72c1.07,2.3,2,4.2,2.65,5.53s1,2.08,1,2.08Z"/><path class="cls-5" d="M141.6,95.45s-1.39-3.11-3.61-7.71-5.25-10.69-7.89-16.93c-.65-1.56-1.28-3.13-1.85-4.69s-1.13-3.09-1.6-4.59-1-2.94-1.43-4.3c-.22-.69-.38-1.36-.57-2s-.4-1.28-.51-1.89c-.24-1.22-.59-2.34-.7-3.35-.08-.51-.15-1-.22-1.42a8.22,8.22,0,0,1-.17-1.2c-.1-1.47-.2-2.33-.2-2.33l-.21,0s-.14.84-.32,2.35a19.06,19.06,0,0,0-.09,2.73,29.84,29.84,0,0,0,.27,3.55c.16,1.29.46,2.66.77,4.12s.76,3,1.32,4.48,1.16,3.07,1.85,4.61,1.4,3.1,2.14,4.65c1.48,3.08,3.06,6.11,4.56,8.93s3,5.42,4.2,7.65c2.5,4.45,4.07,7.47,4.07,7.46Z"/><path class="cls-5" d="M133.07,99.07s-1.48-2.81-3.77-7-5.39-9.7-8.24-15.34c-.69-1.42-1.4-2.83-2-4.24s-1.28-2.8-1.89-4.14-1.21-2.63-1.78-3.85c-.27-.62-.54-1.22-.79-1.8s-.52-1.14-.73-1.68c-.45-1.09-.9-2.07-1.22-3s-.69-1.67-.89-2.32c-.44-1.31-.73-2.06-.73-2.06l-.21,0s.06.79.22,2.19a23,23,0,0,0,.44,2.5,32.63,32.63,0,0,0,.82,3.18c.3,1.17.77,2.38,1.23,3.69s1,2.63,1.67,4,1.33,2.74,2.11,4.1,1.53,2.77,2.31,4.16c3.16,5.52,6.51,10.92,9.08,14.92s4.22,6.71,4.22,6.71Z"/><path class="cls-5" d="M128.06,101.87s-2-2.14-5.06-5.36L117.85,91c-1.88-2-3.81-4.24-5.7-6.48-.92-1.14-1.86-2.27-2.71-3.43s-1.71-2.29-2.53-3.38-1.6-2.15-2.34-3.16-1.44-2-2-2.87l-.9-1.29-.77-1.19c-.49-.75-.93-1.39-1.26-2-.66-1.1-1.08-1.72-1.08-1.72l-.19.08s.2.72.61,2a19.7,19.7,0,0,0,.84,2.2,28.15,28.15,0,0,0,1.32,2.77c.5,1,1.12,2,1.8,3.14s1.46,2.2,2.27,3.34,1.76,2.23,2.75,3.31,2,2.2,3,3.29c4,4.34,8.31,8.44,11.58,11.42l5.43,5Z"/><path class="cls-5" d="M125.26,106.45,124,105.06c-.38-.46-.93-1-1.51-1.54s-1.29-1.21-2.05-1.9c-1.54-1.35-3.4-2.86-5.47-4.36s-4.28-3.08-6.5-4.64-4.36-3.21-6.4-4.69-4-2.8-5.61-4c-.82-.59-1.56-1.14-2.21-1.64S93,81.38,92.56,81c-.93-.74-1.5-1.14-1.5-1.14l-.15.15s.39.56,1.13,1.51l.62.79.79.87c.56.62,1.2,1.32,2,2l1.17,1.1,1.32,1.11c.89.78,1.89,1.51,2.92,2.27s2.16,1.47,3.3,2.17L107.57,94c2.3,1.45,4.61,2.87,6.73,4.26,1.07.68,2.07,1.38,3,2s1.85,1.29,2.66,1.9,1.55,1.17,2.16,1.72,1.19,1,1.6,1.4l1.35,1.3Z"/><path class="cls-5" d="M119,108.14l-4.92-1.63-5-1.7c-1.84-.59-3.76-1.35-5.69-2.07l-2.82-1.2c-.93-.39-1.8-.86-2.68-1.24s-1.75-.7-2.54-1.07-1.55-.7-2.26-1l-1-.42c-.31-.15-.6-.3-.89-.43-.57-.27-1.07-.49-1.49-.67-.84-.36-1.35-.54-1.35-.54l-.12.18s.37.37,1.06,1c.34.31.77.67,1.27,1.08a12.19,12.19,0,0,0,1.75,1.27c.66.43,1.39.88,2.18,1.34A22.4,22.4,0,0,0,97,102.29a27.33,27.33,0,0,0,2.84,1.07l3,1c2,.58,4,1.19,5.89,1.65s3.66.91,5.18,1.25l5.06,1.12Z"/><path class="cls-5" d="M120.61,110.22l-.65,1.7c-.4,1.09-1,2.65-1.59,4.54s-1.33,4.1-2,6.51c-.31,1.21-.63,2.46-.91,3.74s-.53,2.59-.79,3.89-.47,2.64-.63,4-.29,2.6-.37,3.86a33.53,33.53,0,0,0,.06,3.64,30.08,30.08,0,0,0,.4,3.25,20.59,20.59,0,0,0,.6,2.7,15.26,15.26,0,0,0,.68,2c.44,1.1.73,1.7.73,1.7l.2-.07s-.06-.67-.22-1.81c-.09-.56-.11-1.27-.19-2.06s-.1-1.68-.15-2.65,0-2,0-3.14,0-2.28.1-3.5.08-2.47.15-3.75.21-2.58.33-3.89.33-2.6.55-3.87.44-2.53.68-3.74c.5-2.41,1-4.66,1.47-6.58s.92-3.51,1.24-4.62l.5-1.75Z"/><path class="cls-5" d="M126,106.05l-.41,2.24c-.16.71-.2,1.6-.32,2.61s-.14,2.16-.21,3.41,0,2.6,0,4,.13,3,.31,4.5c.08.78.15,1.57.23,2.37s.21,1.6.32,2.42c.2,1.63.51,3.27.77,4.92s.6,3.28.94,4.89.71,3.18,1.09,4.7.86,2.95,1.31,4.31.92,2.63,1.4,3.79.9,2.23,1.34,3.15.79,1.73,1.15,2.37c.67,1.3,1.09,2,1.09,2l.19-.08s-.2-.82-.6-2.21-.93-3.39-1.59-5.79-1.39-5.16-2.2-8.15c-.43-1.48-.85-3-1.28-4.58s-.81-3.16-1.2-4.76-.72-3.22-1-4.82c-.15-.8-.29-1.59-.43-2.37s-.23-1.57-.34-2.33c-.25-1.53-.34-3-.53-4.42s-.22-2.75-.25-4-.08-2.38,0-3.37,0-1.88.16-2.6c.17-1.44.27-2.26.27-2.26Z"/><path class="cls-5" d="M134.76,101.67s0,.83-.15,2.28c0,.72-.14,1.59-.14,2.61s0,2.16-.05,3.41.09,2.6.13,4,.25,2.93.42,4.48.41,3.17.75,4.78c.16.8.3,1.62.47,2.44s.39,1.63.58,2.44c.4,1.63.86,3.24,1.34,4.82.26.78.51,1.57.76,2.33l.86,2.25c.29.73.61,1.43.94,2.12s.63,1.36,1,2,.69,1.25,1,1.85.7,1.14,1,1.67c.65,1.09,1.35,2,1.93,2.85s1.18,1.5,1.65,2.07c1,1.1,1.54,1.7,1.54,1.7l.17-.12s-.39-.75-1.11-2c-.32-.65-.75-1.42-1.21-2.3s-1-1.89-1.51-3-1.1-2.31-1.68-3.59-1.17-2.64-1.74-4.06c-.3-.7-.61-1.42-.91-2.15s-.58-1.48-.87-2.23-.56-1.52-.82-2.29-.55-1.54-.76-2.33-.45-1.58-.68-2.36-.38-1.59-.58-2.38c-.41-1.56-.64-3.14-1-4.65s-.43-3-.64-4.4-.26-2.75-.38-4-.12-2.36-.16-3.37,0-1.89,0-2.61c0-1.45,0-2.28,0-2.28Z"/><path class="cls-5" d="M143.94,96.48s.08.83.24,2.26.38,3.5.7,6c.15,1.23.34,2.56.55,4s.49,2.88.76,4.42.61,3.11,1,4.69.81,3.21,1.25,4.81,1,3.2,1.53,4.75,1.18,3,1.77,4.5,1.35,2.79,2.13,4c.38.61.74,1.22,1.09,1.8l1.12,1.6a33,33,0,0,0,2.09,2.72l.91,1.1.84.87c1,1.06,1.6,1.64,1.6,1.64l.16-.14s-.41-.72-1.18-1.94c-.39-.61-.84-1.36-1.34-2.23s-1.09-1.82-1.67-2.91l-.92-1.66-.93-1.82c-.66-1.23-1.24-2.59-1.92-3.95s-1.32-2.81-1.93-4.29-1.19-3-1.76-4.55-1-3.11-1.45-4.67-.83-3.09-1.22-4.59c-.69-3-1.31-5.82-1.77-8.25s-.83-4.46-1.07-5.89-.39-2.24-.39-2.24Z"/><path class="cls-5" d="M153.66,91.67l.19,2.46c.05.78.12,1.73.27,2.81s.26,2.32.52,3.65.48,2.77.85,4.27.81,3.08,1.28,4.7c.25.81.56,1.62.84,2.44s.58,1.65.93,2.47c.64,1.67,1.41,3.3,2.17,4.94s1.62,3.24,2.51,4.78,1.81,3,2.7,4.47,1.91,2.74,2.89,3.93l1.41,1.77,1.37,1.59c.87,1,1.73,1.93,2.47,2.73s1.42,1.48,2,2c1.12,1.1,1.78,1.71,1.78,1.71l.16-.14s-.48-.76-1.38-2.05-2.18-3.12-3.72-5.3l-2.46-3.53-2.72-4c-.91-1.38-1.9-2.79-2.82-4.27s-1.82-3-2.71-4.53-1.64-3.14-2.33-4.74c-.37-.79-.72-1.58-1-2.38s-.65-1.57-.92-2.36c-.54-1.57-1.08-3.09-1.48-4.56s-.79-2.86-1.08-4.16-.52-2.51-.72-3.58-.35-2-.44-2.78l-.33-2.44Z"/><path class="cls-5" d="M163.08,88.26s.41.93,1.11,2.55,1.66,4,2.78,6.79,2.39,6.14,3.78,9.68c.71,1.76,1.42,3.6,2.22,5.43s1.6,3.71,2.45,5.56,1.74,3.7,2.72,5.46,2,3.48,3,5.12c.54.8,1.13,1.54,1.67,2.3l.82,1.1c.29.36.59.69.88,1l1.7,1.94c.58.6,1.18,1.15,1.73,1.69a31.74,31.74,0,0,0,3.18,2.74l1.38,1.08,1.25.81c1.51,1,2.38,1.48,2.38,1.49l.12-.18s-.74-.71-2-1.89l-1.07-1-1.2-1.24-1.36-1.38c-.48-.48-.92-1.06-1.43-1.61s-1-1.14-1.53-1.76-1-1.3-1.53-2-1.06-1.38-1.56-2.12-1.07-1.47-1.58-2.26c-1-1.56-2.11-3.16-3.11-4.86s-2-3.47-2.93-5.23-1.81-3.6-2.63-5.41-1.64-3.59-2.42-5.32c-1.52-3.48-3-6.72-4.22-9.49s-2.33-5.07-3.13-6.65l-1.24-2.5Z"/><path class="cls-5" d="M175.24,81.81s.24.94.65,2.59c.21.82.43,1.82.82,2.95s.73,2.43,1.27,3.79c.27.68.55,1.39.83,2.13.15.36.3.74.44,1.12s.35.74.52,1.12l1.1,2.34c.37.8.83,1.58,1.26,2.39.84,1.63,1.87,3.23,2.87,4.87.5.82,1.07,1.61,1.62,2.42s1.1,1.61,1.7,2.39,1.16,1.58,1.76,2.34l1.83,2.27c1.23,1.49,2.49,2.91,3.75,4.24s2.55,2.56,3.81,3.67,2.47,2.14,3.6,3.07,2.2,1.75,3.16,2.45,1.8,1.31,2.51,1.78c1.4,1,2.23,1.49,2.23,1.49l.13-.16s-.67-.71-1.9-1.89c-.6-.6-1.33-1.34-2.18-2.15l-2.84-2.76c-1-1-2.16-2.11-3.32-3.29-.57-.6-1.18-1.2-1.8-1.8l-1.84-1.92c-.65-.62-1.27-1.29-1.91-2s-1.31-1.33-1.93-2l-1.9-2.13c-.63-.73-1.23-1.48-1.84-2.22s-1.2-1.5-1.76-2.27-1.16-1.53-1.69-2.31c-1.05-1.58-2.12-3.11-3-4.68-.45-.78-.94-1.53-1.34-2.3l-1.18-2.25c-.19-.37-.39-.73-.57-1.09l-.5-1.08-.93-2c-.61-1.32-1-2.58-1.46-3.67s-.72-2.09-1-2.9l-.79-2.55Z"/><path class="cls-5" d="M216.55,115.16l-1.63-1.42c-.51-.46-1.14-1-1.86-1.64l-1.14-1-1.17-1.21-2.62-2.71c-.95-1-1.8-2.09-2.76-3.18s-2-2.24-2.82-3.51l-2.73-3.76-2.44-3.94c-.83-1.28-1.53-2.62-2.22-3.89s-1.48-2.46-2.1-3.63S191.84,83,191.27,82c-.29-.5-.56-1-.83-1.46l-.66-1.36c-.43-.85-.81-1.59-1.14-2.19-.64-1.22-1-1.91-1-1.91l-.2.07s.18.77.56,2.1c.18.67.41,1.48.69,2.4.15.47.3,1,.47,1.47s.41,1,.64,1.58c.44,1.1,1,2.29,1.5,3.54s1.3,2.48,2,3.79a38.46,38.46,0,0,0,2.46,3.86c.9,1.28,1.82,2.57,2.74,3.86l3,3.68c.94,1.24,2,2.33,3,3.42l1.49,1.59a17.22,17.22,0,0,0,1.48,1.48l2.84,2.57,1.26,1.13,1.21.93,2,1.51,1.71,1.31Z"/><path class="cls-5" d="M239.79,109.92l-2.33-1.1c-.75-.33-1.62-.81-2.61-1.36l-1.59-.86-1.71-1.06c-1.2-.7-2.45-1.57-3.76-2.48s-2.65-1.94-4-3-2.75-2.23-4.09-3.48-2.67-2.54-4-3.84S213.12,90,212,88.62s-2.3-2.8-3.39-4.15c-2.16-2.71-4.12-5.29-5.73-7.57l-1.16-1.63-1-1.5c-.64-.94-1.21-1.75-1.65-2.44-.88-1.38-1.42-2.16-1.42-2.16l-.19.1s.33.88,1,2.4c.29.78.73,1.68,1.24,2.72s1.1,2.19,1.82,3.41c.36.61.71,1.27,1.12,1.91l1.3,2c.43.7.93,1.36,1.44,2s1,1.39,1.58,2.09c1.15,1.35,2.31,2.77,3.63,4.09s2.64,2.67,4,4,2.78,2.57,4.23,3.73,2.89,2.3,4.3,3.36c.7.54,1.44,1,2.13,1.5s1.38,1,2.08,1.36c1.39.85,2.69,1.66,3.95,2.31l1.78,1,1.65.79c1,.49,1.93.92,2.7,1.21l2.39,1Z"/><path class="cls-5" d="M253.46,93.82l-7-4.48-7.1-4.61c-2.58-1.7-5.31-3.56-8-5.51-1.31-1-2.63-2-3.87-3l-1.85-1.53L224,73.17c-1.19-1-2.25-2-3.32-2.89l-1.48-1.4a17.4,17.4,0,0,1-1.37-1.33c-.85-.87-1.67-1.65-2.29-2.41s-1.28-1.38-1.7-2c-.88-1.14-1.43-1.78-1.43-1.78l-.18.1s.34.76,1,2.08a18.9,18.9,0,0,0,1.34,2.29,29.87,29.87,0,0,0,2,2.79c.75,1,1.72,2,2.68,3.06s2.11,2.1,3.32,3.09l1.86,1.5,2,1.45c1.33,1,2.72,1.89,4.1,2.82,2.77,1.84,5.6,3.58,8.27,5.17s5.2,3,7.37,4.21l7.22,4Z"/><path class="cls-5" d="M270.22,80.11,268,79.75c-.72-.1-1.59-.27-2.58-.48s-2.1-.43-3.3-.76-2.49-.66-3.85-1.09S255.48,76.49,254,76s-2.92-1.15-4.38-1.86-2.92-1.45-4.37-2.21-2.84-1.65-4.15-2.59-2.6-1.86-3.84-2.75-2.41-1.81-3.47-2.73l-1.59-1.3-1.44-1.27c-.94-.8-1.76-1.58-2.48-2.27s-1.38-1.29-1.89-1.81c-1-1-1.65-1.6-1.65-1.6l-.16.13s.43.72,1.24,1.94l.68,1,.87,1.14a31.17,31.17,0,0,0,2.22,2.64L231,63.91l1.53,1.46c1,1,2.27,1.94,3.5,2.94s2.63,1.86,4.1,2.66,2.92,1.63,4.41,2.41,3,1.47,4.58,2.06,3.07,1.16,4.55,1.68c.75.24,1.5.45,2.22.67s1.43.42,2.14.58c1.4.34,2.72.64,4,.85s2.36.42,3.37.56,1.89.26,2.61.32l2.28.22Z"/><path class="cls-5" d="M275.93,60.81,270.49,59l-2.64-.85c-.94-.28-1.88-.7-2.88-1.07l-3.06-1.18c-1-.42-2.11-.78-3.14-1.24-2.06-1-4.07-2-6-2.89-.49-.21-1-.42-1.44-.61L250,50.57c-.88-.41-1.73-.78-2.52-1.11a52.1,52.1,0,0,0-5.39-2l-.1.18a51.78,51.78,0,0,0,4.73,3.29c.73.46,1.54,1,2.39,1.44a19.51,19.51,0,0,0,2.78,1.4c2,.84,4.17,1.62,6.31,2.47,1.08.4,2.2.7,3.27,1l3.18,1c1,.29,2,.67,3,.86l2.7.61L275.87,61Z"/><path class="cls-5" d="M286.35,40.93l-1,.27a8.45,8.45,0,0,1-1.16.26,14.56,14.56,0,0,1-1.5.19,14.94,14.94,0,0,1-1.79,0l-1,0-1-.12a20.06,20.06,0,0,1-2.1-.36c-.71-.18-1.43-.34-2.13-.57s-1.41-.46-2.1-.74-1.35-.54-2-.78A33.72,33.72,0,0,0,266.83,38a16.53,16.53,0,0,0-2.79-.44c-.7,0-1.1,0-1.1,0l0,.2s.35.21.94.51,1.41.77,2.43,1.29a30.85,30.85,0,0,0,3.57,1.56c.69.23,1.41.43,2.15.6s1.5.35,2.27.49,1.54.26,2.3.37,1.51.16,2.25.15a14.59,14.59,0,0,0,2.11-.07,16.4,16.4,0,0,0,1.87-.28,14.65,14.65,0,0,0,1.54-.42,6.79,6.79,0,0,0,1.13-.42l1-.42Z"/><path class="cls-2" d="M63.07,135.44s-2.4.68-6,1.79L51,139.12c-2.23.69-4.62,1.4-7,2.06-1.2.32-2.4.65-3.59.93s-2.37.55-3.51.8-2.24.47-3.29.65-2,.37-3,.49l-1.33.19-1.2.14c-.75.08-1.41.16-1.95.19l-1.71.13v.05h1.72c.27,0,.57,0,.9,0l1.06-.06,1.22-.08,1.34-.14c.93-.09,1.93-.25,3-.41.53-.07,1.07-.18,1.62-.29l1.7-.33c1.14-.27,2.32-.53,3.51-.86s2.39-.65,3.59-1c2.4-.7,4.78-1.45,7-2.17l6.07-2c3.55-1.17,5.93-1.9,5.93-1.9Z"/><path class="cls-2" d="M35.33,142.28l-.37.09a10.42,10.42,0,0,1-1.05.12c-.9.09-2.21.17-3.78.28-.79.07-1.64.12-2.54.23s-1.84.26-2.81.41-2,.29-3,.4l-3.13.32c-1,.06-2.08.07-3.11.09s-2,0-3,0H5c-.64,0-1.2,0-1.66,0l-.61,0-.45,0a1.09,1.09,0,0,1-.26,0l-.1,0,0,.09.09,0a1.6,1.6,0,0,0,.27.11,9.1,9.1,0,0,0,1.06.26c.46.09,1,.17,1.65.26s1.37.16,2.16.23,1.65.13,2.55.16,1.87,0,2.86,0,2-.07,3.06-.15a26.74,26.74,0,0,0,3.15-.43l1.54-.33c.51-.09,1-.17,1.54-.22a26.3,26.3,0,0,1,3-.17c1,0,1.95,0,2.85-.09s1.75-.15,2.54-.25,1.51-.21,2.14-.33,1.19-.24,1.64-.37a7.21,7.21,0,0,0,1-.35l.34-.18Z"/><path class="cls-2" d="M163.65,87.6l-1.63.7-1.86.83c-.72.32-1.53.7-2.4,1.11s-1.84.85-2.83,1.35-2,1-3.11,1.58-2.2,1.11-3.35,1.66-2.32,1.09-3.5,1.62c-2.35,1.08-4.66,2.22-6.84,3.28-1.09.53-2.13,1.07-3.13,1.56s-1.92,1-2.79,1.43c-1.72.89-3.14,1.66-4.13,2.19l-1.56.86,0,0,1.62-.72c1-.47,2.5-1.14,4.24-2,.88-.41,1.83-.86,2.82-1.36s2.05-1,3.13-1.55l3.32-1.7,3.42-1.8c1.15-.59,2.3-1.16,3.45-1.72s2.28-1.08,3.39-1.56,2.18-1,3.18-1.45,1.95-.93,2.82-1.36,1.67-.82,2.37-1.18l1.81-.94c1-.52,1.57-.84,1.57-.84Z"/><path class="cls-2" d="M98.59,117.67l-.43.08c-.26,0-.59.13-.94.21l-.5.14a1.53,1.53,0,0,0-.39.25,1.56,1.56,0,0,0-.31.35l0,0a1.57,1.57,0,0,0,.46,0,2.19,2.19,0,0,0,.42-.13c.14-.06.28-.16.43-.24l1.25-.62Z"/><path class="cls-2" d="M94.11,119.78s-.21.07-.56.22l-.64.27a6.3,6.3,0,0,1-.82.36c-.3.12-.63.25-1,.4s-.7.33-1.07.5a11.15,11.15,0,0,1-1.18.47c-.41.13-.83.24-1.26.35s-.85.22-1.27.34-.82.26-1.21.4l-.57.22a3.68,3.68,0,0,0-.53.23c-.35.17-.66.35-1,.51l-.42.23-.35.26-.56.42c-.3.24-.46.39-.46.39l0,0,.55-.26c.18-.08.38-.2.61-.32a3.35,3.35,0,0,0,.37-.2l.43-.18c.3-.13.63-.26,1-.42s.72-.28,1.09-.44.76-.33,1.17-.47.8-.32,1.2-.5.82-.33,1.23-.46.81-.27,1.21-.36a11.14,11.14,0,0,0,1.15-.35c.36-.14.69-.29,1-.43a4.83,4.83,0,0,0,.79-.44c.22-.14.42-.27.57-.38.32-.22.5-.36.5-.36Z"/><path class="cls-2" d="M74.93,131.26l-4.57,1.57c-.58.17-1.16.34-1.69.51s-1,.36-1.46.51-.78.29-1,.4l-.39.17,0,.05.41-.05c.27,0,.64-.11,1.09-.19l.72-.16c.26-.06.51-.16.78-.24.54-.19,1.11-.42,1.67-.63,1.12-.47,2.25-.92,3.07-1.29L75,131.3Z"/><path class="cls-2" d="M221.7,55.77s-.43.1-1,.3c-.16,0-.33.1-.5.16s-.36.15-.54.22a10.64,10.64,0,0,1-1.2.45c-.4.15-.81.3-1.19.46a9.43,9.43,0,0,0-1,.47c-.58.29-.95.52-.95.52h0s.41-.15,1-.42l.48-.21a5.48,5.48,0,0,1,.54-.23c.37-.16.76-.34,1.15-.53.79-.35,1.64-.56,2.24-.79s1-.4,1-.4Z"/><path class="cls-2" d="M214.73,58.65s-.7.29-1.71.81c-.51.24-1.08.57-1.7.9a18.2,18.2,0,0,1-2,1c-.69.3-1.37.63-2,.93-.31.16-.62.31-.9.47s-.55.31-.79.45c-1,.57-1.6,1-1.6,1v0s.69-.3,1.69-.82l.8-.42c.29-.16.6-.29.91-.46.62-.33,1.29-.66,2-1s1.33-.69,2-1a8.94,8.94,0,0,0,.93-.42c.29-.14.56-.29.81-.43,1-.54,1.62-1,1.62-1Z"/><path class="cls-2" d="M199.23,66.91s-1,.39-2,.8c-.25.11-.49.22-.72.34s-.43.24-.6.35a5.35,5.35,0,0,0-.56.38v0a6.3,6.3,0,0,0,.64-.24l.62-.29.69-.39c1-.47,1.93-1,1.93-1Z"/><path class="cls-2" d="M194.75,69.06l-.74.42c-.48.26-1.14.67-2,1.08s-1.79.92-2.85,1.42-2.17,1-3.3,1.57-2.26,1-3.31,1.54c-.52.27-1,.51-1.5.77l-1.32.74c-.41.22-.77.45-1.09.65s-.61.38-.83.53l-.72.48,0,0,.77-.37c.25-.11.55-.26.88-.43s.73-.36,1.15-.56l2.86-1.39,3.25-1.65c1.12-.56,2.23-1.11,3.26-1.66.52-.28,1-.53,1.49-.79l1.32-.74c.82-.45,1.46-.88,1.93-1.16l.73-.45Z"/><path class="cls-2" d="M229.31,51.81l-3.43,1.95c-.43.24-.86.48-1.26.73l-.57.34c-.18.11-.35.21-.51.29l-.45.24a3.42,3.42,0,0,0-.36.14l-.31.13h0l.33-.09.37-.12c.14-.07.29-.14.47-.21.68-.3,1.5-.86,2.35-1.36l3.38-2Z"/></g></g></svg>