<svg xmlns="http://www.w3.org/2000/svg" viewBox="0 0 581.63 554.68"><defs><style>.cls-1{fill:#63852d;}.cls-2{fill:#bdd372;}.cls-3{fill:#3f5824;}.cls-4{fill:#688e2e;}.cls-5{fill:#8cae39;}.cls-6{fill:#4e7b2e;}</style></defs><g id="Layer_2" data-name="Layer 2"><g id="Layer_1-2" data-name="Layer 1"><path class="cls-1" d="M581.63,387.24c-6.58-24.4-14-48.14-22.28-70.79a270.17,270.17,0,0,0-32.14-62.08,226.83,226.83,0,0,0-42.52-46.3,166.71,166.71,0,0,0-46.22-27c-3.76-1.4-7.48-2.59-11.1-3.63s-7.17-1.83-10.6-2.5a126.56,126.56,0,0,0-19.1-2.18,119.5,119.5,0,0,0-26.89,2.07c-1.52.26-2.91.6-4.08.85s-2.14.5-2.89.69a3.68,3.68,0,0,0-1.63.66,2,2,0,0,0-.49.47l2.09,8.07a2.38,2.38,0,0,0,.66.19,4,4,0,0,0,1.75-.23c.75-.2,1.7-.46,2.73-.68s2.24-.54,3.66-.8a111.08,111.08,0,0,1,24.81-2.14,115,115,0,0,1,17.72,1.84q4.8.89,9.9,2.24c3.39.93,6.88,2,10.43,3.29a158.37,158.37,0,0,1,44.09,25.2,219.67,219.67,0,0,1,41.53,44.22,263.24,263.24,0,0,1,32,60.07c8.35,22.36,15.93,45.89,22.65,70.08"/><path class="cls-2" d="M580.29,389.36c-6.58-24.41-14-48.14-22.28-70.79a270,270,0,0,0-32.14-62.08,226.83,226.83,0,0,0-42.52-46.3,166.71,166.71,0,0,0-46.22-27c-3.76-1.4-7.48-2.59-11.1-3.63s-7.17-1.83-10.6-2.5a126.42,126.42,0,0,0-19.1-2.18A119.55,119.55,0,0,0,369.44,177c-1.52.26-2.91.59-4.08.85s-2.14.49-2.88.68a3.93,3.93,0,0,0-1.64.66,2.08,2.08,0,0,0-.49.48l2.09,8.06a2,2,0,0,0,.66.19,4,4,0,0,0,1.75-.22c.75-.2,1.7-.46,2.73-.68s2.24-.54,3.66-.8a111.08,111.08,0,0,1,24.81-2.14,115,115,0,0,1,17.72,1.84c3.2.59,6.51,1.34,9.9,2.24s6.88,2,10.43,3.29a158.37,158.37,0,0,1,44.09,25.2,219.12,219.12,0,0,1,41.53,44.22,262.85,262.85,0,0,1,32,60.07C560,343.27,567.62,366.8,574.35,391"/><path class="cls-1" d="M12.31,285.85c-14.69,25.1-2,95.52,1.95,101.64s124.51-57.08,125.21-35.86S41.33,395.75,29,401.86C7.12,412.64.17,450.54,0,462.54-.32,487,10.34,528.39,10.59,535.88s72,13.08,88,5.06S133.9,501,133.61,492.28s19.87-57.37,25.49-38.8-29.32,95.95-31.7,99.78,61.52-1.06,79.88-3c14.49-1.52,46.17-19.1,40.31-61.77-7.71-56.17-14-91.2,3.22-110.42,22.95-25.58,22.48,89.11,18,104.25s-1.42,32.55-7,51.49,183.64-35.61,155.73-85.94-64.52-61.61-61.53-84.2S378.42,340,384.7,364c7.34,28,31.2,63.83,45.3,84.75,12.35,18.33,95.83-54.88,95-79.85s-78.24-53.66-91.78-69.46-7.19-45.79,7.1-29.5,48.69,67.32,95.36,75.32c0,0,37.16-41.46,18.41-79.08s-72.25-68.34-136-68.73-55.17-25.73-54.3-41.07c0,0,1.17-144.27-70.92-154.76C197.38-12.3,119.84,69,108.81,80.41c-21.51,22.31-6.3,37.09-6.3,37.09S209.55,105,258,141.67c13.72,10.4,1.58,23.51-9.78,20.14s-66.12-34.06-99.71-29.21-91.63,32-102.74,46c-26.4,33.3-20,75.58-20,75.58s64.12-4.67,96.38-12,74.76-3.69,75.2,6.26c.34,7.88-11.46,9.58-36.4,11.24C147,260.65,27.57,259.78,12.31,285.85Zm308-27.77.16.17c9.93,10.84,24.16,22.74,30.48,36.89,6.44,11.55,4.71,31.42-13.09,22-9.3-5.61-18-25.07-21.08-33.87C311.35,269.12,298.68,233.89,320.34,258.08Zm-72.15,34.16.11.05c10.11,5.46,20.78,26.41,26.22,36.92,4.38,9.08,1.45,31.83-14,27.47-9.24-2.73-13.77-27.31-15-35.88-1.73-5.43-2.28-12.69-2.37-17.78C243.05,296.07,243.31,290.43,248.19,292.24ZM215.83,223c-8.54,2.45-51.09,3.76-35.53-15.82C190.08,194.53,231.6,216.29,215.83,223ZM169.55,363.67c9.82-11.09,14.06,13.62,6.72,21-5,5.07-11.82,3.51-12.15-4C164.24,377.55,168,365.91,169.55,363.67Zm-23.27-47.75c9.71,3.14,12,9.65,2.55,14.94-4.07,1.87-22.36,4.31-26.22,3.78C102.05,329.25,132.05,311.33,146.28,315.92Z"/><path class="cls-3" d="M180.3,207.14a16,16,0,0,0-2.83,5.05c-2.33-2-4.74-3.92-6.91-5.66,4.4-3,8.57-5.21,12.19-8.46-4-1.22-7-5.62-9.93-7.4,4.9-4.6,12.55-4,19.41-3.62-5.08-3.31-11.51-7.89-14-13.9,8.08-3.62,19.53,1.65,27.49,4.1-5.15-5.94-10.84-12.92-12.87-20.51,6.42-.1,35.33,17.36,35.33,17.36,1.84-.3,3.52-13.34,3.52-13.34,7.14,3,23.85,11.56,23.85,11.56s7-2.58,6-9.34c5.81.92,9.54,4.26,11.73,2.23,0,0,3.88-21.17-5.9-41.31,2.39.73,8.21,1.65,11.15,3.42a18.18,18.18,0,0,0-2.95-13.1c3.19,1,8,2.45,11.46,5.26,2.5-5.33,2.12-11.39,2.19-18.5,8.76,2.69,10.42,17.15,16.36,23.32,2.63-11.39,1.34-21.36-2.1-32.87,9.81,2.14,17.28,17.51,24,23.93,1-3.18,5.38-6.19,6.11-8.57,2.45,3.36,6.19,5.39,7.61,9.3,9.93-11.3,9.6-25.76,12.49-39.72,6.27,23.95,8.63,48.19,9.52,63.61a44.26,44.26,0,0,0-10.8-6.51c-2,6.37-1,14.52-3.18,21.68-8.58-6.11-14.58-14.93-23.15-21.06a48.78,48.78,0,0,1-1.59,22.18c-5.87-3.56-11.26-8.7-16.11-12.8.37,4.48,2.33,9.43,2.46,14.7-3.5-2.82-7.29-7.47-12.06-8.94-2.4,10.6,1.9,25,2.95,35.76-5.95-6.18-10.85-12.92-13.67-20.75-4.53,9.06,4.91,18.06,4.61,27.55-6.68-3.8-12.87-9.18-20-11.38,2,5,4.73,10.16,5.65,15.67-8.21-1.65-15.5-9.12-23.21-12.36,1.95,5,6.31,10.66,6.43,15.92-9.31-3.74-17.88-9.86-27.68-12a147.48,147.48,0,0,1,8.89,30.62c-8,.66-16-1.41-23.53,1.39C221.18,211.15,188.79,196.18,180.3,207.14Z"/><path class="cls-3" d="M110.65,279.6c9.83-5.21,17.48-13.43,26.39-19.18,11.84-.37,20.66-.49,23.87-.7,24.94-1.66,36.74-3.36,36.4-11.24-.25-5.46-13.16-9-30.1-9.9,2.65-2.19,5.11-4.26,7.26-6-7.47-4-19,3.29-26.92,3.48,6.92-8.33,18.25-9.78,28.42-14.49-3.44-.18-10.55-1.14-11-5.41a61.51,61.51,0,0,0,12.2.2c2.94,9.79,31.76,8.58,38.63,6.61a7.24,7.24,0,0,0,1.94-1.19c3.09,3.15,6.74,6,8.95,9-2.08,1.11-6.73,4.91-10.41,5.52,1.9,2.33,3.07,7,5,9.37-9.31,7.59-22.72,8.7-31.16,19.17,2.38.74,4,3.86,5.39,5.14C175.67,277.8,152,281,131.89,287c8.09-3.61,14.76-11.15,21.19-17.88-14,.06-25.29,11.39-39.56,9.62Z"/><path class="cls-4" d="M363.2,403.52c2.21,9.83,7.17,19.19,8.19,28.66-11.22-6.06-22.88-14.87-34-17q5,9.38,9.93,18.73c-8.36-2.57-17.91-5.51-25.81-5.31-.46,14.23-8.43,40.42-16.41,53.65-8.69-14-1.47-22.15-11.36-34.28-9.68-12.74-4.79-13.81-7.25-20.68-15.9-20.56,1.21-24.76-8.07-49.84a42,42,0,0,0,18.46,12.22c-1.65-3.13-1.38-8.27-1.84-11,4,3.86,7.56,7.58,10.78,9.88-1.29-4.32,3-12.18.15-15.66,5.69,7,8.09,16.44,14.15,22.23,0-17-6.16-35.46-8.93-52,15.71,12.66,28.48,34.89,45.29,44-1.84-11-6.43-21.58-7.91-33.79,1.79,2.19,5.14,4.34,8.18,6.21a34.44,34.44,0,0,0-.81,4.18c-1.74,13.08,9.8,22.37,25.25,37.64.13,4.76-.51,10.1-.73,14.05C374.13,414.72,367.7,410.13,363.2,403.52Z"/><path class="cls-4" d="M359.36,353c-1.72-4.88-4-9.83-4.82-14.83,2,1.93,6.8,3.39,8.82,5.32.64-6.33-.74-14.6-2.49-21.67,15.16,6,25.72,18.36,38.58,27.53,2.49-12.3-16.19-28.76-19.23-40.15,4.41,2.66,21.24,8.11,26,9.58-2.57-8.64-10.29-17.54-11.67-25.81,8.35,2.56,15.25,9.91,24.33,10.1-1.28-4.32-.27-11.85-2.38-17.73,2.54,1.82,6.77.86,10.19.95a31.63,31.63,0,0,0,6.52,13.16c4.49,5.24,16,11.89,29.42,19.36-8.21,3.11-16.75,5-24.31,4.14a8,8,0,0,0-3.17-.51,27.2,27.2,0,0,0,3.17.51c6.94,2.44,16.76,12.58,20.94,17.23-13.94.94-23.83-5.89-34.12-6.44,7.72,8.91,20.12,15.33,25.09,24.7-11.95-3.67-32.33-13.86-29.48,6.62-5.6-3-10.29-.55-15.43-.82,8.07,27.08,5.51,20.43-13.9,18.64A130.61,130.61,0,0,1,384.7,364C379.64,344.66,366,341.62,359.36,353Z"/><path class="cls-4" d="M427.35,269.54c-1.09-8.3-2.25-15.71-2.25-15.71s17.5.73,26.91,12.77c2.17,2.76,10.71-2.38,6.36-9.52l7.56,3.77c6.24-3.3,8.81-3.4,16.24-6.34-12.4,10.56-4.37,12.62-12.36,25.84,5.23,1.77,11.87,9,11.87,9-7.45-1.13-9.8,3.19-9.8,3.19-2.73,10.27,8.49,9.48,13.89,14.05-2.59,1.77-5.51,3.58-8.62,5.34-16.86-16.15-29.49-33.64-36.82-42C434.28,263,429.64,264.43,427.35,269.54Z"/><path class="cls-5" d="M283.07,217c-58.79,40.13-178,227.66-223.65,277.21-11.43,12.42-16,18.62-16,18.62,2-.09,18.89-2.67,26.17-8.77C84.3,490.31,88,478.38,96.69,462.76c-.18,9.09,1.3,21.31,5.8,27.92,5.5-17.91,13.49-46.36,41.15-67.05.09,3.95-1.68,15.15-1.58,19.09,18-10.25,8.89-24.7,17.7-36.37,5.45,10.88,11.89,38.1,18.41,46.63.93-11.48-5.54-37.46-6.19-48.1-.18-7.9,9.64-10.11,6.61-21.5,15.06,2,6.16,26.73,19.28,30.77,1.93-19-5.41-29.12,7.62-46,16.44,10.29,19.94,38.83,20.23,53.27,10.52-14.17-6.54-59.51,4.1-77.15,7.62,4.95,8.27,15.61,12,24.61,8.29-9.54.67-29.57,4.82-41.3-.52-2.68-.9-5-1.15-6.75-1.73-5.43-2.28-12.69-2.37-17.78-.11-6.95.15-12.59,5-10.78l.11.05c10.11,5.46,20.78,26.41,26.22,36.92,2.56,5.31,2.59,15.26-.88,21.77a35.58,35.58,0,0,1,.73,5.64c11.43-3.86,5.67-61,22.29-59.79,13.87,1.65,18.57,33.14,27.48,42.42a319.15,319.15,0,0,1-7.09-55.38c-.07-.19-.18-.44-.24-.62-5.46-14.13-18.13-49.36,3.53-25.17l.16.17c9.93,10.84,24.16,22.74,30.48,36.89a28,28,0,0,1,2.71,7.12A204,204,0,0,0,352,280.15c34.43-.1,53.05,38.65,68,49.33.81-32.42-45.76-46.73-45.58-72.83,12.67,1.29,29,7.62,38.75,1.47-17.91-5.51-41.23-23.13-4.87-22.41,17,0,32,1,49.69,12.66,10.58-34.43-103.34-34.14-91-65.65C334.71,184.59,298.55,206.47,283.07,217ZM176.27,384.7c-5,5.07-11.82,3.51-12.15-4,.12-3.14,3.88-14.78,5.43-17C179.37,352.58,183.61,377.29,176.27,384.7Z"/><path class="cls-3" d="M115.69,328.56a19.35,19.35,0,0,1-1.39-1.79l2.23-.41A5.89,5.89,0,0,0,115.69,328.56Z"/><path class="cls-3" d="M139.47,351.63c-.16-5.06-7.15-5.31-17.74-2.86,0-6-4.36-4.93-9.75-8.77,3.67-.62,8-1.61,10.61-4.29-.46-.56-1-1.07-1.47-1.59a15.18,15.18,0,0,0,1.49.52c3.86.53,22.15-1.91,26.22-3.78,9.43-5.29,7.16-11.8-2.55-14.94-4.87-1.58-11.55-.48-17.46,1.81-6.07-7.19-14.75-18-16.83-20.77,8.54-2.28,22.21,3.27,41.53-3.31,6.72-2.29,28.75-7.34,35.74-12.79-7.67,9.83-21.79,25.07-31.27,33.19,3.72,1.15-7.11,11.47,12.79,9.45-7.84,10.38-32.26,39.74-41.89,48.41,1.06.33,6.92,3,8.14,2.79-6.72,12.46-32.71,45.78-47.13,50.17,2.48-10.23,23.53-23.44,23.41-36.27-8.09-.15-16.34,9.66-25,9.34,9.88-10.69,24.89-17.87,34.85-29.8C133.15,362.74,139.66,357.13,139.47,351.63Z"/><path class="cls-5" d="M191.38,292.37c6.67-7.53,32.37-31.63-.92-29.62,7.77-11.11,36.11-8.36,37.15-20.24.79-11.08-16.29-9.36-23.76-13.4,18.12-2.27,37.53-5.89,50.08-21.2,16.16-18.56-4-6.89-20.46-29.81,14.27,1.77,30.92,15.6,45.55,10.51,20.15-6,5.32-31.47,5.25-45.43,8.58,6.12,16.6,22.52,27.87,19.89-1.23-7.35-2.21-15.5-1.29-21.31,4.1,6.49,10.42,17.14,18.62,18.79,1.34-10.05,13.63-2.78,19.94-47.89,9.62,16.9-2.1,52.21,12.17,65.31l5.3,4.75c-21.68,8.15-55.31,14-73.44,27.6-20.93,17.09-43.25,32.74-62.53,52.95-8,8.89-17.09,21.77-24.85,33.32s-16.23,20.78-23.67,31.64c-14,20.4-25.95,35.3-37.42,51.38-2.77,3.87-23.08,30.93-26.55,36.28-7.85,12.09-43.86,41.41,10.06-25.63,1.11-1.4-5.83.06-5.83.06a117.68,117.68,0,0,1,15.84-19.24c11.58-11.5,23.71-30.69,9.22-23.82,2.15-5.57,8.55-9.8,15.33-16.55,4.28-4.26,10.42-14.18,10.42-14.18a12.6,12.6,0,0,0-3.44-2.84c-4.11-2.68-13,2.77-20,3.83a20.7,20.7,0,0,0-3.3-1.43C158,305.29,180.09,307.32,191.38,292.37Z"/><path class="cls-4" d="M166.22,476.32c2-6.38,2.32-13.23,2.69-20.09A65.6,65.6,0,0,0,183.79,473a58.11,58.11,0,0,0-.13-16.59c2.7,2.57,6.92,3,9.06,4.52,1.71-5.57,0-11.33.67-16.34,1.35,1.28,4.29,3.06,5.63,4.35-.43-7.12,1-14.52,1.35-21.38,5.75,9.61,7.35,21.43,15.19,29.94.8-11.09,1.53-24.8,7.33-35.22,2.89,10.48,4.24,23.09,6.88,34.36l-1,.55c-8.94,12.07-9.54,31.05-12.11,45.07,1.66-8.2.12-17.39-5.83-23.58a104.58,104.58,0,0,0-3.06,15.63c-3.54-5.46-7.89-11.15-13.22-13.66-2.45,8-3.31,16.42-4.71,23.82-3.8-4.64-6.31-10.65-12.19-14.2-2.2,7.16-4.4,14.33-8,20.22-2.27-6.8-4-15.19-6.32-22-4.79,3-8.75,11.05-14.55,13.45A257.08,257.08,0,0,0,158,471.59C160.39,473.94,163.09,475.82,166.22,476.32Z"/><path class="cls-5" d="M155.81,512.89c5.41,12.12,1.52,35,1.52,35,14.33-10.76,12.47-22.34,11.6-25.55,5,16-1.18,27.87-1.18,27.87,8.29,1.84,40.16-53.1,40.16-53.1,1.49,11-12.33,50.26-12.33,50.26,12.09-3,18.58-36,18.58-36a83.07,83.07,0,0,1,0,29.89c15.83-6,21.13-67.3,21.13-67.3a71.18,71.18,0,0,1,12.87,28.16c-1.76,32.84-28.08,46.79-40.92,48.13-12.58,1.32-46.54,4-65.91,4.38A364.42,364.42,0,0,0,155.81,512.89Z"/><path class="cls-5" d="M10.59,535.88c33.72-18,55.79-17.49,55.79-17.49-11.71,14.77-11.06,22.5-11.06,22.5L63,536.8A70.8,70.8,0,0,1,97,523.74a33.68,33.68,0,0,0-12.38,20.34C58.35,546.81,10.79,542,10.59,535.88Z"/><path class="cls-3" d="M100.28,168.64s34.8,9.58,44.89,3.07a6.21,6.21,0,0,0,1.13-.9c8.25-8.21-7.26,20.64-48.8,21.58,0,0,21.77,20.21,61.18,13,0,0-32.23,20.62-77.12,31.26,0,0-14.63,0,20.75,4.35,0,0-8,3.64-18.26,7.45-29,3.64-58.32,5.78-58.32,5.78s-6.4-42.28,20-75.58c11.11-14,69.16-41.15,102.74-46a62.3,62.3,0,0,1,14.56-.17C144.69,137.33,101.63,150.72,100.28,168.64Z"/><path class="cls-3" d="M12.93,417.75c2.46-.08,7.37-1.8,15.44-5.65L15.83,425.24s-2.85,10,5.54,2.58l-3.93,11.25s9.9,1.9,25.64-9.63L28.13,456.9s14.28,3.09,29-9.38L49,470.1s16.23,6.47,37.51-41.87c0,0,24.81,15.55-45.82,86-13.35,13.31-22,21.55-30.06,21.65C10.34,528.39-.32,487,0,462.54.12,454.19,3.53,433.32,12.93,417.75Z"/><path class="cls-3" d="M83.48,291s-25.6,5.68-37.92-1.76c0,0,34.64,27.4,55,13.76,0,0-9.58,13.93-34.47,10.2,0,0-7.76,11.77,20.77,15.73,0,0-17.62,12.62-35,10.62,0,0,15.42,14.67,35,8.57,0,0-14.58,11.35-31,24.88-22,9.19-40.16,16.77-41.66,14.46C10.31,381.37-2.38,311,12.31,285.85c4.83-8.26,20.11-13.81,39.17-17.57C59.87,277.83,72.07,289.31,83.48,291Z"/><path class="cls-3" d="M298.2,34.35s36.34,39.26,45.6,63c0,0-91.48-65.71-107.33-56.15,0,0,26.62,11.07,41,24,0,0-36.31-15.06-46.89-6.79,0,0,47.1,12.83,56.92,20.95,0,0-73.85-7.46-77.3.66a50.49,50.49,0,0,1,28.65,17.12S207.45,78.76,184.46,85c0,0,46.21,16.12,54.63,28.21,0,0-88.05-30.37-99.29-12,0,0,57.18,5.78,71.72,19.54,0,0-7.45-1-18.44-2.11-45.08-6.46-90.57-1.15-90.57-1.15s-15.21-14.78,6.3-37.09C119.84,69,197.38-12.3,292.87,1.59c21.83,3.18,36.92,18.6,47.39,38.58C327.42,34.18,310.63,28.93,298.2,34.35Z"/><path class="cls-2" d="M335.13,191.6s.08-.35.24-1a26.57,26.57,0,0,0,.6-3,36.49,36.49,0,0,0,.5-5,41.27,41.27,0,0,0-.28-6.31c-.07-.56-.15-1.14-.22-1.74s-.22-1.18-.33-1.79c-.21-1.22-.55-2.43-.85-3.7a70.17,70.17,0,0,0-2.62-7.66c-1.05-2.58-2.24-5.2-3.57-7.77s-2.73-5.15-4.2-7.67c-2.92-5.06-6-10-8.82-14.63-1.4-2.32-2.75-4.58-4-6.74s-2.36-4.22-3.37-6.13c-.49-1-1-1.9-1.4-2.79l-1.21-2.53c-.72-1.62-1.33-3-1.78-4.21s-.8-2.12-1-2.76-.35-1-.35-1,.09.36.28,1,.44,1.62.86,2.82.9,2.67,1.53,4.33c.32.83.67,1.71,1,2.63s.8,1.88,1.24,2.88c.89,2,1.89,4.14,3,6.38s2.31,4.59,3.58,7c2.51,4.83,5.29,9.92,7.86,15.09,1.29,2.59,2.51,5.2,3.63,7.78s2.11,5.16,3,7.67a64.87,64.87,0,0,1,2,7.32c.19,1.17.45,2.31.57,3.42.06.55.13,1.1.19,1.63s.07,1.06.1,1.57a36.92,36.92,0,0,1-.1,5.55,32.42,32.42,0,0,1-.67,4.13c-.19,1-.54,2.06-.72,2.71s-.3,1-.3,1Z"/><path class="cls-2" d="M319.88,199.84l1.76.46,2.11.54,2.64.85c1,.29,2.11.75,3.31,1.2s2.52,1,3.91,1.58,2.84,1.27,4.39,2,3.16,1.52,4.85,2.36l11,5.47c3.93,1.93,8.16,3.88,12.68,5.58a79.58,79.58,0,0,0,14.41,4c4.92.82,9.94,1.58,14.93,2.35,10,1.52,20,3.08,29.24,4.93a189.53,189.53,0,0,1,25,6.51,64.93,64.93,0,0,1,16.31,8c.88.67,1.67,1.27,2.31,1.84s1.19,1,1.58,1.49c.81.86,1.23,1.33,1.23,1.33L470.3,249c-.38-.44-.94-.93-1.54-1.55s-1.39-1.22-2.25-1.92a64.7,64.7,0,0,0-16.15-8.7,191,191,0,0,0-24.89-7.47c-9.25-2.19-19.2-4.11-29.14-6-5-1-9.92-1.88-14.79-2.89A74,74,0,0,1,368,216.13c-4.29-1.78-8.32-3.81-12.13-5.85s-7.41-4.05-10.74-5.86c-1.67-.91-3.3-1.77-4.85-2.58s-3-1.55-4.48-2.2-2.75-1.3-4-1.8-2.41-1-3.54-1.42-2.09-.76-2.95-1l-2.09-.63-1.74-.51Z"/><path class="cls-2" d="M298.47,210.77l7.95,6.46c2.52,2.07,5.68,4.51,9.25,7.34l12,9.38c4.38,3.46,9.2,7.13,14.15,11.15,2.48,2,5.07,4,7.64,6.18l7.85,6.58c2.62,2.28,5.22,4.66,7.9,7l2,1.79c.64.64,1.29,1.26,1.93,1.89l3.89,3.79,2,1.92c.32.31.67.64,1,1l.95,1q1.89,2,3.79,4.06l7.63,8.15q3.83,4.06,7.62,8.14l3.8,4.06,3.71,4.08c4.93,5.42,9.76,10.77,14.45,15.94,1.17,1.28,2.33,2.58,3.49,3.83.57.65,1.15,1.28,1.71,1.9l.85.95.8,1c1.07,1.3,2.15,2.56,3.08,3.88l1.44,1.95,1.34,2a161.7,161.7,0,0,1,9.07,15.52c2.56,4.95,4.7,9.59,6.53,13.75s3.32,7.81,4.49,10.85,2,5.46,2.62,7.11l.83,2.53s-.26-.88-.77-2.55-1.33-4.11-2.44-7.17-2.5-6.78-4.23-11-3.77-8.92-6.22-14a162.09,162.09,0,0,0-8.75-15.84l-1.31-2.05-1.42-2c-.94-1.39-2-2.68-3-4l-.79-1-.83-1-1.68-1.94-3.39-3.93-14.09-16.32-3.62-4.18c-1.22-1.38-2.45-2.77-3.69-4.15l-7.43-8.33-7.43-8.33L379.38,274l-.92-1c-.34-.37-.65-.67-1-1-.64-.66-1.29-1.32-1.93-2L371.69,266l-1.91-2-2-1.87c-2.64-2.46-5.23-4.93-7.82-7.3L352.23,248c-2.53-2.24-5.09-4.31-7.53-6.4-4.89-4.17-9.61-8-13.92-11.53L319,220.44c-3.48-2.89-6.52-5.36-9-7.48l-7.79-6.67Z"/><path class="cls-2" d="M250,246.29s2.86,2.81,7.88,7.71S270,266,278,274.86c4,4.46,8.15,9.4,12.25,14.86A165.34,165.34,0,0,1,302,307.6a152.32,152.32,0,0,1,9.79,20.71q2.13,5.47,3.85,11.18c.6,1.89,1.11,3.8,1.66,5.72l1.5,5.81c1.92,7.76,3.61,15.59,5.15,23.34s2.85,15.39,4,22.82c.61,3.71,1.06,7.38,1.6,11s.89,7.11,1.32,10.53c.78,6.85,1.43,13.34,1.89,19.34s.77,11.51,1,16.39c.08,2.44.14,4.74.21,6.85s0,4.07,0,5.81c.05,3.52-.1,6.28-.14,8.16s-.08,2.89-.08,2.89.05-1,.14-2.89.3-4.64.33-8.15c0-1.76.09-3.7.1-5.82s0-4.41,0-6.86c-.1-4.89-.27-10.43-.61-16.45s-.82-12.53-1.45-19.41q-.54-5.16-1.09-10.58c-.46-3.6-.83-7.29-1.36-11-.95-7.48-2.17-15.17-3.47-23s-2.88-15.71-4.65-23.59a183.83,183.83,0,0,0-6.59-23.22,156.06,156.06,0,0,0-9.55-21.45,172.1,172.1,0,0,0-11.69-18.59c-4.08-5.67-8.21-10.82-12.15-15.44-7.9-9.24-14.91-16.49-19.81-21.55l-7.74-7.92Z"/><path class="cls-2" d="M186.43,322l1.49,1.82c.46.59.92,1.29,1.52,2.13s1.25,1.92,1.92,3.11a75,75,0,0,1,4.35,9,129.39,129.39,0,0,1,4.35,12.41,255,255,0,0,1,7.12,32.37c1,6,1.8,12.23,2.51,18.58s1.29,12.83,1.71,19.32c.23,3.23.38,6.48.53,9.71l.1,2.43v.22c0-.09,0,0,0,0v.31l0,.6,0,1.22c-.07,1.6,0,3.23-.17,4.81a161.05,161.05,0,0,1-2.17,18.58c-.48,3-1.11,5.93-1.68,8.82s-1.24,5.66-1.93,8.37c-1.31,5.44-2.7,10.54-4,15.24-2.64,9.4-4.92,17.23-6.4,22.72-.76,2.75-1.32,4.93-1.7,6.4s-.59,2.27-.59,2.27.22-.79.64-2.26,1-3.62,1.82-6.36c1.59-5.47,4-13.24,6.85-22.59,1.4-4.68,2.9-9.76,4.33-15.17.74-2.71,1.4-5.52,2.11-8.38s1.31-5.8,1.86-8.82a158.64,158.64,0,0,0,2.55-18.75c.18-1.62.18-3.2.28-4.82l0-1.21,0-.61,0-.3v-.35l0-2.44c-.08-3.26-.18-6.53-.34-9.78-.28-6.53-.76-13-1.34-19.44s-1.3-12.7-2.14-18.77a261.1,261.1,0,0,0-6.56-32.92c-1.33-4.76-2.75-9.07-4.22-12.83a77.14,77.14,0,0,0-4.39-9.58c-.68-1.29-1.4-2.4-2-3.4s-1.24-1.84-1.71-2.46l-1.44-1.84Z"/><path class="cls-2" d="M108.43,427.88s.06.39.16,1.1.3,1.81.41,3.13.33,2.9.4,4.78q.1,1.39.12,3c0,1.05.06,2.16,0,3.31,0,2.3-.13,4.8-.35,7.44-.11,1.32-.23,2.67-.41,4.06-.08.69-.16,1.38-.25,2.09s-.21,1.41-.32,2.13c-.42,2.86-1,5.81-1.63,8.79s-1.43,6-2.29,8.94-1.82,5.94-2.81,8.83a50,50,0,0,1-3.71,8.08c-1.42,2.53-3,4.89-4.43,7.13s-2.85,4.36-4,6.38a53.79,53.79,0,0,0-3,5.65,31.88,31.88,0,0,0-1.67,4.64c-.16.67-.29,1.26-.42,1.77s-.14,1-.2,1.33c-.09.73-.15,1.11-.15,1.11s.07-.38.19-1.1c.07-.35.13-.8.24-1.32l.48-1.75a33.3,33.3,0,0,1,1.81-4.55,53.92,53.92,0,0,1,3.16-5.5c1.25-2,2.72-4,4.26-6.23s3.16-4.51,4.68-7a50.21,50.21,0,0,0,4.08-8.13c1.1-2.87,2.18-5.82,3.13-8.8s1.83-6,2.62-9,1.43-6,2-8.87c.13-.72.27-1.44.4-2.15s.22-1.43.32-2.13c.24-1.4.4-2.78.56-4.13.31-2.69.51-5.25.61-7.61.08-1.18.08-2.32.1-3.4s0-2.11,0-3.08c0-1.92-.16-3.62-.26-5s-.24-2.44-.31-3.18-.12-1.11-.12-1.11Z"/><path class="cls-2" d="M126,405.18l-5.7.11-3,.06c-1.1.06-2.3.2-3.58.31a83.11,83.11,0,0,0-8.52,1l-4.82.79c-.84.11-1.66.35-2.51.54l-2.59.62-2.65.64-1.35.32-1.35.41-5.49,1.74-1.4.44-1.39.54-2.79,1.09c-1.87.74-3.79,1.44-5.62,2.37l-5.59,2.65-5.46,3-1.37.75c-.51.27-.88.58-1.33.85-.85.6-1.75,1.1-2.56,1.79s-1.66,1.28-2.45,1.94l-2.32,2.05c-3,2.8-5.78,5.72-8.39,8.61-5.21,5.78-9.87,11.34-14.09,15.89-1,1.15-2.09,2.21-3.06,3.23s-2,1.95-2.85,2.84c-1.84,1.72-3.46,3.22-4.88,4.33-.72.56-1.32,1.1-1.9,1.5l-1.46,1-1.22.85s.43-.28,1.23-.83l1.48-1c.6-.39,1.2-.92,1.93-1.47,1.46-1.09,3.11-2.55,5-4.24.91-.87,1.91-1.79,2.91-2.79S28.91,455.12,30,454c4.31-4.48,9.08-10,14.38-15.63,2.65-2.82,5.47-5.67,8.49-8.38l2.32-2c.79-.64,1.61-1.22,2.42-1.85s1.71-1.14,2.56-1.7c.43-.26.88-.59,1.3-.8l1.37-.72,5.45-2.9,5.58-2.52c1.83-.88,3.73-1.54,5.59-2.22l2.78-1c.46-.17.92-.33,1.37-.51l1.39-.41,5.45-1.6,1.33-.38c.45-.1.89-.21,1.34-.3.89-.18,1.76-.39,2.62-.57l2.55-.56a25.35,25.35,0,0,1,2.49-.48l4.75-.7c3-.53,5.86-.62,8.34-.82,1.24-.09,2.4-.19,3.48-.24H126Z"/><path class="cls-2" d="M206.28,294.79l-2-.16-2.41-.19c-.94-.08-2-.17-3.27-.2l-4.1-.16c-1.49-.05-3.09,0-4.81,0s-3.54.05-5.46.12c-1,0-1.94,0-3,.1l-3.09.21c-4.2.25-8.74.73-13.52,1.3s-9.8,1.36-15,2.27S139.23,300,133.84,301c-2.7.5-5.41,1-8.15,1.46l-4.1.67-4.13.51c-2.76.35-5.54.62-8.29,1.05L101,306l-2,.33c-.68.14-1.35.27-2,.42l-4,.82c-2.64.55-5.25,1-7.79,1.71l-7.48,1.87c-1.24.29-2.42.66-3.6,1l-3.5,1-3.41,1c-1.11.33-2.22.64-3.29,1l-6.17,2.11c-4,1.28-7.54,2.78-10.71,4l-4.43,1.74-3.7,1.64-7,3.12,7.06-3,3.72-1.58,4.46-1.66c3.19-1.16,6.76-2.58,10.75-3.79l6.22-2c1.06-.37,2.17-.65,3.3-1l3.41-.93,3.51-1c1.18-.33,2.37-.68,3.6-.94,2.45-.55,4.95-1.13,7.5-1.72s5.15-1.05,7.79-1.56l4-.75,2-.37,2-.29,8.17-1.18c2.74-.37,5.53-.59,8.3-.9l4.19-.43,4.14-.6q4.14-.63,8.2-1.32c5.42-.92,10.74-1.82,15.9-2.61s10.15-1.44,14.89-2,9.24-.87,13.39-1.05l3-.13c1,0,2,0,2.91-.06,1.89,0,3.68-.07,5.37,0s3.26,0,4.71.11l4,.23c1.2.05,2.28.16,3.23.26l2.39.23,2,.2Z"/><path class="cls-2" d="M273.15,221.75l-2.08-1c-1.35-.63-3.35-1.52-5.83-2.72s-5.51-2.65-9-4.34l-11.73-5.68c-4.34-2-9-4.24-14.15-6.33-2.52-1.09-5.2-2.05-7.9-3.1s-5.53-2-8.45-2.78-5.87-1.61-8.88-2.38c-3-.6-6.12-1.31-9.26-1.7l-2.36-.36-1.18-.16-1.19-.12-4.78-.45c-1.59-.14-3.2-.15-4.8-.23s-3.21-.15-4.8-.14l-9.51-.12c-3.16,0-6.34.09-9.48.12l-4.68.09-4.63.16-9.07.34c-6,.3-11.69.56-17.15.83l-7.94.38-7.43.28c-2.38.08-4.65.19-6.83.24l-6.16.11-5.42.09-4.6,0-8.73-.1s3.18.12,8.73.36c1.39,0,2.93.11,4.6.18l5.43,0,6.16.07c2.18,0,4.46,0,6.84,0l7.44-.08,8-.15,17.16-.33,9.07-.09,4.61,0,4.65,0c3.12.06,6.24,0,9.4.15l9.51.39c1.6,0,3.16.17,4.72.28s3.13.17,4.68.36l4.64.57,1.15.14,1.15.21,2.29.4c3,.46,6,1.26,9,1.92,2.9.83,5.78,1.57,8.56,2.55s5.48,2,8.13,2.94,5.19,2.1,7.65,3.25c4.93,2.19,9.5,4.52,13.74,6.64l11.51,6c3.43,1.8,6.44,3.36,8.94,4.63s4.44,2.24,5.78,2.9l2,1Z"/><path class="cls-2" d="M317.49,197.21l-.69-1.88c-.46-1.21-1.1-3-2.09-5.31s-2.16-5.07-3.62-8.18c-.78-1.53-1.55-3.2-2.45-4.9s-1.81-3.51-2.88-5.34-2.11-3.75-3.32-5.67c-.59-1-1.21-2-1.82-3l-1.94-3c-1.3-2-2.77-4-4.2-6.13-.75-1-1.5-2-2.28-3.1s-1.53-2.09-2.36-3.12c-3.17-4.18-6.73-8.3-10.41-12.4s-7.68-8-11.77-11.87-8.4-7.41-12.8-10.73a151.75,151.75,0,0,0-13.34-9.12l-1.67-1-1.68-1-3.33-1.88-3.33-1.71c-.55-.27-1.1-.55-1.63-.83l-1.66-.75L225,94.88l-3.19-1.3c-2.07-.9-4.15-1.56-6.12-2.26-1-.37-2-.64-2.94-.92l-2.8-.84c-1.84-.49-3.61-.88-5.25-1.29-3.33-.67-6.24-1.2-8.66-1.44s-4.33-.42-5.62-.52l-2-.13,2,.19c1.29.15,3.2.27,5.59.7s5.29,1,8.58,1.72c1.62.47,3.36.91,5.17,1.46l2.76.92c.94.32,1.91.61,2.88,1,1.93.77,4,1.48,6,2.44L224.49,96l3.14,1.57,1.6.8,1.6.87,3.23,1.8,3.23,2,1.63,1c.54.37,1.08.71,1.61,1.08a152.85,152.85,0,0,1,12.87,9.42c4.22,3.42,8.29,7.15,12.24,11s7.67,7.92,11.2,12,6.82,8.31,9.81,12.51c.78,1,1.51,2.09,2.22,3.13l2.12,3.11c1.34,2.09,2.7,4.09,3.9,6.13.62,1,1.21,2,1.81,3l1.68,2.94c1.11,1.91,2.09,3.82,3.05,5.64s1.8,3.6,2.64,5.27,1.51,3.31,2.2,4.82c1.32,3.06,2.44,5.76,3.24,8s1.44,4,1.85,5.25.64,1.89.64,1.89Z"/><path class="cls-2" d="M350.4,189.33c-6.71,1.61-14.75,3.29-23.62,7.12a200.5,200.5,0,0,0-28.65,15.21,323.25,323.25,0,0,0-31.32,22.5c-5.28,4.38-10.58,9-15.83,14-2.63,2.46-5.25,5-7.85,7.59s-5,5.29-7.47,8.1c-9.82,11.29-19.35,23.65-29,36.26s-19.2,25.57-28.77,38.54c-19.14,26-38.16,52-56.28,76.25S86.35,461.54,71,480.28s-28.8,33.83-39.33,43.29c-5.23,4.72-9.76,8-13.16,9.7-1.74.78-3,1.56-3.87,1.93a6,6,0,0,1-1,.35l-.37.08.36-.09a6.54,6.54,0,0,0,1.05-.36c.89-.38,2.1-1.21,3.81-2,3.36-1.74,7.82-5.1,13-9.91,10.33-9.61,23.51-24.91,38.48-43.89s31.72-41.69,49.39-66.23,36.2-50.92,54.88-77.24c9.35-13.15,18.72-26.28,28.11-39.11q7-9.65,14.14-19c4.74-6.21,9.5-12.3,14.44-18.15,2.46-2.9,5-5.76,7.69-8.49s5.29-5.28,7.95-7.8c5.32-5.06,10.71-9.83,16.08-14.32a258.38,258.38,0,0,1,31.87-23.34,209,209,0,0,1,29.88-15.2c9.29-3.73,18.63-7.66,25.68-9.15s10.26-2.61,14.4-3.33a54.33,54.33,0,0,0,5.77,8.33c-.83.06-3,.16-4.21.29A109.7,109.7,0,0,0,350.4,189.33Z"/><path class="cls-6" d="M272.06,499.77a66.41,66.41,0,0,0,4.15,17c12.73-9.3,19-28.67,19-28.67-1.07,18.13,24.59,22.53,24.59,22.53-5.77-13.77,1.65-32.33,1.65-32.33,10.1,22.44,19,12.34,19,12.34-9.05-19.51,1.4-31.8,1.4-31.8-7.72,21.16,25,41.37,25,41.37-9.55-7.91-10.23-30.93-10.23-30.93,7.28,15.66,34.19,18,34.19,18-10.52-7.29-9.17-48.85-9.17-48.85,8.24,19.25,16.84,19.33,21.42,17.52a83.45,83.45,0,0,0,3.05,10.63,65,65,0,0,0,5.35,11.35C377.57,517.05,257.24,549,261.74,533.82a80.3,80.3,0,0,0,1.94-8.17Z"/><path class="cls-6" d="M417.17,380.1c2.43,35,25.7,46.73,25.7,46.73-8.61-34.77,14-56.64,8.44-47.23a7.59,7.59,0,0,0-.57,1.22c-3.59,10.41,13,36.29,13,36.29,20.28-8.54,11.33-56.58,11.33-56.58,7.33,9.23,8.05,47.32,23.84,33.17,6.49-5.81-7.25-50.29-7.25-50.29a70.21,70.21,0,0,1,23.13,18.47,53.8,53.8,0,0,0,3.76,10.21c1.13,2.29,2.38,4.57,3.75,6.79C508,409.08,441,465,430,448.72c-5.92-8.79-13.56-20.2-21-32.56A225,225,0,0,1,417.17,380.1Z"/><path class="cls-6" d="M535.69,345.23a85,85,0,0,1-21.31-6.77c-9.46-23.7-32-53.85-32-53.85,12.88,3.23,38,36.55,38,36.55.43-21-23.36-41.38-23.36-41.38,16.35,5.83,22.05,18.44,22.05,18.44,6.57-5.39-17-64.36-17-64.36,9.59,5.62,31.95,40.71,31.95,40.71,5.09-11.37-16.83-36.81-16.83-36.81,15,7.91,31,26.56,31,26.56,1.25-4-2.58-11-9-19.37a91.89,91.89,0,0,1,14.91,21.2C572.85,303.77,535.69,345.23,535.69,345.23Z"/></g></g></svg>