<svg xmlns="http://www.w3.org/2000/svg" viewBox="0 0 1355.13 527.76"><defs><style>.cls-1{fill:#63852d;}.cls-2{fill:#8cae39;}.cls-3{fill:#3f5824;}</style></defs><g id="Layer_2" data-name="Layer 2"><g id="Layer_10" data-name="Layer 10"><path class="cls-1" d="M54.72,102.81C104.35,99.24,153.5,45.61,202.88,45q14.81-.18,29.64-.18c86.45-1,174.39-4.15,260.63-6.05L517.72,38l24.2-.75c7.41-.24,14.75-.48,22.08-.76,75.61-4.86,60.77-.28,136.7,5.1-75.93-5.38-72.11-2.93-146.48-1.7-7.15,0-14.31,0-21.55,0l-28.75,0q-14.52,0-29.3-.1c-71.18-1.23-141.76-.19-213.84-2l-29.31-.54c-67.54-1.84-135.8-.8-202.48-.8H.79c1.16,10.12,2.05,71.86,2.59,82C7.83,188.86-4.9,259.45,13.62,329a82.74,82.74,0,0,1,2.86,20.8,52.27,52.27,0,0,1-4.21,21C8.13,381,5.62,394,4.07,408,1,435.86,1.77,467.51.53,487.78"/><path class="cls-1" d="M398.41,47.38c-11.63,13.73,16.24,79.58,8.14,92.73-9.26,16.45-26.61-5.48-42.81-5.47,2.31,9.86-9.26,15.34-15,21.92-3.48-6.58-8.1-13.15-11.57-19.73,1.15,14.25-18.71,34.26-31.44,37.55-2.32-9.87-3.28-31-12.53-36.45,1.16,11-2.56,25.42-8.35,33.09,0-9.86-12.48-29.8-22.89-29.8-11.57-1.1-15,13.15-4.63,18.63-11.57,0-25.45-7.67-25.45-19.73,3.47,6.58,0,16.44-8.11,16.4s-16.19-4.34-22-10.92c8.1,14.25-2.31,30.7-16.2,36.18-6.94-16.44-26.61-20.83-44-20.83,16.19,9.87,11.57,30.7,1.15,42.75-1.16-14.25-17.35-17.53-27.77-23,1.16,12.05-3.47,25.21,5.79,35.07C108,218,94.15,209.19,93,197.13c-6.94,19.73-2.32,40.56,10.41,57-16.2,1.1-28.93-9.86-40.5-19.73A82.56,82.56,0,0,0,86,267.28c-6.94,3.29-11.57-3.28-17.35-4.38-1.16,7.67,5.78,12.06,10.41,17.54-6.94,3.29-12.73-1.1-17.35-5.48,3.47,14.25,6.94,28.5,17.35,39.46-5.79-2.19-12.73-7.67-15-5.48-16.2,9.87-24.3,26.31-35,41.17A123.67,123.67,0,0,0,16.72,372.8a80.61,80.61,0,0,0-5.81,25,76.91,76.91,0,0,0-.85,12.8c.5,29.72,2,60,21,87.52,4.53,4.28,2.78,10.06.89,15s7.45,9.54,4.43,14.67c3-5.13-15-23.08-18-26.51-3,5.13-4.57-6.26-9.31-1.27-4.06,4.91,6.9-4.91,2.91-.49-6.38,6.1,5.12,10.82-8.47,9.95l.07-76.2c0-11.26,0-23.39,0-36.16q-.59-16.51-1.11-33t-1-33c-2.17-65.95-2.17-131.72,2-197.63.17-9.46.24-70.51.38-80q15.4-.2,30.8-.5c65.24-2.79,130-3.89,194.71-4.09q16.63,0,33.19-.12c45.6-1.88,90.73.31,135.91-1.36"/><path class="cls-1" d="M6.75,478.12C39.83,483.5,16.8,507.84,17.54,489c.26-6.29.86-12.26,3.16-16.85,12.64,3.73-13.15-.41,1.81,1.38,6.69,1.34,13.23,5.77,20.21,6.11s14.93,1.16,22,.26c-5.77-3-25.11-20.32-23.53-28.54-8.08-.18-8.85-7.35,22.64-2-2.1-2.4-4.11-4.89-6-7.45A84.07,84.07,0,0,1,52.72,434c-4.76-12.1-8.14-14.33-5.19-25.81,6.13,9,20,11.11,31.58,9-9.26-9.34-16.2-20.76-15-33.22,6.94,5.19,13.88,7.27,22,6.23A106.49,106.49,0,0,1,64.78,367c-5.34-8.95-10-18.29-10-28.67,6.94,9.34,17.36,12.45,27.77,15.57-10.41-12.46-19.67-28-15-43.61,4.63,5.2,8.1,11.42,16.2,13.5-4.63-10.38-6.94-23.88-17.36-27-20.82-5.19-45.12-1-64.51,9.18"/><path class="cls-1" d="M662.7,45.62c-28.47,0-51.61,60.26-82.53,66.28-18.69,3.49-32.53,6-32.53,6s14.87,8.13,17.73,13.75c0,0-10-2.14-22.61-4.5s-27.9-5-38.46-5.9c-4,.06-6.34.06-9.82.06,5.79,2.08,16.2,4.15,16.2,11.42-10.41-3.12-20.82-6.23-32.39-7.27,5.78,3.12,10.41,7.27,12.72,13.5-22-8.31-44-15.57-67.1-16.61,19.67,4.15,38.18,15.57,46.28,33.22C444.73,145.21,408.86,140,401.92,112c0-4.15,5.69-62,3.37-67.17h-3.47c24.3,1,47.44,1,71.63.89,10.57,0,21.91,0,33.76.06H544q11.32,0,22.93,0c56.94-1.21,29.22,2.36,85.74,3.67"/><path class="cls-1" d="M523.8,45.79a33.24,33.24,0,0,0-20,7.42c-5.94,6.14-13.94,61.89-19.73,67.08,9.26,0,19.67-2.08,28.75-2.4,9.72-1.21,17.58-2.4,17.58-2.4,6.07.93,12.71,1.75,19.75,2.72s14.45,2.09,22.12,3.59c16.67,3.81,32.49,7.39,45.15,14.57,6.32-7.18,3.16-12.56,0-19.73,31.63-1.79,56.94,7.17,82.25,17.93-3.16-3.58-3.16-9-9.49-12.55,12.66,1.79,28.48,1.79,41.13,3.59C725,122,725,114.85,715.49,113.05c25.31,3.59,53.79,0,75.93,10.76-6.32-16.14-31.73-76.71-60.21-78.5"/><path class="cls-1" d="M898.63,45.62c-28.48,0-51.62,60.26-82.54,66.28-18.69,3.49-32.52,6-32.52,6s14.86,8.13,17.73,13.75c0,0-10-2.14-22.62-4.5s-27.9-5-38.46-5.9c-4,.06-6.34.06-9.81.06,5.78,2.08,16.2,4.15,16.2,11.42-10.42-3.12-20.83-6.23-32.4-7.27,5.79,3.12,10.41,7.27,12.73,13.5-22-8.31-44-15.57-67.11-16.61,19.67,4.15,38.18,15.57,46.28,33.22C680.66,145.21,644.79,140,637.85,112c0-4.15,5.68-62,3.37-67.17h-3.47c24.3,1,47.44,1,71.62.89,10.57,0,21.91,0,33.76.06h36.78q11.33,0,22.94,0c56.94-1.21,29.22,2.36,85.74,3.67"/><path class="cls-1" d="M759.72,45.79a33.21,33.21,0,0,0-20,7.42c-6,6.14-14,61.89-19.73,67.08,9.25,0,19.67-2.08,28.74-2.4,9.72-1.21,17.59-2.4,17.59-2.4,6.06.93,12.71,1.75,19.74,2.72s14.46,2.09,22.13,3.59c16.67,3.81,32.49,7.39,45.14,14.57,6.33-7.18,3.16-12.56,0-19.73,31.64-1.79,56.95,7.17,82.26,17.93-3.16-3.58-3.16-9-9.49-12.55,12.65,1.79,28.47,1.79,41.13,3.59-6.33-3.59-6.33-10.76-15.82-12.56,25.31,3.59,53.78,0,75.93,10.76-6.33-16.14-31.74-76.71-60.21-78.5"/><path class="cls-1" d="M1145.52,45.62c-28.48,0-51.62,60.26-82.54,66.28-18.68,3.49-32.52,6-32.52,6s14.86,8.13,17.73,13.75c0,0-10-2.14-22.62-4.5s-27.89-5-38.46-5.9c-4,.06-6.34.06-9.81.06,5.79,2.08,16.2,4.15,16.2,11.42-10.41-3.12-20.83-6.23-32.4-7.27,5.79,3.12,10.42,7.27,12.73,13.5-22-8.31-44-15.57-67.11-16.61,19.67,4.15,38.18,15.57,46.28,33.22C927.55,145.21,891.68,140,884.74,112c0-4.15,5.68-62,3.37-67.17h-3.47c24.3,1,47.44,1,71.62.89,10.57,0,21.92,0,33.76.06h36.78q11.33,0,22.94,0c56.94-1.21,29.22,2.36,85.74,3.67"/><path class="cls-1" d="M1006.61,45.79a33.22,33.22,0,0,0-20,7.42c-6,6.14-14,61.89-19.73,67.08,9.25,0,19.67-2.08,28.74-2.4,9.72-1.21,17.59-2.4,17.59-2.4,6.06.93,12.71,1.75,19.74,2.72s14.46,2.09,22.13,3.59c16.67,3.81,32.49,7.39,45.14,14.57,6.33-7.18,3.17-12.56,0-19.73,31.64-1.79,57,7.17,82.26,17.93-3.16-3.58-3.16-9-9.49-12.55,12.65,1.79,28.47,1.79,41.13,3.59-6.33-3.59-6.33-10.76-15.82-12.56,25.31,3.59,53.78,0,75.93,10.76-6.33-16.14-31.74-76.71-60.21-78.5"/><path class="cls-2" d="M24,11.44c59.3-4,118.3-6.71,177.76-5.18,9.69.09,19.36.17,29,.17,60.52-.37,122.52-3,183.44-3.21,11.67-.2,22.81-.43,33.29-.64L535.43.71h-92c-11,0-22.62,0-34.83-.07C346.32-.63,257.68.57,223,.57c-9.49-.24-18.78.07-28.28.41C134.45,1,1.49.48,0,.48.21.92,0,308.59,0,350c0,13.41.59,26.12.5,39.18s.26,26.12.31,39.19c0,9.36-.84,19.78-.83,29.07v23.21c2.79,6.59,0,30,26.7,46.95-5.36-7.18-3.4-22.66-6.89-32.57,0,0,16,19.81,20.25,13.7,0,0-10.17-23.5-15.93-28.78,0,0,12.38,10.39,19.17,7.82,0,0-17.26-20.53-15.38-30.44,0,0,9.3,15,12.31,11.72,0,0-8.54-41.46-8.54-51.38l-12.63-63C15.9,339,12.74,438.3,10.35,426.45A71.58,71.58,0,0,1,9,400.23a150.9,150.9,0,0,1,5.81-25.59c5.63-16,10.63-33.39,12.63-52.12,4,2.68,6,10.7,11,10.7,6-1.33,9-10.7,6-17.38-7-12-17-25.42-13-41.47,3,4,6,10.7,12,6.69a41.83,41.83,0,0,1-8-20.07c5-1.34,8,6.69,13,4-7-12-15-24.07-16-40.13,7,12,18,24.08,30,18.73-7-20.06-13-42.8-8-64.21,1,9.37,8,17.39,15,18.73,2,0,5-1.34,5-2.68,0-13.37-8-25.41-6-38.79,8,5.35,18,10.7,19,22.74,4-14.71,9-37.45-1-49.49,12-5.35,22,10.7,34,8,11-2.67,9-22.74,9-34.77,5,4,9,10.7,16,9.36,6-1.34,6-12,3-17.39,2,12,9,21.4,18,22.74-3-6.69-6-20.07,2-22.74,11-2.68,21,12,20,25.41,8-5.38,16-16.09,11-28.09,9,6.64,20,14.4,21.95,30.22,7-6.79,18-17.62,11-30.61,4,7.81,7.95,14.28,10.91,23.34,2-7.89,9-15.94,5.05-25,7,1.15,10.51,9.42,12.48,18.49,4-4,19.41-7.52,15.45-15.22-5.95-12.89-10-79.08-6.58-93.08"/><path class="cls-2" d="M.23,272.86c11.45-7.22,16.86-17.74,27.65-26,4.51,19.89,13.06,36.92,18.57,56.78-7-.82-9.22-4-12.36-8.95-1.29,7.56.64,14.52,2.82,21.46s4.74,19.56,4.43,27.07c-5.1-3.87-9.36-14.44-11.51-20.38.3,12,5.58,22.86,10.89,33.68a120.81,120.81,0,0,0,10.1,15.37C46.64,374,41,368.81,41,368.81c2.57,3.58,4.42,22.62,4.42,22.62q-.72-.15-1.35-.33c-7.27-2.05-7.48-7-7.48-7-.78,8.66,8,39.12,8,39.12-18.36-4.7-22.6-24.4-20.45-28.66,3.32,25.31,12.87,42.55,26.23,61.36-14.47,5.16-28.19-10.59-28.19-10.59-10.57,20.62,4.47-8.28,4.47-8.28C-1.7,424.54.2,464.14.09,457.41c0,0,.72-43.28,0-87.66-.11-6.34.09-11.77,0-18,0-25.71,1.29-50.63,0-76.65"/><path class="cls-2" d="M809.15.67s36.1,46.78,51.42,84.89c0,0-39.5-20.63-65.7-7.61,0,0,19.64,18.73,12.89,37.54-23.52-18.37-45.12-31.67-77-37.12,5.42-2.65,30.2,3.77,35.83,28.13,0,0-38.3-12.84-49.25-12.18,0,0,6.22.48,8.69,10.13.14.56.28,1.16.39,1.8,0,0-24-3.25-28.47-6.79,0,0-9.54,7.4-9.28,23.91,0,0-20.94-30.9-47.51-40,0,0,19.62,10.45,16.88,18,0,0-40.17-14.14-50.38-12.2,0,0,18.35,9.56,14.91,12.86,0,0-35.3-11.1-45.48-11.27L448,8.77s-5.27,53.52-13.31,56.38c-23.64,7.79-47.64,17.6-71.64,23.74,3,7.36,10,11,11,19.64-15-7.37-31-13.5-48-14.73,3,4.91,12,4.91,10,14.73-7-4.91-14-8.59-22-8.59,3,4.9,8,9.81,9,17.18-16.7-9-31.54-20.94-43.28-41,14,7.36,16.4,18.4,19.4,38-27-11-47.21-68.28-35.21-107.55,0-2.46-18.27-4.91-20.27-6.14,52,0,122.27,0,173.86.14L437,.65l65.89,0"/><path class="cls-2" d="M355.05,0c-9.05,12.74-18,77.85-27,91.34,32-7.36,64,3.69,93,22.09,3,2.46,0-13.49-1-22.09,15,1.23,28,8.6,41.38,16.57a157.13,157.13,0,0,1,19.67,15.26c2.53-6.35-4.13-14.93-4.13-14.93,4.59,3.9,28.69,6.63,28.69,6.63-.14-.73-.29-1.41-.46-2.06-2.79-11-9-11.3-9-11.3,10.91-1.21,49.63,12,49.63,12-6.46-27.82-31.45-34.17-36.77-30.9,32.06,5,54.1,19.36,78.22,39.54,6.12-21.95-14.15-42.7-14.15-42.7,25.73-16.08,65.91,6,65.91,6C626,56.54,594.83.47,588.11.47"/><path class="cls-2" d="M1108.84.65,711.64.9c-17.1,33.68,2.52,82.81,67,117.51-26.49-21.57,6.2-26.08-24.48-34.63,18.65,12.51,50.9,24.53,57.78,32.67.72-5.75-10.41-29.85-10.41-29.85,16.47-.19,35.69,12.08,35.69,12.08,4.76-9.71-17.62-20.05-17.62-20.05,15-3,79,17.73,79,17.73C870.58,62.08,952,6.74,1020.69,3.86L1226,79.67c16.46.2,73,15.14,73,15.14-3.56-14.35-9.52-14.88-9.52-14.88C1340.13,69.88,1344,94,1344,94c15.58-49.22,17.43-62-11-93.55Z"/><path class="cls-2" d="M842.75.47,796.06,79.4c16.46-.27,80.77,2.62,80.77,2.62,23.31-3.24,46.82,3.81,51.68,31.62,24.31-10.49,25.68-31.29,25.68-31.29,47.62,1.23,89.75,37.36,89.75,37.36,4-8.7-6.76-20.49-6.76-20.49,7.45,5.36,46.44,9.22,46.44,9.22q-.34-1.48-.75-2.82c-4.57-15.1-14.65-15.53-14.65-15.53,17.65-1.62,80.33,16.64,80.33,16.64-10.57-38.15-36.4-33.07-45-28.61,51.88,6.93,73,12.88,112.1,40.66,9.79-30.06-20.17-48-20.17-48,203.78-107.54-58.74-54,103.73-2-19.59-21.79-63.92-61.1-74.78-61.13"/><path class="cls-3" d="M25.11,38.51,268.21.09.13.12c0,51-.3,232.71,0,370.88a42,42,0,0,0,24.24,24s-10-18.52-3.26-30.64c0,0,9.21,9.27,18.68,6.24-9-11.06-15.47-21.2-17.93-36.08-1.37,2.5,1.63,14.08,13.77,16.85,0,0-6.1-17.91-5.68-23,0,0,.19,2.9,5,4.11l.9.19s-1.42-11.19-3.16-13.3c0,0,3.79,3,6.53,1.8,0,0-13.48-14.64-14.11-28.33,0,0,5.06,9.19,8.85,8,0,0-6.74-18.78-5.68-23.52,0,0,4.62,8.6,6.31,7,0,0-5.26-16.5-5.26-21.25l-14.1-60.22,16.1-39.68s5.41,4.83,9.2,5.79c0,0-8-18.52-6.73-22.82,0,0,4,6.5,8,5.18,0,0-4.83-5.6-4.67-10.34,0,0,6.28,4.19,8.6,4,0,0-11.15-14.05-10.52-21.25.7,3.5,14.32,15.61,20.62,14.22-3.16-4.74-9.52-29.48-6.74-34.06,0,0,5.26,15.1,15.58,12.82A77.38,77.38,0,0,1,57,94.08s12.41,5.33,14.48,14.37a12.26,12.26,0,0,1,.25,1.61S76.61,89,66.09,78.8c0,0,14.52-2.1,20,10.36,0,0,9.68-9.3,2.1-24.58a15,15,0,0,1,8.31,6.15s6.63-4.74,1.58-12.38c0,0,.63,8.95,11.68,13.43,0,0-5.68-11.32-1.58-15.54,0,0,13.89,8.34,12.84,15.19,0,0,8.21-8.08,4-16.33,0,0,12.41,6.67,12,14.4,0,0,10.94-4.92,5.47-15.63,0,0,6.42,9.35,5.95,11.46s5.2-8.43,2.52-12.51c0,0,7.73,1.58,9.47,7.37,0,0,8.68-2.24,6.16-6.71s-5.37-16.73-5.37-16.73l1.1-34.37"/><path class="cls-3" d="M.51,183.8s2.35,18.6,22.62,26.76c0,0-10.54-20.93-3.74-35.44,5,4.19,12,9.57,18.51,5.38a111.49,111.49,0,0,1-12.1-19.38A79.16,79.16,0,0,1,19,139.89a20.4,20.4,0,0,0,13.64,18.39c-1.38-9.3-6-18.12-6.11-27.39.05,3.48,3.34,4.23,5.51,4-.08-5.78-.13-10.37-3.41-14.52,2.18,2,4.35,2.86,6.5.3-7.59-7-10.78-17.79-12.79-28.63,3.24,1.82,3.13,8.48,8.58,6.68A59,59,0,0,1,26,74.1c2.13,1.93.9,6.41,5.24,7-.56-15-9.12-25.52-26.74-18.63"/><path class="cls-3" d="M132.49.1H.36s3.85,31.08.1,42.72S31,71.25,31,71.25c1.64-6.6-11.7-21.15-15.59-22C23.47,48.76,39,60.75,39,60.75c.23-2.43-4.36-9.12-4.36-9.12,5.29-.07,11.47,5.12,11.47,5.12,1.53-4.1-5.67-8.48-5.67-8.48,4.82-1.24,25.39,7.52,25.39,7.52-1-4-6.34-9.8-6.34-9.8L104,4.37l67,41.41c5.29.09,23.65,5.94,23.65,5.94,1.78-1.74-7.76-6.78-7.76-6.78,5.31-1,26.19,6.43,26.19,6.43,1.42-4-8.77-9.46-8.77-9.46,15.28.92,31.43,15.37,31.43,15.37,1.41-2.85-1.91-6.89-1.91-6.89,2.32,1.86,14.8,3.57,14.8,3.57-.06-.33-.13-.65-.2-1-1.29-5.08-4.52-5.33-4.52-5.33,5.69-.34,25.6,6.41,25.6,6.41-2.92-12.82-15.81-16.19-18.63-14.8,16.58,2.87,27.81,9.87,40,19.54,3.52-9.9-6.69-19.76-6.69-19.76,13.62-6.86,34.15,4,34.15,4C311.56,25.89,294.22,0,291.7,0h-1.62"/><path class="cls-3" d="M50.91.1,36.78,47.77c5.29-.12,16.54-3.51,16.54-3.51C62,46.91,74,48.35,84.93,60.19c3.45-4.65-.47-13.6-.47-13.6C99.76,47,116.39,63,116.39,63c1.31-3.34-2.15-7.86-2.15-7.86,2.39,2,14.92,3.49,14.92,3.49-.08-.38-.15-.74-.24-1.08-1.45-5.79-4.69-6-4.69-6,5.67-.64,25.8,6.3,25.8,6.3-3.36-14.63-16.35-18-19.12-16.25,16.67,2.6,28.13,10.18,40.67,20.8C174.75,50.87,164.22,40,164.22,40c13.38-8.46,34.26,3.17,34.26,3.17C191.7,27.9,175.54.1,172,.1"/><path class="cls-3" d="M354.62.1,229.27.07s3.85,31.08.09,42.72,23.77,28.46,23.77,28.46c1.64-6.6-11.69-21.15-15.59-22,8.05-.53,23.57,11.46,23.57,11.46.23-2.43-4.36-9.12-4.36-9.12,5.3-.07,11.48,5.12,11.48,5.12,1.52-4.1-5.68-8.48-5.68-8.48,4.82-1.24,25.39,7.52,25.39,7.52-1-4-6.34-9.8-6.34-9.8L326.13,4.37l67,41.41c5.3.09,23.65,5.94,23.65,5.94,1.79-1.74-7.75-6.78-7.75-6.78,5.3-1,26.18,6.43,26.18,6.43,1.43-4-8.77-9.46-8.77-9.46,15.28.92,31.44,15.37,31.44,15.37,1.41-2.85-1.92-6.89-1.92-6.89,2.33,1.86,14.8,3.57,14.8,3.57-.06-.33-.13-.65-.2-1-1.28-5.08-4.52-5.33-4.52-5.33,5.69-.34,25.6,6.41,25.6,6.41-2.92-12.82-15.81-16.19-18.62-14.8,16.58,2.87,27.8,9.87,40,19.54,3.51-9.9-6.7-19.76-6.7-19.76,13.62-6.86,34.15,4,34.15,4C533.69,25.89,516.34,0,513.83,0H512.2"/><path class="cls-3" d="M273,.1,258.9,47.77c5.29-.12,16.54-3.51,16.54-3.51,8.68,2.65,20.66,4.09,31.61,15.93,3.46-4.65-.47-13.6-.47-13.6C321.88,47,338.51,63,338.51,63c1.32-3.34-2.14-7.86-2.14-7.86,2.38,2,14.91,3.49,14.91,3.49q-.11-.57-.24-1.08c-1.45-5.79-4.69-6-4.69-6,5.68-.64,25.8,6.3,25.8,6.3-3.35-14.63-16.34-18-19.11-16.25,16.66,2.6,28.12,10.18,40.66,20.8C396.88,50.87,386.34,40,386.34,40c13.38-8.46,34.27,3.17,34.27,3.17C413.82,27.9,397.66.1,394.17.1"/><path class="cls-3" d="M6.06,176.89l19.19-9.34c-.08,3.43-1.88,10.72-1.88,10.72,1.34,5.61,2,13.37,8.14,20.41-2.42,2.26-7-.25-7-.25.15,9.91,8.37,20.62,8.37,20.62-1.74.86-4.07-1.36-4.07-1.36,1.06,1.54,1.75,9.64,1.75,9.64a5.12,5.12,0,0,1-.56-.15c-3-.91-3.06-3-3.06-3-.36,3.68,3.17,16.68,3.17,16.68-7.59-2.11-9.27-10.51-8.37-12.31,1.29,10.78,5.18,18.17,10.64,26.25-6,2.1-11.63-4.68-11.63-4.68-4.44,8.7,1.52,22.18,1.52,22.18-7.87-4.34-16.65-14.69-16.63-17"/><path class="cls-3" d="M592.68.1,467.34.07s3.85,31.08.09,42.72S491.2,71.25,491.2,71.25c1.64-6.6-11.7-21.15-15.59-22,8.05-.53,23.57,11.46,23.57,11.46.23-2.43-4.36-9.12-4.36-9.12,5.29-.07,11.47,5.12,11.47,5.12,1.53-4.1-5.67-8.48-5.67-8.48C505.44,47,526,55.79,526,55.79c-1-4-6.34-9.8-6.34-9.8L564.19,4.37l67,41.41c5.29.09,23.65,5.94,23.65,5.94,1.78-1.74-7.76-6.78-7.76-6.78,5.31-1,26.19,6.43,26.19,6.43,1.42-4-8.77-9.46-8.77-9.46C679.82,42.83,696,57.28,696,57.28c1.41-2.85-1.91-6.89-1.91-6.89,2.32,1.86,14.8,3.57,14.8,3.57-.06-.33-.13-.65-.21-1-1.28-5.08-4.51-5.33-4.51-5.33,5.69-.34,25.6,6.41,25.6,6.41-2.92-12.82-15.81-16.19-18.63-14.8,16.58,2.87,27.81,9.87,40,19.54,3.52-9.9-6.69-19.76-6.69-19.76,13.62-6.86,34.15,4,34.15,4C771.75,25.89,754.41,0,751.89,0h-1.62"/><path class="cls-3" d="M511.1.1,497,47.77c5.29-.12,16.54-3.51,16.54-3.51,8.67,2.65,20.65,4.09,31.61,15.93,3.45-4.65-.47-13.6-.47-13.6C560,47,576.58,63,576.58,63c1.31-3.34-2.15-7.86-2.15-7.86,2.39,2,14.92,3.49,14.92,3.49-.08-.38-.15-.74-.24-1.08-1.45-5.79-4.69-6-4.69-6,5.67-.64,25.8,6.3,25.8,6.3-3.36-14.63-16.35-18-19.12-16.25,16.67,2.6,28.13,10.18,40.67,20.8C634.94,50.87,624.41,40,624.41,40c13.38-8.46,34.26,3.17,34.26,3.17C651.89,27.9,635.72.1,632.23.1"/><path class="cls-3" d="M767.87.1,642.53.07s3.85,31.08.09,42.72,23.77,28.46,23.77,28.46c1.64-6.6-11.7-21.15-15.59-22,8.05-.53,23.57,11.46,23.57,11.46.23-2.43-4.36-9.12-4.36-9.12,5.29-.07,11.47,5.12,11.47,5.12,1.53-4.1-5.67-8.48-5.67-8.48,4.82-1.24,25.39,7.52,25.39,7.52-1-4-6.34-9.8-6.34-9.8L739.39,4.37l67,41.41c5.29.09,23.65,5.94,23.65,5.94,1.78-1.74-7.76-6.78-7.76-6.78,5.31-1,26.19,6.43,26.19,6.43,1.43-4-8.77-9.46-8.77-9.46,15.28.92,31.44,15.37,31.44,15.37,1.41-2.85-1.92-6.89-1.92-6.89,2.33,1.86,14.8,3.57,14.8,3.57-.06-.33-.13-.65-.2-1-1.29-5.08-4.52-5.33-4.52-5.33,5.69-.34,25.6,6.41,25.6,6.41C902,41.27,889.12,37.9,886.31,39.29c16.57,2.87,27.8,9.87,40,19.54,3.51-9.9-6.7-19.76-6.7-19.76,13.62-6.86,34.15,4,34.15,4C947,25.89,929.6,0,927.09,0h-1.63"/><path class="cls-3" d="M686.29.1,672.16,47.77c5.29-.12,16.54-3.51,16.54-3.51,8.67,2.65,20.66,4.09,31.61,15.93,3.45-4.65-.47-13.6-.47-13.6C735.14,47,751.77,63,751.77,63c1.32-3.34-2.15-7.86-2.15-7.86,2.39,2,14.92,3.49,14.92,3.49q-.1-.57-.24-1.08c-1.45-5.79-4.69-6-4.69-6,5.67-.64,25.8,6.3,25.8,6.3-3.36-14.63-16.35-18-19.11-16.25C783,44.22,794.42,51.8,807,62.42,810.14,50.87,799.6,40,799.6,40c13.38-8.46,34.27,3.17,34.27,3.17-6.79-15.22-23-43-26.45-43"/><path class="cls-3" d="M1031.77.1,906.42.07s3.85,31.08.1,42.72,23.76,28.46,23.76,28.46c1.64-6.6-11.69-21.15-15.59-22,8-.53,23.58,11.46,23.58,11.46.22-2.43-4.37-9.12-4.37-9.12,5.3-.07,11.48,5.12,11.48,5.12,1.52-4.1-5.67-8.48-5.67-8.48,4.82-1.24,25.38,7.52,25.38,7.52-1-4-6.34-9.8-6.34-9.8l44.53-41.62,67,41.41c5.3.09,23.65,5.94,23.65,5.94,1.79-1.74-7.75-6.78-7.75-6.78,5.3-1,26.18,6.43,26.18,6.43,1.43-4-8.77-9.46-8.77-9.46,15.28.92,31.44,15.37,31.44,15.37,1.41-2.85-1.92-6.89-1.92-6.89,2.33,1.86,14.8,3.57,14.8,3.57-.06-.33-.13-.65-.2-1-1.28-5.08-4.52-5.33-4.52-5.33,5.69-.34,25.6,6.41,25.6,6.41-2.92-12.82-15.81-16.19-18.62-14.8,16.58,2.87,27.81,9.87,40,19.54,3.51-9.9-6.7-19.76-6.7-19.76,13.62-6.86,34.16,4,34.16,4C1210.84,25.89,1193.49,0,1191,0h-1.62"/><path class="cls-3" d="M950.19.1,936.05,47.77c5.29-.12,16.54-3.51,16.54-3.51,8.68,2.65,20.66,4.09,31.61,15.93,3.46-4.65-.47-13.6-.47-13.6C999,47,1015.67,63,1015.67,63c1.31-3.34-2.15-7.86-2.15-7.86,2.39,2,14.91,3.49,14.91,3.49q-.11-.57-.24-1.08c-1.45-5.79-4.69-6-4.69-6,5.68-.64,25.8,6.3,25.8,6.3-3.35-14.63-16.34-18-19.11-16.25,16.66,2.6,28.12,10.18,40.66,20.8C1074,50.87,1063.49,40,1063.49,40c13.38-8.46,34.27,3.17,34.27,3.17-6.79-15.22-23-43-26.44-43"/></g></g></svg>