<svg xmlns="http://www.w3.org/2000/svg" viewBox="0 0 745.5 420.12"><defs><style>.cls-1{fill:#63852d;}.cls-2{fill:#8cae39;}.cls-3{fill:#3f5824;}.cls-4{fill:#bdd372;}.cls-5{fill:#456a2a;}.cls-6{fill:#4e7b2e;}</style></defs><g id="Layer_2" data-name="Layer 2"><g id="Layer_1-2" data-name="Layer 1"><path class="cls-1" d="M380.9,128.32s-6,5.45-11.66,31.65c-4.07,18.95,3.34,31.58,8,36.79,3.7,4.11,9.89-.57,11.89-8.73,7.66-31.08-5.3-55,8.73-77.94.22-.37.43-.74.67-1.11,10.27-15.88,56.92-29.79,75-34.39l2-.51a351.4,351.4,0,0,1,35-6.38C499.55,53.59,487,39,472.93,30.46c-13-7.89-75.33-55.62-140.7-12.94,0,0,88.48,34.24,61.67,54.41C381,81.61,350.48,30.69,323,27.39,294.41,23.56,220,56,215.22,78.55c0,0,106.68,32.18,75.81,69.36-17.55,21.13-48.94-61.32-89.12-60-22.4.72-85,38.71-101.77,72.94,0,0,70.67-13,85.38,7,24.23,33.57-55.17,8.51-63.31,6.73-30.69-9.65-44.67,6.18-59.39,35.86C55.05,225.46-7.26,320.55.7,326.94c19.48,5.82,83.89-2.68,97.93-10.68,11.92-6.47,71.36-62.2,54-37.81-6.57,9.21-38.86,25.26-47.42,40.15-5.9,10.25,44.81-27.82,54.71-36.26,45.64-63.3,128-115.6,174-141.71C354.5,129,378.35,113.33,380.9,128.32Z"/><path class="cls-2" d="M527.72,147.44C498,150.16,513.61,51.2,481.87,51.76c5.58,17.81-33.42,21.48-51.46-15.14-7.59,6.73-.19,22.58-2.19,33.63-22.14-6.22-27-28.09-36.3-32.12,5.4,15.24,25.75,21.2,17.26,50.33-4.12-2-40.48-16.64-44.87-13.9-1.92,1.2,25.11,14.35,32.76,32.93l.11.18c15.2,24.25-73.46-3.34-79.52,5.4,1.67.56,30.94,11.36,33,47.26v.11c.35,4.57-39.76-23.68-49.86-19,6.7,5.39-1,14.19,1.34,21.85-17.54,4.71-51.78-20.81-66.35-15.36,12.17,3.77,35.48,13.7,40.18,30.13-17.5,6.92-24.26-1.77-40.84-4.78.21,12.1,23.32,10.6,21.35,23.84-8.9-5.34-13.17,2.44-19.82.35-8.86-3.15-29.28-15-39.23-17,5.64,7.61,27.12,19.71,35,27-12,4.62-39.62-9.88-52.7,2.89,3.31,1,30.8,5.51,34.13,6.54-24.28,18.38-48.51,8-66.84,18.49,15.55,4.81,14.49,9.66,22.23,11.73-15.35,3.57-26.36,3.77-41.62,12.84-6.94,4.67-13.24,18.33-13.81,20,0,0,6.36-2.33,19.67-9,27.33-13.67,149.26-60.62,199.64-79.2,14.92-5.5,61.68,21.28,61.68,21.28l71.59-68.91S525.33,154.21,527.72,147.44ZM270.94,209.6c-2.28.77-13.06,1.1-15.74.45-6.29-2.12-5.95-8.27-.44-11.27C262.84,194.37,282.73,204,270.94,209.6Z"/><path class="cls-1" d="M540.08,179.48c5.53-2.45,15-9.24,22.54-16-4.44-7.76-9-15.8-13.37-23.78-10,8.67-18.22,17.5-27.13,27.65C516.42,173.88,506.69,194.25,540.08,179.48Z"/><path class="cls-3" d="M120.11,149.48s24.8-4.51,33,.43L135.6,134.42c8.4-7.43,45.57,2.34,45.57,2.34-2.16-6.35-16.39-19-16.39-19,20.63-2.06,45.16,25.23,45.16,25.23.46-18.84-25.35-36.46-25.35-36.46,23.16-13.54,30.07,3,30.07,3s3.71-8.37-1.83-20a31.52,31.52,0,0,0-10.92-1.64c-22.38.72-84.87,38.66-101.73,72.87h.35c2-.35,11.52-2,23.63-3.07h0S121.78,153.44,120.11,149.48Z"/><path class="cls-4" d="M200.48,233l-4.57-1.75-2.4-.91c-.9-.3-1.89-.58-2.94-.9a73.2,73.2,0,0,0-7.1-1.95l-4.1-.91a20.87,20.87,0,0,0-2.17-.38l-2.25-.34-2.31-.34-1.18-.18-1.21-.11-4.93-.38-1.25-.1-1.28,0-2.57,0c-1.72,0-3.48-.07-5.23.08l-5.3.3-5.32.66-1.33.16c-.49.05-.89.18-1.33.25-.87.2-1.74.32-2.61.6s-1.73.48-2.58.76l-2.5.88c-3.29,1.27-6.44,2.69-9.44,4.15-6,2.93-11.49,5.86-16.31,8.12-1.2.58-2.37,1.09-3.48,1.59s-2.18.92-3.17,1.34c-2,.78-3.79,1.45-5.29,1.88-.74.21-1.4.45-2,.58l-1.5.35-1.24.29,1.25-.27,1.49-.32c.6-.12,1.25-.34,2-.55,1.51-.4,3.29-1,5.33-1.77,1-.41,2.09-.81,3.2-1.29s2.31-1,3.52-1.52c4.87-2.18,10.42-5,16.46-7.81,3-1.4,6.18-2.76,9.45-4l2.48-.83c.84-.25,1.68-.45,2.52-.69s1.72-.35,2.58-.53c.43-.07.89-.19,1.29-.22l1.32-.13,5.27-.56,5.25-.2a49.3,49.3,0,0,1,5.16,0l2.54.07,1.26,0c.42,0,.83.07,1.24.12l4.85.47,1.18.13,1.16.19c.76.14,1.53.25,2.27.38l2.21.38a20.06,20.06,0,0,1,2.13.42c1.39.33,2.73.65,4,1,2.59.55,4.85,1.39,6.9,2,1,.33,2,.62,2.84.93l2.39,1L199.7,235Z"/><path class="cls-4" d="M292,192.14l-1.38-1L289,189.88c-.65-.48-1.4-1-2.29-1.64l-2.91-2c-1.06-.72-2.23-1.43-3.48-2.22s-2.6-1.57-4-2.4c-.71-.41-1.43-.85-2.2-1.27l-2.33-1.26c-3.17-1.73-6.68-3.46-10.42-5.22s-7.74-3.48-11.91-5.17-8.49-3.41-12.87-5.12q-3.28-1.31-6.59-2.65l-3.28-1.39-3.24-1.51c-2.17-1-4.31-2.08-6.5-3s-4.4-1.85-6.59-2.77l-1.62-.69L207,151l-3.27-1.23c-2.17-.8-4.28-1.65-6.44-2.3L191,145.37c-1-.36-2.06-.63-3.07-.91l-3-.85-2.93-.82c-1-.27-1.91-.55-2.86-.76l-5.45-1.28c-3.49-.89-6.74-1.41-9.6-2l-4-.75-3.44-.5-6.51-.92,6.49,1.06c1,.16,2.19.34,3.43.55l4,.82c2.84.61,6.08,1.21,9.54,2.15l5.42,1.39c.94.21,1.89.52,2.84.8l2.91.88,3,.9c1,.3,2,.59,3.05,1,2,.72,4.11,1.44,6.22,2.17s4.23,1.59,6.38,2.42l3.23,1.27,1.63.65,1.61.71,6.48,2.87c2.16,1,4.28,2.09,6.44,3.13l3.24,1.59,3.28,1.47q3.3,1.43,6.56,2.77c4.37,1.8,8.64,3.58,12.75,5.35s8,3.59,11.72,5.36,7.11,3.58,10.21,5.35l2.28,1.29c.73.42,1.44.87,2.14,1.28,1.38.85,2.7,1.64,3.9,2.44s2.36,1.53,3.37,2.24l2.78,2c.85.58,1.59,1.15,2.23,1.65s1.2.92,1.64,1.27l1.36,1Z"/><path class="cls-4" d="M415.9,160.67l-1.17-1.58c-.75-1-1.89-2.53-3.26-4.45s-3.05-4.27-5-7L400,138.55c-2.43-3.31-5-6.92-8-10.59-1.44-1.87-3.06-3.7-4.66-5.6s-3.35-3.76-5.21-5.57-3.75-3.64-5.7-5.46-4.06-3.51-6.26-5.11L368.52,105l-.82-.62-.85-.57-3.4-2.31c-1.14-.76-2.35-1.43-3.52-2.16s-2.36-1.43-3.56-2.09l-7.1-4c-2.36-1.33-4.8-2.55-7.18-3.82l-3.56-1.86L335,85.76c-2.36-1.17-4.69-2.34-7-3.49l-13.25-6.45-6.12-3L302.94,70c-1.82-.93-3.58-1.78-5.23-2.64L293,64.88l-4.12-2.17c-1.25-.7-2.4-1.34-3.44-1.94L279,57.1s2.34,1.4,6.41,3.87l3.39,2,4.06,2.28,4.61,2.6c1.63.91,3.37,1.82,5.16,2.79l5.63,3,6,3.16,13,6.83,6.86,3.68,3.48,1.88,3.49,2c2.31,1.33,4.68,2.59,7,4l7,4.21c1.18.7,2.3,1.43,3.43,2.16s2.29,1.43,3.37,2.2l3.26,2.35.81.58.78.63,1.55,1.24c2.09,1.61,4,3.42,5.94,5.14s3.7,3.57,5.39,5.45,3.32,3.73,4.9,5.57,3,3.72,4.41,5.6c2.81,3.68,5.29,7.32,7.6,10.66l6.19,9.25c1.85,2.77,3.46,5.18,4.81,7.17s2.42,3.51,3.16,4.57l1.11,1.61Z"/><path class="cls-4" d="M465.8,158.44s.05-.6.14-1.71.23-2.73.3-4.89.15-4.72.13-7.67c-.05-1.48,0-3-.13-4.7s-.14-3.39-.31-5.19-.29-3.69-.54-5.62c-.11-1-.23-2-.35-3s-.28-2-.43-3c-.26-2.06-.69-4.15-1-6.29q-.31-1.59-.66-3.24c-.21-1.07-.44-2.17-.71-3.27-.95-4.41-2.24-8.89-3.61-13.42s-3.07-9-4.88-13.48-3.85-8.81-6.08-13a125.7,125.7,0,0,0-7.08-11.92l-.92-1.41-1-1.35c-.65-.89-1.29-1.78-1.91-2.66l-2-2.53-1-1.24-1-1.18-2-2.32c-.68-.73-1.34-1.45-2-2.16-1.28-1.45-2.67-2.71-3.95-4-.63-.64-1.3-1.21-1.94-1.78L421,35.8c-1.26-1-2.49-2-3.62-2.9-2.35-1.72-4.42-3.18-6.22-4.25S408,26.76,407,26.21l-1.5-.82,1.47.87c1,.58,2.4,1.37,4.1,2.57s3.77,2.65,6.06,4.44c1.09.94,2.28,1.92,3.49,3,.6.55,1.2,1.13,1.82,1.71s1.27,1.17,1.87,1.83c1.23,1.29,2.55,2.58,3.78,4.06.64.72,1.27,1.46,1.93,2.2l1.87,2.36,1,1.2c.31.42.61.84.92,1.25l1.87,2.57,1.8,2.7c.31.45.61.91.91,1.36s.59.94.87,1.41a129.38,129.38,0,0,1,6.6,12c2.05,4.18,3.87,8.55,5.56,13s3.1,8.94,4.36,13.42,2.31,8.93,3.12,13.29c.23,1.08.42,2.16.59,3.23s.36,2.13.53,3.18c.28,2.11.63,4.17.82,6.18.12,1,.22,2,.33,3s.17,2,.25,2.9c.17,1.89.24,3.73.33,5.5s.1,3.45.15,5.05,0,3.12,0,4.55c-.08,2.86-.18,5.36-.36,7.37s-.33,3.64-.46,4.75-.19,1.7-.19,1.7Z"/><path class="cls-4" d="M334.91,211.55a95.2,95.2,0,0,0-17.41-3.23,143.26,143.26,0,0,0-23.28.29,231.12,231.12,0,0,0-27.39,4q-7.21,1.59-14.7,3.72-3.74,1.06-7.51,2.26c-2.46.79-4.93,1.73-7.42,2.71-10,4-20.13,8.74-30.41,13.61s-20.66,10-31,15.15c-20.74,10.26-41.46,20.64-61,30.14S76.9,298.42,61,305.34,31.45,317.46,21.62,320A46.5,46.5,0,0,1,10,321.89c-1.36-.08-2.4,0-3.1,0a3.78,3.78,0,0,1-.79-.12l-.25-.07.25.07a5.94,5.94,0,0,0,.79.11c.7.05,1.75-.08,3.09,0a46.27,46.27,0,0,0,11.53-2.07c9.75-2.74,23.19-8.16,39-15.36s34-16.17,53.3-26,39.85-20.59,60.42-31.24c10.29-5.32,20.59-10.62,30.8-15.71,5.12-2.56,10.2-5.06,15.26-7.46s10.11-4.72,15.19-6.83c2.52-1,5.08-2,7.7-2.89s5.11-1.63,7.63-2.37c5.07-1.48,10.07-2.75,15-3.85a186.72,186.72,0,0,1,28-4.41,148.56,148.56,0,0,1,24.07.13c7.15.67,14.41,1.24,19.4,2.6s7.41,1.71,10.29,2.61a38.34,38.34,0,0,0,.94,7.22c-.56-.24-1.95-.88-2.79-1.21A79.21,79.21,0,0,0,334.91,211.55Z"/><path class="cls-3" d="M108.8,272.19s-61,24.51-68.31,12.35c0,0,28.47-19.75,34-20.38,0,0-21.32-7.27-18.57-13.42l25.51-10.4s-12.12-5.73-11.69-14.13l34.76,5.13c-18.4-14.3-20.06-24.08-20.06-24.08s15.22,5.42,25.36,4.59c0,0-14.12-17.67-10-26.07,1.77-3.6,8.68-7.39,12.23-5.71a72.85,72.85,0,0,1-6.36-8.28c-19.75.07-31,15-42.81,38.68C55.24,225.1-4.26,316,.25,326.32,23.54,319.83,60,305.19,108.8,272.19Z"/><path class="cls-3" d="M296.27,103.21C298.69,84.81,271.9,54,271.9,54c25.44-7.64,55.58,22.51,55.58,22.51,5-5.19-16.82-38.45-16.82-38.45C320.5,33.75,343,51.23,343,51.23s-6.56-18.29-12.43-21.83a30.36,30.36,0,0,0-7.57-2C294.41,23.56,220,56,215.22,78.55c0,0,25.8,7.78,48.35,20.12L249.19,72.74C256,66.72,296.27,103.21,296.27,103.21Z"/><path class="cls-3" d="M401.19,39.88c-.57-5-12.66-21.31-22.61-29.67,0,0,29.7.54,60.18,17,0,0-19.39-23-29.62-25.37C386.27-2.36,359.51-.3,332.23,17.52a338.14,338.14,0,0,1,34.1,15.81l-6.11-11.61C367.44,16.1,401.19,39.88,401.19,39.88Z"/><path class="cls-2" d="M744.65,417.49c15-23.42-173.32-160.35-203.64-162.65-3.26-.24-5.73-3-8.54-4.21-1.13-.49-2.25-1-3.37-1.4l3.34,9.32c1.71.79,3.21,2.63,5.18,2.57,22.5-.77,206.41,133.65,201.67,157.53"/><path class="cls-5" d="M612.72,108.38s-27.24,25.36-40.52,44.79a60.69,60.69,0,0,1-9.58,10.33c-7.52,6.74-17,13.53-22.54,16-33.39,14.77-23.66-5.6-18-12.11,8.91-10.15,17.14-19,27.13-27.65C561.68,129,576.83,118.45,599.42,106c2.62-11.6-7.31-25.25-30.86-33.54-16.94-6.33-37.57-6.93-57.5-4.82l-.46.06a351.4,351.4,0,0,0-35,6.38l-2,.51c-18.07,4.6-64.72,18.51-75,34.39-.24.37-.45.74-.67,1.11-14,22.92-1.07,46.86-8.73,77.94-2,8.16-8.19,12.84-11.89,8.73-4.69-5.21-12.1-17.84-8-36.79,5.64-26.2,11.66-31.65,11.66-31.65-2.55-15-26.4.68-47,12.31-45.93,26.11-128.32,78.41-174,141.71,0,0,29.49-22.35,61.67-35,7.6-3,46.73-17.73,78.54-22.87,30.61-6.28,73.7.75,104.81,4.92,52.06,7,94,14.12,132.31,34.15q5.67,3,11.24,6.32c14.09-2,29-4.56,43-8.45,27.35-7.59,51-20.37,56.89-44.75,6.16-24.74-4.12-56.87-9.9-83.44C633.18,108.75,629.92,90.17,612.72,108.38Z"/><path class="cls-6" d="M415.11,103.05c14,4.27,15.51,41.89,15.51,41.89,9.08-3.91-1.15-42.51-1.15-42.51,4.93-2.26,11.92,22.76,11.92,22.76,6.13-3.07,1.57-36.34,1.57-36.34,17-8.37,18.63,43,18.63,43C470.23,133.08,477,84,477,84c14.11.17,22.27,35.66,22.27,35.66,8.09-5.25-1.39-47.31-1.39-47.31,14.78-11.58,19.3,30.18,19.3,30.18,8.47-2.73,7.1-33.77,7.1-33.77,19.9,0,16,44.43,16,44.43,13.71-6.76,19.45-36.58,19.45-36.58,12.21,1.52,8.44,43.33,8.44,43.33,4-.82,12-3.82,20.16-7.65,3.51-2.06,7.21-4.17,11.14-6.33,2.62-11.6-7.31-25.26-30.86-33.54-16.94-6.34-37.57-6.94-57.5-4.82a347.35,347.35,0,0,0-35.48,6.44l-2,.51c-18.07,4.6-64.73,18.5-75,34.39-.24.37-.45.73-.68,1.1a47.56,47.56,0,0,0-6.7,22.21c11,14.49,21.23,36.38,21.23,36.38C417.83,168.13,415.11,103.05,415.11,103.05Z"/><path class="cls-5" d="M743.75,419C752,395.34,570.78,256,540.11,256.32c-3.27,0-5.73-3-8.54-4.21-.57-.25-1.13-.48-1.69-.71l3.39,9.44c1.14.56,2.14,1.82,3.45,1.76,23.89-1.27,210.17,131.82,201.67,157.52"/><path class="cls-6" d="M266.6,227s-13.7-13.54-33.9-11.38c0,0,30.3-21.51,63.39-16.17l-21.56-15.69c15.32-6.15,32.16-10.38,49.87,5.22l-2.75-22.77s18.63,2.17,36.9,20.25L360,146.7s4.42-3.21,12.26,1c4.56-15.72,8.6-19.38,8.6-19.38-2.55-15-26.4.68-47,12.31-45.93,26.11-128.32,78.41-174,141.71,0,0,27.65-20.95,58.62-33.82C247.85,230.5,257.24,226.79,266.6,227Z"/><path class="cls-3" d="M575.75,253.12c17.57-3.1,43.88-16.3,53-19.8,3.07-1.18,13.9-9.9,9.25-11.91-4.47-1.94-16.81,2.64-18.9,2.25-3.16-.58,11.79-17.07,15.17-22.71s6.94-17,3-14.33-22.84,24.47-28.58,26.28,8.29-15.83,18.79-36.78c5.07-10.12,2-46.72-.78-45.74-5.33,1.92-4.1,20.53-9.47,33.77C612,177,589.38,184.69,609.9,145.78c7.28-13.81,9.72-24.47,5.35-23.79-7.87,1.22-28.28,29.88-33.47,35.34s-29,31.69-40.8,36.25S508.5,198,506,192s15.72-34.77,21.71-44.56c4.43-7.23,9.69-25.7,6.11-23.46-2.69,1.7-22.56,33.7-21.57,27.52,1-6.61,7.69-21.16,5.25-30.41s-9.75-9.64-9.75-9.64,1.76,17-2.52,31.45c-1.45,4.91-16.12,33.71-15.45,24.62s2.43-34.12-1.25-45.3-7.35-15-7.35-15-1.55,23.32-3,34.65c-1.14,9.1-9.81,56.27-11.47,54.41-1.87-2.1-4.43-23.81-6.49-33.22S449,133.49,448.12,144.3s-6.7,67.93-7.75,56.11-15.46-49.11-13.86-42.09-15.1,45.69-17.22,40.79-17.62-29-17.7-27.52c0,0,0,.08,0,.12h0l-.12,1.77a.43.43,0,0,0,0,.05q-.13,1.75-.33,3.54l0,.23c-.06.51-.12,1-.19,1.52,0,.1,0,.2,0,.31-.15,1.14-.33,2.3-.54,3.46,0,.15-.06.3-.08.46-.08.43-.16.86-.25,1.3l-.1.5c-.12.56-.24,1.13-.37,1.7v0h0c-.11.48-.23,1-.35,1.45s-.17.64-.25.95l0,0c-2.24,7.54-8.07,11.7-11.62,7.75a31.72,31.72,0,0,1-3.46-4.7c-2.45,0-2,6.53-9.78,2.85-8.28-3.91-31.49-14.27-31.49-14.27s4.92,10.28,6.09,14.94,6.6,25.29-8.08,9.16c-4.31-4.74-33.06-16.29-33.06-16.29s9,8.09,11.44,13.6,5.11,21.59,2.64,17.89-33.85-4.41-33.85-4.41a52.58,52.58,0,0,1,5.85,4.42,56.49,56.49,0,0,1,4.23,6.83q3.12-.69,6.2-1.28h0l3-.57h0l3-.51c30.61-6.28,73.7.75,104.81,4.92,52.06,7,94,14.12,132.31,34.15.91.48,1.82,1,2.72,1.45l2.58,1.43.08,0q2.68,1.5,5.34,3.09C557.06,261.19,560.38,255.83,575.75,253.12Z"/><path class="cls-6" d="M548.44,147.41s-1.08,1.12,1.39,6.63c1.78,4-4.37-1.88-8.63-6.95-1.07,1-2.11,2-3.15,3.09a68.54,68.54,0,0,0,2.29,8.24c1.63,4.54-6.53,5.47-14,4.19-1.4,1.56-2.8,3.14-4.23,4.76-2.18,2.49-5,7-5.67,10.82.25,1.82.52,3.47.79,4.82,2.21,2.68,8.61,2.77,22.84-3.53,5.51-2.44,14.95-9.19,22.45-15.91a.6.6,0,0,0,.06-.11q-3.29-5.76-6.61-11.68Z"/></g></g></svg>