<svg xmlns="http://www.w3.org/2000/svg" viewBox="0 0 815.28 606.4"><defs><style>.cls-1{fill:#63852d;}.cls-2{fill:#3f5824;}</style></defs><g id="Layer_2" data-name="Layer 2"><g id="Layer_1-2" data-name="Layer 1"><path class="cls-1" d="M648.5,345.44l.93-1.48a23.35,23.35,0,0,1,2.23-3.21,16,16,0,0,1,3.4-3.36,20.11,20.11,0,0,1,6.21-3.26,33.63,33.63,0,0,1,9.34-1.71,67.09,67.09,0,0,1,11.74.44A158.87,158.87,0,0,1,709,339c18.24,5.66,36.32,13.12,50.3,17.59A121.12,121.12,0,0,0,776.51,361a43.41,43.41,0,0,0,4.93.53l1.74.09-1.72-.33a46.92,46.92,0,0,1-4.75-1.18,119.59,119.59,0,0,1-16.14-6.64c-13.08-6.27-29.78-16-47.69-24.45a170.33,170.33,0,0,0-27.7-10.54A82.36,82.36,0,0,0,670.92,316a50.54,50.54,0,0,0-13.94.61,39.16,39.16,0,0,0-12.06,4.22,36.6,36.6,0,0,0-8.47,6.23,43.87,43.87,0,0,0-4,4.34c-.73.87-1.14,1.33-1.14,1.33Z"/><path class="cls-1" d="M647,331.77l-4.11.57c-1.3.19-2.88.41-4.71.65l-7.31,1.68c-2.67.53-5.36,1.87-8.22,2.92a35.66,35.66,0,0,0-4.29,2.33,22.93,22.93,0,0,0-4.22,2.89,51.62,51.62,0,0,0-3.95,3.58c-1.12,1.38-2.24,2.79-3.38,4.21a45,45,0,0,0-4.58,9.29,63,63,0,0,0-2.56,9.3c-.64,3-2.28,6.57-2.75,9.4-.88,5.57-10.58,31.64-11.59,36a59.38,59.38,0,0,1-1.48,5.89,31,31,0,0,1-1.45,4.47L581,428.78l2.28-3.46a30.86,30.86,0,0,0,2.45-4.13c.89-1.63,1.92-3.47,2.83-5.57,2-4.14,14.07-30.65,16.15-35.9,1-2.59,2.1-5.3,3.29-7.85a53.85,53.85,0,0,1,3.92-7.35,33,33,0,0,1,4.77-5.87c.9-.7,1.79-1.41,2.69-2.1s2-1,2.87-1.55a12.11,12.11,0,0,1,3-1.11,19.79,19.79,0,0,1,3-.81c2.13-.19,4-.76,5.82-.65l4.82,0,4.74.41,4.14.34Z"/><path class="cls-1" d="M620.39,326.82l26.34-17.41c3.95-2.6,8.22-5.44,12.75-8.42s9.06-6.79,13.87-10.37l29.86-22.79,28.25-24.31c4.46-3.92,8.93-7.5,12.87-11.26l11-10.66,22.68-22-24.86,19.42c-3.71,2.91-7.74,6.06-12,9.37s-9.1,6.4-13.9,9.8c-9.7,6.69-20,13.82-30.36,21l-31.29,19c-5,3-9.66,6.06-14.42,8.6l-13.57,7-28,14.52Z"/><path class="cls-1" d="M619.8,318.45,614.5,322c-1.7,1.17-3.68,2.36-6.15,4.22s-5.24,3.73-8.08,6-5.91,4.62-9,7.35-6.33,5.52-9.55,8.56c-6.47,6-13,12.63-19.59,18.93-3.32,3.11-6.62,6.22-10,9.08s-6.82,5.55-10.25,8l-5.13,3.54c-1.76,1.05-3.48,2.07-5.14,3.08-3.31,2.11-6.73,3.53-9.75,5.14s-6.05,2.62-8.6,3.75-5.35,2.2-7.25,2.9l-6,2.08,6.26-1.19c2-.43,4.88-1.12,7.6-1.91s5.88-1.42,9.21-2.5,7-2.16,10.7-3.82l5.76-2.4,5.86-2.88c3.92-2,8-4.28,11.89-6.79s7.82-5.16,11.69-7.85c7.63-5.45,15-11,22-15.83,3.48-2.45,6.9-4.68,10.14-6.74s6.4-3.83,9.25-5.57,5.52-2.94,7.83-4.2,4.62-2.26,6.41-3.14l5.74-2.72Z"/><path class="cls-1" d="M614.48,317.46,637,299.33c3.39-2.73,7.05-5.69,10.93-8.8s7.76-6.75,11.88-10.32l25.56-22.7,24.71-23.45c7.94-7.42,15.14-14.54,21.36-20.62,12.39-12.16,20.68-20.27,20.68-20.27l-21.81,19c-6.56,5.71-14.16,12.41-22.48,19.35l-26,21.93c-9,7.14-18.07,14.28-26.57,21-4.28,3.29-8.2,6.7-12.32,9.53s-7.88,5.61-11.41,8.15L608,308.93Z"/><path class="cls-1" d="M617.45,312.82H617c-.24,0-.55,0-.93,0a13.63,13.63,0,0,0-3.35.62l-.92.34-.45.24-.83.46a12.62,12.62,0,0,0-1.64,1,34.86,34.86,0,0,0-2.92,2.38c-3.74,3.38-7.92,7.95-13.22,13.18a204.18,204.18,0,0,1-18.85,16.71,162.22,162.22,0,0,1-24.27,15.62,160.54,160.54,0,0,1-26.9,11.08c-4.48,1.36-8.85,2.54-13.07,3.43s-8.22,1.6-11.93,2.25c-3.74.44-10.45,1.58-13.52,1.77s-6.17.92-8.38,1l-6.95.27s2.52.16,7,.41c2.21.18,5.34-.23,8.43-.17s9.87-.66,13.7-.76c3.81-.27,8-.46,12.32-1.06s9-1.25,13.68-2.19a165.27,165.27,0,0,0,29-8.7,170.85,170.85,0,0,0,27.17-13.92,217.19,217.19,0,0,0,21.61-15.61c6-4.87,10.86-9.17,13.94-11.41a13.75,13.75,0,0,1,1.8-1.18.79.79,0,0,1,.39-.18l.09,0s.07,0,0,0l-.48.21a4,4,0,0,1-1.87.17c-.42-.07-.1,0-.06,0l.26,0,.46.05Z"/><path class="cls-1" d="M586.08,294.12s1.86-1.95,5.16-5.35a87.55,87.55,0,0,0,5.8-6.71,107.84,107.84,0,0,0,7-9.13c2.49-3.33,4.84-7.14,7.37-11.14s4.89-8.36,7.49-12.8c2.34-4.56,4.93-9.18,7.2-14s4.7-9.74,6.88-14.72c8.92-19.84,16.34-40.21,21.83-55.47s9-25.49,9-25.49l-10.6,24.87c-6.43,14.89-15.07,34.71-25.09,53.77-2.46,4.78-5,9.48-7.67,14.07s-5.35,9-7.91,13.3c-2.81,4.15-5.29,8.32-8,12s-5.16,7.23-7.74,10.23a95.77,95.77,0,0,1-6.94,8.07,75.34,75.34,0,0,1-5.73,5.86l-5.48,5Z"/><path class="cls-1" d="M533.05,242.68l-5.92,3.79c-3.81,2.37-8.92,5.55-15.53,9.08-3.26,1.83-6.91,3.46-10.72,5.35-3.93,1.6-8,3.56-12.4,5-4.34,1.68-9,3-13.67,4.33s-9.47,2.18-14.67,3.37A140.36,140.36,0,0,0,445,277.74c-4.87,1.64-9.6,3.42-14.06,5.29-9,3.68-17,7.49-24.15,10.3-3.55,1.39-6.82,2.61-9.79,3.45a56,56,0,0,1-7.79,1.83,33.07,33.07,0,0,1-5.15.54l-1.83.11,1.82.09a33.43,33.43,0,0,0,5.24,0,58,58,0,0,0,8.07-1c3.11-.55,6.56-1.43,10.29-2.47,7.45-2.09,15.94-5.05,25.07-7.75,4.57-1.36,9.3-2.6,14.13-3.69A136.4,136.4,0,0,1,461.54,282c4.85-.58,10.34-1.18,15.38-2s10.12-1.9,14.89-3.25c4.86-1.12,9.35-2.78,13.71-4.13,4.24-1.62,8.34-3,11.94-4.64,7.27-3,13.34-6.07,17.33-8.09l6.27-3.24Z"/><path class="cls-1" d="M483.3,212.06s1.46-2.16,4-5.91c1.31-1.83,2.79-4.35,4.53-7.09s3.56-5.92,5.54-9.35c3.95-6.87,8.18-15.05,12.42-23.94s8.37-18.51,12.18-28.26a131.2,131.2,0,0,0,5.1-14.92c1.42-5,2.54-10,3.53-14.75,2-9.62,3.34-18.65,4.43-26.38s2-14.18,2.59-18.7,1.1-7.06,1.1-7.06-.56,2.54-1.52,7-2.17,10.84-3.71,18.5-3.44,16.54-5.94,25.91c-1.27,4.69-2.67,9.5-4.35,14.28a116.83,116.83,0,0,1-5.8,14.14c-4.43,9.36-9.19,18.54-13.91,27s-9.43,16.13-13.69,22.53c-2.16,3.19-4.1,6.16-5.93,8.61s-3.31,4.65-4.79,6.44c-2.82,3.58-4.42,5.63-4.42,5.63Z"/><path class="cls-1" d="M482.54,207.74a10.89,10.89,0,0,0-1.7-1,14.64,14.64,0,0,0-4.66-1.07,15.43,15.43,0,0,0-6.43,1.1l-8,2.65c-5.83,2-12.6,4.33-19.82,6.95l-11.11,4.13c-3.76,1.46-7.62,2.84-11.37,4.53-15.05,6.62-30.1,13.48-40.44,20.65-5.18,3.48-9.32,6.84-11.59,9.82a12.74,12.74,0,0,0-2.1,3.73c-.24.94-.34,1.45-.34,1.45s.21-.46.62-1.31a11.92,11.92,0,0,1,2.67-3c2.64-2.27,7-4.72,12.59-7,11.06-4.7,26.52-9.22,42.12-13.09s31.38-7.14,43.22-9.4c5.91-1.07,10.84-2,14.29-2.56l5.34-.85Z"/><path class="cls-1" d="M427.93,184.81s.38-2.48,1-6.81,1.43-10.87,2-18.36c1.27-15.14,1.79-35.16,2.49-55.15a129.92,129.92,0,0,0,0-15.16,96.12,96.12,0,0,0-2.32-14.57,110.65,110.65,0,0,0-9-24.23A109.48,109.48,0,0,0,412.57,35c-1.3-1.76-2.38-3.1-3.15-4l-1.15-1.4s.37.52,1.06,1.46,1.69,2.34,2.87,4.18a109.83,109.83,0,0,1,15.72,40.13,92.66,92.66,0,0,1,1.31,14.06,72.27,72.27,0,0,1-.27,7.26c-.15,2.34-.49,4.93-.71,7.38-2.09,19.91-4,39.83-6.23,54.49-.56,3.66-1,7-1.63,9.92s-.94,5.41-1.46,7.57c-1,4.28-1.51,6.72-1.51,6.72Z"/><path class="cls-1" d="M178.08,160.18s-.73-1.29-1.82-3.4c-.5-1-1.13-2.31-1.84-3.77s-1.52-3.31-2.42-5.22c-1.79-3.88-3.8-8.45-6.38-13.37-.69-1.24-1.4-2.49-2.11-3.76-.91-1.44-1.64-2.34-2.49-3.55a44.54,44.54,0,0,0-6.38-6.83c-4.7-4.15-10.3-6.63-15.26-8.62s-9.6-3.71-13.48-5.45-7.05-3.31-9.23-4.5l-3.42-1.89,3.13,2.36c2,1.5,4.93,3.54,8.57,5.84s8,4.72,12.65,7.34,9.17,5.59,12.51,9.56a38.27,38.27,0,0,1,4.36,6.22c1.36,2.57,2.36,4.63,3.43,7,2,4.68,3.69,9.35,5.19,13.32l2.07,5.5c.58,1.6,1.28,3.2,1.77,4.43,1,2.39,1.62,3.62,1.62,3.62Z"/><path class="cls-1" d="M273.14,145.47s-.72-2.07-2-5.73-3-8.85-5.34-15.12-4.91-13.61-8.27-21.25c-1.61-3.84-3.27-7.81-5-11.84-1.86-4-3.76-8-5.65-12-3.77-8-7.46-16.09-12-23.22S225.17,43.1,219.73,39.1a64,64,0,0,0-14-7.9C202.14,29.68,200,29,200,29s2,.88,5.45,2.68a62.78,62.78,0,0,1,13.07,8.86C223.47,44.79,228,51,231.7,58.18s6.83,15.45,10,23.61c1.57,4.1,3.16,8.19,4.72,12.22,1.39,4.07,2.74,8.09,4.05,12,2.77,7.73,4.74,15.14,6.63,21.41s3.2,11.67,4.24,15.38l1.57,5.85Z"/><path class="cls-1" d="M567.61,272.21s1.51-2.31,4.13-6.35,6.44-10.17,10.59-17.34c8.48-14.42,19.09-33.92,28.81-53.83s18.64-40.23,24-56c1.3-4,2.58-7.53,3.37-10.83a65.16,65.16,0,0,0,2-8.52,27.36,27.36,0,0,0,.57-5.59c.05-1.29.08-2,.08-2s-.1.69-.26,2a25.84,25.84,0,0,1-1.08,5.45,60.77,60.77,0,0,1-2.68,8.22c-1.07,3.16-2.66,6.59-4.27,10.36-6.73,15-17.39,34.28-28.74,53.05s-23.57,37-33.11,50.32c-4.77,6.71-8.73,11.91-11.73,15.75l-4.68,6Z"/><path class="cls-1" d="M540.53,255.29l-1.08,1.18-1.24,1.33L537,258.92a47.73,47.73,0,0,1-4.61,3.64c-2,1.4-4.33,2.93-7,4.5-10.82,6.39-27,13.44-43.58,19.42a452.33,452.33,0,0,1-46.6,14.14,145.36,145.36,0,0,1-15.78,3,23,23,0,0,1-4.48.22,6.67,6.67,0,0,1-1.55-.28,6.62,6.62,0,0,0,1.51.52,25.06,25.06,0,0,0,4.55.46,148.06,148.06,0,0,0,16.27-.66,454.9,454.9,0,0,0,48.95-7.15c17.73-3.51,35.32-8.16,48.55-13.47,3.31-1.31,6.36-2.65,9.07-4a68.34,68.34,0,0,0,7.13-4.06l2.91-2.08c.64-.49,1.17-.91,1.61-1.26l1.24-1Z"/><path class="cls-1" d="M636.11,338.16l5-4,5.75-4.6c2.21-1.74,4.72-3.88,7.45-5.9l8.84-6.12c3.13-2.2,6.46-4.53,10.2-6.71,7.25-4.52,15.29-9.21,23.42-13.84l12.08-7.23c4-2.28,7.73-5.13,11.43-7.56l5.38-3.66,4.87-3.93,8.86-7.21c2.71-2.24,4.88-4.68,7-6.63s3.81-3.73,5.27-5.18c2.91-2.86,4.58-4.48,4.58-4.48s-1.89,1.37-5.19,3.8l-5.92,4.35c-2.32,1.62-4.76,3.67-7.73,5.48s-6.19,3.71-9.6,5.77q-2.57,1.5-5.23,3.09l-5.72,2.8c-3.92,1.83-7.75,4-12,5.67l-12.71,5.31c-8.69,3.42-17.36,6.92-25.56,10.53-4.11,1.66-8,3.62-11.79,5.53s-7.31,3.66-10.59,5.32-5.82,3.38-8.31,4.81l-6.34,3.74L624,320.55Z"/><path class="cls-2" d="M684.92,295.75c-8,8.42-19.65,14.26-25.67,24.28,16.27,10.63,37.57,8,54.87,17.7-16.39-3.75-61.28-22.61-70.7.21-5.51-4.64-12.06-9.85-16.7-15.71,6.75,2.36,16.6-3.9,25.86-4.29C652.58,317.94,675.78,300.62,684.92,295.75Z"/><path class="cls-1" d="M627.56,324.4l-3.71,3.06L619.59,331l-5.68,5c-2.13,1.81-4.17,3.91-6.41,6.06s-4.49,4.54-6.82,7c-4.63,4.9-9.3,10.34-13.76,15.84-8.93,11-36.73,37.92-43.83,45.35a62.12,62.12,0,0,1-5,4.87c-1.58,1.4-3.11,2.38-4.31,3.31-2.63,1.53-4.13,2.42-4.13,2.42l4.57-1.61c1.35-.69,3.13-1.4,5-2.5a64.85,64.85,0,0,0,6.1-4c8.74-6.2,38.73-31.57,49.29-40.39,5.26-4.43,10.62-8.67,15.79-12.37,2.59-1.83,5.06-3.64,7.51-5.19s4.71-3.14,6.83-4.34,4-2.4,5.76-3.41l4.83-2.64,4.23-2.29Z"/><path class="cls-2" d="M630.6,337.48c3,4.86.4,1.3,3.8,5.54-6.49,3.47-13,6.92-16.84,13.15a53.6,53.6,0,0,1,1.78-5.87,39.39,39.39,0,0,1-15.47,8.62c1.86-3.63,5.67-6.43,7.5-10.8-9.69-4.68-24.61,2.14-34.24,5.37A150.35,150.35,0,0,1,602.57,343c4.3-1.16,11.92,2.3,15.6,0,4.11-2.95,8.63-1.68,10.35-10.55Z"/><path class="cls-1" d="M584.18,284l4.81-7.25c1.52-2.31,3.38-5.1,5.51-8.32s4.44-7,6.87-11.35,5-8.9,7.83-13.81c2.63-4.92,5.08-10.17,7.77-15.56s5.42-10.95,7.84-16.75,5-11.62,7.58-17.47l6.94-17.69c2.36-5.79,4.36-11.61,6.39-17.21,4.1-11.17,7.56-21.71,10.5-30.74s5.22-16.61,6.87-21.88l2.56-8.32-3.41,8c-2.23,5.06-5.16,12.4-9.14,21s-8.4,18.71-13.62,29.31c-2.58,5.32-5.16,10.85-8.09,16.3s-5.75,11.07-8.66,16.64c-3.08,5.46-6.18,10.91-9.22,16.28s-6.16,10.54-9.32,15.45-6.08,9.78-9.05,14.16l-8.59,12a113.89,113.89,0,0,1-7.61,10.05l-6.36,7.69L567,271.23Z"/><path class="cls-1" d="M295.27,143.67s-1.07.89-2.9,2.47-4.5,4-7.7,6.22l-5.18,3.88-6.12,4.12c-4.21,2.94-9,5.68-13.68,8.57-4.79,2.74-9.56,5.53-14.15,7.94s-8.88,4.69-12.58,6.58c-7.45,3.71-12.43,6.17-12.43,6.17l13.1-4.63c3.92-1.45,8.49-3.1,13.34-5.05s10-4.07,15.15-6.25c5.08-2.34,10.24-4.53,14.91-7l6.79-3.48,6-3.48c3.88-2.12,6.6-4.11,8.66-5.44l3.19-2.11Z"/><path class="cls-1" d="M603.59,302.09l22-27.34c3.32-4.13,6.78-8.81,10.49-13.65,3.58-5,7.43-10.21,11-15.89,1.9-2.78,3.74-5.67,5.47-8.69s3.68-5.92,5.25-9.12,3.27-6.32,4.93-9.5l4.39-9.85a192.78,192.78,0,0,0,7.12-20.16c2.17-6.7,3.54-13.48,5-20,1.25-6.55,2.14-12.91,2.93-18.91.49-6.07,1.16-11.76,1.41-17s.31-10.09.45-14.37-.14-8-.16-11.08c-.14-6.13-.21-9.62-.21-9.62s-.27,3.49-.71,9.6c-.26,3-.42,6.76-.89,11s-1.14,9-1.81,14.15-1.93,10.71-3,16.56c-1.35,5.8-2.82,11.9-4.63,18.1-2,6.16-3.91,12.52-6.6,18.72a183.39,183.39,0,0,1-8.57,18.46l-5,8.88c-1.84,2.84-3.68,5.67-5.48,8.48s-3.88,5.43-5.77,8.11-3.88,5.22-5.94,7.69c-3.93,5-8.09,9.66-11.95,14.09-4,4.33-7.74,8.47-11.39,12.2l-24.35,25Z"/><path class="cls-1" d="M581,281.72l-6.78,4.62c-2.09,1.37-4.65,3.23-7.49,4.94s-6.21,3.62-10,5.6l-13,6.64L529.5,311.1c-4.93,2.62-10,5.29-15.15,7.86s-10.44,5.12-15.82,7.41-10.81,4.49-16.25,6.38-10.88,3.53-16.17,5.05c-5.34,1.34-10.52,2.68-15.51,3.58-5,1.1-9.73,1.73-14.13,2.44s-8.46,1-12,1.47-6.76.63-9.35.82l-8.18.58,8.19.32c2.61.09,5.79.27,9.43.2s7.76.12,12.24-.15,9.38-.33,14.52-.88c5.17-.37,10.57-1.15,16.19-1.91,5.59-.95,11.37-2,17.18-3.36s11.71-2.92,17.49-4.74,11.56-3.78,17.13-5.84,11-4.21,16.23-6.28l14.9-5.91,13.35-5.05c4.41-1.66,8.47-3.2,12-4.9s6.37-3.15,8.82-4.34l7.29-3.73Z"/><path class="cls-1" d="M587,292.84l-1.4,1.34c-.86.81-2.31,2.23-4.17,4.13l-5.77,5.89c-2.17,2.15-4.67,4.42-7.51,6.77s-6.32,4.73-9.66,6.89l-6.14,3.5-6.14,3.14a226.69,226.69,0,0,1-28.66,11.13c-20.22,6.45-41.28,11.08-57,14.63S433,356.39,433,356.39s12-1.36,28-2.93,37.55-3.68,59-7.78a237.72,237.72,0,0,0,31.45-8.05c2.51-.85,5-1.85,7.48-2.75l6.6-2.79a134.59,134.59,0,0,0,12.62-6.57c3.73-2.31,7.06-4.59,9.87-6.69l6.92-5.36c1.64-1.26,3-2.27,4.06-3l1.57-1.14Z"/><path class="cls-1" d="M617.17,316.58l5.06-6.28c3.24-4.09,7.78-9.51,13.41-16.18,11.25-13.37,27-30.75,42-49.15,3.77-4.57,7.39-9.29,10.92-13.94s6.88-9.35,9.84-14.11c3.13-4.62,5.79-9.32,8.33-13.76,2.37-4.53,4.6-8.81,6.33-12.92a118.78,118.78,0,0,0,4.34-11.32,89.7,89.7,0,0,0,2.64-8.93c1.15-5,1.8-7.87,1.8-7.87l-2.69,7.6a87.84,87.84,0,0,1-3.58,8.46,116.7,116.7,0,0,1-5.49,10.55c-2.14,3.79-4.78,7.71-7.56,11.81-2.95,4-6,8.24-9.57,12.37-3.35,4.24-7.25,8.32-11.06,12.53s-8,8.3-12.15,12.33c-16.62,16.22-34.29,31.7-47.19,43.89-6.46,6.09-12,11.33-15.54,14.91l-5.74,5.67Z"/><path class="cls-1" d="M601.11,301.56l-16.68,15.77c-1.24,1.14-2.53,2.46-3.87,3.59s-2.72,2.22-4.16,3.37l-4.4,3.59c-1.64,1-3.33,2.08-5,3.13s-3.49,2.18-5.27,3.27l-1.35.84a10.52,10.52,0,0,1-1.32.69l-3,1.5c-4.1,2.15-8.11,3.82-12.19,5.6s-8.42,3.29-12.57,4.93c-4.24,1.39-8.41,2.89-12.49,4.14s-8.07,2.4-11.88,3.36l-10.79,2.56-9.23,1.73c-2.77.6-7.24,1-9.24,1.29l-6.29.81s2.31,0,6.35.11c2,0,6.54,0,9.36-.23l9.5-.4c3.48-.3,7.24-.64,11.22-1s8.16-1.07,12.51-1.64,8.77-1.55,13.32-2.34c4.5-1.07,9.08-2,13.7-3.2s9.33-2.51,13.54-4L564,348c.61-.22.89-.27,1.78-.62l1.62-.69c2.17-.95,4.31-1.87,6.42-2.78l6.23-2.75,5.6-3.32,5.33-3.18c1.69-1.06,3.09-2.13,4.56-3.14l19-13.34Z"/><path class="cls-1" d="M499.77,225.25s5.41-10.6,13.54-26.49c2-4,4.24-8.29,6.57-12.86s4.7-9.51,7.13-14.63,5-10.31,7.12-16,4.73-11.13,6.34-17,3.33-11.72,4.95-17.49c1-5.89,2-11.68,2.92-17.28,1.2-5.54,1.1-11,1.55-16.18s.63-10,.91-14.49c-.37-17.87-.62-29.79-.62-29.79s-1.08,11.82-2.71,29.55c-.77,4.37-1.62,9.09-2.5,14.09s-1.49,10.3-3.26,15.52c-1.51,5.26-3.07,10.68-4.65,16.2-2.17,5.29-4.36,10.66-6.55,16s-5.3,10.35-7.83,15.43-5.67,9.86-8.54,14.53-5.61,9.15-8.51,13.4-5.46,8.26-7.93,12l-16.42,24.79Z"/><path class="cls-1" d="M488.53,216l-3.86,3.9c-1.11.87-2.27,1.52-3.67,2.65-1.72,1-4,2.22-6.4,3.48-2.61,1.06-5.3,2.43-8.47,3.52s-6.39,2.33-9.93,3.41c-7,2.28-14.67,4.41-22.36,6.62s-15.43,4.39-22.59,6.87a148.34,148.34,0,0,0-19.2,7.77,82.34,82.34,0,0,0-7.15,4.21,55.57,55.57,0,0,0-5,3.88c-2.43,2.53-3.81,4-3.81,4s1.53-1.26,4.24-3.45a59.24,59.24,0,0,1,5.37-3.16,78.2,78.2,0,0,1,7.4-3.17,146,146,0,0,1,19.51-5.17c7.25-1.53,15.12-2.7,23-3.94s15.82-2.39,23.32-3.82c3.75-.65,7.39-1.46,10.86-2.27s6.76-1.87,9.8-2.7c3.09-1.12,5.85-2.15,8.45-3.3,2.71-1.47,5.27-2.89,7-4l4.33-3.4Z"/><path class="cls-1" d="M554.12,263.23l5.45-5.81c.87-.92,1.84-2,2.9-3.05q1.59-2,3.46-4.37a92.2,92.2,0,0,0,7.59-10.6c1.24-2,2.57-4,3.86-6.15,1.13-2.21,2.32-4.51,3.54-6.86a60.24,60.24,0,0,0,3.4-7.35c1-2.55,2.18-5.13,3.19-7.79,1.77-5.41,3.75-10.91,5.08-16.66,1.63-5.69,2.61-11.56,3.8-17.37.87-5.85,1.86-11.67,2.4-17.42.72-5.74,1.08-11.41,1.55-16.85.71-10.93,1.14-21.08,1.43-29.79.66-17.38,1.11-29,1.11-29l-4.43,28.66c-1.28,8.59-2.89,18.59-4.83,29.22-1.07,5.3-2.06,10.78-3.4,16.26-1.17,5.52-2.78,11-4.25,16.48-1.76,5.38-3.33,10.81-5.45,15.91-1.84,5.21-4.29,10-6.43,14.74-1.21,2.3-2.49,4.49-3.68,6.66a52.14,52.14,0,0,1-3.77,6.16q-1.95,2.91-3.79,5.63c-1.36,1.7-2.69,3.35-4,4.92a70.36,70.36,0,0,1-7.17,7.91l-3,3.11c-1.17,1-2.23,1.89-3.21,2.7l-6.09,5.15Z"/><path class="cls-1" d="M567.05,270.61l-1.44,1.07c-.47.33-1,.75-1.7,1.24l-2,1.35c-1.49,1-3.71,2.38-6.18,3.84s-5.41,3.09-8.61,4.83a492.13,492.13,0,0,1-48.81,22.82c-9,3.39-18.73,6.48-27.46,9.43s-17.12,5.57-24.25,7.69-13.13,3.72-17.38,4.58a31.68,31.68,0,0,1-5,.72,5.62,5.62,0,0,1-1.77-.16,5.51,5.51,0,0,0,1.76.39,34.37,34.37,0,0,0,5.09-.07c4.37-.32,10.56-1.14,18-2.33s16-2.77,25.17-4.54,18.79-3.62,28.86-5.87a504.25,504.25,0,0,0,53.15-16.33c3.59-1.35,6.88-2.62,9.81-3.83s5.41-2.29,7.7-3.41,4.07-2,5-2.55l1.56-.85Z"/><path class="cls-1" d="M530.29,245.85l3.17-6.95c2.07-4.47,4.86-10.34,8.6-17.84s8.05-16.19,12.71-25.52,9.34-19.68,13.65-30.12c2-5.31,4.14-10.52,5.81-15.86,1.86-5.24,3.2-10.59,4.59-15.7,1.09-5.2,2.35-10.17,2.89-15q.46-3.6.91-7c.26-2.27.25-4.48.38-6.59s.24-4.11.22-6-.17-3.73-.24-5.44a59.34,59.34,0,0,0-.75-8.78c-.68-4.82-1.08-7.57-1.08-7.57s.06,2.78.16,7.63a57.43,57.43,0,0,1-.31,8.69c-.12,1.67-.26,3.45-.4,5.32s-.61,3.81-.93,5.84-.61,4.14-1.12,6.3-1.12,4.36-1.69,6.64c-1.08,4.55-2.88,9.2-4.51,14-1.94,4.74-3.8,9.65-6.2,14.46-2.18,4.89-4.88,9.67-7.39,14.49-5.35,9.53-11.1,18.86-16.72,27.52l-15.63,23.74c-4.57,6.9-8.52,13.14-11,17.22s-4,6.52-4,6.52Z"/><path class="cls-1" d="M516.34,228.78l-5,3.25c-3.1,1.95-7.5,4.66-13.05,7.91-11.08,6.42-26.23,14.49-41.86,21.6-3.93,1.7-7.83,3.54-11.76,5.07s-7.77,3.14-11.55,4.5a203.06,203.06,0,0,1-21,6.48c-3.14.62-6,1.42-8.63,1.72s-4.86.77-6.74.85c-3.79.16-5.95.23-5.95.23l5.95.69c1.91.21,4.23.12,6.9.21s5.69-.26,9-.4a204.32,204.32,0,0,0,22.3-3.27c4-.78,8.22-1.69,12.42-2.74s8.45-2.18,12.72-3.28c17-4.76,33.63-10.57,46-15.39,6.15-2.41,11.4-4.61,15-6.2l5.46-2.43Z"/><path class="cls-1" d="M540.41,252.14a34.31,34.31,0,0,0,3-5.2c.79-1.74,1.61-3.91,2.69-6.13s2.16-4.9,3.66-7.72c2.81-5.69,6.48-12.18,10.57-19.17s8.6-14.49,12.64-22.34c2-3.9,3.83-8,5.54-12a119.05,119.05,0,0,0,4.09-12.11,106.44,106.44,0,0,0,2.64-11.61c.63-3.72.87-7.29,1.28-10.54.11-3.26.24-6.26.33-8.92s-.09-5-.12-6.85c-.13-3.8-.2-6-.2-6s-.14,2.16-.4,5.94c-.18,1.89-.18,4.2-.57,6.8s-.79,5.54-1.24,8.73c-.73,3.15-1.31,6.58-2.3,10.12a111.71,111.71,0,0,1-3.52,11,110.51,110.51,0,0,1-4.9,11.23c-2,3.7-4,7.4-6.29,11-4.52,7.22-9.56,14.18-14.27,20.82s-9.07,13-12.52,18.73c-1.8,2.77-3.27,5.59-4.64,7.95a60.27,60.27,0,0,0-3.22,6.19,34.42,34.42,0,0,0-1.94,5.67Z"/><path class="cls-1" d="M475.69,207.16s1.09-2.47,3-6.78c.95-2.2,2.12-4.79,3.51-7.52s2.85-6,4.78-9.47c3.65-7,8.27-15.19,13.21-24.07,2.44-4.51,5.06-9.06,7.5-13.94s4.85-9.85,7.14-14.89a146.48,146.48,0,0,0,5.63-15.71,57.57,57.57,0,0,0,2-7.93A79.2,79.2,0,0,0,523.89,99c.23-2.61.48-5.16.72-7.68s0-5,0-7.35c.14-4.76-.85-9.2-1.33-13.27s-1.79-7.66-2.5-10.89a61.75,61.75,0,0,0-2.67-8.14c-1.65-4.43-2.58-7-2.58-7s.61,2.63,1.69,7.21a59.48,59.48,0,0,1,1.63,8.3c.3,3.25,1.12,6.84,1.12,10.84s.39,8.28-.32,12.76c-.28,2.24-.35,4.55-.83,6.86s-1,4.66-1.56,7a71.19,71.19,0,0,1-2.19,7.09,48.25,48.25,0,0,1-2.77,7.06,134,134,0,0,1-7,13.84c-2.75,4.47-5.46,8.93-8.48,13.2-2.86,4.32-6,8.48-8.9,12.55-5.95,8.13-11.63,15.75-16.32,22.57-2.39,3.31-4.5,6.67-6.4,9.54s-3.46,5.41-4.64,7.4l-3.82,6.37Z"/><path class="cls-1" d="M409.47,169.79l-3.85,2.11c-1.22.7-2.72,1.46-4.39,2.5l-5.71,3.76c-2.15,1.36-4.13,2.94-6.39,4.55l-6.93,5a157.42,157.42,0,0,1-15.51,10,192.06,192.06,0,0,1-31.44,14.7c-4.47,1.64-8.33,2.65-11,3.37l-4.29.95,4.4-.31c2.8-.31,6.8-.76,11.55-1.74a167.74,167.74,0,0,0,33.78-11.09c5.93-2.6,11.81-5.56,17.12-8.52l14.17-8.2,5.38-3.16c1.71-.92,3.2-1.72,4.42-2.39l3.85-2.12Z"/><path class="cls-1" d="M319.47,146.85s-1,.71-2.68,2-4.12,3.14-7,5.06c-5.71,4-14,9.25-22.06,14.53s-16.22,10.68-21.93,15.25c-1.43,1.14-2.8,2.07-3.9,3.09L259,189.32c-1.57,1.41-2.45,2.22-2.45,2.22l2.74-1.86,3.15-2.13c1.19-.84,2.7-1.59,4.25-2.49,6.19-3.69,14.91-7.83,23.6-12s17.49-8.08,24.19-11.52c3.42-1.63,6-3.12,7.86-4.13s2.9-1.6,2.9-1.6Z"/><path class="cls-1" d="M445.17,193s1-2.45,2.87-6.73,4.37-10.5,7.27-18c5.77-15,12.9-35.39,17.28-56.52a182.11,182.11,0,0,0,3.94-31.47c.22-10.15-.73-19.71-3.09-27.5a51.74,51.74,0,0,0-4.06-10.26,40.82,40.82,0,0,0-4.53-7.12,32.75,32.75,0,0,0-3.54-4C460.44,30.44,460,30,460,30l1.14,1.52a32,32,0,0,1,3,4.41,41.24,41.24,0,0,1,3.49,7.4,50.73,50.73,0,0,1,2.59,10.2c1.28,7.6,1,16.67-.39,26.17a171.61,171.61,0,0,1-7.52,29.26c-6.71,19.53-16,38.12-23.36,51.81-3.7,6.85-6.93,12.49-9.2,16.41s-3.64,6.22-3.64,6.22Z"/><path class="cls-1" d="M452.78,193.22a27.38,27.38,0,0,0-5,.28c-1.63.43-3.66.88-5.91,1.63l-7.12,2.54c-10.3,3.8-23.58,9.4-36.79,15.09l-36.3,15.65c-4.95,2.07-9.11,3.77-12.08,4.74a20.73,20.73,0,0,1-3.49,1l-1.28.23s.45,0,1.3-.08a22.11,22.11,0,0,0,3.6-.58c3.1-.65,7.44-1.88,12.61-3.37,10.36-3.07,24.05-7.51,37.73-11.84s27.41-8.55,37.69-11.24c5.22-1.36,9.32-2.24,12.15-2.8l4.88-.75Z"/><path class="cls-1" d="M458.42,198.75s1.06-2.64,3-7.26c1-2.27,2-5.25,3.28-8.56l4.2-10.88c1.47-4,3.32-8.06,5.25-12.42s4.3-9.1,6.47-14a251.8,251.8,0,0,0,12.08-32c3.26-11.19,5.51-22.74,5.83-33.7a103.18,103.18,0,0,0-3.28-29.48c-2.11-8.36-4.19-15.13-4.79-20.07a43.38,43.38,0,0,1-.41-5.76c0-1.32.06-2,.06-2l-.23,2a41.54,41.54,0,0,0-.08,5.82c.18,5,1.69,12.11,3.08,20.49a100.59,100.59,0,0,1,.75,28.61,132.23,132.23,0,0,1-8.3,31.6,248.55,248.55,0,0,1-14.18,29.6l-7.65,13.36c-2.48,4.4-4.87,8.56-6.73,12.45L451.5,177c-1.51,3.07-2.73,5.69-3.93,7.92-2.33,4.42-3.65,6.94-3.65,6.94Z"/><path class="cls-1" d="M456.6,195.53l-.72.72a10.9,10.9,0,0,1-1.87,1.44,103.75,103.75,0,0,1-11,6.28c-2.39,1.21-5,2.46-7.81,3.67-1.4.58-2.83,1.17-4.3,1.73l-4.76,1.68c-3.27,1.12-6.74,2.41-10.3,3.82s-7,2.83-10.45,4.4c-13.9,6.09-26.85,13.52-37.29,17a52.17,52.17,0,0,1-7.24,1.93,38.92,38.92,0,0,1-5.78.68,33.66,33.66,0,0,1-3.77,0l-1.34-.05,1.32.23a31.1,31.1,0,0,0,3.77.55,38.51,38.51,0,0,0,6,.15,56.91,56.91,0,0,0,7.72-1c11.27-2.12,25.29-7.78,39.46-11.77,3.52-1.05,7.11-2,10.58-2.82s6.88-1.61,10.36-2.29l5.16-1.09c1.75-.42,3.43-.87,5.06-1.34,3.25-.92,6.25-1.92,9-2.89A120.35,120.35,0,0,0,461.75,211a29.79,29.79,0,0,0,4.46-2.68l1.31-1.05Z"/><path class="cls-1" d="M359.66,159.44s.1-1.79.29-4.94c.1-1.58.21-3.49.34-5.68s.09-4.81.1-7.6.11-5.86-.18-9-.49-6.49-.75-9.94c-.49-3.42-1-6.94-1.48-10.53-.77-3.55-1.36-7.18-2.27-10.74s-1.77-7.12-3-10.51c-1.07-3.44-2.26-6.77-3.57-9.93s-2.7-6.16-3.95-9c-1.45-2.77-2.7-5.45-4.11-7.79a129,129,0,0,0-7-11.09l-2.12-3c-.46-.7-.68-1.1-.68-1.1s.17.4.57,1.16,1.06,1.8,1.85,3.18a127.49,127.49,0,0,1,5.89,11.59c1.17,2.42,2.15,5.18,3.33,8,.95,2.91,2.16,5.91,3,9.16s1.85,6.53,2.57,10c.89,3.39,1.32,6.94,2,10.42s.79,7,1.21,10.49c.16,3.47.33,6.88.48,10.19-.07,3.3-.12,6.5-.17,9.53s-.44,5.81-.6,8.42-.34,4.91-.75,7.13-.63,4.06-.87,5.63c-.47,3.11-.75,4.9-.75,4.9Z"/><path class="cls-1" d="M381.46,162.62l-.81.72c-.49.44-1.33,1.24-2.22,2a90.79,90.79,0,0,1-8,6c-7,4.86-17.28,10.42-28,15.41s-21.85,9.44-30.11,13.16a92.12,92.12,0,0,0-9.84,4.9,15.06,15.06,0,0,0-2.52,1.83,3.45,3.45,0,0,0-.69.85,3.82,3.82,0,0,1,.85-.66,14.37,14.37,0,0,1,2.77-1.13c2.49-.78,6.13-1.59,10.49-2.63,8.78-2,20.53-4.69,32.12-8.39,5.8-1.85,11.59-3.84,16.94-6a149.66,149.66,0,0,0,14.4-6.85,96.72,96.72,0,0,0,9.86-6.31l2.5-1.88.84-.66Z"/><path class="cls-1" d="M396.06,168.59l-3.09,2.2a23.24,23.24,0,0,1-3.4,2.16c-1.32.71-2.53,1.48-4.39,2.43l-6,3.12-6.57,3.68c-4.5,2.55-9.29,5.25-14.09,7.95a72.17,72.17,0,0,1-7.2,3.79l-7.1,3.32c-4.58,2.2-8.94,4.2-12.79,5.63-7.61,3.16-12.83,4.95-12.83,4.95s5.42-1,13.45-2.95c4.08-.85,8.73-2.18,13.74-3.7l7.75-2.29a80.9,80.9,0,0,0,7.82-2.69l15.12-5.74,6.89-2.58,6.24-2.13c1.93-.63,4.1-1.53,5.83-2.19a34.28,34.28,0,0,0,4.26-1.89l3.37-1.71Z"/><path class="cls-1" d="M416.93,181.7s.4-.69,1.16-2a28.29,28.29,0,0,0,1.47-2.63c.68-1.43,1.43-3.1,2.2-5a70.77,70.77,0,0,0,2.88-11.39,118.67,118.67,0,0,0,1.42-14c.21-5,.19-10.41-.05-16s-.7-11.49-1.37-17.52S423.13,101,422,94.73c-.54-3.14-1.14-6.28-1.83-9.48l-.06-.29-.17-.72v-.07l0-.14-.19-.56-.38-1.11-.78-2.24L417,75.65l-1.55-4.47-2.17-4.55c-1.46-3-2.93-6-4.36-8.93l-5.08-8.05-2.5-3.94-2.84-3.61q-2.79-3.59-5.49-7c-1.89-2.2-3.93-4.2-5.79-6.22A120.78,120.78,0,0,0,376,18.2a105.82,105.82,0,0,0-10.21-8.06c-1.56-1.14-3-2.22-4.35-3.21l-3.92-2.4L350.11,0,357,5.28,360.6,8c1.23,1.13,2.54,2.34,4,3.63a102.32,102.32,0,0,1,9.14,9,115.43,115.43,0,0,1,9.77,11.49c1.6,2.13,3.34,4.24,4.92,6.54l4.52,7.24q1.15,1.83,2.31,3.7c.65,1.3,1.31,2.62,2,3.95q1.95,4,3.95,8c1,2.75,2,5.52,3,8.3L405.66,74l1.07,4.61,1.08,4.61.52,2.3.26,1.15.14.58,0,.14,0,.06c-.3-1.26-.08-.3-.14-.57l0,.28c.32,3,.57,6.07.78,9.09.42,6.06.56,12.06.61,17.81s-.15,11.34-.46,16.55-.84,10.09-1.5,14.46a96,96,0,0,1-2.41,11.51,50.84,50.84,0,0,1-2.8,7.66,12,12,0,0,0-.91,1.69,15.69,15.69,0,0,1-1.39,2l-1.36,1.81Z"/><path class="cls-1" d="M399.42,175.15s.3-.68.84-2c.27-.65.62-1.45,1-2.39.41-1.15.87-2.5,1.4-4A71.18,71.18,0,0,0,405,156.51a93.5,93.5,0,0,0,1.09-13.14,140.06,140.06,0,0,0-3.68-31.7c-1.25-5.61-2.79-11.34-4.66-17-.91-2.94-1.86-5.53-3-8.72-1.22-2.76-2.11-5.41-3.73-8.34A83.73,83.73,0,0,0,380.87,62a129.1,129.1,0,0,0-12.13-12.79c-8.37-7.65-16.6-14-23.45-19.74s-12.37-10.67-16.1-14.29-5.74-5.85-5.74-5.85,1.84,2.34,5.22,6.32,8.49,9.44,14.89,15.72,14,13.4,21.49,21.51A124.08,124.08,0,0,1,375.51,66a77.5,77.5,0,0,1,8,14.84A83.23,83.23,0,0,1,386.33,89c.65,2.45,1.5,5.49,2.09,8.2,1.33,5.58,2.35,11.11,3.09,16.47a127.2,127.2,0,0,1,1,29,79.81,79.81,0,0,1-1.82,11,54.65,54.65,0,0,1-2.49,7.83c-.4,1-.74,1.79-1.07,2.52-.46.9-.86,1.65-1.18,2.26l-1,1.89Z"/><path class="cls-1" d="M430.16,184.1s.22-.67.64-1.92,1-3,1.73-5.56a179.62,179.62,0,0,0,4.67-20.5c1.45-8.49,2.55-18.38,3.95-28.74.73-5.18,1.51-10.52,2.65-15.83s2.69-10.62,4.09-16.13a97.57,97.57,0,0,0,2.63-17.07,78.53,78.53,0,0,0-.65-16.65,68.65,68.65,0,0,0-4-15,62.18,62.18,0,0,0-6.56-12.2,58.14,58.14,0,0,0-7.53-8.87A61.86,61.86,0,0,0,425,19.82c-1.93-1.54-3.68-2.43-4.75-3.18l-1.71-1.09,1.64,1.18c1,.83,2.71,1.81,4.53,3.47a61,61,0,0,1,6.38,6.11,56.66,56.66,0,0,1,6.8,9.11,59.8,59.8,0,0,1,5.62,12.13,68,68,0,0,1,2.92,14.55A73.33,73.33,0,0,1,446,77.94a87.14,87.14,0,0,1-3.43,15.91C440.9,99.19,439,104.52,437.5,110s-2.63,10.89-3.67,16.11c-2,10.48-3.67,20.11-5.54,28.19a167.09,167.09,0,0,1-5.47,19c-.71,2.17-1.54,4.06-2,5.26l-.75,1.89Z"/><path class="cls-1" d="M439.56,185.37l-1.1.22c-.75.18-1.68.28-3.17.7s-3.48,1-5.4,1.73-3.93,1.51-6.1,2.5C415,194.3,404,200,393,205.68s-22,11.4-30.44,15.16a73.69,73.69,0,0,1-10.43,4,12.48,12.48,0,0,1-3,.6c-.72.07-1.12.13-1.12.13l1.13,0a12.62,12.62,0,0,0,3.14-.26,71.91,71.91,0,0,0,10.92-2.85c8.91-2.85,20.49-7.38,32.05-11.86s23.11-8.9,31.78-11.58c2.15-.71,4.12-1.17,5.86-1.69l4-.88c1.13-.2,2.34-.24,3-.32l1.1-.1Z"/><path class="cls-1" d="M385.27,166.39s.51-2.27,1.39-6.24q.16-.74.36-1.56c.07-.7.16-1.42.25-2.18.16-1.53.33-3.2.5-4.95.5-3.68.07-7,0-11s-1-7.91-1.65-12.2c-1.1-4.14-1.86-8.62-3.46-12.94q-1.11-3.26-2.23-6.61-1.33-3.24-2.69-6.56c-1.77-4.43-4.05-8.67-6.16-13-2.37-4.17-4.57-8.38-7.19-12.29-2.43-4-5.12-7.73-7.72-11.31s-5.37-6.87-7.9-10c-2.77-3-5.18-5.94-7.75-8.37s-4.74-4.79-7-6.57-4-3.55-5.7-4.68l-5.21-3.72,4.6,4.41c1.52,1.33,3,3.32,4.91,5.38s3.76,4.64,5.87,7.36,4.06,5.92,6.29,9.14c2,3.4,4.21,6.9,6.18,10.7s4,7.69,5.76,11.81c1.95,4,3.44,8.33,5.08,12.51,1.39,4.29,2.94,8.51,3.95,12.78.54,2.12,1.07,4.23,1.58,6.3s.77,4.16,1.13,6.19c.88,4,.92,8,1.38,11.64,0,3.65.25,7.12-.11,10.18s-.44,6.05-1.12,7.93c-.23,1-.45,2-.65,2.88-.09.45-.2.88-.28,1.29l-.56,1.49c-1.45,3.81-2.28,6-2.28,6Z"/><path class="cls-1" d="M368.67,162.12s-.1.29-.32.82c.16-.13-.28.67-.9,1.37a24.37,24.37,0,0,1-3.2,2.92c-1.46,1.18-3.28,2.46-5.39,4.23-1.77,1.4-3.94,3.16-6.07,4.65s-4.56,3.2-7,4.89c-5,3.29-10.49,6.64-16.05,9.89-11.13,6.47-22.62,12.44-31.38,16.56-4.4,2-8.09,3.67-10.74,4.65s-4.19,1.48-4.19,1.48,1.59-.31,4.32-1.08,6.6-2,11.18-3.65c9.18-3.3,21.22-8.18,33.06-13.64,5.9-2.75,11.77-5.62,17.2-8.51,2.7-1.5,5.31-2.88,7.79-4.39s4.63-2.87,6.81-4.27c3.7-2.19,7.77-4.08,10.52-6.42a14.67,14.67,0,0,0,3.31-3.65l.74-1.26Z"/><path class="cls-1" d="M424.54,176.7l-1.23.35c-.88.29-1.85.45-3.68,1.13a65.16,65.16,0,0,0-6.3,2.6c-2.11,1-4.49,2.18-6.89,3.55-9.83,5.37-21.84,13.15-34.2,20.3-6.17,3.57-12.42,7-18.42,9.88a135,135,0,0,1-16.79,7,61.8,61.8,0,0,1-7,2.11,40.6,40.6,0,0,1-5.5,1.24l-4.87.82,5-.13a38.82,38.82,0,0,0,5.68-.48,66.11,66.11,0,0,0,7.35-1.12,143.19,143.19,0,0,0,18-4.74c6.52-2.07,13.32-4.65,20.05-7.39,13.44-5.46,26.59-11.55,36.35-15.21,2.44-1,4.64-1.67,6.57-2.3s3.16-.79,4.38-1.18,2.67-.41,3.41-.55l1.28-.18Z"/><path class="cls-1" d="M344.39,154.68s.39-2.28,1.06-6.24c.32-2,.53-4.73.85-7.7.1-2.94.36-6.25.21-9.82-.09-7.18-1-15.34-1.87-23.83l-.31-3.21-.39-3.39c-.28-2.2-.55-4.43-.83-6.68a140.38,140.38,0,0,0-2.95-13.88,60.06,60.06,0,0,0-2.11-6.76,53.29,53.29,0,0,0-2.66-6.54,62.75,62.75,0,0,0-7-11.8c-1.32-1.78-2.83-3.37-4.22-5-1.55-1.45-3-3-4.53-4.26a88.17,88.17,0,0,0-9-6.76c-5.79-3.83-10.76-6.7-14.14-8.88l-5.27-3.48,5,3.89c3.2,2.44,8,5.73,13.36,9.94a83.49,83.49,0,0,1,8.25,7.26c1.4,1.33,2.63,2.9,4,4.38,1.18,1.65,2.49,3.23,3.59,5a57.67,57.67,0,0,1,5.64,11.5,48.09,48.09,0,0,1,2,6.3,57.38,57.38,0,0,1,1.49,6.51c.91,4.39,1.26,8.82,1.72,13.14.19,4.5.38,8.92.55,13.2.33,8.7.75,16.61.41,23.21-.06,3.33-.49,6.31-.74,8.95-.45,2.59-.71,4.74-1.14,6.67l-1.43,6.17Z"/><path class="cls-1" d="M357.3,156.24l-.64.83c-.4.51-1.05,1.42-1.72,2.16a69.42,69.42,0,0,1-6.91,6.93c-3.13,2.8-7,5.93-11.33,9.17l-6.75,5c-2.27,1.65-4.79,3.42-7.07,5.34A107.42,107.42,0,0,1,309,195a100.84,100.84,0,0,1-13.27,6.41,61.89,61.89,0,0,1-10,3c-2.5.49-3.95.66-3.95.66s1.45,0,4-.2a61.05,61.05,0,0,0,10.46-1.9,102.91,102.91,0,0,0,14.26-4.94A111.73,111.73,0,0,0,326.08,190c2.37-1.58,4.8-2.9,7.34-4.34s4.95-2.85,7.34-4.21c4.77-2.79,9.18-5.58,12.89-8.2a76.87,76.87,0,0,0,8.82-7.09c1.15-1,1.73-1.72,2.23-2.22l.73-.76Z"/><path class="cls-1" d="M343.18,154.93s-.16.31-.48.86a11.58,11.58,0,0,1-1.31,2.06,30.61,30.61,0,0,1-2.19,2.8c-1,1.2-2.17,2.53-3.57,3.94a113.28,113.28,0,0,1-10,9.18c-1.91,1.59-4,3-6.11,4.64-2.22,1.38-4.4,2.91-6.73,4.22l-38.29,21.63,40.63-16.82c2.61-1.07,5.13-2.41,7.67-3.59,2.4-1.42,4.85-2.69,7.08-4.13a118.29,118.29,0,0,0,11.85-8.48c1.69-1.32,3.18-2.66,4.49-3.88a36,36,0,0,0,3.57-3.66,21,21,0,0,0,2-2.43l.58-.81Z"/><path class="cls-1" d="M333.85,152.78s.12-2.37.32-6.52c.19-1.9,0-5.11,0-8.29,0-3.36-.46-6.72-.81-10.51s-1.14-7.73-1.76-12c-.87-4.17-1.77-8.57-3-13a201.4,201.4,0,0,0-9.28-27.24c-2-4.47-4-8.92-6.26-13.15a133.42,133.42,0,0,0-7.18-12.12,125.76,125.76,0,0,0-7.77-10.6A114,114,0,0,0,290,30.82c-2.86-2.3-5.14-4.72-7.75-6.16s-4.49-3.17-6.5-3.89l-6-2.61,5.54,3.41c1.83.94,3.54,2.89,5.73,4.64s4.18,4.39,6.55,6.9c2.22,2.66,4.3,5.86,6.51,9.13a117.65,117.65,0,0,1,5.89,11,123,123,0,0,1,5.12,12.31c1.58,4.26,2.87,8.72,4.12,13.13a190.61,190.61,0,0,1,5,26.46c.5,4.24.75,8.37,1,12.24,0,3.88.3,7.55.06,10.88s-.2,6.47-.58,8.86c-.38,2.59-.38,4.42-.88,6.62-.79,4.09-1.23,6.41-1.23,6.41Z"/><path class="cls-1" d="M291.31,147.1s-.06-2.25-.17-6.18c0-1-.07-2.09-.1-3.3s-.28-2.77-.43-4.33a91.82,91.82,0,0,0-1.37-10A109.27,109.27,0,0,0,286.75,112c-.93-4-2.26-8-3.68-12.19s-3.21-8.34-4.85-12.6c-2-4.14-3.76-8.44-6.1-12.47l-3.33-6.08c-1.24-2-2.45-3.9-3.66-5.82-2.4-3.86-5.15-7.43-7.72-10.89a118,118,0,0,0-8.25-9.32,81.72,81.72,0,0,0-8.25-7.48c-2.67-2.17-5.45-3.76-7.73-5.3-2.55-1.2-4.69-2.31-6.52-3.07l-6-1.69,5.59,2.54c1.67,1,3.6,2.39,5.81,3.86,2,1.83,4.37,3.7,6.58,6.13a77.7,77.7,0,0,1,6.72,8.23,106.55,106.55,0,0,1,6.42,9.91c1.93,3.62,4,7.31,5.7,11.26l2.6,5.94,2.25,6.13c1.61,4,2.6,8.29,3.9,12.34.91,4.16,2.11,8.16,2.7,12.15s1.37,7.79,1.66,11.42a94.94,94.94,0,0,1,.69,10.19,68.46,68.46,0,0,1-.09,8.24c0,1.18-.09,2.28-.14,3.31s-.25,2.23-.37,3.19c-.48,3.91-.76,6.14-.76,6.14Z"/><path class="cls-1" d="M245.55,147.87s-.29-1.88-.78-5.15c-.13-.82-.26-1.72-.41-2.71s-.53-2.29-.81-3.56a66.56,66.56,0,0,0-2.28-8.24c-.48-1.44-1-3-1.52-4.49s-1.3-3-2-4.65c-1.26-3.22-3.1-6.35-4.79-9.66-1.93-3.17-3.79-6.52-6-9.63s-4.51-6.29-6.86-9.36C210.46,78.33,199.76,67.59,192,59.36s-12.79-13.91-12.79-13.91S183.33,51.78,190,61s15.83,21.29,23.44,34c1.85,3.2,3.7,6.39,5.27,9.63s3,6.46,4.36,9.54c1.12,3.2,2.39,6.19,3.1,9.15.41,1.47.81,2.89,1.18,4.27s.54,2.75.78,4a51.09,51.09,0,0,1,1,6.84c.11,1,.2,1.94.3,2.8s0,1.91,0,2.75c.06,3.3.1,5.19.1,5.19Z"/><path class="cls-1" d="M234.92,138.8l-3.23,4.09c-.5.65-1.07,1.37-1.69,2.15l-1.93,2a53.72,53.72,0,0,1-4.9,4.87c-1,.88-2,1.8-3.07,2.74l-3.53,2.67c-2.37,1.93-5.21,3.54-8,5.4-3,1.62-6,3.45-9.26,4.94s-6.62,3-10,4.47c-13.79,5.5-28.4,9.54-39.28,12.82s-18,5.75-18,5.75,7.41-1.55,18.6-3.3,26.21-3.88,41.2-7.65c3.73-1,7.47-2,11.12-3.28,3.68-1.1,7.19-2.63,10.66-4,3.34-1.61,6.7-3,9.66-4.78l4.38-2.49,3.94-2.65a64.09,64.09,0,0,0,6.81-5.18l2.8-2.33,2-1.91c2.37-2.31,3.74-3.62,3.74-3.62Z"/><path class="cls-1" d="M314.44,149.65s.06-2,.14-5.44,0-8.72-.23-14.73c-.11-3-.38-6.3-.6-9.74-.39-3.46-.61-7.09-1.2-10.85s-1.15-7.65-2-11.57c-.31-2-1-3.93-1.49-5.9l-.86-3.06-1.05-2.79a109.79,109.79,0,0,0-4.54-11,98.84,98.84,0,0,0-5.35-10.37c-1.79-3.31-3.8-6.33-5.68-9.2s-3.83-5.45-5.53-7.9l-8.58-11.54c-2-2.87-3.05-4.51-3.05-4.51s1,1.73,2.67,4.76,4.44,7.16,7.58,12.21c1.47,2.57,3.25,5.25,4.79,8.27s3.33,6.09,4.79,9.47a94.44,94.44,0,0,1,4.3,10.37,102.67,102.67,0,0,1,3.51,11.17l.81,2.86.52,2.7c.31,1.89.78,3.7.92,5.61.48,3.77.82,7.49,1,11.15s.17,7.16.27,10.51c-.07,3.35-.08,6.51-.22,9.42-.25,5.89-.64,10.61-.95,14s-.6,5.42-.6,5.42Z"/><path class="cls-1" d="M221.24,150.2s-.87-1.62-2.42-4.39-4-7-7-11.59c-1.45-2.37-3.19-4.85-5-7.49s-3.83-5.32-5.84-8.15c-2.17-2.73-4.33-5.61-6.76-8.37a96.5,96.5,0,0,0-7.73-8.12c-2.84-2.78-5.66-4.73-8.45-7.1s-5.93-4.24-8.74-6.26c-3-1.77-5.81-3.61-8.64-5s-5.51-2.77-8.05-3.81c-5-2.19-9.31-3.78-12.23-5l-4.53-2.14,4.3,2.58c2.8,1.53,6.91,3.57,11.65,6.2,2.41,1.27,4.89,2.84,7.49,4.52s5.16,3.7,7.87,5.67c2.51,2.24,5.18,4.31,7.73,6.81s5.36,5.11,7.5,7.65a91.3,91.3,0,0,1,6.58,8.21c2.09,2.8,3.93,5.75,5.77,8.53s3.49,5.59,5,8.32,3,5.2,4.16,7.59c2.55,4.8,4.36,8.69,5.7,11.56s2,4.57,2,4.57Z"/><path class="cls-1" d="M302.3,150.22s.16-.58.43-1.65a31.45,31.45,0,0,0,.9-5.78,80.54,80.54,0,0,0-1.35-18.28,227.41,227.41,0,0,0-5.76-24.13c-1.3-4.37-2.57-8.67-4.22-13.33a85.39,85.39,0,0,0-6-13.26,189.15,189.15,0,0,0-15.55-23.53c-5.43-7.13-10.76-13.54-15.35-19s-8.43-10-11-13.26a59.75,59.75,0,0,1-3.81-5.3,59.52,59.52,0,0,0,3.49,5.54c2.38,3.42,5.95,8.19,10.19,13.91S263.45,44.59,268.37,52a185,185,0,0,1,13.81,23.91,80.54,80.54,0,0,1,4.89,12.91c1.19,4.26,2.11,8.91,3,13.19a217.68,217.68,0,0,1,3.58,23.65,70,70,0,0,1-.12,16.08,17.44,17.44,0,0,1-.87,3.7L292.1,147Z"/><path class="cls-1" d="M331.69,151.22s-.14.28-.45.83c-.53,1-.13.27-.36.8a24.87,24.87,0,0,1-5.88,4.94c-3,2-7,4.23-11.35,6.56l-6.86,3.7c-2.34,1.32-4.69,2.67-7.06,4a197.47,197.47,0,0,0-24.37,16.8,63.83,63.83,0,0,0-7.06,6.71,19.39,19.39,0,0,0-2.16,3,20,20,0,0,1,2.6-2.52,62,62,0,0,1,7.94-5.29,191,191,0,0,1,26.23-12.05c2.36-.87,5-1.89,7.33-2.58l7.31-2.13c4.85-1.39,9.45-2.79,13.49-4.41a40.09,40.09,0,0,0,10.2-5.51,24,24,0,0,0,3.18-3.22l.62-.74Z"/><path class="cls-1" d="M509.53,236.62l4.62-4.94c1.45-1.4,3.34-4.08,5.39-6.65,2.22-2.66,3.81-5.7,6-9,2-3.34,4-7,5.91-10.94s3.85-8.1,5.55-12.5c3.6-8.71,6.76-18.17,9.61-27.65,5.73-19,10.26-38.07,14-52.32S567.08,89,567.08,89s-4,9-9.37,22.76c-5.58,13.67-12,32.27-19.69,50.13-3.81,8.94-7.87,17.73-12.17,25.55-2.06,4-4.34,7.6-6.43,11.05s-4.34,6.47-6.4,9.21c-2.17,2.55-4.07,5.33-5.87,7-1.9,1.85-3,3.32-4.76,4.78a18,18,0,0,0-3.19,3.89,13.41,13.41,0,0,0-.77,1.74Z"/><path class="cls-1" d="M503.66,224.22l-1.13,1.23c-.16.09-.08.12-.44.42a15,15,0,0,1-1.61,1.09c-2.68,1.72-8.08,3.86-14.78,6.43-3.36,1.3-7.05,2.74-10.91,4.4s-8,3.69-11.9,5.44c-8,3.58-16.83,7.09-25.68,10.44-17.75,6.68-35.8,12.71-49.42,16.93-6.81,2.1-12.53,3.75-16.55,4.79-2,.51-3.62.87-4.7,1.06a5,5,0,0,1-1.26.08c-.34-.08,0-.32,0-.29s-.33.19,0,.33a4.24,4.24,0,0,0,1.27,0c1.11-.08,2.75-.29,4.81-.63,4.12-.67,10-1.8,17-3.29,14-3,32.56-7.38,51-12.5,9.21-2.56,18.4-5.29,27-8.24,4.34-1.57,8.24-2.68,12.11-3.75s7.53-1.9,11-2.7c6.92-1.62,12.95-2.92,17.72-5A30.05,30.05,0,0,0,510.4,239a28.41,28.41,0,0,0,2.92-2l1.36-1.1Z"/><path class="cls-1" d="M562.24,265.15s-2.6.89-7.15,2.42c-2.23.72-5.09,1.84-8.3,3s-6.79,2.56-10.65,4.09c-15.42,6.07-35.59,14.72-55.75,23.26S440,314.86,424.5,320c-3.89,1.24-7.45,2.46-10.68,3.24a62,62,0,0,1-8.37,1.88,24.55,24.55,0,0,1-5.49.53l-2,0,2,.13a24.36,24.36,0,0,0,5.58,0,65.71,65.71,0,0,0,8.62-1.12c3.33-.51,7-1.39,11-2.29,16.1-3.74,37.07-10.32,58-17s41.73-13.44,57.37-18c3.9-1.14,7.5-2.21,10.61-3s5.79-1.61,8.17-2.15l7.32-1.75Z"/><path class="cls-1" d="M210.75,152.5l-1.35-3.83c-.34-1.08-1.15-3-2.05-5.09a46.93,46.93,0,0,0-3.24-6.4,82.43,82.43,0,0,0-9.76-13.52c-2-2.24-4.06-4.47-6.28-6.58s-4.55-4.15-6.85-6.17a196.62,196.62,0,0,0-27.31-18.74c-7.74-4.45-13-7.08-13-7.08s4.57,3.77,11,9.78a186.57,186.57,0,0,1,21.57,23.45c1.66,2.31,3.4,4.54,4.83,6.89s2.87,4.62,4.08,6.87a66,66,0,0,1,5.26,12.51,28.17,28.17,0,0,1,1.17,4.79,34.57,34.57,0,0,1,.6,3.79c.29,2.56.44,4,.44,4Z"/><path class="cls-1" d="M169.05,164.05s-.41-1.15-1.09-3.16c-.29-.88-.89-2.44-1.63-4.23-.37-.87-.75-1.79-1.17-2.77l-1.42-2.68A75,75,0,0,0,156,139.66a116.14,116.14,0,0,0-10.39-11,234.21,234.21,0,0,0-21.28-17l-9.88-7.12s3,3.82,7.57,9.54a226.58,226.58,0,0,1,15.34,21.4c4.88,8,8.4,16.33,9.59,22.42.16.75.32,1.48.46,2.16s.12,1.18.17,1.73c.12,1,.24,1.92.29,3.13.12,2.13.19,3.35.19,3.35Z"/><path class="cls-1" d="M129,175.52,127,172.29l-2.46-4c-1-1.58-2.1-3.19-3.33-5a169.54,169.54,0,0,0-20.23-24c-2.08-1.95-4.09-3.93-6.26-5.72s-4.26-3.54-6.42-5.1A75.5,75.5,0,0,0,76,121a49.52,49.52,0,0,0-5.28-2.21,34.77,34.77,0,0,0-4.2-1.28l-3.69-.81,3.37,1.66a32.25,32.25,0,0,1,3.63,2.21,41.46,41.46,0,0,1,4.38,3.26,69.3,69.3,0,0,1,9.51,9.66c1.6,1.89,3.15,3.91,4.65,6s2.92,4.36,4.35,6.55a156,156,0,0,1,12.63,25.81c.67,1.82,1.32,3.49,1.75,4.91s.88,2.74,1.21,3.79l1.1,3.6Z"/><path class="cls-1" d="M116.26,180.83s-.15-.27-.43-.74a24.15,24.15,0,0,0-1.48-2.35,63.54,63.54,0,0,0-6-7.1,52.41,52.41,0,0,1-3.41-4c-1-1.31-2.28-3.31-3.51-5.09-2.48-3.65-5.14-7.63-8-11.51a85.48,85.48,0,0,0-9.21-10.89,43.8,43.8,0,0,0-10-7.46,38.59,38.59,0,0,0-8-3.25l-3.17-.77s1.1.43,3,1.21a38.28,38.28,0,0,1,7.27,4.28,41.77,41.77,0,0,1,8.27,8.32A82.07,82.07,0,0,1,88.71,153c2.17,4.11,4.18,8.34,6.1,12.36,1,2,1.74,3.83,3,5.91a59.14,59.14,0,0,0,3.36,5.17,61.11,61.11,0,0,1,4.34,6.53,14.57,14.57,0,0,1,.86,1.83l.32.78Z"/><path class="cls-1" d="M236.84,147.74s-.68-1.49-1.86-4.12c-.6-1.34-1.57-3.16-2.57-5.11s-2.22-3.9-3.51-6.17a269.08,269.08,0,0,0-21.36-30C199.2,92,190.06,82.31,182.36,76A63.94,63.94,0,0,0,177,71.83a39.45,39.45,0,0,0-4.49-2.69,20.47,20.47,0,0,0-3.13-1.23l-1.11-.38,1.05.55a21,21,0,0,1,2.84,1.66A37.72,37.72,0,0,1,176,73a53,53,0,0,1,4.59,4.76c6.46,7.25,13.84,18,20.34,29.17a258.75,258.75,0,0,1,15.86,31.51c.82,2.18,1.74,4.26,2.26,5.92s1.06,3,1.44,4.38c.76,2.77,1.19,4.36,1.19,4.36Z"/><path class="cls-1" d="M96.35,189.53s-.41-.83-1.12-2.3a26.24,26.24,0,0,0-1.9-2.88c-.79-1.11-1.74-2-2.74-3.12-2.08-2-4.62-4.22-7.21-6.49-1.29-1.15-2.6-2.33-3.83-3.61A41.81,41.81,0,0,1,76,167c-2.27-2.91-4.32-6-6.34-8.86a79.07,79.07,0,0,0-5.83-7.67,27.36,27.36,0,0,0-2.68-2.76,14.47,14.47,0,0,0-2.25-1.93l-2-1.54L58.79,146a14.72,14.72,0,0,1,2,2.1A27.91,27.91,0,0,1,63.21,151a77.17,77.17,0,0,1,5.05,8c1.72,3,3.55,6.36,5.61,9.53a44.57,44.57,0,0,0,3.3,4.65c1.19,1.5,2.46,2.85,3.66,4.15,2.48,2.57,4.69,4.86,6.43,6.91a33,33,0,0,1,2.06,2.81,19,19,0,0,1,1.2,2.13l.91,2.4Z"/><path class="cls-1" d="M81.49,192.48s-.12.64-.31,1.75c-.07.7-.34.84-.5,1.4a10.69,10.69,0,0,1-1.06,1.88c-1,1.43-2.46,3.05-4.13,5a32.47,32.47,0,0,0-2.43,3.12,22.74,22.74,0,0,0-2,3.54c-1.16,2.4-2.1,4.93-3,7.16a39.89,39.89,0,0,1-2.74,6,14.58,14.58,0,0,1-2.8,3.68l-1.32,1.2,1.47-1a14.77,14.77,0,0,0,3.35-3.38A41.67,41.67,0,0,0,69.63,217c1.2-2.17,2.36-4.4,3.75-6.53a19.49,19.49,0,0,1,2.19-3,27.27,27.27,0,0,1,2.54-2.5c1.76-1.56,3.58-3.11,5-4.68A15.37,15.37,0,0,0,85,197.8a12.73,12.73,0,0,0,1.13-2.36c.34-1.08.53-1.7.53-1.7Z"/><path class="cls-1" d="M109.17,181.31l-1.42-2.19c-.45-.7-1-1.54-1.62-2.52a33.93,33.93,0,0,0-2.52-3.46c-1-1.29-2.11-2.67-3.27-4.13s-2.49-2.61-3.8-4a46.55,46.55,0,0,0-4.19-4c-1.49-1.27-2.95-2.6-4.48-3.84-3.17-2.34-6.2-4.76-9.33-6.65a98.42,98.42,0,0,0-8.48-5.06c-2.46-1.47-4.72-2.35-6.19-3.11l-2.36-1.11,2,1.7c1.24,1.11,3.13,2.51,5.1,4.54s4.38,4.23,6.66,6.89,4.6,5.52,6.87,8.39c1,1.51,2,3,3,4.5a39.78,39.78,0,0,1,2.7,4.43c.79,1.46,1.62,2.86,2.28,4.17s1.07,2.5,1.54,3.62A22.45,22.45,0,0,1,93,182.78c.35,1.1.65,2.07.91,2.86.5,1.58.79,2.48.79,2.48Z"/><path class="cls-1" d="M140.19,172.79l-.71-2.87a60.18,60.18,0,0,0-2.55-8.09,42.82,42.82,0,0,0-2.44-5.2c-1-1.76-2.13-3.52-3.34-5.21l-3.67-5.07-3.89-5.21a110.44,110.44,0,0,0-16.94-17,69.56,69.56,0,0,0-6.32-4.63l-2.5-1.59,2.24,1.94a66.74,66.74,0,0,1,5.48,5.45,108.53,108.53,0,0,1,13.72,18.66c1,1.88,2.12,3.83,3,5.6s1.87,3.73,2.77,5.53a38,38,0,0,1,3.41,9.49,48.3,48.3,0,0,1,1,7c.15,1.89.24,3,.24,3Z"/><path class="cls-1" d="M180.51,157.57s-.56.92-1.55,2.51a49,49,0,0,1-4.32,6,41.73,41.73,0,0,1-7.73,7.13c-3.23,2.37-6.67,4.88-10.22,7.28A109.43,109.43,0,0,1,135.83,191a66.85,66.85,0,0,1-7.39,2.36l-2.86.71,2.9-.49a69.77,69.77,0,0,0,7.59-1.81,110.39,110.39,0,0,0,22-9c3.74-2.14,7.42-4.39,10.87-6.51a45.63,45.63,0,0,0,9-7.05,54.2,54.2,0,0,0,5.24-6.17l1.76-2.38Z"/><path class="cls-1" d="M123.21,171.77l-.74,2.87a47,47,0,0,1-2.17,6.76,38.29,38.29,0,0,1-5,8.75l-3.68,5c-1.13,1.61-2.59,3.32-3.89,5a108.23,108.23,0,0,1-16.7,16,67,67,0,0,1-6.34,4.43c-1.61,1-2.53,1.52-2.53,1.52L84.91,221a71.45,71.45,0,0,0,7-3.48,111.43,111.43,0,0,0,19.62-13.91l4.71-4.46,4.49-4.36c1.47-1.47,2.88-3,4.18-4.57a47.23,47.23,0,0,0,3.3-4.69,60.93,60.93,0,0,0,3.89-7.54c.76-1.72,1.19-2.71,1.19-2.71Z"/><path class="cls-1" d="M91.13,189.76s-.5-.9-1.4-2.48a32.65,32.65,0,0,0-2-3.12,34.62,34.62,0,0,0-3-3.8,59.1,59.1,0,0,0-8.32-7.81,77.26,77.26,0,0,0-10.7-6.87,81.09,81.09,0,0,0-11.52-4.93,66.45,66.45,0,0,0-10.49-2.66,49.22,49.22,0,0,0-7.54-.73l-2.87,0s1,.15,2.82.44a49.33,49.33,0,0,1,7.19,1.89,64.1,64.1,0,0,1,9.57,4.14,79.91,79.91,0,0,1,10,6.34A72.08,72.08,0,0,1,71.54,178a49,49,0,0,1,6,7.78A25.08,25.08,0,0,1,79.3,189a21.72,21.72,0,0,1,1.14,2.59l1,2.68Z"/><path class="cls-1" d="M82.91,196.33s-.64-1-1.77-2.64c-.5-.78-1.54-2.16-2.51-3.46s-2.21-2.64-3.55-4.1a53.41,53.41,0,0,0-23.57-14.24,58.87,58.87,0,0,0-13.93-2.24A79.36,79.36,0,0,1,26.11,168a22.19,22.19,0,0,1-7.54-3,7.52,7.52,0,0,1-1.71-1.51c-.32-.42-.49-.66-.49-.66l.41.73a7.67,7.67,0,0,0,1.53,1.76,23.12,23.12,0,0,0,7.36,4.09,88.56,88.56,0,0,0,11.42,3.26,54.66,54.66,0,0,1,11.82,5.22,45.88,45.88,0,0,1,9.67,7.77,41.34,41.34,0,0,1,6.11,8.39c.68,1.31,1.34,2.59,1.76,3.62s.73,1.76,1.08,2.78c.65,1.91,1,3,1,3Z"/><path class="cls-1" d="M70.57,201.51l-1.67-2.23a25,25,0,0,0-2.11-2.63,33,33,0,0,0-3.28-3.35A36.7,36.7,0,0,0,54,187.16a67.4,67.4,0,0,0-11.84-3.59l-6-1c-2-.31-3.88-.74-5.82-.88-3.85-.33-7.38-.91-10.45-.92a60.65,60.65,0,0,0-7.38-.09l-2.77.19,2.79.15a60.32,60.32,0,0,1,7.22,1c3,.39,6.4,1.39,10,2.16,1.82.35,3.71,1,5.61,1.58s3.79,1.14,5.7,1.72a63,63,0,0,1,10.43,4.62,29.62,29.62,0,0,1,7.17,6,25.82,25.82,0,0,1,2.19,2.86,19.21,19.21,0,0,1,1.58,2.55l1.38,2.43Z"/><path class="cls-1" d="M70.06,198s-.09.58-.26,1.59a20.12,20.12,0,0,1-.89,3.79,28.47,28.47,0,0,1-6.25,10.29,44.5,44.5,0,0,1-9.89,7.84,32.28,32.28,0,0,1-5.24,2.57,33.15,33.15,0,0,0,5.61-1.83,45.69,45.69,0,0,0,11.34-6.63,31.89,31.89,0,0,0,8.61-10.55,24.63,24.63,0,0,0,1.68-4.3c.32-1,.49-1.54.49-1.54Z"/><path class="cls-1" d="M137.39,169.93s-.21,1-.6,2.71a20,20,0,0,1-.76,2.92,25.6,25.6,0,0,1-1.24,3.38,30.43,30.43,0,0,1-5.06,7.88,63.36,63.36,0,0,1-8.59,7.49c-1.66,1.12-3.32,2.23-5,3.34s-3.25,2.29-4.88,3.16c-3.26,1.81-6.21,3.78-9,5a55,55,0,0,1-6.62,3.08l-2.61,1,2.71-.64a59,59,0,0,0,7-2.27c2.93-.93,6.13-2.51,9.71-4,1.82-.71,3.49-1.69,5.29-2.57l5.46-2.78a67.43,67.43,0,0,0,10.24-6.93,36.38,36.38,0,0,0,7.24-8.67,34.3,34.3,0,0,0,2.13-4.16,27.41,27.41,0,0,0,1.25-3.14c.58-1.67.92-2.63.92-2.63Z"/><path class="cls-1" d="M161.65,161.4l-.94,2.63a19.21,19.21,0,0,1-1.13,2.79,24.94,24.94,0,0,1-1.64,3.18,30.54,30.54,0,0,1-6,7.19,64.4,64.4,0,0,1-9.46,6.35c-1.79.89-3.57,1.8-5.33,2.68s-3.52,1.85-5.25,2.52c-3.46,1.38-6.63,2.95-9.51,3.85a56.21,56.21,0,0,1-7,2.22c-1.73.42-2.72.64-2.72.64l2.77-.29a59.21,59.21,0,0,0,7.25-1.36c3-.55,6.39-1.72,10.12-2.71,1.9-.48,3.68-1.23,5.58-1.87l5.77-2.07a68.72,68.72,0,0,0,11-5.58,36.94,36.94,0,0,0,8.27-7.69,31.77,31.77,0,0,0,2.64-3.87,24.26,24.26,0,0,0,1.64-3l1.25-2.48Z"/><path class="cls-1" d="M56,208.68l-2-1.15c-.68-.35-1.28-.81-2.37-1.29L48,204.67a43,43,0,0,0-9-2c-1.66-.07-3.36-.27-5.09-.19a46.9,46.9,0,0,0-5.16.35,63.39,63.39,0,0,0-17.89,5.08,47.71,47.71,0,0,0-7.34,3.94,47.18,47.18,0,0,1,7.77-2.76,61.16,61.16,0,0,1,17.64-2.25,40.24,40.24,0,0,1,4.71.39c1.54.15,3,.58,4.42.84a38.36,38.36,0,0,1,7.21,2.81l2.41,1.5a20.82,20.82,0,0,1,2,1.53l1.79,1.42Z"/><path class="cls-1" d="M110.38,180.61s-.19.81-.51,2.22a19.8,19.8,0,0,1-.62,2.47c-.31.85-.66,1.79-1,2.84a38.92,38.92,0,0,1-4,6.88c-1,1.11-1.88,2.38-3,3.48a38.87,38.87,0,0,1-3.5,3.26A61.25,61.25,0,0,1,82.39,211a47.05,47.05,0,0,1-7.81,2.68,47.92,47.92,0,0,0,8.1-1.89,62.88,62.88,0,0,0,16.62-7.94,41,41,0,0,0,4.06-3.09c1.32-1.05,2.44-2.31,3.63-3.43a42.37,42.37,0,0,0,5.27-7.25c.6-1.25,1.15-2.38,1.63-3.39a25,25,0,0,0,.91-2.52c.47-1.38.73-2.16.73-2.16Z"/><path class="cls-1" d="M63.36,204.32l-1.49-1.77-1.73-2c-.75-.8-1.78-1.73-2.81-2.7A23.53,23.53,0,0,0,53.79,195a24.85,24.85,0,0,0-4.26-2.54,32,32,0,0,0-10.12-3.15c-7.14-1-14,.42-18.88,1.9-2.44.76-4.42,1.48-5.8,2l-2.2.74,2.29-.4c1.45-.3,3.51-.71,6-1.09,4.93-.74,11.67-1,17.77.8a27.51,27.51,0,0,1,8.18,4A19.82,19.82,0,0,1,50,199.83a18.65,18.65,0,0,1,2.47,2.65c.67.88,1.31,1.57,1.85,2.35l1.4,2.26,1.22,2Z"/><path class="cls-1" d="M48.42,212.43l-8.19-.93c-2.55-.11-5.55-.39-8.67-.4s-6.47,0-9.78.26a43.48,43.48,0,0,0-9.7,1.81,17.78,17.78,0,0,0-7.38,4.44,24.63,24.63,0,0,0-3.57,4.83l-1.13,2,1.3-1.86a24.7,24.7,0,0,1,3.91-4.4,16.5,16.5,0,0,1,7.28-3.53,40.87,40.87,0,0,1,9.38-.89c3.27.07,6.43.26,9.52.61s5.75,1,8.1,1.37l8,2Z"/><path class="cls-1" d="M151.21,164.6s-1.78,2.77-4.42,6.94c-1.45,1.9-2.91,4.28-4.91,6.57s-4.18,4.7-6.5,7a41.48,41.48,0,0,1-7.4,5.82,16.85,16.85,0,0,1-7.73,2.46,24.6,24.6,0,0,1-5.87-.51l-2.21-.46,2.17.67a25.73,25.73,0,0,0,5.92,1,17.93,17.93,0,0,0,8.4-1.87,42.71,42.71,0,0,0,8.29-5.38c2.56-2.1,5.1-4.39,7.28-6.55s4.23-4.42,6-6.25l5.3-6.34Z"/><path class="cls-1" d="M15.67,241.44a7.88,7.88,0,0,1,.68-3.5,20.57,20.57,0,0,1,6.86-8.31,37.66,37.66,0,0,1,5-3.1,41.63,41.63,0,0,1,4.72-2.13c1.43-.62,2.55-.93,3.34-1.34a6.15,6.15,0,0,0,1.19-.68l-2.11,5c-.42.08-.83.16-1.28.29A41.16,41.16,0,0,0,29.4,229a38.07,38.07,0,0,0-5.07,2.24,23.91,23.91,0,0,0-4.49,3.17,13.11,13.11,0,0,0-3,3.73,7.4,7.4,0,0,0-1,3.28,2.55,2.55,0,0,0,.26,1.32A2.82,2.82,0,0,1,15.67,241.44Z"/><path class="cls-1" d="M262,146s-1-1.94-2.63-5.37-3.9-8.17-6.46-14.06-5.33-12.92-8.28-20.53-6.19-15.76-10-23.72l-3-5.89c-1.11-1.91-2.22-3.81-3.33-5.68a108.85,108.85,0,0,0-7.3-10.46,112.09,112.09,0,0,0-7.78-9c-2.56-2.75-5.27-5.07-7.61-7.37l-6.86-5.72c-2-1.72-4-3-5.48-4.14l-4.82-3.53,4.53,3.9c1.42,1.27,3.26,2.64,5.13,4.52s4,3.92,6.34,6.18c2.14,2.42,4.61,4.92,6.92,7.8a110.28,110.28,0,0,1,6.88,9.32,107.07,107.07,0,0,1,6.27,10.62c.91,1.9,1.84,3.79,2.76,5.7l2.47,5.9c3.12,8,5.63,16.18,8,24s4.63,15.11,6.75,21.34,4.11,11.56,5.54,15,2.22,5.55,2.22,5.55Z"/><path class="cls-1" d="M278.05,141.65s-1.49,1-4.14,2.77l-4.74,3.17c-1.83,1.27-3.92,2.53-6.15,4.2-4.42,3.32-9.74,7.17-15,11.3-2.69,2-5.44,4.28-8.29,6.28s-5.74,4.15-8.7,6.14l-9.11,5.33c-3.07,1.65-6.33,2.74-9.38,4.11a40.23,40.23,0,0,1-4.58,1.76c-1.55.39-3.09.79-4.57,1.15-3,.76-5.81,1.49-8.43,2.14-5.31.73-9.81,1.17-13,1.55l-4.95.56,5-.11c3.17-.09,7.71-.09,13.18-.35l8.73-1.37,4.8-.75a41.06,41.06,0,0,0,4.88-1.38c3.26-1.09,6.79-2,10.13-3.36l10-4.67c3.22-1.77,6.35-3.66,9.5-5.47s6-3.76,8.94-5.55c5.77-3.72,11-6.8,15.57-9.61,2.24-1.39,4.53-2.51,6.44-3.58l5-2.72,4.38-2.37Z"/><path class="cls-1" d="M190.24,156.14s-3.09-4.63-7.74-11.53c-1.23-1.72-2.22-3.6-3.44-5.58s-2.46-4.06-3.71-6.31l-3.85-7a81.15,81.15,0,0,0-4.52-7.29c-1.82-2.29-3.39-4.78-5.54-6.62s-3.91-4-6-5.62c-4.18-3.2-7.87-6.42-11.37-8.71-6.81-4.8-11.36-8-11.36-8s4.12,3.72,10.31,9.27c3.17,2.69,6.41,6.29,10.08,9.87,1.85,1.8,3.31,4,5,6s2.92,4.4,4.32,6.61,2.22,4.88,3.34,7.24c1,2.53,2,5,3,7.45s2.09,4.8,3.07,7,1.89,4.46,2.87,6.26c3.79,7.41,6.3,12.35,6.3,12.35Z"/><path class="cls-1" d="M204,149.09l-11,8.44c-1.66,1.19-3.4,2.81-5.25,4.38s-3.83,3.23-5.76,5-3.89,3.58-5.9,5.44a77.46,77.46,0,0,1-6.19,5.12c-2.24,1.42-4.31,3.16-6.81,4.15s-4.71,2.43-7.16,3.26c-4.87,1.66-9.34,3.51-13.37,4.58l-13.27,3.93,13.59-2.73c4.12-.69,8.79-2.13,13.88-3.38,2.56-.61,5.07-1.79,7.71-2.7s5.09-2.44,7.66-3.77a78.66,78.66,0,0,0,7-4.81l6.36-4.88c2.06-1.56,4.08-2.92,6-4.31s3.61-2.67,5.42-3.74l11.73-7.42Z"/><path class="cls-1" d="M101.92,179.84,97,186.22c-1.41,2.06-3.17,4.49-4.8,7l-2.54,3.89c-.89,1.24-1.69,2.64-2.68,3.8a44,44,0,0,1-3,3.52c-1.11,1.07-2.2,2.12-3.27,3.13-2.35,1.78-4.5,3.59-6.5,4.91l-6.74,4.4,7.37-3.31c2.21-1,4.66-2.49,7.37-4,1.28-.88,2.6-1.8,3.94-2.74A49.86,49.86,0,0,0,90,203.64c1.27-1.11,2.29-2.39,3.44-3.56l3.12-3.48c2-2.27,3.89-4.14,5.5-5.84l5.86-5.54Z"/><path class="cls-1" d="M148.56,168.65s-.39-1.39-1.05-3.82-1.62-6-3.11-10.37a55.43,55.43,0,0,0-3.09-6.94,50.74,50.74,0,0,0-4.51-7,142.41,142.41,0,0,0-11.45-13.07c-8.19-8.38-17.39-15.53-24.21-20.82a67,67,0,0,1-7.84-6.78,6.85,6.85,0,0,1-2-3.34A7,7,0,0,0,93,100.09a67.46,67.46,0,0,0,7.19,7.66c6.26,6,14.56,14,21.6,22.88a99,99,0,0,1,9.32,13.61,43.26,43.26,0,0,1,3.1,6.55A49,49,0,0,1,136,156.9c.78,4,1.24,7.47,1.58,10s.53,3.93.53,3.93Z"/><path class="cls-1" d="M131.16,175.73s-.3-1.22-.81-3.36a74.88,74.88,0,0,0-2.84-9,34.61,34.61,0,0,0-3-5.8,40.61,40.61,0,0,0-4.49-5.54,127.74,127.74,0,0,1-9.6-11.08,154.52,154.52,0,0,0-18.69-20.58,72.14,72.14,0,0,0-7.26-5.58l-3-1.77,2.84,2a72.39,72.39,0,0,1,6.82,6,153,153,0,0,1,17.08,21.59,127.44,127.44,0,0,0,9,11.88,29.51,29.51,0,0,1,6,10.47,68.61,68.61,0,0,1,2.07,8.53c.39,2.17.6,3.41.6,3.41Z"/><path class="cls-1" d="M259.31,145.94l-2.4,2.56c-.78.83-1.7,1.83-2.77,2.95s-2.35,2.16-3.7,3.41a80.4,80.4,0,0,1-10.18,7.67,119.39,119.39,0,0,1-13,7.05c-4.64,2.33-9,4.61-13.62,5.86a53.07,53.07,0,0,1-12.75,2c-3.81.15-7,0-9.25-.05l-3.52,0,3.5.31c2.23.2,5.42.6,9.28.74a55.31,55.31,0,0,0,13.22-1.07,73.17,73.17,0,0,0,14.37-5,125.41,125.41,0,0,0,13.78-6.48,85,85,0,0,0,11.18-7.48l4.21-3.44c1.14-1.09,2.12-2,2.92-2.8,1.63-1.54,2.55-2.43,2.55-2.43Z"/><path class="cls-1" d="M46.88,212.62a13.43,13.43,0,0,0-2.08,1.28l-1.9,1.52a19.48,19.48,0,0,1-5.3,3,36.87,36.87,0,0,1-3.67,1.18c-2.74.57-5.61,1-8.6,1.29-5.94.63-12,1.21-16.4,2.45a33.17,33.17,0,0,0-5.16,1.83l-1.85.92s.69-.28,1.92-.75A34.38,34.38,0,0,1,9.07,224c4.41-.83,10.37-.87,16.4-1s12.22-.45,16.94-2.31a24,24,0,0,0,3-1.45l2-1.13a4.78,4.78,0,0,1,1-.47l.51-.18Z"/><path class="cls-1" d="M59.52,204.63a13.13,13.13,0,0,0-1.08,2.21c-.23.63-.5,1.41-.81,2.29a20.49,20.49,0,0,1-1.09,2.57,19.69,19.69,0,0,1-1.77,2.83,33.3,33.3,0,0,1-2.47,2.95c-2,1.94-4.23,3.8-6.59,5.68C41,226.86,36.19,230.6,33.14,234a35,35,0,0,0-3.38,4.3l-1.08,1.78,1.22-1.67a35.89,35.89,0,0,1,3.71-3.93c3.29-3.05,8.31-6.25,13.36-9.56s10.1-6.91,13.09-11a25.49,25.49,0,0,0,1.8-2.85L63,209a5.27,5.27,0,0,1,.63-.93l.34-.43Z"/><path class="cls-2" d="M605.94,305.63c12.43-10.79,21.91-25.68,35-35.29-1.23,10.5-29.86,35.6-24.17,42a31.66,31.66,0,0,0-11.91-3.88c-.19-1.78,1-2.42,1.85-3.63Z"/><path class="cls-2" d="M657.24,210.37c-7.44,19.17-13.24,36.19-26.48,52-6.76,8-12.61,15.55-18.63,23.57-4.52,5.58-11.82,19.95-18.17,11,11.33-14.28,23.8-27.62,36.11-40.5,10.23-10.91,25.74-32.42,27.39-47.29Z"/><path class="cls-2" d="M601.93,270c3.43-5.61,5.81-11.8,9.11-17.72-6.39,12.86-14.88,26.09-15.83,40.62-2.72-.83-6.36-2.68-8.36-5,5-9.1,13.94-15.75,18.93-24.86Z"/><path class="cls-2" d="M527,157.55c-3.36,5.08-5.53,13.81-8.45,19.66-3.51,7.16-6.81,14.23-10.61,21.31-2.19,3.94-6.2,18.7-10.13,20.29-2.28,1-17.69-5.22-20-7.25,8-11.06,18.18-20.8,24.14-33.31-4.94,5.9-12.52,20.55-11.62,28.4,12.31-2,19.46-25.51,26.31-34.47,4.53-5.69,8.77-11.49,12-18.25,1.7-3.92,1.88-7.82,3.49-11.45s5.23-5.81,6.83-9.44c1.21-2.92,2-4.84.5-7.1Z"/><path class="cls-2" d="M474.47,146.39c-9,15-15,32.23-18.28,49.51a37.2,37.2,0,0,0-9.66-3.94c7.39-8.85,16.51-20.16,20.4-31.32Z"/><path class="cls-2" d="M455.35,149.21c-1.26,14.68-16.32,27.63-14.15,42.38-8.95-5.46-26.06-14.13-35.84-16.11,12.35-25.14,10.55-59.77,6.11-86.56,7.36,6.68,5.92,26,7.22,35.54,1.37,12.51-1,25.88,1.28,37.93,2-9.77,5.93-18.7,7.93-28.45-1.23,10.49-6.39,18.55-2.82,29.51,4.95-10.59,11.65-23.62,12.07-35.59-1,18-11.91,35.88-3.53,53.75,10.88-7.3,18.6-20.51,22.17-33Z"/><path class="cls-2" d="M388.39,169.56c7.54-.23,9.23-22.77,9.78-34.72,2.72,9.39,2.12,29.42-.11,39.18C395.48,171.51,391.94,169.45,388.39,169.56Z"/><path class="cls-2" d="M368.29,161.68c17.24,4.36,8-36.08,3.35-49.12,8.11,7.41,8.19,21.76,8.75,32.07.07,2.23,1.48,16.24.62,17.46C378,166.35,373.1,162.89,368.29,161.68Z"/><path class="cls-2" d="M356.14,158.18c3.22.33.08-9.53.66-12.84.81-4.42.32-7.51-.19-11.9-.75-6.42-3-12.87-3.72-19.17,3.23,5.11.49,13.73,1.24,19.83,1.06,7.93-3.47,15.67-2.14,23.47C353.56,157.39,354.56,158,356.14,158.18Z"/><path class="cls-2" d="M341.24,154.31s0-1-.06-2.81a11.44,11.44,0,0,1,.25-3.1c.2-1.19.42-2.53.66-4a28.68,28.68,0,0,0,.65-5,26.24,26.24,0,0,0-.09-5.67c-.15-1.9-.31-3.89-.47-5.9-.32-2-.63-4.07-.95-6.12s-.62-4-.93-6c-.05-2-.05-3.9,0-5.85a46.89,46.89,0,0,0-.29-5.55c-.1-1.76-.2-3.42-.3-5a38.37,38.37,0,0,0-.93-7.39,8.56,8.56,0,0,0-1.14-2.56,8.28,8.28,0,0,1,1,2.59,39.74,39.74,0,0,1,.63,7.37c0,1.54.06,3.21.09,5a45.72,45.72,0,0,1,.06,5.51c-.13,1.88-.21,3.93-.23,6,.23,2,.46,4.06.69,6.1s.46,4,.69,6c.07,2,.16,4,.23,5.92,0,1,.06,1.9.1,2.82s-.16,1.74-.23,2.57a28.77,28.77,0,0,1-.82,4.77c-.32,1.54-.61,3-.87,4.24a12.91,12.91,0,0,0-.39,3.32c0,1.79-.05,2.82-.05,2.82Z"/><path class="cls-2" d="M319.57,97.78c4.93,9.25,6.65,21.46,7.92,31.88.7,8,3.22,16.46,2.72,24-6.07-3.33-16.94-7.12-23.41-3.17,1-11.39,4.25-20.44,2.44-32.35,1.84,5.33.23,31.67,8.47,30.07C324.05,146.89,322.3,102.89,319.57,97.78Z"/><path class="cls-2" d="M295.94,114.21c1.87,10.62,4.27,24.23,3.46,35a7.55,7.55,0,0,1-4.19-.28c-.46-6.08,2.18-12.59,1.9-18.7C296.93,126.39,295.94,114.21,295.94,114.21Z"/><path class="cls-2" d="M266.88,80.93c4.51,12.37,11.38,25.51,14.64,38.73,1.33,5.35,1.81,10.25,2.92,15.15.93,4.61,3.34,7.69,3.75,12-1.87.06-7.38.72-9.05.09-3.77-1.77-2-3.31-1.23-7.29,1.33-6.39-.66-13.66-1.12-20.22a113.32,113.32,0,0,0-7.69-34c-.72-1.7-1.67-3.46-2.53-5.09Z"/><path class="cls-2" d="M252.22,100.75c1.47,7.74,5.19,15.78,7.48,23.26,2.13,7.2,4.91,16.32,9,22.49-5.62,3-4.41-5-4.86-8.39-.73-4.92-3.38-9.18-4.11-14.1Z"/><path class="cls-2" d="M242.31,108.6c4.37,7.14,6.06,16.23,9.54,23.83,2.3,5,5.49,10,7.13,15.14-2.33-.47-5.77-.15-7.16-1.68-1.91-2.2-1-7.22-1.36-9.68a103.43,103.43,0,0,0-4-15.67c-3.09-9.71-7.17-19.83-10.77-29.09Z"/><path class="cls-2" d="M226.82,113.49c4.7,5.63,20,32.15,14,35.75-2,1.25-14.48.91-15.78-.11-3.27-2.6-6.71-14-8.45-18-4.3-9.83-11.29-16.89-16.17-26,13.65,12.53,20.8,26.22,29.81,39.21,6.16-1.57,3-8.82,2.61-14.27-.41-7.15-8.32-20.31-11-27.06Z"/><path class="cls-2" d="M190.13,110.5a153.13,153.13,0,0,1,16.35,28.57c1.13,2.81,1,6.85,2.87,9.64,2.11,3.24,4.64,3,8.13,4.57a90.29,90.29,0,0,0-10.62-22.74C203.13,124.59,193.49,115,190.13,110.5Z"/><path class="cls-2" d="M174.84,113.44c8.13,7.79,17,17.05,22.29,26.93,1.35,2.5,5.38,7.92,5.74,10.76.42,4.32-1.79,2.66-5.56,4.49-1.27-11.64-6.45-26.1-15.05-34.77Z"/><path class="cls-2" d="M168.51,128.12c3.61,3.57,5.74,10.39,8.61,14.72,3.11,4.78,7.87,9.43,10.24,14.23-5.75,3.07-6.63-1.77-8.17-6.43-1.45-4.16-3.88-8.34-5-12.5Z"/><path class="cls-2" d="M148.58,120.41c8.19,4.72,13,11.45,17.23,20.14,3.38,6.73,6.64,13.89,10,20.82-2.59.82-5.5,1-8,2,1.66-4.67-1.53-12.82-2.72-17.87-1.4-5.12-2.23-9.94-5.78-14.11Z"/><path class="cls-2" d="M137.43,129.38c6.33,5.14,11.14,12,16.76,17.94,4.76,5,8.88,8.15,10.48,15.06-2.57,1.56-5.46,2.52-7.42,4.9-2.64-3.52-2.34-12.2-4.93-17.06-2.12-4-5.14-10.61-7.91-13.68Z"/><path class="cls-2" d="M125.45,131.77c3.75,6.33,8.46,12,11.92,18.45,3.69,6.93,2.95,13,5.45,19.81,7.18.19-5.9-20.1-8.33-24.67Z"/><path class="cls-2" d="M119.54,140.05c4.21,3,7.36,12.52,9.64,16.34,2.87,4.91,7.49,9.77,9.46,14.91-5.44,1.38-4.91-1.18-6.37-5.82-1.24-3.5-1.76-8-4.08-10.95Z"/><path class="cls-2" d="M129.33,173.41a11.57,11.57,0,0,1-2.33-3.83c-.92-2.47-1.93-5.83-3.41-9a39.31,39.31,0,0,0-5.42-8l-2.83-3.35,2.72,3.43a41.79,41.79,0,0,1,5.16,8.08,85.21,85.21,0,0,1,3.15,9.07,13.3,13.3,0,0,1,.42,4.5Z"/><path class="cls-2" d="M83.78,130.48c9.23,5.25,35,34.15,38.85,45.21a46.2,46.2,0,0,1-5.93,1.67c-3.31-11.87-6.77-22.2-15.57-30.65Z"/><path class="cls-2" d="M104.94,173c3.86,7.24,2.39,4.06,6.19,8.85-4.92,5.9-9.26-12.05-11-16.7Z"/><path class="cls-2" d="M84.24,160.68c5.12,2.83,8,8.41,11.59,13,2.59,3.07,11.78,9.13,5.27,12.06-5-8.11-8.94-17.34-15.93-24.46Z"/><path class="cls-2" d="M77.57,171.43c3.1,3.91,11.81,13.35,15.86,16.23-3.66,4.49-8.16-6-10.05-9.59Z"/><path class="cls-2" d="M67.36,170c7.1,4.8,12,10.75,18.08,16.87-4.89-4-10.18-10.73-15.07-14.68Z"/><path class="cls-2" d="M49.38,175.7c5.48,3.64,16.12,9.21,19.35,14.81,1.62-2.89,8.08,4.25,9.55,3.72C75,189.42,62.7,183.14,57.35,180.69"/><path class="cls-2" d="M68.14,201.62c-4-.4-9.74-9-14.18-11.4a22.78,22.78,0,0,1,9.32,10.49C63.89,200.89,67.33,201.54,68.14,201.62Z"/><path class="cls-2" d="M60.28,205.2c3.1-4.37-15.44-13-20.94-13.87a32.67,32.67,0,0,1,17.77,11.21C57.59,202,59.71,206,60.28,205.2Z"/><path class="cls-2" d="M52.73,210.14c-2.22-1.64-18-5.67-21.39-5.43C39.82,204.06,47.75,206.47,52.73,210.14Z"/><path class="cls-2" d="M45,215.12c-4.73-2.55-11.09-2-16.19-2.55,2.39-.26,6.46.51,9.11.73A19.37,19.37,0,0,1,45,215.12Z"/><path class="cls-2" d="M38,219.35c-2.31,2-7,2.49-9.95,2.41C31.41,220.73,35.13,221.78,38,219.35Z"/><path class="cls-2" d="M33.14,226c-1.39.23-5.18,1.19-6.3,2.35a23.45,23.45,0,0,1,5.82-2.1Z"/><path class="cls-2" d="M57.61,212.25c.15.11.28-.53.37,0-.8,2.23-4.71,6.36-6.19,7.75,1.14-.6,2.3-2.26,3.31-3.56s1.45-3.14,2.69-4.36Z"/><path class="cls-2" d="M70.07,203.91c1.23-2.73.07,1.74-.51,2.42a45.3,45.3,0,0,0-4.19,5.29C68,209.46,68.72,206.9,70.07,203.91Z"/><path class="cls-2" d="M83.07,196.36C80.34,201,74.9,205.69,72.12,210c2-2.23,3.73-5,5.58-7.15C79.33,200.88,81.84,198.45,83.07,196.36Z"/><path class="cls-2" d="M98.14,188.34a15.15,15.15,0,0,1,3.61-.88c-.87,1.21-3.35,1.53-4.44,2.69A29.76,29.76,0,0,0,94.82,194a38.11,38.11,0,0,1-6.38,7.56c2.09-1.12,3.66-5.57,5.12-7.29s2.81-6.61,5.4-6.19Z"/><path class="cls-2" d="M113.33,183.45c-1.19,2.15-2.56,2.64-2.85,4.41-.36,2-4,8.44-5.92,9.49C106.93,195.23,111.84,186.15,113.33,183.45Z"/><path class="cls-2" d="M128.74,175.12c-.7,1.24-4.53,2.82-5.55,3.94s-1,4.23-1.5,5.65c-1,2.77-3.7,5.54-5,8.54,1.2-.94,1.64-2.78,2.58-4a41.42,41.42,0,0,1,3.23-3.54C124.61,183.32,127.13,178,128.74,175.12Z"/><path class="cls-2" d="M138.73,172.9c1.45-.31,1.88-.27,4.45-.9-3.77,5.71-9.58,13.78-14.49,18.59a99.13,99.13,0,0,0,6.95-9.34c1.43-2.28,3.23-6,3.19-8.69Z"/><path class="cls-2" d="M152.79,167.3c-.22,1.17-1.74.78-1.74.78,1.23,1.82-5.5,8.64-7,10.19C147.52,175.36,151.9,171.94,152.79,167.3Z"/><path class="cls-2" d="M165.35,164.67c-.39,1.23-1.82,1-2.68,1.66.31,3.51-5.46,9.91-7.31,12.48C158.63,175.79,164,169,165.35,164.67Z"/><path class="cls-2" d="M180,163c-3,3.39-5.69,7.32-9.31,10C173.35,169.22,177.15,166.17,180,163Z"/><path class="cls-2" d="M200.91,155.93c-8.33,3.75-13.94,14.54-21.85,17.25C183.39,167.09,194.62,158.76,200.91,155.93Z"/><path class="cls-2" d="M239.92,151.22c.33-2.26-13.34,4.23-18.17,8.57-7,6.31-23.13,11.86-30.42,15.25,14.53,2,39.25-22,48.2-23.83Z"/><path class="cls-2" d="M258.64,151.21c-2.39,1.94-11.83,8.58-14.31,10.79C249.69,159.27,254.05,154.92,258.64,151.21Z"/><path class="cls-2" d="M275.28,149.93c-1.89.25-3.8-.25-5.64-.4-1.44,2.52-6.08,4-8.43,5.75-2.78,2.12-5.46,4.43-8.15,6.75-4.42,4-8.5,8.19-13.91,10.82a178.73,178.73,0,0,0,17.57-10.12c3.68-2.35,7.56-4.54,11.13-7.07,2.14-1.65,5.08-5.62,7.77-5.79Z"/><path class="cls-2" d="M298.31,151.33c-10.19-1-15.69,8.56-24.56,12.53h0c8.45-2.62,18.36-6.76,25-12.39Z"/><path class="cls-2" d="M316,153.19c-.28,6.87-11.55,10.11-17.82,12.53,5.43-5.18,12.83-7.22,17.67-12.83Z"/><path class="cls-2" d="M334.38,155.07c-3.64,1.36-12.7,10.43-35,21.69,8.22-2.77,15.46-7.29,23.68-10,6.42-2.15,10.16-7.94,16.45-9.38Z"/><path class="cls-2" d="M344.3,157.65c-3.18,5.84-14.74,16.4-20.29,21,9.72-3.11,16.84-12.79,22.15-20.31Z"/><path class="cls-2" d="M355.66,161.08c1.35,0,3.17,1,4.3,1.31-5.06,3.64-9.95,8.32-15.24,11.9-5.06,3.27-10.62,5.29-14.77,10,2-5.43,9.17-7,13.48-10.59,4.25-3.4,10.18-8.27,12.36-13.4Z"/><path class="cls-2" d="M373.52,164.25c1.43-2.76,5.33,3.59,7.76,5.32-3.71.85-8.06.51-11.61,1.65-3.85,1.3-6,4.34-9.17,6.59-6.68,4.5-14.15,7.17-20.86,11.31,4.74-4.6,11.89-8.23,17.56-11.82C362.13,174.1,370.82,169.47,373.52,164.25Z"/><path class="cls-2" d="M385.2,167.48c-.28,3.73,6.7,4.77,10.48,6.15-8.83,5.47-24.05,12.44-34.3,14.51C383.52,177.47,384.32,179.31,385.2,167.48Z"/><path class="cls-2" d="M399.47,175.87c.81-1.46,1.8,3.74,6.18,1.63-3.62,4.58-20.75,14.19-26.22,16.73C392.63,183.25,396.19,181.79,399.47,175.87Z"/><path class="cls-2" d="M416.22,180.22c-1.24,7,12.56,5.79,18.77,8.92-9.69,1-17.88,7.64-26.93,10.56,3.49-4.12,10.78-5.36,13.78-10.37-9.43-6.32-34.93,13.32-45.95,14.66C386.05,198.19,413.88,193.57,416.22,180.22Z"/><path class="cls-2" d="M456.8,197.65c-4.53-8.51-18.91,2.89-27.65,5.65,7.3-.48,16.09-1.75,22.75,1.5-3.45,4.87-15.5,7.13-21.9,8.65,5.83-.45,21.36-3.24,26.8-.84-9,8.61-31.71,12.93-42.44,19.78,21.62-7.74,48.33-18.29,67.14-16.11C472.75,207.7,462.93,209.15,456.8,197.65Z"/><path class="cls-2" d="M501.16,228.54c-2.87-2-9.83-3.44-9.83-3.44s-22.47,6.23-31.17,7.49c7-1.08,15.92-2.81,23.14-1.35-2.09,6-10.54,8.64-15.38,12.36,6.7-.92,24.87-9.47,31-4.4s-9.34,14.45-15.1,17.14c12.74-4.53,22.8-8.37,34.75-14.36A149.62,149.62,0,0,0,501.16,228.54Z"/><path class="cls-2" d="M528.39,248.92c1.58-1.76,4.69,2.42,5.93,4-8.8,6.21-25.67,12.92-35.65,14.09C510.2,261.84,520.55,257.64,528.39,248.92Z"/><path class="cls-2" d="M568.92,280.44c2.58-2.06,4.26,3,6.12,5.83-16.84,7.45-36.83,9-54.44,15.76C535.74,292.06,554.56,291.88,568.92,280.44Z"/><path class="cls-2" d="M582.87,291.83c3.22,2.47,4.17,5,6.65,8.2-6,2.85-16.84,1.78-24.12,3.76-7.57,2.15-14,5.6-21.15,8.63-12,5.25-24.17,12.89-36.66,15.76C530.18,311.6,558.86,305,582.87,291.83Z"/><path class="cls-2" d="M598.23,302.87c2.46,2.47,3.89,5.88,6,8.51-9.27,6.08-24.77,7.52-35.28,11.25-10.81,3.86-21.74,8.93-32.75,11C553.08,325.43,590.17,320.43,598.23,302.87Z"/><path class="cls-2" d="M679.63,279.11c-16.27,15.25-39.93,27.35-55.8,43.76-3.23-3.21-6.88-5.8-10.24-8.55,4.64-5.5,11.82-11.22,18-15.26-3.8,3.53-6.53,7.63-7.3,12.59C625.62,311.32,663.17,289.4,679.63,279.11Z"/><path class="cls-2" d="M615.44,324.14c-9.61,9.33-25.58,5.3-38.59,10.73,5-3.43,11.82-5.55,17.26-8.83s9.32-9.51,14.94-11.74C609.05,314.3,613.26,320.77,615.44,324.14Z"/><path class="cls-2" d="M620.06,206.14c-7.25,8.41-6.07,22.58-12.64,31-8.68,11.07-13,19.1-19.82,29.13-1.72,2.44-2.08,13.59-5.34,14.58-5.93,2.38-8.73-2.18-7.94-6.38,1-6.6,16.57-23.6,20.91-28.94,5.21-6.56,10.91-11.5,15.06-18.64,3.56-6.81,4.21-16.24,10.05-21.63Z"/><path class="cls-2" d="M577.14,243.07c-6.74,5.11-17.62,12.42-18.12,21.39-7.54-2-14.91-3.79-20.72-9,17.33-6.58,41.42-33.82,44.21-52.74-2.36,6.95-25.71,50.32-5.24,39.9Z"/><path class="cls-2" d="M605.42,198c-6.37,6.35-25.87,35.23-29,43.09,6.63-5,26.59-35.87,29.68-43.72Z"/><path class="cls-2" d="M533.82,244.69c.23-6.67,6.91-10.24,10.26-15.32,4-6.18,6.31-10.42,11.35-15.63-5,12.28-15.78,21.53-16.22,35.39A32.64,32.64,0,0,0,533.82,244.69Z"/><path class="cls-2" d="M504.9,231.4c8.13,6.6,13-8.22,16.26-18.26,2.66-8.74,10.6-13.73,13-23.36.36,6.37-6.32,9.92-8.06,15.66-1.65,4.92-.84,13.58,1.27,18,8-8.28,11.32-16.64,17.76-25.87,5.76-8.13,12.35-15.18,14.79-24.81.46,6.07-4.4,10.68-7.77,15.26a50.37,50.37,0,0,0-9.4,17.88c-2.3,7-5.47,11.49-9.19,17.78-3.63,6.47-3,12.43-4.39,19.24-4.25-2.28-7.11-5.29-11.64-7.17C513.33,234,508.45,234.3,504.9,231.4Z"/><path class="cls-2" d="M502.68,138.8c-9.23,12.53-13.58,25.67-19.8,39.58-3.11,6.45-6.45,12.52-9.05,19-3.56,9-5.13,6.52-12.5,2.62C471.84,186.53,492.58,152.52,502.68,138.8Z"/><path class="cls-2" d="M545.75,260.3c6.21-2.18,8.34,8.05,13.94,11.51-11.08,3.93-22.11,3.79-33.82,8.55-8.11,3.53-18.29,12.91-26.81,13.48,3.3-3.47,7.62-6,11.49-8.67-8.5,3-17.57,3.92-26.06,6.88,10.7-4.47,24.38-6.95,34.41-13C527.56,274,537.26,263.27,545.75,260.3Z"/><path class="cls-2" d="M24.37,250.65a15.56,15.56,0,0,1-.06-6.68,29.59,29.59,0,0,1,3.21-9,51.13,51.13,0,0,1,6.17-9.11,76.33,76.33,0,0,1,7.8-7.78,85.37,85.37,0,0,1,7.17-5.54l.3-.23a218.47,218.47,0,0,1,26.66-16.82,357.2,357.2,0,0,1,44.68-19.65,583.76,583.76,0,0,1,60.52-18.06c11.27-2.8,22.94-5.29,35.28-7.68a315.54,315.54,0,0,1,38.53-4.35A337.89,337.89,0,0,1,338,152.07a421.29,421.29,0,0,1,85.22,27.06,565.51,565.51,0,0,1,81.31,43.73c52.09,33.5,99.29,74.08,139.88,115.45A818.25,818.25,0,0,1,700,400.86a503.18,503.18,0,0,1,42.33,62.33c11.76,20.09,21.58,38.95,30.21,55.62s16.16,31.07,22.36,43,11.32,20.87,14.91,27.14l5.52,9.57-14,7.89L796,596.72c-3.46-6.3-8.56-15.87-14.67-27.88S768,542.12,759.65,525.32,742,489.7,730.78,469.78s-24.17-41-40.25-61.48a804.43,804.43,0,0,0-54-62.42c-39.55-41.44-85.68-82.2-136.66-116-50.83-33.76-107-60.16-163.13-72a332.44,332.44,0,0,0-81.92-7.34,311.43,311.43,0,0,0-38,3.78c-6.08,1.09-12,2.15-17.88,3.52s-11.6,2.56-17.16,4a529.13,529.13,0,0,0-60,18.09,352.76,352.76,0,0,0-43.94,19.76A242.14,242.14,0,0,0,51.5,215.8l-.43.3c-1.64,1.19-3.37,2.44-5.13,3.76l-1,.76-.75.58c-3.31,2.66-6.55,5.8-7.91,7.06-5.12,5-9.71,10.66-11.08,15.9a15.17,15.17,0,0,0-.59,6.43,5.06,5.06,0,0,0,1,2.29A5.09,5.09,0,0,1,24.37,250.65Z"/></g></g></svg>