<svg xmlns="http://www.w3.org/2000/svg" viewBox="0 0 1354.91 476.02"><defs><style>.cls-1{fill:#63852d;}.cls-2{fill:#8cae39;}.cls-3{fill:#3f5824;}</style></defs><g id="Layer_2" data-name="Layer 2"><g id="Layer_10" data-name="Layer 10"><path class="cls-1" d="M345.13,5c-10,13.73,13.95,28,6.95,41.13-8,16.45-23-5.48-37-5.48,2,9.87-8,15.35-13,21.93-3-6.58-7-13.15-10-19.73,1,14.25-16.17,34.26-27.17,37.55-2-9.87-2.83-31-10.83-36.45,1,11-2.21,25.42-7.21,33.09,0-9.86-10.79-29.8-19.79-29.8-10-1.1-13,13.15-4,18.63-10,0-22-7.67-22-19.73,3,6.58,0,16.44-7,16.4s-14-4.34-19-10.92c7,14.25-2,30.7-14,36.18-6-16.44-23-20.83-38-20.83,14,9.87,10,30.7,1,42.75-1-14.25-15-17.53-24-23,1,12.05-3,25.21,5,35.07-11,2.2-23-6.57-24-18.63-6,19.73-2,40.56,9,57-14,1.1-25-9.86-35-19.73,4,12.06,11,24.12,20,32.88-6,3.29-10-3.28-15-4.38-1,7.67,5,12.06,9,17.54-6,3.29-11-1.1-15-5.48,3,14.25,6,28.5,15,39.46-5-2.19-11-7.67-13-5.48-14,9.87-21,26.31-30.3,41.17a130.79,130.79,0,0,0-10.61,22.69,91.54,91.54,0,0,0-5,25,89.12,89.12,0,0,0-.73,12.8c.43,29.72,1.7,60,18.13,87.52,3.91,4.28,2.4,10.06.76,15s6.44,9.54,3.83,14.67c2.61-5.13-13-23.08-15.58-26.51-2.62,5.13-4-6.26-8-1.27-3.51,4.91,6-4.91,2.51-.49-5.51,6.1,4.43,10.82-7.32,9.95l.07-76.2c0-11.26,0-23.39,0-36.16q-.5-16.53-1-33T2,237.1C.08,171.15.08,105.38,3.67,39.47q.22-14.19.42-28.37,13.31-.19,26.61-.5C87.09,7.81,143.09,6.71,199,6.51q14.37,0,28.69-.12C267.09,4.51,306.09,6.7,345.13,5"/><path class="cls-1" d="M50.61,17.12c42.9-3.56,85.46-5.6,128.14-6.18q12.8-.18,25.62-.17c74.72-1,150.72-4.16,225.26-6.06L450.86,4l20.92-.75c6.4-.24,12.74-.48,19.08-.76C556.21-2.42,543.38,2.17,609,7.55c-65.62-5.38-62.32-2.93-126.6-1.7q-9.25,0-18.62,0-12.28,0-24.85,0t-25.32-.1c-61.52-1.22-122.52-.18-184.82-2l-25.33-.54c-58.37-1.84-117.37-.8-175-.8H4.09c1,10.12,1.68,20.26,2.15,30.41,3.85,70.3-7.15,140.9,8.85,210.46a95,95,0,0,1,2.48,20.79,59.8,59.8,0,0,1-3.65,21c-3.58,10.28-5.75,23.28-7.08,37.22-2.67,27.88-2,59.53-3.06,79.79"/><path class="cls-1" d="M6.55,384.17c28.58,5.38,8.68,29.72,9.33,10.89.21-6.29.74-12.26,2.72-16.85,10.93,3.73-11.37-.41,1.56,1.38,5.79,1.34,11.44,5.77,17.48,6.11s12.9,1.16,19,.26c-5-3-21.7-20.32-20.34-28.54-7-.18-7.65-7.35,19.57-2-1.81-2.4-3.55-4.89-5.16-7.45a85.12,85.12,0,0,1-4.45-7.95c-4.12-12.1-7-14.33-4.49-25.81,5.3,9,17.3,11.11,27.3,9-8-9.34-14-20.76-13-33.22,6,5.19,12,7.26,19,6.23A102.41,102.41,0,0,1,56.71,273c-4.62-9-8.62-18.29-8.62-28.67,6,9.34,15,12.45,24,15.57-9-12.46-17-28-13-43.61,4,5.2,7,11.42,14,13.5-4-10.38-6-23.88-15-27-18-5.19-39-1-55.76,9.18"/><path class="cls-1" d="M573.56,3.27c-24.61,0-44.7,8.66-71.42,14.68C486,21.44,474,24,474,24s12.85,8.13,15.32,13.75c0,0-8.63-2.14-19.54-4.5s-24.11-5-33.24-5.9c-3.48.06-5.48.06-8.48.06,5,2.07,14,4.15,14,11.42-9-3.12-18-6.23-28-7.27,5,3.12,9,7.27,11,13.5-19-8.31-38-15.58-58-16.61,17,4.15,33,15.57,40,33.22-22-10.38-53-15.57-59-43.61,0-4.15,5-10.38,3-15.57h-3c21,1,41,1,61.9.89,9.13,0,18.94.06,29.18.06H471q9.78,0,19.82,0C540,2.18,516,5.75,564.88,7.06"/><path class="cls-1" d="M453.51,3.44s-8.74-.38-17.28,7.42c-5.14,6.14-12.14,10.29-17.14,15.48,8,0,17-2.08,24.84-2.4,8.4-1.22,15.2-2.4,15.2-2.4,5.24.93,11,1.75,17.06,2.72s12.5,2.09,19.13,3.59c14.4,3.81,28.08,7.39,39,14.57,5.47-7.18,2.74-12.56,0-19.73,27.35-1.79,49.22,7.17,71.1,17.93-2.74-3.58-2.74-9-8.21-12.55,10.94,1.79,24.61,1.79,35.55,3.59C627.3,28.07,627.3,20.9,619.1,19.1c21.87,3.59,46.48,0,65.62,10.76-5.46-16.14-27.34-25.1-52-26.9"/><path class="cls-2" d="M24.11,11.44C83.4,7.4,142.4,4.73,201.86,6.26c9.69.09,19.36.17,29,.17,60.51-.37,122.51-3,183.43-3.21,11.67-.2,22.82-.43,33.29-.64L535.52.71h-92c-11,0-22.62,0-34.83-.07C346.4-.63,257.77.57,223,.57c-9.48-.24-18.77.07-28.27.41C134.53,1,1.58.48.09.48.3.92,0,257,0,298.42c0,13.41.59,26.12.5,39.18s.26,26.12.31,39.19c0,9.36-.84,19.78-.83,29.07v23.21c2.79,6.58,0,30,26.7,46.95-5.36-7.18-3.4-22.67-6.89-32.57,0,0,16,19.81,20.25,13.7,0,0-10.17-23.5-15.93-28.78,0,0,12.38,10.39,19.17,7.82,0,0-17.26-20.53-15.38-30.44,0,0,9.3,15,12.31,11.72,0,0-8.54-41.46-8.54-51.38l-12.63-63c-3.16-15.74-6.32,83.58-8.71,71.73A71.58,71.58,0,0,1,9,348.63,150.9,150.9,0,0,1,14.77,323c5.63-16,10.63-33.39,12.63-52.12,4,2.68,6,10.7,11,10.7,6-1.33,9-10.7,6-17.39-7-12-17-25.41-13-41.46,3,4,6,10.7,12,6.68a41.75,41.75,0,0,1-8-20.06c5-1.34,8,6.69,13,4-7-12-15-24.08-16-40.13,7,12,18,24.08,30,18.73-7-20.07-13-42.81-8-64.21,1,9.37,8,17.39,15,18.73,2,0,5-1.34,5-2.68,0-13.37-8-25.41-6-38.79,8,5.35,18,10.7,19,22.74,4-14.71,9-37.45-1-49.49,12-5.35,22,10.7,34,8,11-2.67,9-22.74,9-34.78,5,4,9,10.71,16,9.37,6-1.34,6-12,3-17.39,2,12,9,21.4,18,22.74-3-6.69-6-20.07,2-22.74,11-2.68,21,12,20,25.41,8-5.38,16-16.09,11-28.09,9,6.64,20,14.4,21.95,30.22,7-6.79,18-17.62,11-30.61,4,7.81,7.95,14.28,10.91,23.34,2-7.89,9-15.94,5.05-25,7,1.15,10.51,9.42,12.48,18.48,4-4,19.41-7.51,15.45-15.21-5.95-12.89-9.92-27.48-6.49-41.48"/><path class="cls-2" d="M.23,221.26c11.45-7.22,16.86-17.74,27.65-26,4.51,19.89,13.06,36.92,18.57,56.78-7-.82-9.22-4-12.36-9-1.29,7.56.64,14.52,2.82,21.46s4.74,19.56,4.43,27.07c-5.1-3.87-9.36-14.44-11.51-20.38.3,12,5.58,22.86,10.89,33.68a120.81,120.81,0,0,0,10.1,15.37c-4.18,2.09-9.85-3.06-9.85-3.06,2.57,3.58,4.42,22.62,4.42,22.62q-.72-.15-1.35-.33c-7.27-2.05-7.48-7-7.48-7-.78,8.66,8,39.12,8,39.12C26.2,366.94,22,347.24,24.11,343c3.32,25.31,12.87,42.55,26.23,61.36-14.47,5.16-28.19-10.59-28.19-10.59-10.57,20.62,4.47-8.28,4.47-8.28C-1.7,372.94.2,412.54.09,405.81c0,0,.72-43.28,0-87.66-.11-6.34.09-11.78,0-18,0-25.71,1.29-50.63,0-76.65"/><path class="cls-2" d="M809.24.67s36-4.82,51.33,33.29c0,0-39.5-20.63-65.7-7.61,0,0,19.64,18.73,12.89,37.54-23.52-18.37-45.12-31.67-77-37.12,5.42-2.65,30.2,3.77,35.83,28.13,0,0-38.3-12.84-49.25-12.18,0,0,6.22.47,8.69,10.12.14.57.28,1.17.39,1.8,0,0-24-3.24-28.47-6.78,0,0-9.54,7.4-9.28,23.91,0,0-20.94-30.9-47.51-40,0,0,19.62,10.45,16.88,18,0,0-40.17-14.13-50.38-12.2,0,0,18.35,9.56,14.91,12.87,0,0-35.3-11.1-45.48-11.27l-129-30.34s-5.35,1.92-13.39,4.78c-23.64,7.78-47.64,17.6-71.64,23.74,3,7.36,10,11,11,19.63-15-7.36-31-13.49-48-14.72,3,4.91,12,4.91,10,14.72-7-4.9-14-8.59-22-8.59,3,4.91,8,9.82,9,17.19-16.7-8.95-31.54-20.94-43.28-41,14,7.36,16.4,18.4,19.4,38-27-11-47.12-16.68-35.12-55.95,0-2.46-18.27-4.91-20.27-6.14,52,0,122.27,0,173.86.14L437,.65l65.88,0"/><path class="cls-2" d="M355.13,0c-9,12.74-18,26.24-27,39.74,32-7.36,64,3.69,93,22.09,3,2.46,0-13.5-1-22.09,15,1.23,28,8.59,41.38,16.57a157.13,157.13,0,0,1,19.67,15.26c2.53-6.36-4.13-14.93-4.13-14.93,4.59,3.9,28.69,6.63,28.69,6.63-.14-.73-.29-1.41-.46-2.06-2.79-11-9-11.3-9-11.3,10.91-1.21,49.63,12,49.63,12C539.39,34.07,514.4,27.72,509.08,31c32.06,4.95,54.1,19.36,78.22,39.54,6.12-22-14.15-42.7-14.15-42.7,25.73-16.08,65.91,6,65.91,6C626,4.94,594.92.47,588.2.47"/><path class="cls-3" d="M15.33,11.93,218.79.46H.11c0,45.08-.25,183.22,0,305.37,0,0-1.24,14.74,14.6,21.26,0,0-8.36-16.37-2.72-27.08,0,0,7.7,8.18,15.63,5.51-7.53-9.78-12.95-18.75-15-31.9-1.15,2.22,1.36,12.45,11.52,14.9,0,0-5.11-15.83-4.76-20.33,0,0,.16,2.56,4.18,3.63.24.06.49.12.76.17,0,0-1.19-9.89-2.65-11.76,0,0,3.17,2.68,5.46,1.59,0,0-11.28-12.94-11.8-25,0,0,4.23,8.13,7.4,7,0,0-5.63-16.61-4.75-20.8,0,0,3.87,7.61,5.28,6.21,0,0-4.4-14.59-4.4-18.78L7.06,157.21l13.47-35.08s4.53,4.27,7.7,5.12c0,0-6.69-16.37-5.63-20.17,0,0,3.38,5.74,6.67,4.57,0,0-4.05-4.94-3.92-9.13,0,0,5.26,3.7,7.2,3.55,0,0-9.33-12.42-8.81-18.78.6,3.09,12,13.8,17.26,12.57-2.64-4.19-8-26.07-5.63-30.11,0,0,4.4,13.35,13,11.33a71,71,0,0,1-6.34-20s10.38,4.71,12.12,12.7a11,11,0,0,1,.21,1.42s4-18.63-4.76-27.63c0,0,12.15-1.86,16.73,9.16,0,0,8.1-8.23,1.76-21.73a12.56,12.56,0,0,1,7,5.43s5.55-4.19,1.32-10.94c0,0,.53,7.92,9.77,11.87,0,0-4.75-10-1.32-13.73,0,0,11.62,7.37,10.74,13.42,0,0,6.87-7.14,3.35-14.43,0,0,10.39,5.9,10,12.73,0,0,9.16-4.35,4.58-13.82,0,0,5.37,8.27,5,10.13s4.36-7.45,2.11-11.06c0,0,6.48,1.4,7.93,6.52,0,0,7.26-2,5.15-5.94s-4.49-14.78-4.49-14.78l.92-7.89"/><path class="cls-3" d="M.43,214.79s-3.72,16.47,13.25,23.68c0,0-8.82-18.5-3.14-31.33,4.23,3.71,10,8.46,15.5,4.76a99.94,99.94,0,0,1-10.12-17.13A72.75,72.75,0,0,1,10.18,176,18,18,0,0,0,21.6,192.26c-1.16-8.23-5-16-5.12-24.22.05,3.07,2.8,3.74,4.61,3.5-.07-5.11-.11-9.17-2.85-12.83,1.82,1.77,3.64,2.53,5.44.26-6.36-6.16-9-15.72-10.71-25.31,2.71,1.61,2.62,7.5,7.19,5.91a54.69,54.69,0,0,1-4.05-21.73c1.78,1.71.75,5.67,4.39,6.18-.47-13.29-1.95-22.59-16.7-16.5"/><path class="cls-3" d="M105.2.48.3.45s3.23,5,.08,15.27S20.27,40.87,20.27,40.87c1.37-5.83-9.79-18.7-13-19.41C14,21,27,31.6,27,31.6c.19-2.15-3.65-8.07-3.65-8.07,4.43-.07,9.6,4.52,9.6,4.52,1.28-3.62-4.74-7.49-4.74-7.49,4-1.1,21.25,6.64,21.25,6.64-.86-3.53-5.31-8.65-5.31-8.65L81.36,4.24l56.11,14.12c4.43.08,19.78,5.25,19.78,5.25,1.5-1.54-6.48-6-6.48-6,4.44-.9,21.91,5.68,21.91,5.68,1.2-3.51-7.34-8.37-7.34-8.37,12.79.82,26.31,13.6,26.31,13.6,1.18-2.53-1.6-6.1-1.6-6.1,1.94,1.65,12.39,3.16,12.39,3.16-.06-.3-.11-.57-.18-.84-1.07-4.49-3.78-4.71-3.78-4.71,4.77-.31,21.43,5.67,21.43,5.67-2.45-11.34-13.23-14.32-15.59-13.09,13.88,2.54,23.27,8.72,33.5,17.27,2.94-8.75-5.6-17.47-5.6-17.47,11.4-6,28.58,3.55,28.58,3.55C255.07.78,240.55.38,238.45.38h-1.36"/><path class="cls-3" d="M36.93.48,25.1,20.12C29.53,20,38.94,17,38.94,17,46.2,19.36,56.23,20.63,65.4,31.1c2.89-4.11-.4-12-.4-12,12.81.37,26.73,14.48,26.73,14.48,1.1-3-1.8-7-1.8-7,2,1.81,12.48,3.08,12.48,3.08-.06-.33-.12-.65-.2-1-1.21-5.13-3.92-5.26-3.92-5.26,4.75-.57,21.59,5.57,21.59,5.57-2.81-12.94-13.68-15.9-16-14.37,14,2.3,23.54,9,34,18.39,2.65-10.21-6.16-19.86-6.16-19.86C143,5.72,160.43,16,160.43,16,154.75,2.55,141.23.48,138.31.48"/><path class="cls-2" d="M1108.93.65,711.73.9c-17.11,33.68,2.43,31.21,66.87,65.91-26.49-21.57,6.2-26.08-24.48-34.63C772.77,44.69,805,56.71,811.9,64.85,812.62,59.1,801.49,35,801.49,35c16.47-.19,35.69,12.08,35.69,12.08,4.76-9.71-17.62-20-17.62-20,15-3,79,17.73,79,17.73-27.95-34.28,53.55-38,122.25-40.9L1226,28.07c16.46.19,73,15.14,73,15.14-3.56-14.35-9.52-14.88-9.52-14.88,50.68-10,65.46,20.41,65.46,20.41,0-27.09-12.21-42.88-21.91-48.27Z"/><path class="cls-2" d="M842.84.47,796.06,27.8c16.46-.27,80.77,2.62,80.77,2.62,23.31-3.24,46.82,3.81,51.68,31.62,24.31-10.49,25.68-31.29,25.68-31.29,47.62,1.23,89.75,37.36,89.75,37.36,4-8.7-6.76-20.49-6.76-20.49,7.45,5.36,46.44,9.22,46.44,9.22q-.34-1.48-.75-2.82c-4.57-15.1-14.65-15.53-14.65-15.53,17.65-1.62,80.33,16.64,80.33,16.64-10.57-38.16-36.4-33.07-45-28.61,51.88,6.93,73,12.88,112.1,40.66,9.79-30.06-20.17-48-20.17-48,41.55-21.93,103.73-2,103.73-2-19.59-21.79-63.83-9.5-74.7-9.53"/></g></g></svg>