<svg xmlns="http://www.w3.org/2000/svg" viewBox="0 0 291.62 462.88"><defs><style>.cls-1{fill:#f4d35e;}.cls-2{fill:none;stroke:#f4d35e;stroke-miterlimit:10;stroke-width:16.04px;}</style></defs><g id="Layer_2" data-name="Layer 2"><g id="Layer_2-2" data-name="Layer 2"><path class="cls-1" d="M198.65,344.09l-49.23.12-49.27.07-4,8.39,1.79,6.16c1.56,5.25,1.82,6.67,1.82,9.88v3.77l1.38-.12c.71-.07,11.9-1,24.84-2s25.44-2,27.86-2.24,12.91-1,23.27-1.86,19.81-1.61,20.85-1.72l1.87-.19,1.83-6.15,1.86-6.12Z"/><path class="cls-1" d="M192.68,368.19c-3.35.33-8.72.74-59.26,4.81-15.44,1.23-29.13,2.35-30.43,2.46l-2.43.22L98.47,379l-2.12,3.29,1.9,3a27.35,27.35,0,0,0,2.28,3.17c.15.07,9.73-.6,21.25-1.5,24.62-2,43.23-3.46,62.62-5,7.73-.63,14.14-1.27,14.29-1.42s1.16-1.64,2.24-3.32l1.94-3.06-2.06-3.09C198.58,367.52,198.76,367.59,192.68,368.19Z"/><path class="cls-1" d="M188.92,384.82,155,387.54l-37.23,3c-7.53.59-14.73,1.19-15.88,1.34l-2.2.19v2.23c0,2.62-.82,2.47,9,1.65,7.5-.64,23.84-1.94,58-4.67,25.44-2,32.56-2.61,32.75-2.79a10.64,10.64,0,0,0,0-2.28l-.11-2.2Z"/><path class="cls-1" d="M187.28,392.8c-7.61.64-23.13,1.9-66.13,5.34-18,1.45-20.4,1.75-20.92,2.35-.3.37-1.31,1.86-2.2,3.31l-1.61,2.65,1.91,3.06a28.1,28.1,0,0,0,2.2,3.17c.11.08,6.15-.33,13.35-.89,14-1.16,28.9-2.35,62.36-5,11.56-.93,21.29-1.68,21.67-1.68s1.53-1.3,2.83-3.35l2.16-3.36-2-3.17-2-3.13-1.87,0C196,392.09,191.64,392.43,187.28,392.8Z"/><path class="cls-1" d="M194.74,408.47c-3.25.33-56.54,4.62-80.45,6.49-16.23,1.3-14.55.89-14.55,3.54,0,1.68.15,2.24.6,2.24s6.75-.49,14.25-1.12l37.11-3c12.9-1,28.6-2.31,34.83-2.79s11.67-.93,12.16-.93c.75,0,.82-.27.82-2.43s-.07-2.42-.71-2.39C198.39,408.13,196.56,408.32,194.74,408.47Z"/><path class="cls-1" d="M186,417.05c-10.93.93-61.28,5-74,6-5.48.41-10.36.9-10.85,1.08a11.72,11.72,0,0,0-2.83,3.4l-1.91,3.06,2,3.2,2,3.21,1.6-.11,71-5.67c7.57-.63,16.37-1.31,19.58-1.57l5.89-.41,2.13-3.32,2.16-3.28-2-3.17-2-3.17-2.28,0C195.37,416.34,190.6,416.67,186,417.05Z"/><path class="cls-1" d="M182.28,433.64c-29.58,2.46-79.85,6.49-81.19,6.49H99.74v2.5l0,2.54,8.28,4.58c4.55,2.5,8.43,4.55,8.69,4.55a.51.51,0,0,0,.45-.56c0-.48,3.88-.56,32.44-.56,29.47,0,32.45,0,32.75.6.22.34.6.56.78.49s4-2.17,8.36-4.63l8-4.47V432.3l-1.12,0C197.76,432.37,190.52,432.93,182.28,433.64Z"/><path class="cls-1" d="M126.33,457.51c1,.52,3.4,1.72,5.3,2.65s3.47,1.9,3.47,2.2,2.24.52,14.54.52c11.34,0,14.55-.11,14.55-.48s2.31-1.61,5.18-3,5.19-2.64,5.19-2.72-11.26-.15-25-.15H124.47Z"/><path class="cls-1" d="M183.73,308.44s-3.73-.3-8.13-.78c-5.18-.53-8.13-.79-8.28-.71a.51.51,0,0,0-.18.37,15.4,15.4,0,0,0,1.9,2.61c8.24,10.22,19.8,19.81,27.86,23.09,2.16.86,2.27.93,3.84.22,9.25-3.95,24.24-16.22,30.62-25,1.45-2,1.31-2.09-2.13-1.68-1.41.15-5.4.64-8.95,1s-6.64.78-6.93.78C213.27,308.44,183.77,308.4,183.73,308.44Z"/><path class="cls-1" d="M48.5,157.28s3.73.3,8.13.78c5.18.52,8.13.79,8.28.71a.51.51,0,0,0,.18-.37,15.4,15.4,0,0,0-1.9-2.61C55,145.57,43.39,136,35.33,132.7c-2.16-.86-2.27-.93-3.84-.22-9.25,4-24.24,16.22-30.62,25-1.45,2-1.3,2.08,2.13,1.67,1.41-.15,5.41-.63,9-1s6.64-.79,6.94-.79C19,157.28,48.46,157.32,48.5,157.28Z"/><path class="cls-1" d="M245.12,95.67c0,.07-3.69.67-8.05,1.3-5.15.78-8.06,1.31-8.21,1.38a.55.55,0,0,0-.07.41,15.22,15.22,0,0,0,2.5,2C241.8,108.64,255.42,115,264,116.18c2.31.3,2.43.33,3.77-.71,7.94-6.15,19.43-21.78,23.35-31.85.89-2.28.74-2.35-2.5-1.12-1.31.49-5.11,2-8.43,3.25s-6.23,2.42-6.53,2.49C273.73,88.28,245.16,95.63,245.12,95.67Z"/><path class="cls-2" d="M199.62,312.28c0-39.76,14.62-60.08,24.5-71.57,9.37-10.85,16.56-12.64,25.66-24.62,14.85-19.5,19.32-62.8,19.32-81"/><path class="cls-2" d="M32.57,153.44c0,39.75,14.62,60.08,24.51,71.57,9.36,10.85,16.56,12.64,25.66,24.61,14.84,19.51,19.32,62.81,19.32,81"/><path class="cls-2" d="M32.57,99.62c34.28-124.16,193.31-120.09,230.86,0"/></g></g></svg>