<svg xmlns="http://www.w3.org/2000/svg" viewBox="0 0 781.9 1241.1"><defs><style>.cls-1{fill:#031926;}.cls-2{fill:none;stroke:#031926;stroke-miterlimit:10;stroke-width:43px;}</style></defs><g id="Layer_2" data-name="Layer 2"><g id="Layer_1-2" data-name="Layer 1"><path class="cls-1" d="M532.64,922.6l-132,.3-132.1.2-10.8,22.5,4.8,16.5c4.2,14.1,4.9,17.9,4.9,26.5v10.1l3.7-.3c1.9-.2,31.9-2.6,66.6-5.3s68.2-5.4,74.7-6,34.6-2.8,62.4-5,53.1-4.3,55.9-4.6l5-.5,4.9-16.5,5-16.4Z"/><path class="cls-1" d="M516.64,987.2c-9,.9-23.4,2-158.9,12.9-41.4,3.3-78.1,6.3-81.6,6.6l-6.5.6-5.6,8.9-5.7,8.8,5.1,8.1c2.9,4.4,5.6,8.2,6.1,8.5s26.1-1.6,57-4c66-5.3,115.9-9.3,167.9-13.5,20.7-1.7,37.9-3.4,38.3-3.8s3.1-4.4,6-8.9l5.2-8.2-5.5-8.3C532.44,985.4,532.94,985.6,516.64,987.2Z"/><path class="cls-1" d="M506.54,1031.8c-15.3,1.2-56.2,4.5-90.9,7.3s-79.5,6.4-99.8,8-39.5,3.2-42.6,3.6l-5.9.5v6c0,7-2.2,6.6,24.1,4.4,20.1-1.7,63.9-5.2,155.4-12.5,68.2-5.4,87.3-7,87.8-7.5.2-.1.2-2.9,0-6.1l-.3-5.9Z"/><path class="cls-1" d="M502.14,1053.2c-20.4,1.7-62,5.1-177.3,14.3-48.2,3.9-54.7,4.7-56.1,6.3-.8,1-3.5,5-5.9,8.9l-4.3,7.1,5.1,8.2c2.9,4.5,5.5,8.3,5.9,8.5s16.5-.9,35.8-2.4c37.6-3.1,77.5-6.3,167.2-13.5,31-2.5,57.1-4.5,58.1-4.5s4.1-3.5,7.6-9l5.8-9-5.4-8.5-5.4-8.4-5,.1C525.54,1051.3,513.84,1052.2,502.14,1053.2Z"/><path class="cls-1" d="M522.14,1095.2c-8.7.9-151.6,12.4-215.7,17.4-43.5,3.5-39,2.4-39,9.5,0,4.5.4,6,1.6,6,.9,0,18.1-1.3,38.2-3s64.9-5.2,99.5-8,76.7-6.2,93.4-7.5,31.3-2.5,32.6-2.5c2,0,2.2-.7,2.2-6.5,0-5.6-.2-6.5-1.9-6.4C531.94,1094.3,527,1094.8,522.14,1095.2Z"/><path class="cls-1" d="M498.74,1118.2c-29.3,2.5-164.3,13.4-198.4,16-14.7,1.1-27.8,2.4-29.1,2.9s-4.7,4.5-7.6,9.1l-5.1,8.2,5.4,8.6,5.5,8.6,4.3-.3c5.2-.4,139-11.1,190.5-15.2,20.3-1.7,43.9-3.5,52.5-4.2l15.8-1.1,5.7-8.9,5.8-8.8-5.4-8.5-5.4-8.5-6.1.1C523.84,1116.3,511,1117.2,498.74,1118.2Z"/><path class="cls-1" d="M488.74,1162.7c-79.3,6.6-214.1,17.4-217.7,17.4h-3.6v6.7l.1,6.8,22.2,12.3c12.2,6.7,22.6,12.2,23.3,12.2a1.37,1.37,0,0,0,1.2-1.5c0-1.3,10.4-1.5,87-1.5,79,0,87,.1,87.8,1.6.6.9,1.6,1.5,2.1,1.3s10.7-5.8,22.4-12.4l21.4-12v-34.5l-3,.1C530.24,1159.3,510.84,1160.8,488.74,1162.7Z"/><path class="cls-1" d="M338.74,1226.7c2.8,1.4,9.1,4.6,14.2,7.1s9.3,5.1,9.3,5.9c0,1.2,6,1.4,39,1.4,30.4,0,39-.3,39-1.3,0-.6,6.2-4.3,13.9-8s13.9-7.1,13.9-7.3-30.2-.4-67.1-.4h-67.2Z"/></g><g id="Layer_2-2" data-name="Layer 2"><path class="cls-1" d="M492.64,827c-.1.1-10-.8-21.8-2.1-13.9-1.4-21.8-2.1-22.2-1.9a1.39,1.39,0,0,0-.5,1c0,.4,2.2,3.5,5.1,7,22.1,27.4,53.1,53.1,74.7,61.9,5.8,2.3,6.1,2.5,10.3.6,24.8-10.6,65-43.5,82.1-67,3.9-5.3,3.5-5.6-5.7-4.5-3.8.4-14.5,1.7-24,2.7s-17.8,2.1-18.6,2.1C571.84,827,492.74,826.9,492.64,827Z"/><path class="cls-1" d="M130,421.7c.1-.1,10,.8,21.8,2.1,13.9,1.4,21.8,2.1,22.2,1.9a1.39,1.39,0,0,0,.5-1c0-.4-2.2-3.5-5.1-7-22.1-27.4-53.1-53.1-74.7-61.9-5.8-2.3-6.1-2.5-10.3-.6-24.8,10.6-65,43.5-82.1,67-3.9,5.3-3.5,5.6,5.7,4.5,3.8-.4,14.5-1.7,24-2.7s17.8-2.1,18.6-2.1C50.84,421.7,129.94,421.8,130,421.7Z"/><path class="cls-1" d="M657.24,256.5c-.1.2-9.9,1.8-21.6,3.5-13.8,2.1-21.6,3.5-22,3.7a1.47,1.47,0,0,0-.2,1.1c.1.4,3,2.8,6.7,5.5,28.2,21,64.7,38.1,87.8,41.2,6.2.8,6.5.9,10.1-1.9,21.3-16.5,52.1-58.4,62.6-85.4,2.4-6.1,2-6.3-6.7-3-3.5,1.3-13.7,5.3-22.6,8.7s-16.7,6.5-17.5,6.7C733.94,236.7,657.34,256.4,657.24,256.5Z"/><path class="cls-2" d="M535.24,837.3c0-106.6,39.2-161.1,65.7-191.9,25.1-29.1,44.4-33.9,68.8-66,39.8-52.3,51.8-168.4,51.8-217.2"/><path class="cls-2" d="M87.34,411.4c0,106.6,39.2,161.1,65.7,191.9,25.1,29.1,44.4,33.9,68.8,66,39.8,52.3,51.8,168.4,51.8,217.2"/><path class="cls-2" d="M87.34,267.1c91.9-332.9,518.3-322,619,0"/></g></g></svg>