<svg xmlns="http://www.w3.org/2000/svg" viewBox="0 0 504.39 289.86"><defs><style>.cls-1{fill:#63852d;}.cls-2{fill:#8cae39;}.cls-3{fill:#4e7b2e;}.cls-4{fill:#031926;}</style></defs><g id="Layer_2" data-name="Layer 2"><g id="arrow"><path class="cls-1" d="M359,129.35c-13.69.81-26-1.3-39.25-3.81l-4.46-.84c-3-.69-6-.73-9.22-1.7q-2.37-.42-4.8-.81c-1.63-.26-3.28-.52-4.95-.76-14.19-1.93-24.69-3.3-24.69-3.3s10.65-7.07,12.47-11.63c0,0-7.35,2.13-16.67,4.55s-20.58,5.14-28.43,6.35c-3,.13-4.75.23-7.35.39,4.21-1.89,11.88-4,11.46-9.72-7.61,2.92-15.22,5.83-23.82,7.16,4.15-2.71,7.37-6.19,8.74-11.2-16,7.52-32,14.22-49.25,16.06,14.47-4.14,21.37-2.68,26.4-16.94-18.44,9.3-38.68,3.69-42.25,26.09.24,3.28,4.93,7.93,3.5,12.12l-2.6.16c18.13-1.89,35.44-2.92,53.55-3.87,7.91-.5,16.39-1,25.26-1.54l27.52-1.63q8.48-.51,17.17-1c42.68-1.57,21.72-3.16,63.94-6.69"/><path class="cls-1" d="M255.09,135.35s-7.54.75-15.39-5c-4.81-4.57-11.11-7.49-15.74-11.32,6.93-.41,14.84.76,21.65.62,7.34.53,13.3,1.11,13.3,1.11,4.48-1,9.41-1.94,14.61-3,4.34-.89,8.88-1.88,13.54-3.07.93-.24,1.87-.48,2.81-.74,11.66-4.09,25.65-2.93,34.77-12.82,2.94,5,1.88,10-.18,15a44.2,44.2,0,0,0,9.37-.58c1.6-.15,3.17-.35,4.72-.57a107,107,0,0,0,20.16-5.07c1.28-.45,2.54-.92,3.82-1.39,7.05-2.49,14.83-3.49,22.06-7,1-.5,2.06-1,3.06-1.66a29.34,29.34,0,0,0-1.26,3c-1.12,2.9-2.08,5.51-5.85,7a23.23,23.23,0,0,0,3-.18c1-.13,2-.32,3-.54,8-3.12,17-2,25-3.92-3,5-7.1,8.92-13.11,9.85,11-.87,21-3.76,32.36-4.93,1.36-.22,2.72-.45,4.07-.72a58.59,58.59,0,0,0,18.84-6.67c-2.85,9.75-13.92,16.8-28.23,20.83-.79.23-1.6.44-2.41.65-3.74.08-7.77,3-12.77,2.38"/><path class="cls-1" d="M29.2,132.32,81.59,83.58l5.2-4.84c6.47-6.68,14.4-12.38,20.78-19.34l5-4.69L129,39.46l7.18-6.67C142,26.9,149,21.11,155.1,15.24,154.5,11.35,152.87,4.4,141.36,0c.94,12.16-4.14,24.6-14.66,31.87.14-1.63-3.19-9.43-7.06-10.88-.52,3.76-17.11,31.23-25.46,35.43,3.31-6.15,1.84-15.55-4.78-19C86.41,49.17,78.7,58.59,70,66.06c.71-3.63,1.3-9.13-2.55-12.28-2.4,6-4.81,12-7.54,17.55Q58.51,74.11,57,76.7c-5.18,8.85-8.21,13.46-16.14,19.15,4.24-6.06,2.7-10.19.42-17.81-9.39,17.82-10.07,26.39-19.91,32.49,3.37-5.22,6.25-9.06,5.87-15.58-10.81,8.9-23.57,28.34-22.89,33.83,6.73,2.95,12.75,6.24,25.84,2.61"/><rect class="cls-2" x="106.23" y="118.65" width="356.94" height="51.47" rx="20.3"/><path class="cls-2" d="M169,11.84V280.78A9.06,9.06,0,0,1,154,287.55L7.43,157.37a22.12,22.12,0,0,1,.73-33.69L154.25,4.81A9.06,9.06,0,0,1,169,11.84Z"/><path class="cls-3" d="M169,86c-.67-5.91-1.84-14.52-3.91-24.85-4.19-20.88-7.09-23.84-9.87-25.19-5.79-2.82-14.64-.4-18.39,4.76-4,5.49.23,10.69-3.4,14.64-4.54,4.93-13.46-.6-25.19,1.7-8.3,1.63-15,6.6-20.43,12.6L99.25,52.44l22.81-13.11L144.35,20.1,161.71,24l6,9.36,1.19,16.17Z"/><path class="cls-1" d="M169,65c-.53-21.62-8-37.76-17.87-39.83a14.63,14.63,0,0,0-8.68,1c-9.34,4.26-6.65,16-15.32,23-7,5.6-11.42.16-22,5.11C94.85,59.17,93.82,66.92,83.76,77.8c-11.67,12.62-18.68,8-27.07,18.89-7,9.14-4.35,13.47-11.23,19.41-8.7,7.5-20.45,6.44-27.08,14-11.74,12.31.78,20,3.4,40C4.48,157.46-.54,149.33.09,138.81c.77-6.63,3.16-11.65,10.68-17.25L146.49,11.13c4.26-3.1,8.69-8.3,12.39-8.3,5.88,0,9.09,2.63,10.15,8.3Z"/><path class="cls-1" d="M146.49,11.13c4.26-3.1,8.89-8.37,12.59-8.37,5.87,0,9.95,3.39,9.95,8.37"/><path class="cls-3" d="M103,242.3c2.22-.19,13.85-1,23,7.41,3.44,3.18,2.67,8.93,7.49,11.58,3.39,1.87,5.38.47,8.17,2.72,3.18,2.57,1.72,5.29,4.77,9.87,2.42,3.66,7.33,7.94,12.25,7.15,2.9-.46,4.75-2.51,5.93-3.82,5.4-6,4.73-14.23,4.45-16.6v18.64c.31,4.22-1.3,10-9.27,10.6-4.67.1-6.51-3.63-15.25-10.67Z"/><path class="cls-3" d="M219.93,125.12c3.49,2.71,9.19,7.31,16,7.83a28.08,28.08,0,0,0,12.25-2c18-6.41,40.7-2.94,66.05,2.38,10,2.1,7.68,2.25,12.93,3.06,23.39,3.61,46.62-3,55.15-6.81a32.91,32.91,0,0,1,5.79-2,35.79,35.79,0,0,1,14.3-.34c11.85,1.51,12.55-3,27.57-2.38,7.47.31,12.93.62,18.38,4.42a26,26,0,0,1,8.85,11.24c1.45,3.35,3.95,9.13,1.71,15.32-2.12,5.82-7.25,8.71-8.85,9.53-7.26,3.68-11.44-.12-25.88,0-9.62.08-10.12,1.78-20.42,2-9.46.24-12.92-1.27-22.13-2-6.57-.55-13.65-.35-27.92.85-5.11.43-6.55.67-13.1,1.36-7.18.76-17.63,1.76-30.64,2.62H440.52c15,0,23.37-8.15,22.76-23.9-.91-18-10.32-27-27.69-27.57H220.79Z"/><path class="cls-1" d="M169,91.76a45,45,0,0,1-2.55,9.87c-2.9,7.55-5.84,9.08-6.47,14-.59,4.67,1.06,11.53,5.45,13.95,6.21,3.43,12.36-5.1,25.53-6.12,8.71-.68,11.51,2.63,21.79,5.1,15.18,3.66,23.09-.18,42.55-2a177.21,177.21,0,0,1,45.28,1c18.47,2.83,18.37,6.15,33,6.81a132.34,132.34,0,0,0,37.11-4.09c11.51-3.24,16.06-6.58,26.21-6.12,4.42.19,8.09,1,15.32.68,7.68-.38,8.78-1.58,14.64-2,5.37-.43,19.48-1.55,27.57,7.14,3.45,3.71,4.35,8.46,5.79,15a87.84,87.84,0,0,1,1.33,12.74c1.21-1.64,2.14-5.92,1.56-18.65,0-4-2.49-20.3-20.85-20.3-23.22-.77-273.28,0-273.28,0Z"/><path class="cls-4" d="M214,73.82a10.74,10.74,0,0,1-2.21-6.31V27.36c0-4.11,2.62-6.77,6.76-6.77h14.07c10.28,0,17.19,2.7,21.87,8.68,2.71,3.48,4.15,8.25,4.15,13.62,0,12.92-7.53,20-21.44,20H233.7v8.63c0,4.1-2.63,6.77-6.77,6.77h-5.05C218.86,78.26,216.46,76.88,214,73.82Zm9.6-2.47c2.53,0,3.85-1.36,3.85-3.84V56h6.43c12.31,0,18.52-5.76,18.52-17.06,0-10.61-6.19-15.39-19.78-15.39H218.56c-2.53,0-3.84,1.36-3.84,3.85V67.51c0,2.53,1.36,3.84,3.84,3.84Zm3.85-38.95h4.24c4.53,0,8.17.69,8.17,7,0,6.87-3.64,7.7-8.3,7.7h-4.11ZM235,44.28c.58,0,2.38-.31,2.38-2.85,0-1.84-1.35-2.33-3.05-2.33h-.79v5.18Z"/><path class="cls-4" d="M264,74a10.22,10.22,0,0,1-2.49-6.52V39a6.35,6.35,0,0,1,2.83-5.73,9.32,9.32,0,0,1,6-16.43c3.41,0,6.84,2,9.46,5.48A12.79,12.79,0,0,1,283,30.14a9.28,9.28,0,0,1-3.28,7A6.5,6.5,0,0,1,282.6,43V71.49c0,4.1-2.62,6.77-6.76,6.77h-4.25C268.58,78.26,266.14,76.87,264,74Zm12.77-47.87a6.54,6.54,0,0,0-6.43-6.43A6.12,6.12,0,0,0,264,26.16a6.4,6.4,0,0,0,12.8,0Zm-4.24,45.19c2.53,0,3.85-1.36,3.85-3.84V39c0-2.53-1.36-3.85-3.85-3.85h-4.25c-2.53,0-3.85,1.36-3.85,3.85V67.51c0,2.53,1.36,3.84,3.85,3.84Z"/><path class="cls-4" d="M287.15,74a10.58,10.58,0,0,1-2.42-6.51V39c0-4.1,2.62-6.77,6.77-6.77h4.25a8.94,8.94,0,0,1,4.71,1,19,19,0,0,1,8.42-2.1A19.46,19.46,0,0,1,324.58,39a17.46,17.46,0,0,1,3.95,10.7V71.49c0,4.1-2.62,6.77-6.77,6.77h-4.25c-3,0-5.45-1.39-7.6-4.23a10.28,10.28,0,0,1-2.49-6.52V49.92a4.27,4.27,0,0,0-1.59.48V71.49c0,4.1-2.62,6.77-6.77,6.77h-4.24C291.82,78.26,289.39,76.89,287.15,74Zm8.6-2.67c2.53,0,3.84-1.36,3.84-3.84V44.67A9.28,9.28,0,0,1,304.37,43c3.91,0,6,2.47,6,4.84V67.51c0,2.53,1.36,3.84,3.85,3.84h4.25c2.53,0,3.85-1.36,3.85-3.84V45.67c0-5.86-4.64-11.61-13.41-11.61a17.21,17.21,0,0,0-9.08,2.83l-.21-.11c0-1.06-1.24-1.66-3.84-1.66H291.5c-2.54,0-3.85,1.36-3.85,3.85V67.51c0,2.53,1.36,3.84,3.85,3.84Z"/><path class="cls-4" d="M349.23,79.25c-7.35,0-13-2.55-16.9-7.55a16.87,16.87,0,0,1-3.41-10.1,15.29,15.29,0,0,1,7-12.65c.14-.1.12-.25-.16-.36-1.89-.63-3.21-2.44-3.61-5a27.81,27.81,0,0,1-.26-2.93,6,6,0,0,1,2.71-5.42c4-2.51,10.36-4.07,16.33-4.07,8.35,0,14.92,2.87,19.42,8.41a21.65,21.65,0,0,1,4.4,13.16V71.49c0,4.1-2.62,6.77-6.76,6.77h-3.32a7.62,7.62,0,0,1-5-1.57,20.39,20.39,0,0,1-10.41,2.56Zm-3.32-6.9c6.55,0,9.69-2.53,11-3.67.76,1.86,2.14,2.67,4.4,2.67h3.31c2.54,0,3.85-1.36,3.85-3.85V48.72c0-11-8.72-14.66-17.58-14.66-5.65,0-11.26,1.4-14.79,3.63a3.11,3.11,0,0,0-1.34,2.87,23,23,0,0,0,.27,2.57c.31,1.87,1.16,2.87,2.52,2.87a5.74,5.74,0,0,0,2.27-.65,22.16,22.16,0,0,1,9.54-2.46c4.37,0,7.44,1.86,7.44,4.44v2.19a21.18,21.18,0,0,0-8-1.52c-8.79,0-17,5.24-17,13.6,0,8.85,8.31,10.75,14.07,10.75Zm3.65-8.1c-2.84,0-4.65-1.5-4.65-4,0-3.41,4.09-5.11,8.23-5.11a15.62,15.62,0,0,1,3.65.43v4.34c-1.27,2.94-3.58,4.32-7.22,4.32Z"/><path class="cls-4" d="M384.51,73.1c-3.35-3.48-3.62-10.3-3.55-15.62V50.86a17.17,17.17,0,0,1-3.88-3.44A9.22,9.22,0,0,1,374.45,41V39c0-4.07,2.59-6.71,6.51-6.77v-.86c0-4.1,2.62-6.77,6.76-6.77H392a8.55,8.55,0,0,1,7.35,4.18c.59,1.05,1.3,2.16,2.15,3.53,2.67.42,4.55,2.1,6.33,4.22A10.19,10.19,0,0,1,410.22,43v2c0,4.11-2.62,6.77-6.77,6.77h-1.39v8.87a4.3,4.3,0,0,1,1.49,1.06l3.25,3.58a8.09,8.09,0,0,1,2.56,5.54v.73a6.7,6.7,0,0,1-5.82,7.09,29.47,29.47,0,0,1-6,.67C391.06,79.25,387.77,76.63,384.51,73.1Zm15.2-1.34a3.89,3.89,0,0,0,3.41-4.25v-.74c0-2.17-1-3.72-2.59-3.78-3.19,0-4.71-1.73-4.71-5.51V44.81h4.31c2.54,0,3.85-1.36,3.85-3.85V39c0-2.53-1.36-3.85-3.85-3.85h-4.31V31.34c0-2.53-1.36-3.85-3.85-3.85h-4.25c-2.53,0-3.85,1.36-3.85,3.85v3.78h-2.65c-2.53,0-3.85,1.36-3.85,3.85v2c0,2.53,1.36,3.85,3.85,3.85h2.65V57.49c-.06,7.29.26,14.86,10.36,14.86A30.56,30.56,0,0,0,399.71,71.76Z"/><path class="cls-4" d="M457.6,57.22v.13a6.24,6.24,0,0,1-3.93,6.23,6.43,6.43,0,0,1,1.54,4.52v.67A7.57,7.57,0,0,1,451,76a37.46,37.46,0,0,1-15.52,3.26c-15,0-26.21-11.12-26.21-26.08,0-12.72,9.72-22,22.9-22C446.57,31.14,457.6,42.51,457.6,57.22ZM432.19,34.06c-11.17,0-20,7.56-20,19.11s8.81,19.18,20,19.18a33.06,33.06,0,0,0,14.2-3,4.64,4.64,0,0,0,2.59-4.6v-.66c0-2-.82-3.12-2.46-3.12a6.2,6.2,0,0,0-1.75.33,34.41,34.41,0,0,1-9.6,1.53c-7,0-10.36-1.9-10.28-5.71h22.63c2.54,0,3.85-1.37,3.91-4C451.83,41.62,443.28,34.06,432.19,34.06Zm7.43,16.06h-14.8c-.08-4,3.5-6.37,7.37-6.37C436.77,43.75,439.69,46.27,439.62,50.12Z"/><path class="cls-4" d="M467.1,78.26a10.09,10.09,0,0,1-7.47-3.63,7.34,7.34,0,0,1-2.16-5.13A7.51,7.51,0,0,1,459,65l8.44-11.8L459,41.44a6.87,6.87,0,0,1-1.49-4.06c0-3.05,2.52-5.18,6.24-5.18h5a9.21,9.21,0,0,1,8.08,4.11L479.77,41l2.74-4.66a7.8,7.8,0,0,1,7.15-4.11h5.11a9.89,9.89,0,0,1,7.45,3.69A7.05,7.05,0,0,1,504.39,41a7.22,7.22,0,0,1-1.55,4.46l-8.44,11.8L502.84,69a6.92,6.92,0,0,1,1.48,4.06c0,3-2.52,5.18-6.24,5.18H493c-2.88,0-5-1.13-7.13-4-1.3-1.67-3.06-3.79-3.67-4.56l-2.82,4.55a8,8,0,0,1-7.15,4h-5.1Zm1.79-6.91a5,5,0,0,0,4.66-2.59l5.69-9.07L485,68.76a5,5,0,0,0,4.67,2.59h5.11c2,0,3.32-.87,3.32-2.32a3.94,3.94,0,0,0-.91-2.31L487.5,53.24l9.68-13.49a3.94,3.94,0,0,0,.91-2.31c0-1.44-1.3-2.32-3.32-2.32h-5.11a4.8,4.8,0,0,0-4.6,2.66l-5.82,9.74-5.76-9.74a4.88,4.88,0,0,0-4.66-2.66h-5c-2,0-3.32.88-3.32,2.32a4,4,0,0,0,.9,2.32L471,53.24l-9.61,13.48a3.92,3.92,0,0,0-.9,2.31c0,1.45,1.29,2.32,3.32,2.32Z"/></g></g></svg>