<svg xmlns="http://www.w3.org/2000/svg" viewBox="0 0 463.34 289.86"><defs><style>.cls-1{fill:#63852d;}.cls-2{fill:#8cae39;}.cls-3{fill:#4e7b2e;}.cls-4{fill:#031926;}</style></defs><g id="Layer_2" data-name="Layer 2"><g id="arrow"><path class="cls-1" d="M104.29,129.35c13.7.81,26-1.3,39.26-3.81l4.46-.84c3-.69,6-.73,9.22-1.7q2.37-.42,4.8-.81c1.62-.26,3.27-.52,4.95-.76,14.19-1.93,24.69-3.3,24.69-3.3S181,111.06,179.2,106.5c0,0,7.35,2.13,16.66,4.55s20.59,5.14,28.44,6.35c3,.13,4.75.23,7.34.39-4.2-1.89-11.88-4-11.45-9.72,7.61,2.92,15.22,5.83,23.82,7.16-4.15-2.71-7.37-6.19-8.74-11.2,16,7.52,32,14.22,49.25,16.06-14.48-4.14-21.37-2.68-26.41-16.94,18.45,9.3,38.69,3.69,42.26,26.09-.24,3.28-4.94,7.93-3.51,12.12l2.6.16c-18.12-1.89-35.44-2.92-53.54-3.87-7.91-.5-16.4-1-25.26-1.54l-27.52-1.63q-8.47-.51-17.17-1c-42.68-1.57-21.73-3.16-63.95-6.69"/><path class="cls-1" d="M208.25,135.35s7.54.75,15.39-5c4.8-4.57,11.11-7.49,15.74-11.32-6.93-.41-14.84.76-21.65.62-7.35.53-13.3,1.11-13.3,1.11-4.49-1-9.41-1.94-14.62-3-4.34-.89-8.87-1.88-13.54-3.07-.93-.24-1.87-.48-2.81-.74-11.66-4.09-25.64-2.93-34.76-12.82-2.94,5-1.88,10,.18,15a44.33,44.33,0,0,1-9.38-.58c-1.59-.15-3.17-.35-4.72-.57a106.71,106.71,0,0,1-20.15-5.07c-1.28-.45-2.55-.92-3.82-1.39-7-2.49-14.83-3.49-22.07-7-1-.5-2-1-3.06-1.66a29.47,29.47,0,0,1,1.27,3c1.11,2.9,2.08,5.51,5.85,7a23.23,23.23,0,0,1-3-.18c-1-.13-2-.32-3-.54-8-3.12-17-2-25-3.92,3.06,5,7.11,8.92,13.12,9.85-11-.87-21-3.76-32.36-4.93-1.37-.22-2.73-.45-4.07-.72A58.51,58.51,0,0,1,9.59,102.7c2.85,9.75,13.92,16.8,28.22,20.83.8.23,1.6.44,2.41.65,3.75.08,7.78,3,12.78,2.38"/><path class="cls-1" d="M434.14,132.32,381.75,83.58l-5.2-4.84c-6.47-6.68-14.4-12.38-20.79-19.34l-5-4.69-16.4-15.25-7.17-6.67c-5.84-5.89-12.84-11.68-18.92-17.55C308.84,11.35,310.47,4.4,322,0c-1,12.16,4.14,24.6,14.65,31.87-.13-1.63,3.19-9.43,7.06-10.88.52,3.76,17.12,31.23,25.47,35.43-3.31-6.15-1.85-15.55,4.78-19,3,11.73,10.69,21.15,19.43,28.62-.7-3.63-1.3-9.13,2.56-12.28,2.4,6,4.8,12,7.54,17.55.91,1.85,1.85,3.64,2.85,5.37,5.19,8.85,8.22,13.46,16.15,19.15-4.24-6.06-2.71-10.19-.43-17.81,9.4,17.82,10.08,26.39,19.92,32.49-3.37-5.22-6.26-9.06-5.88-15.58,10.81,8.9,23.57,28.34,22.9,33.83-6.74,2.95-12.75,6.24-25.84,2.61"/><rect class="cls-2" x="0.17" y="118.65" width="356.94" height="51.47" rx="20.3" transform="translate(357.29 288.77) rotate(-180)"/><path class="cls-2" d="M294.3,11.84V280.78a9.06,9.06,0,0,0,15.08,6.77L455.91,157.37a22.12,22.12,0,0,0-.73-33.69L309.08,4.81A9.06,9.06,0,0,0,294.3,11.84Z"/><path class="cls-3" d="M294.3,86c.68-5.91,1.84-14.52,3.92-24.85,4.19-20.88,7.09-23.84,9.87-25.19,5.79-2.82,14.63-.4,18.38,4.76,4,5.49-.23,10.69,3.41,14.64,4.53,4.93,13.46-.6,25.19,1.7,8.3,1.63,15,6.6,20.42,12.6l-11.4-17.19L341.28,39.33,319,20.1,301.62,24l-6,9.36-1.19,16.17Z"/><path class="cls-1" d="M294.3,65c.54-21.62,8-37.76,17.87-39.83a14.66,14.66,0,0,1,8.69,1c9.34,4.26,6.65,16,15.31,23,7,5.6,11.42.16,22,5.11,10.35,4.86,11.39,12.61,21.45,23.49,11.67,12.62,18.67,8,27.06,18.89,7,9.14,4.35,13.47,11.24,19.41,8.7,7.5,20.45,6.44,27.08,14,11.73,12.31-.79,20-3.4,40,17.3-12.66,22.32-20.79,21.68-31.31-.77-6.63-3.15-11.65-10.67-17.25L316.84,11.13c-4.25-3.1-8.69-8.3-12.39-8.3-5.87,0-9.08,2.63-10.15,8.3Z"/><path class="cls-1" d="M316.84,11.13C312.59,8,308,2.76,304.26,2.76c-5.87,0-10,3.39-10,8.37"/><path class="cls-3" d="M360.32,242.3c-2.22-.19-13.86-1-22.95,7.41-3.44,3.18-2.68,8.93-7.49,11.58-3.4,1.87-5.38.47-8.17,2.72-3.19,2.57-1.73,5.29-4.77,9.87-2.42,3.66-7.34,7.94-12.25,7.15-2.9-.46-4.75-2.51-5.94-3.82-5.39-6-4.72-14.23-4.45-16.6v18.64c-.3,4.22,1.31,10,9.27,10.6,4.68.1,6.52-3.63,15.26-10.67Z"/><path class="cls-3" d="M243.41,125.12c-3.5,2.71-9.19,7.31-16,7.83a28.13,28.13,0,0,1-12.26-2c-18-6.41-40.69-2.94-66,2.38-10,2.1-7.68,2.25-12.94,3.06-23.38,3.61-46.62-3-55.14-6.81a32.91,32.91,0,0,0-5.79-2,35.79,35.79,0,0,0-14.3-.34c-11.85,1.51-12.55-3-27.57-2.38-7.47.31-12.93.62-18.39,4.42a26.06,26.06,0,0,0-8.85,11.24c-1.45,3.35-3.94,9.13-1.7,15.32,2.11,5.82,7.24,8.71,8.85,9.53,7.26,3.68,11.43-.12,25.87,0,9.62.08,10.13,1.78,20.43,2,9.46.24,12.91-1.27,22.13-2,6.56-.55,13.65-.35,27.91.85,5.12.43,6.55.67,13.11,1.36,7.18.76,17.62,1.76,30.64,2.62H22.81c-15,0-23.37-8.15-22.75-23.9.91-18,10.32-27,27.69-27.57h214.8Z"/><path class="cls-1" d="M294.3,91.76a45.14,45.14,0,0,0,2.56,9.87c2.89,7.55,5.84,9.08,6.46,14,.6,4.67-1.05,11.53-5.44,13.95-6.22,3.43-12.36-5.1-25.54-6.12-8.71-.68-11.5,2.63-21.78,5.1-15.19,3.66-23.09-.18-42.56-2a177.13,177.13,0,0,0-45.27,1c-18.48,2.83-18.38,6.15-33,6.81a132.34,132.34,0,0,1-37.11-4.09c-11.51-3.24-16.06-6.58-26.21-6.12-4.42.19-8.09,1-15.32.68-7.68-.38-8.78-1.58-14.64-2-5.38-.43-19.49-1.55-27.57,7.14-3.45,3.71-4.36,8.46-5.79,15A84.91,84.91,0,0,0,1.74,157.6C.53,156-.4,151.68.17,139c0-4,2.49-20.3,20.86-20.3,23.22-.77,273.27,0,273.27,0Z"/><path class="cls-4" d="M26.91,73.75c-1.65-2.44-2.67-3.47-2.67-5.25a7.27,7.27,0,0,1,.47-2.36L38,25.79a7,7,0,0,1,7.16-5.2H54a8.9,8.9,0,0,1,7.61,4.24,20.36,20.36,0,0,1,2.86,4.87L78.25,70a9,9,0,0,1,.47,2.56c0,3.39-2.52,5.71-6.3,5.71H65.05c-3.45,0-5.21-2.44-6.94-4.36-1.25-1.39-3-2.94-3.54-5.24l-.25-1.15H49.56l-1.17,5.07a6.78,6.78,0,0,1-7.1,5.68H33.93C30.48,78.26,28.91,76.41,26.91,73.75ZM38,71.35a3.92,3.92,0,0,0,4.25-3.41l1.69-7.34H55.66L57.41,68a4,4,0,0,0,4.32,3.34H69.1c2.11,0,3.38-1,3.38-2.78A5.7,5.7,0,0,0,72.16,67L58.35,26.67A4.18,4.18,0,0,0,54,23.51H45.14a4.13,4.13,0,0,0-4.39,3.16L27.48,67a5,5,0,0,0-.32,1.61c0,1.71,1.33,2.72,3.45,2.72ZM49.15,37.24h.94l3.11,13h-7Z"/><path class="cls-4" d="M81.67,74a10.27,10.27,0,0,1-2.48-6.52V39A6.34,6.34,0,0,1,82,33.24a9.32,9.32,0,0,1,6-16.43c3.41,0,6.84,2,9.46,5.48a12.79,12.79,0,0,1,3.22,7.85,9.25,9.25,0,0,1-3.29,7A6.51,6.51,0,0,1,100.29,43V71.49c0,4.1-2.62,6.77-6.77,6.77H89.27C86.26,78.26,83.83,76.87,81.67,74ZM94.45,26.16A6.55,6.55,0,0,0,88,19.73a6.12,6.12,0,0,0-6.37,6.43,6.41,6.41,0,0,0,12.81,0ZM90.2,71.35c2.53,0,3.85-1.36,3.85-3.84V39c0-2.53-1.36-3.85-3.85-3.85H86c-2.53,0-3.85,1.36-3.85,3.85V67.51c0,2.53,1.36,3.84,3.85,3.84Z"/><path class="cls-4" d="M104.56,73.69a10.35,10.35,0,0,1-2.15-6.18V39c0-4.1,2.63-6.77,6.77-6.77h4.25a6.67,6.67,0,0,1,5,1.95,15.28,15.28,0,0,1,8.55-3,5.6,5.6,0,0,1,4.68,2.51L134,37a8,8,0,0,1,1.69,4.86v3.58c0,5-1.16,7-3.72,6.84h-.66c-3.21,0-6.66,3-7.57,6.6a11.07,11.07,0,0,0-.19,2.29V71.49c0,4.1-2.63,6.77-6.77,6.77H112.5C109.14,78.26,106.77,76.49,104.56,73.69Zm8.87-2.34c2.53,0,3.85-1.36,3.85-3.84V57.22a15.06,15.06,0,0,1,.27-2.95c1.27-5.09,6-8.86,9.62-8.86,1.85,0,2.25-.74,2.25-3.92V37.9c.07-1.71-.12-3.84-2.65-3.84a11.3,11.3,0,0,0-9.24,5.3l-.25-.06V39c0-2.53-1.36-3.85-3.85-3.85h-4.25c-2.53,0-3.85,1.36-3.85,3.85V67.51c0,2.53,1.36,3.84,3.85,3.84Z"/><path class="cls-4" d="M141.33,74.29a11,11,0,0,1-2.62-6.78V27.36c0-4.11,2.63-6.77,6.77-6.77h5.05a8.76,8.76,0,0,1,7.2,3.76,10.74,10.74,0,0,1,2.88,7V71.49c0,4.1-2.62,6.77-6.77,6.77h-5A9.23,9.23,0,0,1,141.33,74.29Zm9.2-2.94c2.53,0,3.84-1.36,3.84-3.84V27.36c0-2.54-1.35-3.85-3.84-3.85h-5.05c-2.53,0-3.85,1.36-3.85,3.85V67.51c0,2.53,1.36,3.84,3.85,3.84Z"/><path class="cls-4" d="M165.75,74a10.64,10.64,0,0,1-2.42-6.51V39c0-4.1,2.63-6.77,6.77-6.77h4.25a9,9,0,0,1,4.72,1,19,19,0,0,1,8.42-2.1A19.48,19.48,0,0,1,203.19,39a17.52,17.52,0,0,1,3.94,10.7V71.49c0,4.1-2.62,6.77-6.77,6.77h-4.24c-3,0-5.45-1.39-7.61-4.23A10.27,10.27,0,0,1,186,67.51V49.92a4.17,4.17,0,0,0-1.59.48V71.49c0,4.1-2.63,6.77-6.77,6.77h-4.25C170.43,78.26,168,76.89,165.75,74Zm8.6-2.67c2.53,0,3.85-1.36,3.85-3.84V44.67A9.25,9.25,0,0,1,183,43c3.91,0,6,2.47,6,4.84V67.51c0,2.53,1.36,3.84,3.85,3.84h4.25c2.53,0,3.85-1.36,3.85-3.84V45.67c0-5.86-4.65-11.61-13.41-11.61a17.22,17.22,0,0,0-9.09,2.83l-.2-.11c0-1.06-1.24-1.66-3.85-1.66H170.1c-2.53,0-3.85,1.36-3.85,3.85V67.51c0,2.53,1.36,3.84,3.85,3.84Z"/><path class="cls-4" d="M252.86,73c0,3.07-2.55,5.25-6.24,5.25h-4.91a8.59,8.59,0,0,1-7.34-3.71l-3.06-4-.49-.72c-.09,5.84-2.19,8.41-7,8.41h-4.25c-3,0-5.45-1.39-7.93-4.63a9.89,9.89,0,0,1-2.16-6.12V25.7c0-4.1,2.63-6.77,6.77-6.77h4.25c3.05,0,5.45,1.39,7.87,4.5a10.31,10.31,0,0,1,2.22,6.25v4.55a8.7,8.7,0,0,1,5.84-2h3.58c3.63,0,5.93,2,7.59,3.69a6.81,6.81,0,0,1,2.1,4.87,7.58,7.58,0,0,1-2,4.93l-6.9,8L251.44,69A7.24,7.24,0,0,1,252.86,73Zm-6.31-4a4.08,4.08,0,0,0-.84-2.31L233.84,49.45l8.36-9.64a4.15,4.15,0,0,0,1.17-2.5c0-1.37-1.29-2.19-3.32-2.19h-3.58a5.55,5.55,0,0,0-4.81,2.21l-7.27,8.78V25.7c0-2.53-1.36-3.85-3.85-3.85h-4.25c-2.53,0-3.85,1.36-3.85,3.85V67.51c0,2.53,1.36,3.84,3.85,3.84h4.25c2.53,0,3.85-1.36,3.85-3.84v-7l1.86-2.23,7.47,10.63a5.23,5.23,0,0,0,4.67,2.46h4.91C245.31,71.35,246.55,70.5,246.55,69Z"/></g></g></svg>