<svg xmlns="http://www.w3.org/2000/svg" viewBox="0 0 463.34 292.04"><defs><style>.cls-1{fill:#63852d;}.cls-2{fill:#8cae39;}.cls-3{fill:#4e7b2e;}.cls-4{fill:#031926;}</style></defs><g id="Layer_2" data-name="Layer 2"><g id="arrow"><path class="cls-1" d="M172.74,41.08c3.65-1.06,6.06-7.71,3.51-10.65-1,1.91-4.09,4.07-3.73.33-.71-3.47,3.92-7.33,5.54-7.91.12-1.46-1.11-4.4-3.43-4.26a7.2,7.2,0,0,1,.48-2c1.17-2.8,4-2.82,5.83-4.34a35.08,35.08,0,0,0-14-7.28,8.73,8.73,0,0,0-2.27-.25,8.14,8.14,0,0,0-2.3.41c1.51,0,4.73-4.23,4.77-4.95a9.51,9.51,0,0,0-3,0c-4.19.57-9.69,5.29-13.64,9.51,0,0,4.88-3,5.38-1.41a14.21,14.21,0,0,1,2.67,1.08,15,15,0,0,1,2.35,1.56c10.13,7.4,6.37,18.74,5,28.21A29.71,29.71,0,0,0,167,41.93c.4.93,3.18-.6,4.81-.63Z"/><path class="cls-1" d="M359,131.53c-13.69.81-26-1.29-39.25-3.8l-4.46-.85c-3-.68-6-.72-9.22-1.69q-2.37-.42-4.8-.81c-1.63-.27-3.28-.52-4.95-.76-14.19-1.93-24.69-3.31-24.69-3.31s10.65-7.06,12.47-11.62c0,0-7.35,2.13-16.67,4.55s-20.58,5.14-28.43,6.35c-3,.13-4.75.23-7.35.38,4.21-1.89,11.88-4,11.46-9.71-7.61,2.91-15.22,5.83-23.82,7.16,4.15-2.71,7.37-6.19,8.74-11.2-16,7.52-32,14.22-49.25,16.06,14.47-4.15,21.37-2.68,26.4-17-18.44,9.31-38.68,3.7-42.25,26.1.24,3.27,4.93,7.93,3.5,12.12l-2.6.15c18.13-1.89,35.44-2.91,53.55-3.87,7.91-.5,16.39-1,25.26-1.54l27.52-1.62q8.48-.51,17.17-1c42.68-1.56,21.72-3.15,63.94-6.68"/><path class="cls-1" d="M255.09,137.54s-7.54.75-15.39-5c-4.81-4.58-11.11-7.49-15.74-11.33,6.93-.41,14.84.77,21.65.63,7.34.52,13.3,1.11,13.3,1.11,4.48-1,9.41-1.94,14.61-3,4.34-.9,8.88-1.89,13.54-3.07l2.81-.74c11.66-4.09,25.65-2.93,34.77-12.82,2.94,5,1.88,10-.18,15a44.87,44.87,0,0,0,9.37-.58c1.6-.16,3.17-.35,4.72-.58a107,107,0,0,0,20.16-5.06c1.28-.45,2.54-.92,3.82-1.39,7.05-2.5,14.83-3.49,22.06-7,1-.5,2.06-1,3.06-1.66a29.34,29.34,0,0,0-1.26,3c-1.12,2.89-2.08,5.51-5.85,7a21.57,21.57,0,0,0,3-.18c1-.12,2-.31,3-.53,8-3.12,17-2,25-3.92-3,5-7.1,8.91-13.11,9.84,11-.87,21-3.75,32.36-4.92,1.36-.22,2.72-.46,4.07-.72a58.59,58.59,0,0,0,18.84-6.67c-2.85,9.75-13.92,16.79-28.23,20.83-.79.23-1.6.44-2.41.65-3.74.08-7.77,3-12.77,2.38"/><path class="cls-1" d="M29.2,134.51,81.59,85.76l5.2-4.83c6.47-6.68,14.4-12.38,20.78-19.34l5-4.69L129,41.65,136.18,35C142,29.09,149,23.3,155.1,17.42c-.6-3.88-2.23-10.83-13.74-15.23.94,12.16-4.14,24.6-14.66,31.86.14-1.62-3.19-9.42-7.06-10.87-.52,3.75-17.11,31.22-25.46,35.43,3.31-6.16,1.84-15.55-4.78-19C86.41,51.36,78.7,60.78,70,68.25c.71-3.64,1.3-9.13-2.55-12.29C65,62,62.6,68,59.87,73.52Q58.51,76.3,57,78.89C51.83,87.74,48.8,92.34,40.87,98c4.24-6.06,2.7-10.19.42-17.82-9.39,17.83-10.07,26.4-19.91,32.5,3.37-5.22,6.25-9.06,5.87-15.58C16.44,106,3.68,125.47,4.36,131c6.73,2.95,12.75,6.23,25.84,2.61"/><rect class="cls-2" x="106.23" y="120.84" width="356.94" height="51.47" rx="20.3"/><path class="cls-2" d="M169,14V283A9.06,9.06,0,0,1,154,289.74L7.43,159.56a22.12,22.12,0,0,1,.73-33.69L154.25,7A9.06,9.06,0,0,1,169,14Z"/><path class="cls-3" d="M169,88.16c-.67-5.92-1.84-14.53-3.91-24.86-4.19-20.87-7.09-23.83-9.87-25.19-5.79-2.81-14.64-.4-18.39,4.77-4,5.48.23,10.69-3.4,14.64-4.54,4.93-13.46-.6-25.19,1.7-8.3,1.63-15,6.6-20.43,12.6l11.41-17.2,22.81-13.1,22.29-19.24,17.36,3.92,6,9.36,1.19,16.17Z"/><path class="cls-1" d="M169,67.22c-.53-21.62-8-37.77-17.87-39.83a14.63,14.63,0,0,0-8.68,1c-9.34,4.26-6.65,16-15.32,23-7,5.6-11.42.15-22,5.11C94.85,61.36,93.82,69.11,83.76,80,72.09,92.6,65.08,88,56.69,98.88c-7,9.13-4.35,13.47-11.23,19.4-8.7,7.51-20.45,6.45-27.08,14-11.74,12.31.78,20.05,3.4,40C4.48,159.65-.54,151.52.09,141c.77-6.63,3.16-11.65,10.68-17.26L146.49,13.31c4.26-3.09,8.69-8.3,12.39-8.3,5.88,0,9.09,2.64,10.15,8.3Z"/><path class="cls-1" d="M146.49,13.31C150.75,10.22,155.38,5,159.08,5,165,5,169,8.34,169,13.31"/><path class="cls-3" d="M103,244.49c2.22-.2,13.85-1,23,7.41,3.44,3.18,2.67,8.92,7.49,11.57,3.39,1.87,5.38.48,8.17,2.73,3.18,2.57,1.72,5.29,4.77,9.87,2.42,3.65,7.33,7.94,12.25,7.15,2.9-.46,4.75-2.52,5.93-3.83,5.4-6,4.73-14.22,4.45-16.6v18.64c.31,4.23-1.3,10-9.27,10.61-4.67.1-6.51-3.63-15.25-10.67Z"/><path class="cls-3" d="M219.93,127.3c3.49,2.71,9.19,7.32,16,7.83a27.93,27.93,0,0,0,12.25-2c18-6.41,40.7-2.93,66.05,2.38,10,2.11,7.68,2.26,12.93,3.07,23.39,3.61,46.62-3,55.15-6.81a32.08,32.08,0,0,1,5.79-2,35.79,35.79,0,0,1,14.3-.34c11.85,1.51,12.55-3,27.57-2.39,7.47.32,12.93.62,18.38,4.43a26,26,0,0,1,8.85,11.23c1.45,3.36,3.95,9.14,1.71,15.32-2.12,5.83-7.25,8.72-8.85,9.53-7.26,3.69-11.44-.11-25.88,0-9.62.08-10.12,1.79-20.42,2.05-9.46.24-12.92-1.28-22.13-2.05-6.57-.54-13.65-.35-27.92.86-5.11.43-6.55.67-13.1,1.36-7.18.76-17.63,1.75-30.64,2.62H440.52c15,0,23.37-8.16,22.76-23.9-.91-18-10.32-27-27.69-27.57H220.79Z"/><path class="cls-1" d="M169,93.94a45.06,45.06,0,0,1-2.55,9.88c-2.9,7.55-5.84,9.08-6.47,14-.59,4.68,1.06,11.54,5.45,14,6.21,3.42,12.36-5.11,25.53-6.13,8.71-.67,11.51,2.63,21.79,5.11,15.18,3.65,23.09-.19,42.55-2a177.21,177.21,0,0,1,45.28,1c18.47,2.82,18.37,6.15,33,6.81a132.34,132.34,0,0,0,37.11-4.09c11.51-3.24,16.06-6.58,26.21-6.13,4.42.2,8.09,1,15.32.68,7.68-.37,8.78-1.57,14.64-2,5.37-.43,19.48-1.55,27.57,7.15,3.45,3.71,4.35,8.46,5.79,15a87.72,87.72,0,0,1,1.33,12.74c1.21-1.64,2.14-5.92,1.56-18.66,0-3.95-2.49-20.29-20.85-20.29-23.22-.78-273.28,0-273.28,0Z"/><path class="cls-4" d="M198.76,75.94c-1.65-2.45-2.68-3.47-2.68-5.25a7.35,7.35,0,0,1,.48-2.37L209.83,28A7,7,0,0,1,217,22.77h8.82A8.9,8.9,0,0,1,233.42,27a20.13,20.13,0,0,1,2.87,4.88L250.1,72.17a9.08,9.08,0,0,1,.47,2.56c0,3.4-2.52,5.71-6.31,5.71H236.9c-3.46,0-5.22-2.44-6.94-4.36-1.25-1.38-3-2.93-3.54-5.23l-.25-1.16h-4.76l-1.17,5.07a6.78,6.78,0,0,1-7.1,5.68h-7.37C202.33,80.44,200.76,78.6,198.76,75.94Zm11.06-2.4a3.92,3.92,0,0,0,4.25-3.41l1.68-7.34h11.76l1.75,7.4a4,4,0,0,0,4.32,3.35h7.36c2.11,0,3.39-1,3.39-2.79a5.36,5.36,0,0,0-.33-1.61L230.2,28.86a4.2,4.2,0,0,0-4.39-3.17H217a4.14,4.14,0,0,0-4.39,3.17L199.33,69.2a5.08,5.08,0,0,0-.33,1.62c0,1.7,1.34,2.72,3.46,2.72ZM221,39.43h.94l3.11,13h-7Z"/><path class="cls-4" d="M253.52,76.21A10.2,10.2,0,0,1,251,69.69V41.16a6.34,6.34,0,0,1,2.83-5.73,9.33,9.33,0,0,1,6-16.44c3.41,0,6.84,2,9.46,5.49a12.76,12.76,0,0,1,3.21,7.85,9.29,9.29,0,0,1-3.28,7,6.5,6.5,0,0,1,2.89,5.79V73.67c0,4.11-2.63,6.77-6.77,6.77h-4.25C258.11,80.44,255.67,79.06,253.52,76.21Zm6.34-41.49a6.41,6.41,0,1,0,0-12.81,6.12,6.12,0,0,0-6.37,6.44,6.47,6.47,0,0,0,6.37,6.37Zm2.19,38.82c2.53,0,3.85-1.36,3.85-3.85V41.16c0-2.54-1.36-3.85-3.85-3.85H257.8c-2.53,0-3.85,1.36-3.85,3.85V69.69c0,2.53,1.36,3.85,3.85,3.85Z"/><path class="cls-4" d="M276.41,75.88a10.36,10.36,0,0,1-2.15-6.19V41.16c0-4.11,2.62-6.77,6.77-6.77h4.25a6.7,6.7,0,0,1,5,1.94,15.28,15.28,0,0,1,8.54-3,5.6,5.6,0,0,1,4.69,2.51l2.32,3.38a8,8,0,0,1,1.69,4.86v3.58c0,4.94-1.17,7-3.72,6.84h-.66c-3.21,0-6.67,3-7.57,6.6a11,11,0,0,0-.2,2.29V73.67c0,4.11-2.62,6.77-6.77,6.77h-4.24C281,80.44,278.61,78.68,276.41,75.88Zm8.87-2.34c2.53,0,3.84-1.36,3.84-3.85V59.41a15.2,15.2,0,0,1,.27-3c1.28-5.08,6.06-8.86,9.62-8.86,1.86,0,2.26-.74,2.26-3.91V40.09c.06-1.72-.12-3.84-2.65-3.84a11.29,11.29,0,0,0-9.24,5.3l-.26-.06v-.33c0-2.54-1.35-3.85-3.84-3.85H281c-2.53,0-3.85,1.36-3.85,3.85V69.69c0,2.53,1.36,3.85,3.85,3.85Z"/><path class="cls-4" d="M313.18,76.47a10.9,10.9,0,0,1-2.62-6.78V29.54c0-4.1,2.62-6.77,6.77-6.77h5a8.77,8.77,0,0,1,7.21,3.77,10.71,10.71,0,0,1,2.88,7V73.67c0,4.11-2.62,6.77-6.77,6.77h-5A9.21,9.21,0,0,1,313.18,76.47Zm9.19-2.93c2.54,0,3.85-1.36,3.85-3.85V29.54c0-2.53-1.36-3.85-3.85-3.85h-5c-2.53,0-3.85,1.36-3.85,3.85V69.69c0,2.53,1.36,3.85,3.85,3.85Z"/><path class="cls-4" d="M337.6,76.21a10.58,10.58,0,0,1-2.42-6.52V41.16c0-4.11,2.62-6.77,6.77-6.77h4.25a8.88,8.88,0,0,1,4.72,1,19,19,0,0,1,8.42-2.1A19.46,19.46,0,0,1,375,41.14,17.52,17.52,0,0,1,379,51.84V73.67c0,4.11-2.62,6.77-6.77,6.77H368c-3,0-5.44-1.38-7.6-4.23a10.25,10.25,0,0,1-2.48-6.52V52.11a4.09,4.09,0,0,0-1.6.48V73.67c0,4.11-2.62,6.77-6.76,6.77h-4.25C342.27,80.44,339.85,79.08,337.6,76.21Zm8.6-2.67c2.53,0,3.85-1.36,3.85-3.85V46.86a9.18,9.18,0,0,1,4.77-1.66c3.92,0,6,2.48,6,4.85V69.69c0,2.53,1.36,3.85,3.85,3.85h4.24c2.54,0,3.85-1.36,3.85-3.85V47.86c0-5.86-4.64-11.61-13.4-11.61a17.22,17.22,0,0,0-9.09,2.83l-.2-.11c0-1.06-1.24-1.66-3.85-1.66H342c-2.53,0-3.85,1.36-3.85,3.85V69.69c0,2.53,1.36,3.85,3.85,3.85Z"/><path class="cls-4" d="M424.7,75.2c0,3.07-2.54,5.24-6.23,5.24h-4.92a8.59,8.59,0,0,1-7.33-3.7l-3.06-4-.49-.71c-.1,5.83-2.2,8.4-7,8.4h-4.24c-3,0-5.45-1.38-7.94-4.63a9.93,9.93,0,0,1-2.15-6.12V27.88c0-4.1,2.62-6.76,6.77-6.76h4.25c3.05,0,5.44,1.39,7.87,4.49a10.38,10.38,0,0,1,2.21,6.26v4.55a8.68,8.68,0,0,1,5.84-2h3.59c3.63,0,5.93,2,7.59,3.68A6.82,6.82,0,0,1,421.58,43a7.64,7.64,0,0,1-2,4.93l-6.9,7.95,10.63,15.38A7.22,7.22,0,0,1,424.7,75.2Zm-6.3-4a4.08,4.08,0,0,0-.84-2.32L405.69,51.63,414.05,42a4.15,4.15,0,0,0,1.16-2.5c0-1.37-1.28-2.19-3.31-2.19h-3.59a5.57,5.57,0,0,0-4.81,2.21l-7.27,8.77V27.88c0-2.53-1.36-3.84-3.84-3.84h-4.25c-2.53,0-3.85,1.35-3.85,3.84V69.69c0,2.53,1.36,3.85,3.85,3.85h4.25c2.53,0,3.84-1.36,3.84-3.85v-7l1.87-2.22,7.47,10.63a5.22,5.22,0,0,0,4.67,2.46h4.91C417.15,73.54,418.4,72.68,418.4,71.22Z"/></g></g></svg>