<svg xmlns="http://www.w3.org/2000/svg" viewBox="0 0 463.34 292.04"><defs><style>.cls-1{fill:#63852d;}.cls-2{fill:#8cae39;}.cls-3{fill:#4e7b2e;}.cls-4{fill:#031926;}</style></defs><g id="Layer_2" data-name="Layer 2"><g id="arrow"><path class="cls-1" d="M172.74,41.08c3.65-1.06,6.06-7.71,3.51-10.65-1,1.91-4.09,4.07-3.73.33-.71-3.47,3.92-7.33,5.54-7.91.12-1.46-1.11-4.4-3.43-4.26a7.2,7.2,0,0,1,.48-2c1.17-2.8,4-2.82,5.83-4.34a35.08,35.08,0,0,0-14-7.28,8.73,8.73,0,0,0-2.27-.25,8.14,8.14,0,0,0-2.3.41c1.51,0,4.73-4.23,4.77-4.95a9.51,9.51,0,0,0-3,0c-4.19.57-9.69,5.29-13.64,9.51,0,0,4.88-3,5.38-1.41a14.21,14.21,0,0,1,2.67,1.08,15,15,0,0,1,2.35,1.56c10.13,7.4,6.37,18.74,5,28.21A29.71,29.71,0,0,0,167,41.93c.4.93,3.18-.6,4.81-.63Z"/><path class="cls-1" d="M359,131.53c-13.69.81-26-1.29-39.25-3.8l-4.46-.85c-3-.68-6-.72-9.22-1.69q-2.37-.42-4.8-.81c-1.63-.27-3.28-.52-4.95-.76-14.19-1.93-24.69-3.31-24.69-3.31s10.65-7.06,12.47-11.62c0,0-7.35,2.13-16.67,4.55s-20.58,5.14-28.43,6.35c-3,.13-4.75.23-7.35.38,4.21-1.89,11.88-4,11.46-9.71-7.61,2.91-15.22,5.83-23.82,7.16,4.15-2.71,7.37-6.19,8.74-11.2-16,7.52-32,14.22-49.25,16.06,14.47-4.15,21.37-2.68,26.4-17-18.44,9.31-38.68,3.7-42.25,26.1.24,3.27,4.93,7.93,3.5,12.12l-2.6.15c18.13-1.89,35.44-2.91,53.55-3.87,7.91-.5,16.39-1,25.26-1.54l27.52-1.62q8.48-.51,17.17-1c42.68-1.56,21.72-3.15,63.94-6.68"/><path class="cls-1" d="M255.09,137.54s-7.54.75-15.39-5c-4.81-4.58-11.11-7.49-15.74-11.33,6.93-.41,14.84.77,21.65.63,7.34.52,13.3,1.11,13.3,1.11,4.48-1,9.41-1.94,14.61-3,4.34-.9,8.88-1.89,13.54-3.07l2.81-.74c11.66-4.09,25.65-2.93,34.77-12.82,2.94,5,1.88,10-.18,15a44.87,44.87,0,0,0,9.37-.58c1.6-.16,3.17-.35,4.72-.58a107,107,0,0,0,20.16-5.06c1.28-.45,2.54-.92,3.82-1.39,7.05-2.5,14.83-3.49,22.06-7,1-.5,2.06-1,3.06-1.66a29.34,29.34,0,0,0-1.26,3c-1.12,2.89-2.08,5.51-5.85,7a21.57,21.57,0,0,0,3-.18c1-.12,2-.31,3-.53,8-3.12,17-2,25-3.92-3,5-7.1,8.91-13.11,9.84,11-.87,21-3.75,32.36-4.92,1.36-.22,2.72-.46,4.07-.72a58.59,58.59,0,0,0,18.84-6.67c-2.85,9.75-13.92,16.79-28.23,20.83-.79.23-1.6.44-2.41.65-3.74.08-7.77,3-12.77,2.38"/><path class="cls-1" d="M29.2,134.51,81.59,85.76l5.2-4.83c6.47-6.68,14.4-12.38,20.78-19.34l5-4.69L129,41.65,136.18,35C142,29.09,149,23.3,155.1,17.42c-.6-3.88-2.23-10.83-13.74-15.23.94,12.16-4.14,24.6-14.66,31.86.14-1.62-3.19-9.42-7.06-10.87-.52,3.75-17.11,31.22-25.46,35.43,3.31-6.16,1.84-15.55-4.78-19C86.41,51.36,78.7,60.78,70,68.25c.71-3.64,1.3-9.13-2.55-12.29C65,62,62.6,68,59.87,73.52Q58.51,76.3,57,78.89C51.83,87.74,48.8,92.34,40.87,98c4.24-6.06,2.7-10.19.42-17.82-9.39,17.83-10.07,26.4-19.91,32.5,3.37-5.22,6.25-9.06,5.87-15.58C16.44,106,3.68,125.47,4.36,131c6.73,2.95,12.75,6.23,25.84,2.61"/><rect class="cls-2" x="106.23" y="120.84" width="356.94" height="51.47" rx="20.3"/><path class="cls-2" d="M169,14V283A9.06,9.06,0,0,1,154,289.74L7.43,159.56a22.12,22.12,0,0,1,.73-33.69L154.25,7A9.06,9.06,0,0,1,169,14Z"/><path class="cls-3" d="M169,88.16c-.67-5.92-1.84-14.53-3.91-24.86-4.19-20.87-7.09-23.83-9.87-25.19-5.79-2.81-14.64-.4-18.39,4.77-4,5.48.23,10.69-3.4,14.64-4.54,4.93-13.46-.6-25.19,1.7-8.3,1.63-15,6.6-20.43,12.6l11.41-17.2,22.81-13.1,22.29-19.24,17.36,3.92,6,9.36,1.19,16.17Z"/><path class="cls-1" d="M169,67.22c-.53-21.62-8-37.77-17.87-39.83a14.63,14.63,0,0,0-8.68,1c-9.34,4.26-6.65,16-15.32,23-7,5.6-11.42.15-22,5.11C94.85,61.36,93.82,69.11,83.76,80,72.09,92.6,65.08,88,56.69,98.88c-7,9.13-4.35,13.47-11.23,19.4-8.7,7.51-20.45,6.45-27.08,14-11.74,12.31.78,20.05,3.4,40C4.48,159.65-.54,151.52.09,141c.77-6.63,3.16-11.65,10.68-17.26L146.49,13.31c4.26-3.09,8.69-8.3,12.39-8.3,5.88,0,9.09,2.64,10.15,8.3Z"/><path class="cls-1" d="M146.49,13.31C150.75,10.22,155.38,5,159.08,5,165,5,169,8.34,169,13.31"/><path class="cls-3" d="M103,244.49c2.22-.2,13.85-1,23,7.41,3.44,3.18,2.67,8.92,7.49,11.57,3.39,1.87,5.38.48,8.17,2.73,3.18,2.57,1.72,5.29,4.77,9.87,2.42,3.65,7.33,7.94,12.25,7.15,2.9-.46,4.75-2.52,5.93-3.83,5.4-6,4.73-14.22,4.45-16.6v18.64c.31,4.23-1.3,10-9.27,10.61-4.67.1-6.51-3.63-15.25-10.67Z"/><path class="cls-3" d="M219.93,127.3c3.49,2.71,9.19,7.32,16,7.83a27.93,27.93,0,0,0,12.25-2c18-6.41,40.7-2.93,66.05,2.38,10,2.11,7.68,2.26,12.93,3.07,23.39,3.61,46.62-3,55.15-6.81a32.08,32.08,0,0,1,5.79-2,35.79,35.79,0,0,1,14.3-.34c11.85,1.51,12.55-3,27.57-2.39,7.47.32,12.93.62,18.38,4.43a26,26,0,0,1,8.85,11.23c1.45,3.36,3.95,9.14,1.71,15.32-2.12,5.83-7.25,8.72-8.85,9.53-7.26,3.69-11.44-.11-25.88,0-9.62.08-10.12,1.79-20.42,2.05-9.46.24-12.92-1.28-22.13-2.05-6.57-.54-13.65-.35-27.92.86-5.11.43-6.55.67-13.1,1.36-7.18.76-17.63,1.75-30.64,2.62H440.52c15,0,23.37-8.16,22.76-23.9-.91-18-10.32-27-27.69-27.57H220.79Z"/><path class="cls-1" d="M169,93.94a45.06,45.06,0,0,1-2.55,9.88c-2.9,7.55-5.84,9.08-6.47,14-.59,4.68,1.06,11.54,5.45,14,6.21,3.42,12.36-5.11,25.53-6.13,8.71-.67,11.51,2.63,21.79,5.11,15.18,3.65,23.09-.19,42.55-2a177.21,177.21,0,0,1,45.28,1c18.47,2.82,18.37,6.15,33,6.81a132.34,132.34,0,0,0,37.11-4.09c11.51-3.24,16.06-6.58,26.21-6.13,4.42.2,8.09,1,15.32.68,7.68-.37,8.78-1.57,14.64-2,5.37-.43,19.48-1.55,27.57,7.15,3.45,3.71,4.35,8.46,5.79,15a87.72,87.72,0,0,1,1.33,12.74c1.21-1.64,2.14-5.92,1.56-18.66,0-3.95-2.49-20.29-20.85-20.29-23.22-.78-273.28,0-273.28,0Z"/><path class="cls-4" d="M237.46,51.29a18.77,18.77,0,0,1,4.35,12.63c0,11.2-7.66,17.45-21.5,17.45A44.74,44.74,0,0,1,206.06,79c-2.35-.8-4-2.42-6-4.54a8.9,8.9,0,0,1-2.16-5.87,6.31,6.31,0,0,1,.14-1.61l.66-3.85c.54-3.34,2.87-5.42,6-5.42a9,9,0,0,1,2.56.47,48.09,48.09,0,0,0,8,1.9c-5.69-2.61-10.18-5.3-13.51-9.46a18.46,18.46,0,0,1-4.21-11.89c0-10.48,7.54-16.92,19.91-16.92a41.09,41.09,0,0,1,11.38,1.73A10.62,10.62,0,0,1,234,27a9.88,9.88,0,0,1,3.15,7,7.91,7.91,0,0,1-.07,1.28l-.46,3.19c-.54,3.48-2.75,5.55-5.84,5.55a7.25,7.25,0,0,1-2.56-.47c-.67-.21-1.31-.39-1.93-.53a32.42,32.42,0,0,1,11.16,8.28Zm-1.89,8.65c0-8.43-4.91-12.43-15.18-16.27-4.77-1.79-8.25-2.68-8.25-5,0-2,2.54-3.19,6.31-3.19a25.43,25.43,0,0,1,7.34,1.27,5.83,5.83,0,0,0,1.68.33c1.63,0,2.61-1.07,2.92-3.07l.47-3.13a4.49,4.49,0,0,0,.06-.9A3.63,3.63,0,0,0,228,26.29a38.7,38.7,0,0,0-10.58-1.59c-7.28,0-17,2.69-17,14,0,8.75,5.77,11.76,16.38,16.34,3.25,1.39,5.86,2.48,5.86,5,0,2-1.74,3-5.11,3-2.8,0-6.34-.67-11.19-2.2a5.76,5.76,0,0,0-1.69-.32c-1.72,0-2.81,1.09-3.12,3l-.66,3.85a4.76,4.76,0,0,0-.07,1,3.76,3.76,0,0,0,2.83,3.79A41.63,41.63,0,0,0,217,74.47C229.17,74.47,235.57,69.5,235.57,59.94Z"/><path class="cls-4" d="M245.36,75.81a9.87,9.87,0,0,1-2.16-6.12V27.88c0-4.1,2.62-6.76,6.77-6.76h4.25a8.81,8.81,0,0,1,7.14,3.63c1.59,2,2.95,4.16,2.95,7.12v1.58c.75-.07,1.56-.12,2.32-.12,12,0,20.37,7.62,20.37,18.51V73.67c0,4.11-2.62,6.77-6.77,6.77H276c-3,0-5.44-1.38-7.93-4.63a9.93,9.93,0,0,1-2.15-6.12V52.17a6.42,6.42,0,0,0-1.59.3v21.2c0,4.11-2.63,6.77-6.77,6.77h-4.25C250.25,80.44,247.84,79.06,245.36,75.81Zm8.86-2.27c2.53,0,3.85-1.36,3.85-3.85V46.58a10.8,10.8,0,0,1,4.77-1.31c3.91,0,6,2.41,6,4.78V69.69c0,2.53,1.36,3.85,3.85,3.85h4.24c2.54,0,3.85-1.36,3.85-3.85V47.86c0-6.46-4-11.61-14.13-11.61a18.8,18.8,0,0,0-8.37,2l-.19-.12V27.88c0-2.53-1.36-3.84-3.85-3.84H250c-2.53,0-3.85,1.35-3.85,3.84V69.69c0,2.53,1.36,3.85,3.85,3.85Z"/><path class="cls-4" d="M292,76.21a10.2,10.2,0,0,1-2.49-6.52V41.16a6.34,6.34,0,0,1,2.83-5.73,9.33,9.33,0,0,1,6-16.44c3.41,0,6.84,2,9.46,5.49A12.76,12.76,0,0,1,311,32.33a9.29,9.29,0,0,1-3.28,7,6.5,6.5,0,0,1,2.89,5.79V73.67c0,4.11-2.63,6.77-6.77,6.77h-4.25C296.6,80.44,294.16,79.06,292,76.21Zm6.34-41.49a6.41,6.41,0,1,0,0-12.81A6.12,6.12,0,0,0,292,28.35a6.47,6.47,0,0,0,6.37,6.37Zm2.19,38.82c2.53,0,3.85-1.36,3.85-3.85V41.16c0-2.54-1.36-3.85-3.85-3.85h-4.25c-2.53,0-3.85,1.36-3.85,3.85V69.69c0,2.53,1.36,3.85,3.85,3.85Z"/><path class="cls-4" d="M315.17,76.21a10.58,10.58,0,0,1-2.42-6.52V41.16c0-4.11,2.62-6.77,6.77-6.77h4.25a8.91,8.91,0,0,1,4.72,1,19,19,0,0,1,8.42-2.1,19.43,19.43,0,0,1,15.69,7.81,17.46,17.46,0,0,1,3.95,10.7V73.67c0,4.11-2.62,6.77-6.77,6.77h-4.25c-3,0-5.44-1.38-7.6-4.23a10.25,10.25,0,0,1-2.48-6.52V52.11a4.09,4.09,0,0,0-1.6.48V73.67c0,4.11-2.62,6.77-6.77,6.77h-4.24C319.84,80.44,317.42,79.08,315.17,76.21Zm8.6-2.67c2.53,0,3.85-1.36,3.85-3.85V46.86a9.18,9.18,0,0,1,4.77-1.66c3.91,0,6,2.48,6,4.85V69.69c0,2.53,1.36,3.85,3.84,3.85h4.25c2.54,0,3.85-1.36,3.85-3.85V47.86c0-5.86-4.64-11.61-13.4-11.61a17.22,17.22,0,0,0-9.09,2.83l-.2-.11c0-1.06-1.25-1.66-3.85-1.66h-4.25c-2.53,0-3.85,1.36-3.85,3.85V69.69c0,2.53,1.36,3.85,3.85,3.85Z"/><path class="cls-4" d="M405.26,59.41v.13a6.23,6.23,0,0,1-3.94,6.22,6.42,6.42,0,0,1,1.55,4.53V71a7.55,7.55,0,0,1-4.19,7.22,37.31,37.31,0,0,1-15.52,3.27c-15,0-26.21-11.12-26.21-26.08,0-12.73,9.71-22,22.89-22C394.22,33.33,405.26,44.7,405.26,59.41ZM379.84,36.25c-11.16,0-20,7.56-20,19.11s8.81,19.18,20,19.18a32.92,32.92,0,0,0,14.21-3A4.62,4.62,0,0,0,396.63,67v-.66c0-2-.81-3.12-2.45-3.12a6.59,6.59,0,0,0-1.76.32,34.39,34.39,0,0,1-9.59,1.54c-7,0-10.37-1.9-10.29-5.71h22.63c2.55,0,3.85-1.37,3.92-4C399.48,43.8,390.94,36.25,379.84,36.25Zm7.43,16H372.48c-.08-4,3.5-6.37,7.36-6.37C384.43,45.93,387.34,48.46,387.27,52.3Z"/></g></g></svg>