<svg xmlns="http://www.w3.org/2000/svg" viewBox="0 0 515.4 289.86"><defs><style>.cls-1{fill:#63852d;}.cls-2{fill:#8cae39;}.cls-3{fill:#4e7b2e;}.cls-4{fill:#031926;}</style></defs><g id="Layer_2" data-name="Layer 2"><g id="arrow"><path class="cls-1" d="M156.35,129.35c13.7.81,26-1.3,39.26-3.81l4.46-.84c3-.69,6-.73,9.22-1.7q2.37-.42,4.8-.81c1.63-.26,3.28-.52,4.95-.76,14.19-1.93,24.69-3.3,24.69-3.3s-10.65-7.07-12.47-11.63c0,0,7.35,2.13,16.66,4.55s20.59,5.14,28.44,6.35c3,.13,4.75.23,7.35.39-4.21-1.89-11.88-4-11.46-9.72,7.61,2.92,15.22,5.83,23.82,7.16-4.15-2.71-7.37-6.19-8.74-11.2,16,7.52,32,14.22,49.25,16.06-14.48-4.14-21.37-2.68-26.4-16.94,18.44,9.3,38.68,3.69,42.25,26.09-.24,3.28-4.93,7.93-3.5,12.12l2.59.16c-18.12-1.89-35.43-2.92-53.54-3.87-7.91-.5-16.4-1-25.26-1.54l-27.52-1.63q-8.47-.51-17.17-1c-42.68-1.57-21.72-3.16-63.94-6.69"/><path class="cls-1" d="M260.31,135.35s7.54.75,15.39-5c4.81-4.57,11.11-7.49,15.74-11.32-6.93-.41-14.84.76-21.65.62-7.34.53-13.3,1.11-13.3,1.11-4.49-1-9.41-1.94-14.62-3-4.34-.89-8.87-1.88-13.53-3.07-.94-.24-1.87-.48-2.82-.74-11.65-4.09-25.64-2.93-34.76-12.82-2.94,5-1.88,10,.18,15a44.2,44.2,0,0,1-9.37-.58c-1.6-.15-3.17-.35-4.72-.57a106.81,106.81,0,0,1-20.16-5.07c-1.28-.45-2.55-.92-3.82-1.39-7.05-2.49-14.83-3.49-22.06-7-1-.5-2.06-1-3.07-1.66a27.32,27.32,0,0,1,1.27,3c1.11,2.9,2.08,5.51,5.85,7a23.23,23.23,0,0,1-3-.18c-1-.13-2-.32-3-.54-8-3.12-17-2-25-3.92,3.06,5,7.11,8.92,13.12,9.85-11-.87-21-3.76-32.36-4.93-1.36-.22-2.72-.45-4.07-.72a58.59,58.59,0,0,1-18.84-6.67c2.85,9.75,13.92,16.8,28.22,20.83.8.23,1.6.44,2.42.65,3.74.08,7.77,3,12.77,2.38"/><path class="cls-1" d="M486.2,132.32,433.81,83.58l-5.2-4.84c-6.47-6.68-14.4-12.38-20.78-19.34l-5-4.69L386.4,39.46l-7.18-6.67c-5.84-5.89-12.84-11.68-18.92-17.55C360.9,11.35,362.53,4.4,374,0c-1,12.16,4.14,24.6,14.66,31.87-.14-1.63,3.19-9.43,7.06-10.88.52,3.76,17.11,31.23,25.46,35.43-3.31-6.15-1.84-15.55,4.78-19,3,11.73,10.69,21.15,19.44,28.62-.71-3.63-1.31-9.13,2.55-12.28,2.4,6,4.8,12,7.54,17.55q1.37,2.78,2.85,5.37c5.19,8.85,8.22,13.46,16.15,19.15-4.24-6.06-2.71-10.19-.42-17.81,9.39,17.82,10.07,26.39,19.91,32.49-3.37-5.22-6.26-9.06-5.87-15.58,10.8,8.9,23.56,28.34,22.89,33.83-6.73,2.95-12.75,6.24-25.84,2.61"/><rect class="cls-2" x="52.24" y="118.65" width="356.94" height="51.47" rx="20.3" transform="translate(461.41 288.77) rotate(-180)"/><path class="cls-2" d="M346.36,11.84V280.78a9.07,9.07,0,0,0,15.09,6.77L508,157.37a22.12,22.12,0,0,0-.73-33.69L361.15,4.81A9.07,9.07,0,0,0,346.36,11.84Z"/><path class="cls-3" d="M346.36,86c.68-5.91,1.85-14.52,3.92-24.85,4.19-20.88,7.09-23.84,9.87-25.19,5.79-2.82,14.63-.4,18.38,4.76,4,5.49-.22,10.69,3.41,14.64,4.53,4.93,13.46-.6,25.19,1.7,8.3,1.63,15,6.6,20.43,12.6L416.15,52.44,393.34,39.33,371.05,20.1,353.68,24l-5.95,9.36-1.2,16.17Z"/><path class="cls-1" d="M346.36,65c.54-21.62,8-37.76,17.88-39.83a14.63,14.63,0,0,1,8.68,1c9.34,4.26,6.65,16,15.32,23,7,5.6,11.41.16,21.95,5.11,10.35,4.86,11.39,12.61,21.45,23.49,11.67,12.62,18.67,8,27.06,18.89,7,9.14,4.35,13.47,11.24,19.41,8.7,7.5,20.45,6.44,27.08,14,11.74,12.31-.78,20-3.4,40,17.3-12.66,22.32-20.79,21.69-31.31-.78-6.63-3.16-11.65-10.68-17.25L368.91,11.13c-4.26-3.1-8.69-8.3-12.4-8.3-5.87,0-9.08,2.63-10.15,8.3Z"/><path class="cls-1" d="M368.91,11.13C364.65,8,360,2.76,356.32,2.76c-5.87,0-10,3.39-10,8.37"/><path class="cls-3" d="M412.38,242.3c-2.22-.19-13.86-1-22.95,7.41-3.44,3.18-2.68,8.93-7.49,11.58-3.39,1.87-5.38.47-8.17,2.72-3.18,2.57-1.73,5.29-4.77,9.87-2.42,3.66-7.33,7.94-12.25,7.15-2.9-.46-4.75-2.51-5.93-3.82-5.4-6-4.73-14.23-4.46-16.6v18.64c-.3,4.22,1.31,10,9.28,10.6,4.67.1,6.51-3.63,15.25-10.67Z"/><path class="cls-3" d="M295.47,125.12c-3.5,2.71-9.19,7.31-16,7.83a28.08,28.08,0,0,1-12.25-2c-18-6.41-40.7-2.94-66.05,2.38-10,2.1-7.68,2.25-12.93,3.06-23.39,3.61-46.62-3-55.15-6.81a32.91,32.91,0,0,0-5.79-2,35.79,35.79,0,0,0-14.3-.34c-11.85,1.51-12.55-3-27.57-2.38-7.47.31-12.93.62-18.38,4.42a26.11,26.11,0,0,0-8.86,11.24c-1.44,3.35-3.94,9.13-1.7,15.32,2.12,5.82,7.25,8.71,8.85,9.53,7.26,3.68,11.43-.12,25.88,0,9.61.08,10.12,1.78,20.42,2,9.46.24,12.92-1.27,22.13-2,6.57-.55,13.65-.35,27.91.85,5.12.43,6.56.67,13.11,1.36,7.18.76,17.63,1.76,30.64,2.62H74.88c-15,0-23.38-8.15-22.76-23.9.91-18,10.32-27,27.69-27.57h214.8Z"/><path class="cls-1" d="M346.36,91.76a45.72,45.72,0,0,0,2.56,9.87c2.9,7.55,5.84,9.08,6.47,14,.59,4.67-1.06,11.53-5.45,13.95-6.21,3.43-12.36-5.1-25.53-6.12-8.72-.68-11.51,2.63-21.79,5.1-15.19,3.66-23.09-.18-42.55-2a177.2,177.2,0,0,0-45.28,1c-18.48,2.83-18.37,6.15-33,6.81a132.34,132.34,0,0,1-37.11-4.09c-11.51-3.24-16.06-6.58-26.21-6.12-4.42.19-8.09,1-15.32.68-7.68-.38-8.78-1.58-14.64-2-5.38-.43-19.49-1.55-27.57,7.14-3.45,3.71-4.35,8.46-5.79,15A87.84,87.84,0,0,0,53.8,157.6c-1.21-1.64-2.14-5.92-1.56-18.65,0-4,2.49-20.3,20.85-20.3,23.22-.77,273.27,0,273.27,0Z"/><path class="cls-4" d="M2.22,73.82A10.68,10.68,0,0,1,0,67.5V27.36c0-4.11,2.62-6.77,6.77-6.77H20.84c10.27,0,17.18,2.7,21.87,8.68,2.71,3.48,4.14,8.25,4.14,13.61,0,12.93-7.52,20-21.43,20H21.9v8.63c0,4.1-2.62,6.76-6.77,6.76h-5C7.06,78.25,4.66,76.88,2.22,73.82Zm9.59-2.47c2.54,0,3.85-1.36,3.85-3.85V56H22.1C34.4,56,40.61,50.2,40.61,38.9c0-10.61-6.19-15.39-19.77-15.39H6.77c-2.53,0-3.85,1.36-3.85,3.85V67.5c0,2.54,1.36,3.85,3.85,3.85ZM15.66,32.4h4.25c4.52,0,8.16.69,8.16,7,0,6.87-3.63,7.7-8.29,7.7H15.66Zm7.5,11.88c.59,0,2.39-.31,2.39-2.86,0-1.83-1.35-2.32-3.05-2.32h-.8v5.18Z"/><path class="cls-4" d="M52.19,74a10.28,10.28,0,0,1-2.48-6.53V39a6.34,6.34,0,0,1,2.82-5.73,9.32,9.32,0,0,1,6-16.43c3.41,0,6.84,2,9.46,5.48a12.77,12.77,0,0,1,3.22,7.85,9.25,9.25,0,0,1-3.29,7A6.51,6.51,0,0,1,70.81,43V71.49c0,4.1-2.62,6.76-6.77,6.76H59.79C56.78,78.25,54.35,76.87,52.19,74ZM65,26.16a6.55,6.55,0,0,0-6.44-6.43,6.12,6.12,0,0,0-6.37,6.43,6.41,6.41,0,0,0,12.81,0ZM60.72,71.35c2.53,0,3.85-1.36,3.85-3.85V39c0-2.53-1.36-3.85-3.85-3.85H56.47c-2.53,0-3.85,1.36-3.85,3.85V67.5c0,2.54,1.36,3.85,3.85,3.85Z"/><path class="cls-4" d="M75.35,74a10.58,10.58,0,0,1-2.42-6.52V39c0-4.1,2.62-6.77,6.77-6.77H84a9,9,0,0,1,4.72,1,19,19,0,0,1,8.42-2.1A19.49,19.49,0,0,1,112.79,39a17.52,17.52,0,0,1,3.94,10.7V71.49c0,4.1-2.62,6.76-6.77,6.76h-4.25c-3,0-5.44-1.38-7.6-4.22a10.28,10.28,0,0,1-2.48-6.53V49.92A4.17,4.17,0,0,0,94,50.4V71.49c0,4.1-2.63,6.76-6.77,6.76H83C80,78.25,77.6,76.89,75.35,74ZM84,71.35c2.53,0,3.85-1.36,3.85-3.85V44.67A9.25,9.25,0,0,1,92.58,43c3.91,0,6,2.47,6,4.84V67.5c0,2.54,1.36,3.85,3.85,3.85h4.24c2.54,0,3.85-1.36,3.85-3.85V45.67c0-5.86-4.64-11.61-13.4-11.61A17.22,17.22,0,0,0,88,36.89l-.2-.11c0-1.06-1.24-1.66-3.85-1.66H79.7c-2.53,0-3.85,1.36-3.85,3.85V67.5c0,2.54,1.36,3.85,3.85,3.85Z"/><path class="cls-4" d="M137.43,79.25c-7.34,0-13-2.55-16.89-7.55a16.8,16.8,0,0,1-3.41-10.1,15.28,15.28,0,0,1,7-12.65c.14-.1.12-.25-.16-.36-1.89-.63-3.21-2.44-3.6-5a29.08,29.08,0,0,1-.27-2.93,6,6,0,0,1,2.72-5.42c4-2.51,10.36-4.07,16.33-4.07,8.35,0,14.92,2.86,19.41,8.41a21.59,21.59,0,0,1,4.41,13.16V71.49c0,4.1-2.62,6.76-6.77,6.76h-3.32a7.64,7.64,0,0,1-5-1.56,20.36,20.36,0,0,1-10.4,2.56Zm-3.31-6.9c6.54,0,9.68-2.53,11-3.67.76,1.86,2.14,2.67,4.39,2.67h3.32c2.53,0,3.85-1.36,3.85-3.85V48.72c0-11-8.72-14.66-17.59-14.66-5.65,0-11.25,1.4-14.79,3.63A3.1,3.1,0,0,0,123,40.56a22,22,0,0,0,.26,2.57c.31,1.87,1.16,2.87,2.52,2.87a5.65,5.65,0,0,0,2.27-.65,22.17,22.17,0,0,1,9.55-2.46c4.36,0,7.43,1.86,7.43,4.44v2.19A21.16,21.16,0,0,0,137,48c-8.79,0-17,5.24-17,13.6,0,8.85,8.31,10.75,14.07,10.75Zm3.64-8.1c-2.83,0-4.64-1.5-4.64-4,0-3.41,4.09-5.11,8.23-5.11a15.69,15.69,0,0,1,3.65.43v4.33c-1.27,2.95-3.58,4.33-7.23,4.33Z"/><path class="cls-4" d="M172.71,73.1c-3.35-3.48-3.62-10.3-3.55-15.62V50.86a17.39,17.39,0,0,1-3.88-3.44A9.25,9.25,0,0,1,162.66,41V39c0-4.07,2.58-6.71,6.5-6.77v-.86c0-4.1,2.62-6.77,6.77-6.77h4.24a8.51,8.51,0,0,1,7.35,4.18c.59,1.05,1.31,2.16,2.16,3.53,2.66.42,4.54,2.1,6.33,4.22A10.25,10.25,0,0,1,198.42,43v2c0,4.11-2.62,6.77-6.76,6.77h-1.4v8.87a4.2,4.2,0,0,1,1.49,1.06L195,65.22a8.09,8.09,0,0,1,2.56,5.54v.73a6.69,6.69,0,0,1-5.81,7.09,29.55,29.55,0,0,1-6,.67C179.27,79.25,176,76.63,172.71,73.1Zm15.2-1.35a3.87,3.87,0,0,0,3.41-4.25v-.73c0-2.17-1-3.72-2.58-3.78-3.2,0-4.72-1.73-4.72-5.51V44.81h4.32c2.53,0,3.85-1.36,3.85-3.85V39c0-2.53-1.36-3.85-3.85-3.85H184V31.34c0-2.53-1.36-3.85-3.85-3.85h-4.24c-2.54,0-3.85,1.36-3.85,3.85v3.78h-2.66c-2.53,0-3.84,1.36-3.84,3.85v2c0,2.53,1.36,3.85,3.84,3.85h2.66V57.49c-.07,7.29.26,14.86,10.35,14.86A29.6,29.6,0,0,0,187.91,71.75Z"/><path class="cls-4" d="M245.81,57.22v.13a6.25,6.25,0,0,1-3.94,6.23,6.39,6.39,0,0,1,1.55,4.52v.67A7.59,7.59,0,0,1,239.23,76a37.49,37.49,0,0,1-15.52,3.26c-15,0-26.21-11.12-26.21-26.08,0-12.72,9.71-22,22.89-22C234.77,31.14,245.81,42.51,245.81,57.22ZM220.39,34.06c-11.17,0-20,7.56-20,19.11s8.81,19.18,20,19.18a33.07,33.07,0,0,0,14.21-3,4.65,4.65,0,0,0,2.58-4.6v-.66c0-2-.81-3.12-2.46-3.12a6.26,6.26,0,0,0-1.75.33,34.4,34.4,0,0,1-9.59,1.53c-7,0-10.37-1.9-10.29-5.71h22.63c2.54,0,3.85-1.37,3.91-4C240,41.62,231.49,34.06,220.39,34.06Zm7.43,16.06H213c-.08-4,3.5-6.37,7.36-6.37C225,43.75,227.89,46.27,227.82,50.12Z"/><path class="cls-4" d="M255.3,78.25a10,10,0,0,1-7.46-3.62,7.29,7.29,0,0,1-2.16-5.13A7.57,7.57,0,0,1,247.16,65l8.44-11.8-8.37-11.8a6.87,6.87,0,0,1-1.49-4.06c0-3.05,2.53-5.18,6.24-5.18h5a9.2,9.2,0,0,1,8.08,4.11L268,41l2.74-4.66a7.81,7.81,0,0,1,7.15-4.11H283a9.89,9.89,0,0,1,7.46,3.69A7,7,0,0,1,292.59,41,7.22,7.22,0,0,1,291,45.42l-8.44,11.8L291,69a6.87,6.87,0,0,1,1.49,4.06c0,3-2.53,5.17-6.24,5.17h-5.11c-2.89,0-5-1.12-7.14-4-1.3-1.67-3.05-3.79-3.66-4.56l-2.83,4.55a7.92,7.92,0,0,1-7.14,4Zm1.79-6.9a5,5,0,0,0,4.67-2.59l5.68-9.07,5.76,9.07a5,5,0,0,0,4.66,2.59H283c2,0,3.32-.87,3.32-2.32a4,4,0,0,0-.9-2.31l-9.68-13.48,9.68-13.49a4,4,0,0,0,.9-2.31c0-1.44-1.29-2.32-3.32-2.32h-5.11a4.8,4.8,0,0,0-4.6,2.66l-5.82,9.74-5.75-9.74A4.89,4.89,0,0,0,257,35.12h-5c-2,0-3.32.88-3.32,2.32a4,4,0,0,0,.91,2.32l9.61,13.48-9.62,13.48a4,4,0,0,0-.9,2.31c0,1.45,1.3,2.32,3.32,2.32Z"/></g></g></svg>