<svg xmlns="http://www.w3.org/2000/svg" viewBox="0 0 463.34 289.86"><defs><style>.cls-1{fill:#63852d;}.cls-2{fill:#8cae39;}.cls-3{fill:#4e7b2e;}.cls-4{fill:#031926;}</style></defs><g id="Layer_2" data-name="Layer 2"><g id="arrow"><path class="cls-1" d="M104.29,129.35c13.7.81,26-1.3,39.26-3.81l4.46-.84c3-.69,6-.73,9.22-1.7q2.37-.42,4.8-.81c1.62-.26,3.27-.52,4.95-.76,14.19-1.93,24.69-3.3,24.69-3.3S181,111.06,179.2,106.5c0,0,7.35,2.13,16.66,4.55s20.59,5.14,28.44,6.35c3,.13,4.75.23,7.34.39-4.2-1.89-11.88-4-11.45-9.72,7.61,2.92,15.22,5.83,23.82,7.16-4.15-2.71-7.37-6.19-8.74-11.2,16,7.52,32,14.22,49.25,16.06-14.48-4.14-21.37-2.68-26.41-16.94,18.45,9.3,38.69,3.69,42.26,26.09-.24,3.28-4.94,7.93-3.51,12.12l2.6.16c-18.12-1.89-35.44-2.92-53.54-3.87-7.91-.5-16.4-1-25.26-1.54l-27.52-1.63q-8.47-.51-17.17-1c-42.68-1.57-21.73-3.16-63.95-6.69"/><path class="cls-1" d="M208.25,135.35s7.54.75,15.39-5c4.8-4.57,11.11-7.49,15.74-11.32-6.93-.41-14.84.76-21.65.62-7.35.53-13.3,1.11-13.3,1.11-4.49-1-9.41-1.94-14.62-3-4.34-.89-8.87-1.88-13.54-3.07-.93-.24-1.87-.48-2.81-.74-11.66-4.09-25.64-2.93-34.76-12.82-2.94,5-1.88,10,.18,15a44.33,44.33,0,0,1-9.38-.58c-1.59-.15-3.17-.35-4.72-.57a106.71,106.71,0,0,1-20.15-5.07c-1.28-.45-2.55-.92-3.82-1.39-7-2.49-14.83-3.49-22.07-7-1-.5-2-1-3.06-1.66a29.47,29.47,0,0,1,1.27,3c1.11,2.9,2.08,5.51,5.85,7a23.23,23.23,0,0,1-3-.18c-1-.13-2-.32-3-.54-8-3.12-17-2-25-3.92,3.06,5,7.11,8.92,13.12,9.85-11-.87-21-3.76-32.36-4.93-1.37-.22-2.73-.45-4.07-.72A58.51,58.51,0,0,1,9.59,102.7c2.85,9.75,13.92,16.8,28.22,20.83.8.23,1.6.44,2.41.65,3.75.08,7.78,3,12.78,2.38"/><path class="cls-1" d="M434.14,132.32,381.75,83.58l-5.2-4.84c-6.47-6.68-14.4-12.38-20.79-19.34l-5-4.69-16.4-15.25-7.17-6.67c-5.84-5.89-12.84-11.68-18.92-17.55C308.84,11.35,310.47,4.4,322,0c-1,12.16,4.14,24.6,14.65,31.87-.13-1.63,3.19-9.43,7.06-10.88.52,3.76,17.12,31.23,25.47,35.43-3.31-6.15-1.85-15.55,4.78-19,3,11.73,10.69,21.15,19.43,28.62-.7-3.63-1.3-9.13,2.56-12.28,2.4,6,4.8,12,7.54,17.55.91,1.85,1.85,3.64,2.85,5.37,5.19,8.85,8.22,13.46,16.15,19.15-4.24-6.06-2.71-10.19-.43-17.81,9.4,17.82,10.08,26.39,19.92,32.49-3.37-5.22-6.26-9.06-5.88-15.58,10.81,8.9,23.57,28.34,22.9,33.83-6.74,2.95-12.75,6.24-25.84,2.61"/><rect class="cls-2" x="0.17" y="118.65" width="356.94" height="51.47" rx="20.3" transform="translate(357.29 288.77) rotate(-180)"/><path class="cls-2" d="M294.3,11.84V280.78a9.06,9.06,0,0,0,15.08,6.77L455.91,157.37a22.12,22.12,0,0,0-.73-33.69L309.08,4.81A9.06,9.06,0,0,0,294.3,11.84Z"/><path class="cls-3" d="M294.3,86c.68-5.91,1.84-14.52,3.92-24.85,4.19-20.88,7.09-23.84,9.87-25.19,5.79-2.82,14.63-.4,18.38,4.76,4,5.49-.23,10.69,3.41,14.64,4.53,4.93,13.46-.6,25.19,1.7,8.3,1.63,15,6.6,20.42,12.6l-11.4-17.19L341.28,39.33,319,20.1,301.62,24l-6,9.36-1.19,16.17Z"/><path class="cls-1" d="M294.3,65c.54-21.62,8-37.76,17.87-39.83a14.66,14.66,0,0,1,8.69,1c9.34,4.26,6.65,16,15.31,23,7,5.6,11.42.16,22,5.11,10.35,4.86,11.39,12.61,21.45,23.49,11.67,12.62,18.67,8,27.06,18.89,7,9.14,4.35,13.47,11.24,19.41,8.7,7.5,20.45,6.44,27.08,14,11.73,12.31-.79,20-3.4,40,17.3-12.66,22.32-20.79,21.68-31.31-.77-6.63-3.15-11.65-10.67-17.25L316.84,11.13c-4.25-3.1-8.69-8.3-12.39-8.3-5.87,0-9.08,2.63-10.15,8.3Z"/><path class="cls-1" d="M316.84,11.13C312.59,8,308,2.76,304.26,2.76c-5.87,0-10,3.39-10,8.37"/><path class="cls-3" d="M360.32,242.3c-2.22-.19-13.86-1-22.95,7.41-3.44,3.18-2.68,8.93-7.49,11.58-3.4,1.87-5.38.47-8.17,2.72-3.19,2.57-1.73,5.29-4.77,9.87-2.42,3.66-7.34,7.94-12.25,7.15-2.9-.46-4.75-2.51-5.94-3.82-5.39-6-4.72-14.23-4.45-16.6v18.64c-.3,4.22,1.31,10,9.27,10.6,4.68.1,6.52-3.63,15.26-10.67Z"/><path class="cls-3" d="M243.41,125.12c-3.5,2.71-9.19,7.31-16,7.83a28.13,28.13,0,0,1-12.26-2c-18-6.41-40.69-2.94-66,2.38-10,2.1-7.68,2.25-12.94,3.06-23.38,3.61-46.62-3-55.14-6.81a32.91,32.91,0,0,0-5.79-2,35.79,35.79,0,0,0-14.3-.34c-11.85,1.51-12.55-3-27.57-2.38-7.47.31-12.93.62-18.39,4.42a26.06,26.06,0,0,0-8.85,11.24c-1.45,3.35-3.94,9.13-1.7,15.32,2.11,5.82,7.24,8.71,8.85,9.53,7.26,3.68,11.43-.12,25.87,0,9.62.08,10.13,1.78,20.43,2,9.46.24,12.91-1.27,22.13-2,6.56-.55,13.65-.35,27.91.85,5.12.43,6.55.67,13.11,1.36,7.18.76,17.62,1.76,30.64,2.62H22.81c-15,0-23.37-8.15-22.75-23.9.91-18,10.32-27,27.69-27.57h214.8Z"/><path class="cls-1" d="M294.3,91.76a45.14,45.14,0,0,0,2.56,9.87c2.89,7.55,5.84,9.08,6.46,14,.6,4.67-1.05,11.53-5.44,13.95-6.22,3.43-12.36-5.1-25.54-6.12-8.71-.68-11.5,2.63-21.78,5.1-15.19,3.66-23.09-.18-42.56-2a177.13,177.13,0,0,0-45.27,1c-18.48,2.83-18.38,6.15-33,6.81a132.34,132.34,0,0,1-37.11-4.09c-11.51-3.24-16.06-6.58-26.21-6.12-4.42.19-8.09,1-15.32.68-7.68-.38-8.78-1.58-14.64-2-5.38-.43-19.49-1.55-27.57,7.14-3.45,3.71-4.36,8.46-5.79,15A84.91,84.91,0,0,0,1.74,157.6C.53,156-.4,151.68.17,139c0-4,2.49-20.3,20.86-20.3,23.22-.77,273.27,0,273.27,0Z"/><path class="cls-4" d="M84.46,49.1a18.79,18.79,0,0,1,4.35,12.63c0,11.2-7.66,17.45-21.5,17.45a44.94,44.94,0,0,1-14.25-2.39c-2.35-.81-4-2.42-6-4.55a8.89,8.89,0,0,1-2.16-5.86,6.38,6.38,0,0,1,.14-1.62l.66-3.85c.53-3.33,2.87-5.42,6-5.42a9,9,0,0,1,2.56.47,47.1,47.1,0,0,0,8,1.9c-5.69-2.61-10.18-5.3-13.51-9.45a18.48,18.48,0,0,1-4.21-11.89c0-10.49,7.53-16.93,19.91-16.93a41.09,41.09,0,0,1,11.38,1.73A10.8,10.8,0,0,1,81,24.81a9.88,9.88,0,0,1,3.15,7,7.85,7.85,0,0,1-.07,1.28l-.46,3.19c-.54,3.48-2.75,5.55-5.84,5.55a7,7,0,0,1-2.56-.47c-.67-.21-1.32-.39-1.93-.53A32.67,32.67,0,0,1,84.46,49.1Zm-1.89,8.65c0-8.43-4.91-12.43-15.18-16.27-4.77-1.79-8.25-2.67-8.25-5,0-1.94,2.54-3.18,6.31-3.18a25,25,0,0,1,7.33,1.27,6.27,6.27,0,0,0,1.69.32c1.63,0,2.61-1.07,2.92-3.07l.47-3.13a4.49,4.49,0,0,0,.06-.9A3.63,3.63,0,0,0,75,24.1a39.09,39.09,0,0,0-10.58-1.59c-7.28,0-17,2.69-17,14,0,8.75,5.77,11.76,16.38,16.34,3.25,1.39,5.85,2.49,5.85,5,0,2-1.73,3-5.1,3A38.44,38.44,0,0,1,53.4,58.74a5.48,5.48,0,0,0-1.69-.33c-1.72,0-2.81,1.09-3.12,3l-.66,3.85a4.81,4.81,0,0,0-.07,1A3.76,3.76,0,0,0,50.69,70,41.59,41.59,0,0,0,64,72.28C76.17,72.28,82.57,67.31,82.57,57.75Z"/><path class="cls-4" d="M92.35,73.63a10,10,0,0,1-2.15-6.12V25.7c0-4.1,2.62-6.77,6.77-6.77h4.25a8.81,8.81,0,0,1,7.14,3.63c1.59,2,2.94,4.16,2.94,7.12v1.58c.76-.06,1.57-.12,2.33-.12,12,0,20.37,7.62,20.37,18.51V71.49c0,4.1-2.62,6.77-6.77,6.77H123c-3,0-5.44-1.39-7.93-4.63a10,10,0,0,1-2.15-6.12V50a7,7,0,0,0-1.6.29V71.49c0,4.1-2.62,6.77-6.76,6.77h-4.25C97.25,78.26,94.84,76.87,92.35,73.63Zm8.87-2.28c2.53,0,3.85-1.36,3.85-3.84V44.4a10.69,10.69,0,0,1,4.77-1.32c3.91,0,6,2.41,6,4.78V67.51c0,2.53,1.36,3.84,3.85,3.84h4.24c2.54,0,3.85-1.36,3.85-3.84V45.67c0-6.46-4-11.61-14.13-11.61a18.94,18.94,0,0,0-8.37,2l-.19-.12V25.7c0-2.53-1.36-3.85-3.85-3.85H97c-2.53,0-3.85,1.36-3.85,3.85V67.51c0,2.53,1.36,3.84,3.85,3.84Z"/><path class="cls-4" d="M139,74a10.28,10.28,0,0,1-2.49-6.52V39a6.35,6.35,0,0,1,2.83-5.73,9.32,9.32,0,0,1,6-16.43c3.41,0,6.84,2,9.46,5.48A12.79,12.79,0,0,1,158,30.14a9.28,9.28,0,0,1-3.28,7A6.51,6.51,0,0,1,157.63,43V71.49c0,4.1-2.63,6.77-6.77,6.77h-4.25C143.6,78.26,141.16,76.87,139,74Zm12.78-47.87a6.55,6.55,0,0,0-6.44-6.43A6.12,6.12,0,0,0,139,26.16a6.41,6.41,0,0,0,12.81,0Zm-4.25,45.19c2.53,0,3.85-1.36,3.85-3.84V39c0-2.53-1.36-3.85-3.85-3.85h-4.25c-2.53,0-3.85,1.36-3.85,3.85V67.51c0,2.53,1.36,3.84,3.85,3.84Z"/><path class="cls-4" d="M162.17,74a10.58,10.58,0,0,1-2.42-6.51V39c0-4.1,2.62-6.77,6.77-6.77h4.25a9,9,0,0,1,4.72,1,19,19,0,0,1,8.42-2.1A19.46,19.46,0,0,1,199.6,39a17.46,17.46,0,0,1,4,10.7V71.49c0,4.1-2.62,6.77-6.77,6.77h-4.25c-3,0-5.44-1.39-7.6-4.23a10.27,10.27,0,0,1-2.48-6.52V49.92a4.27,4.27,0,0,0-1.6.48V71.49c0,4.1-2.62,6.77-6.77,6.77h-4.24C166.84,78.26,164.42,76.89,162.17,74Zm8.6-2.67c2.53,0,3.85-1.36,3.85-3.84V44.67A9.25,9.25,0,0,1,179.39,43c3.91,0,6,2.47,6,4.84V67.51c0,2.53,1.36,3.84,3.84,3.84h4.25c2.53,0,3.85-1.36,3.85-3.84V45.67c0-5.86-4.64-11.61-13.4-11.61a17.22,17.22,0,0,0-9.09,2.83l-.2-.11c0-1.06-1.25-1.66-3.85-1.66h-4.25c-2.53,0-3.85,1.36-3.85,3.85V67.51c0,2.53,1.36,3.84,3.85,3.84Z"/><path class="cls-4" d="M252.26,57.22v.13a6.25,6.25,0,0,1-3.94,6.23,6.39,6.39,0,0,1,1.55,4.52v.67A7.57,7.57,0,0,1,245.68,76a37.46,37.46,0,0,1-15.52,3.26c-15,0-26.21-11.12-26.21-26.08,0-12.72,9.71-22,22.89-22C241.22,31.14,252.26,42.51,252.26,57.22ZM226.84,34.06c-11.16,0-20,7.56-20,19.11s8.81,19.18,20,19.18a33.07,33.07,0,0,0,14.21-3,4.65,4.65,0,0,0,2.58-4.6v-.66c0-2-.81-3.12-2.45-3.12a6.26,6.26,0,0,0-1.76.33,34.4,34.4,0,0,1-9.59,1.53c-7,0-10.37-1.9-10.29-5.71h22.63c2.55,0,3.85-1.37,3.92-4C246.48,41.62,237.94,34.06,226.84,34.06Zm7.43,16.06H219.48c-.08-4,3.5-6.37,7.36-6.37C231.43,43.75,234.34,46.27,234.27,50.12Z"/></g></g></svg>